<?xml version="1.0" encoding="utf-8" ?>
<svg baseProfile="full" height="256" version="1.1" width="256" xmlns="http://www.w3.org/2000/svg" xmlns:ev="http://www.w3.org/2001/xml-events" xmlns:xlink="http://www.w3.org/1999/xlink"><defs /><g style="fill-opacity: 0.0;stroke: rgb(0.0 0.0 0.0);fill: rgb(256.0 256.0 256.0);stroke-width: 2.5600000000000005;"><path d="M 0.24332287807384034 0.24332287807565933 C 81.35062446507048 -0.08110762599603277 162.4588993445508 -0.08110762599602783 243.56620093154555 0.24332287807220895 C 243.89063143561884 81.35062446506885 243.89063143561884 162.45889934454914 243.5662009315506 243.5662009315439 C 162.45889934455232 243.8906314356172 81.35062446507204 243.8906314356172 0.24332287807727115 243.56620093154896 C -0.08110762599439147 162.45889934455067 -0.08110762599439147 81.35062446507041 0.24332287807384034 0.24332287807563233" style="vector-effect: non-scaling-stroke;" /></g><g style="fill-opacity: 1.0;stroke: rgb(0.0 0.0 0.0);fill: rgb(0.0 0.0 0.0);stroke-width: 2.5600000000000005;"><path d="M 92.48205469661303 125.0580355034954 C 92.48205469661303 121.260850178953 91.57300284834353 116.26106501347076 84.71723682597772 116.26106501347076 C 80.90111292126304 116.26106501347076 78.4201589186942 118.12651516044046 76.65887096267204 120.17188181904683 L 76.65887096267204 100.8450607532338 72.17989675192752 100.8450607532338 L 72.17989675192752 142.66144577363085 76.78197173379186 142.66144577363085 L 76.78197173379186 128.06926975088814 76.78197173379186 124.28155371643187 C 78.24024240705752 119.93514956689333 82.3593835945287 119.93514956689333 87.69059391302588 119.93514956689333 C 87.87051042466254 123.49560263928221 87.87051042466254 125.55043858797472 87.87051042466254 142.66144577363085 L 92.48205469661303 142.66144577363085 92.48205469661303 125.0580355034954 Z M 120.70703079553917 129.9252506077717 C 120.70703079553917 127.90829181942374 120.59339931450549 123.99747501384766 118.65219484684664 120.75897780438756 C 116.53107386755116 117.2742790526878 113.07478298610982 116.29894217381532 110.47072821242114 116.29894217381532 C 104.16418101505147 116.29894217381532 98.8329706965543 122.24565634791165 98.8329706965543 129.94418918794398 C 98.8329706965543 137.4533362262535 104.34409752668815 143.57049762190036 111.31349503008767 143.57049762190036 C 114.04065057489616 143.57049762190036 117.37384068521767 142.7845465447507 120.40401351278265 140.6160791150245 C 120.40401351278265 140.36987757278482 120.29038203174898 139.04417696072514 120.22409700114599 138.9873612202083 C 120.22409700114599 138.86426044908848 120.04418048950933 136.99881030211876 120.04418048950933 136.7526087598791 C 117.13710843306416 139.11046199132812 113.80391832274265 139.88694377839164 111.37978006069063 139.88694377839164 C 107.49737112537298 139.88694377839164 103.32141419738495 136.64844656893155 103.13202839566215 129.9252506077717 L 120.70703079553917 129.9252506077717 97.01486700001529 142.96446305638736 M 103.62443148014145 126.60152978753634 C 104.41038255729114 123.23046251687026 107.07125307149664 120.03931175784086 110.47072821242114 120.03931175784086 C 111.37978006069063 120.03931175784086 115.62202201928164 120.03931175784086 116.71099037918782 126.60152978753634 L 103.62443148014145 126.60152978753634 97.01486700001529 142.96446305638736 M 131.3114797728167 101.1480780359903 L 126.83250556207219 101.1480780359903 126.83250556207219 142.96446305638736 L 131.3114797728167 142.96446305638736 131.3114797728167 101.1480780359903 Z M 144.80417319461037 101.1480780359903 L 140.32519898386585 101.1480780359903 140.32519898386585 142.96446305638736 L 144.80417319461037 142.96446305638736 144.80417319461037 101.1480780359903 Z M 176.11807055852069 130.12410569958064 C 176.11807055852069 122.35928782894533 170.36074218614718 116.29894217381532 163.57126119438433 116.29894217381532 C 156.60186369098483 116.29894217381532 150.96763608973114 122.539204340582 150.96763608973114 130.12410569958064 C 150.96763608973114 137.81316924952685 156.78178020262152 143.57049762190036 163.5144454538675 143.57049762190036 C 170.41755792666402 143.57049762190036 176.11807055852069 137.6332527378902 176.11807055852069 130.12410569958064 Z M 163.57126119438433 139.77331229735796 C 159.2722034952765 139.77331229735796 155.5697110715955 136.25073638531364 155.5697110715955 129.63170261510135 C 155.5697110715955 122.59602008109884 159.8782380607895 119.98249601732402 163.5144454538675 119.98249601732402 C 167.453670129702 119.98249601732402 171.5065262865702 122.83275233325236 171.5065262865702 129.63170261510135 C 171.5065262865702 136.4969379275533 167.56730161073568 139.77331229735796 163.57126119438433 139.77331229735796" style="vector-effect: non-scaling-stroke;" /></g></svg>