<?xml version="1.0" encoding="utf-8" ?>
<svg baseProfile="full" height="200" version="1.1" width="614" xmlns="http://www.w3.org/2000/svg" xmlns:ev="http://www.w3.org/2001/xml-events" xmlns:xlink="http://www.w3.org/1999/xlink"><defs /><g style="fill-opacity: 1.0;stroke: rgb(128.50196078431372 128.50196078431372 128.50196078431372);fill: rgb(256.0 256.0 256.0);stroke-width: 3.0;"><path d="M 114.0954065719546 195.23809523810044 C 134.60913244992756 186.644738536386 155.15714969972146 178.1334711116451 175.73896517237435 169.70449723286475 C 185.92968767538284 149.93563526091094 196.19944486334748 130.20761525449507 206.54799026382196 110.52091068278494 C 201.6473570754437 88.82661366369562 196.83352067769394 67.11280088912785 192.10659660183742 45.379993486939924 C 174.40766845538437 31.911264101202626 156.76268602225957 18.371792877850652 139.17207277907426 4.761904761919709 C 116.9563748559485 5.8209111773734605 94.73652977004264 6.791050565105181 72.5130707939048 7.672299641933449 C 56.175575052317555 22.76352098724277 39.77777977539775 37.78933198464 23.32007850747767 52.74937201718667 C 20.505280775958585 74.8114581046384 17.602245959290222 96.86219675273124 14.611043729822342 118.90105874744269 C 26.63601914993853 137.6109143039431 38.586107047879246 156.36879492262634 50.461020623542 175.17425041750926 C 71.69914955350649 181.77732609128918 92.91078122817612 188.4653278684596 114.09540657195373 195.23809523810078" style="vector-effect: non-scaling-stroke;" /></g><g style="fill-opacity: 1.0;stroke: rgb(256.0 0.0 0.0);fill: rgb(256.0 256.0 256.0);stroke-width: 0.6000000000000001;"><path d="M 116.51294459649259 97.78915358074255 C 116.51294459649259 94.12886513348268 113.50098234101632 91.11690287800641 109.84069389375645 91.11690287800641 C 106.18040544649656 91.11690287800641 103.16844319102032 94.12886513348268 103.16844319102032 97.78915358074255 C 103.16844319102032 101.44944202800242 106.18040544649656 104.46140428347869 109.84069389375645 104.46140428347869 C 113.50098234101632 104.46140428347869 116.51294459649259 101.44944202800242 116.51294459649259 97.78915358074255" style="vector-effect: non-scaling-stroke;" /></g><g style="fill-opacity: 0.0;stroke: rgb(0.0 0.0 0.0);fill: rgb(256.0 256.0 256.0);stroke-width: 0.0;"><path d="M 206.74815778491018 97.7888199682074 C 273.4703979219781 97.78881907857398 340.1934387299295 97.78881907857398 406.91567886699585 97.7888199682074 C 407.18256889510695 97.78904237567453 407.18256889510695 97.78926478581056 406.915678867 97.78948719327768 C 340.1934387299308 97.7894880829111 273.4703979219794 97.7894880829111 206.748157784913 97.78948719327768 C 206.48126775680325 97.78926478581056 206.48126775680325 97.78904237567453 206.74815778491018 97.7888199682074" style="vector-effect: non-scaling-stroke;" /></g><g style="fill-opacity: 1.0;stroke: rgb(128.50196078431372 128.50196078431372 128.50196078431372);fill: rgb(256.0 256.0 256.0);stroke-width: 3.0;"><path d="M 506.6002092302239 195.23809523810044 C 527.1139351081969 186.644738536386 547.6619523579908 178.1334711116451 568.2437678306437 169.70449723286475 C 578.4344903336522 149.93563526091094 588.7042475216168 130.20761525449507 599.0527929220913 110.52091068278494 C 594.152159733713 88.82661366369562 589.3383233359633 67.11280088912785 584.6113992601067 45.379993486939924 C 566.9124711136537 31.911264101202626 549.2674886805289 18.371792877850652 531.6768754373436 4.761904761919709 C 509.46117751421787 5.8209111773734605 487.241332428312 6.791050565105181 465.0178734521741 7.672299641933449 C 448.68037771058687 22.76352098724277 432.2825824336671 37.78933198464 415.824881165747 52.74937201718667 C 413.0100834342279 74.8114581046384 410.10704861755954 96.86219675273124 407.11584638809165 118.90105874744269 C 419.1408218082079 137.6109143039431 431.0909097061486 156.36879492262634 442.9658232818113 175.17425041750926 C 464.2039522117758 181.77732609128918 485.41558388644546 188.4653278684596 506.6002092302231 195.23809523810078" style="vector-effect: non-scaling-stroke;" /></g><g style="fill-opacity: 1.0;stroke: rgb(256.0 0.0 0.0);fill: rgb(256.0 256.0 256.0);stroke-width: 0.6000000000000001;"><path d="M 509.01774725476196 97.78915358074255 C 509.01774725476196 94.12886513348268 506.0057849992857 91.11690287800641 502.3454965520258 91.11690287800641 C 498.68520810476593 91.11690287800641 495.6732458492897 94.12886513348268 495.6732458492897 97.78915358074255 C 495.6732458492897 101.44944202800242 498.68520810476593 104.46140428347869 502.3454965520258 104.46140428347869 C 506.0057849992857 104.46140428347869 509.01774725476196 101.44944202800242 509.01774725476196 97.78915358074255" style="vector-effect: non-scaling-stroke;" /></g><g style="fill-opacity: 0;stroke: rgb(0.0 0.0 256.0);fill: rgb(256.0 256.0 256.0);stroke-width: 0.6000000000000001;"><path d="M 109.84069389375645 97.78915358074255 C 234.56232022444547 53.22841158222689 370.9516195186007 53.228411582226904 495.67324584928974 97.78915358074256" style="vector-effect: non-scaling-stroke;" /></g><g style="fill-opacity: 1.0;stroke: rgb(0.0 0.0 0.0);fill: rgb(128.50196078431372 128.50196078431372 128.50196078431372);stroke-width: 0.0;"><path d="M 481.48008174923564 95.90392340144389 C 479.1129735832152 98.60314119706797 476.7358489364163 101.29355846600863 474.3487569904314 103.97511954479636 C 478.21208890350124 102.85707159332104 487.0236298302389 100.35089447587474 495.8443872476114 97.87746829999556 C 493.5338018081937 94.58557528540828 488.30529666680206 87.06314806847696 483.1047830137149 79.52138062259885 C 483.25219971806126 83.10847500289248 483.38629377999365 86.69610450577984 483.5070624251684 90.28419490489132" style="vector-effect: non-scaling-stroke;" /></g><g style="fill-opacity: 0;stroke: rgb(0.0 0.0 256.0);fill: rgb(256.0 256.0 256.0);stroke-width: 0.6000000000000001;"><path d="M 502.3454965520258 97.78915358074255 C 377.6238702213368 142.34989557925823 241.23457092718155 142.34989557925823 116.5129445964925 97.78915358074258" style="vector-effect: non-scaling-stroke;" /></g><g style="fill-opacity: 1.0;stroke: rgb(0.0 0.0 0.0);fill: rgb(128.50196078431372 128.50196078431372 128.50196078431372);stroke-width: 0.0;"><path d="M 130.7061086965466 99.67438376004124 C 133.07321686256708 96.97516596441717 135.45034150936598 94.2847486954765 137.83743345535086 91.60318761668879 C 133.97410154228098 92.7212355681641 125.16256061554336 95.2274126856104 116.34180319817088 97.70083886148959 C 118.65238863758853 100.99273187607686 123.88089377898017 108.51515909300818 129.0814074320673 116.05692653888629 C 128.93399072772095 112.46983215859265 128.79989666578862 108.8822026557053 128.67912802061386 105.29411225659382" style="vector-effect: non-scaling-stroke;" /></g><g style="fill-opacity: 0;stroke: rgb(0.0 128.50196078431372 4.279975067166721e-14);fill: rgb(256.0 256.0 256.0);stroke-width: 0.6000000000000001;"><path d="M 203.68241722948028 97.78915358074255 C 301.14680278005744 129.05326987016903 398.583996521759 160.4020920344881 495.9938880437859 191.8355845508325" style="vector-effect: non-scaling-stroke;" /></g><g style="fill-opacity: 1.0;stroke: rgb(0.0 0.0 0.0);fill: rgb(0.0 0.0 0.0);stroke-width: 0.0;"><path d="M 481.749105994914 190.39122158383327 C 479.466806007194 193.16251812947903 477.1742215524962 195.92532886956073 474.87140006331606 198.67959664282193 C 478.69821805314615 197.44232999207316 487.4278377812687 194.66421612652385 496.16768478824457 191.91855177006815 C 493.7561672570514 188.6998644772288 488.29699368862674 181.34312598810195 482.8651986464742 173.9661888808941 C 483.12373765236345 177.546989819272 483.36897700591453 181.1287385998125 483.60091163323995 184.7113611178153" style="vector-effect: non-scaling-stroke;" /></g><g style="fill-opacity: 0;stroke: rgb(0.0 0.0 0.0);fill: rgb(256.0 256.0 256.0);stroke-width: 0.6000000000000001;"><path d="M 109.84069389375645 97.78915358074255 C 109.9296572364597 120.02990029309852 109.9296572364597 142.27091389574898 109.8406938937574 164.51166060810442" style="vector-effect: non-scaling-stroke;" /></g><g style="fill-opacity: 1.0;stroke: rgb(0.0 0.0 0.0);fill: rgb(0.0 0.0 0.0);stroke-width: 0.0;"><path d="M 106.89671766966107 150.4997726556558 C 103.56375443603923 149.1654811353427 100.23575812970579 147.81881590134284 96.91279760534114 146.45980481552743 C 99.25242422889826 149.73112136314015 104.5472944773783 157.2069842764997 109.81434548531266 164.7024343726229 C 112.15003628757634 161.42830652408702 117.50454328719294 153.99504129011046 122.88660115933104 146.581738954133 C 119.5528750106302 147.91412318674864 116.21421200673365 149.23412167684083 112.87068122301085 150.54170711426028" style="vector-effect: non-scaling-stroke;" /></g></svg>