<?xml version="1.0" encoding="utf-8" ?>
<svg baseProfile="full" height="200" version="1.1" width="553" xmlns="http://www.w3.org/2000/svg" xmlns:ev="http://www.w3.org/2001/xml-events" xmlns:xlink="http://www.w3.org/1999/xlink"><defs /><g style="fill-opacity: 1.0;stroke: rgb(128.50196078431372 128.50196078431372 128.50196078431372);fill: rgb(256.0 256.0 256.0);stroke-width: 0.5;"><path d="M 95.23809523809282 190.47619047618593 C 117.64864698035773 181.0882389090703 140.09666088659384 171.78996710076743 162.58159820823897 162.58159820823792 C 171.78996710076672 140.0966608865922 181.0882389090697 117.6486469803557 190.47619047618616 95.23809523809162 C 181.08823890907132 72.82754349582706 171.78996710076848 50.37952958959092 162.58159820823894 27.894592267945804 C 140.09666088659307 18.686223375417747 117.6486469803566 9.38795156711474 95.23809523809254 -1.7195134205394424e-12 C 72.82754349582764 9.387951567113262 50.37952958959151 18.686223375416105 27.894592267946386 27.89459226794561 C 18.686223375418127 50.379529589590106 9.387951567115127 72.82754349582657 -1.3304912727107876e-12 95.23809523809065 C 9.387951567113781 117.64864698035586 18.686223375416624 140.096660886592 27.894592267946123 162.58159820823712 C 50.379529589590476 171.78996710076507 72.82754349582696 181.08823890906805 95.23809523809103 190.4761904761845" style="vector-effect: non-scaling-stroke;" /></g><g style="fill-opacity: 0.0;stroke: rgb(0.0 0.0 0.0);fill: rgb(256.0 256.0 256.0);stroke-width: 0.0;"><path d="M 190.62197464090121 95.23785226448392 C 239.2165018319907 95.2378516165543 287.8116121603211 95.2378516165543 336.4061393514095 95.23785226448392 C 336.6005182376872 95.23801424624122 336.6005182376872 95.23817622994231 336.40613935140834 95.23833821169963 C 287.81161216031995 95.23833885962924 239.2165018319896 95.23833885962924 190.62197464090121 95.23833821169963 C 190.42759575462236 95.23817622994231 190.42759575462236 95.23801424624122 190.62197464090121 95.23785226448392" style="vector-effect: non-scaling-stroke;" /></g><g style="fill-opacity: 1.0;stroke: rgb(128.50196078431372 128.50196078431372 128.50196078431372);fill: rgb(256.0 256.0 256.0);stroke-width: 0.5;"><path d="M 431.7900187542184 190.47619047618593 C 454.2005704964833 181.0882389090703 476.6485844027194 171.78996710076743 499.1335217243645 162.58159820823792 C 508.3418906168923 140.0966608865922 517.6401624251953 117.6486469803557 527.0281139923118 95.23809523809162 C 517.6401624251969 72.82754349582706 508.34189061689403 50.37952958959092 499.1335217243646 27.894592267945804 C 476.64858440271865 18.686223375417747 454.20057049648216 9.38795156711474 431.79001875421807 -1.7195134205394424e-12 C 409.3794670119532 9.387951567113262 386.9314531057171 18.686223375416105 364.44651578407195 27.89459226794561 C 355.2381468915437 50.379529589590106 345.9398750832407 72.82754349582657 336.55192351612425 95.23809523809065 C 345.9398750832393 117.64864698035586 355.23814689154216 140.096660886592 364.44651578407166 162.58159820823712 C 386.93145310571606 171.78996710076507 409.37946701195256 181.08823890906805 431.7900187542166 190.4761904761845" style="vector-effect: non-scaling-stroke;" /></g><g style="fill-opacity: 1.0;stroke: rgb(0.0 0.0 256.0);fill: rgb(256.0 256.0 256.0);stroke-width: 0.1;"><path d="M 95.23809523809268 95.23809523809177 C 205.0619373322835 62.78033943174892 321.9661766600275 62.780339431748935 431.7900187542183 95.23809523809187" style="vector-effect: non-scaling-stroke;" /></g><g style="fill-opacity: 1.0;stroke: rgb(0.0 0.0 0.0);fill: rgb(128.50196078431372 128.50196078431372 128.50196078431372);stroke-width: 0.0;"><path d="M 408.48898472272725 88.35161905762035 C 403.1121426122324 95.2204735866369 397.70980875729487 102.06933533964686 392.2820949296652 108.89806261691787 C 405.44079881512613 104.31412829140594 418.610142349378 99.76079352551682 431.79001875421284 95.23809523808944 C 423.18617691587843 84.2773540466041 414.60782991000843 73.29662414097896 406.0550472906042 62.29599455394892 C 406.8986130237053 70.97815963392387 407.7099310963437 79.66342769985366 408.48898472272947 88.35161905762155" style="vector-effect: non-scaling-stroke;" /></g><g style="fill-opacity: 1.0;stroke: rgb(0.0 0.0 256.0);fill: rgb(256.0 256.0 256.0);stroke-width: 0.1;"><path d="M 431.79001875421824 95.23809523809177 C 321.96617666002743 127.69585104443465 205.0619373322834 127.69585104443465 95.23809523809263 95.23809523809172" style="vector-effect: non-scaling-stroke;" /></g><g style="fill-opacity: 1.0;stroke: rgb(0.0 0.0 0.0);fill: rgb(128.50196078431372 128.50196078431372 128.50196078431372);stroke-width: 0.0;"><path d="M 118.53912926958368 102.12457141856324 C 123.9159713800785 95.25571688954669 129.31830523501606 88.40685513653672 134.74601906264567 81.5781278592657 C 121.58731517718476 86.16206218477765 108.41797164293288 90.71539695066677 95.23809523809811 95.23809523809415 C 103.84193707643253 106.19883642957949 112.42028408230252 117.17956633520463 120.97306670170673 128.18019592223467 C 120.12950096860564 119.49803084225972 119.3181828959672 110.81276277632993 118.53912926958144 102.12457141856204" style="vector-effect: non-scaling-stroke;" /></g><g style="fill-opacity: 1.0;stroke: rgb(0.0 0.0 0.0);fill: rgb(256.0 256.0 256.0);stroke-width: 0.1;"><path d="M 190.47619047618699 95.23809523809177 C 269.3836108527219 64.02645042447035 348.31485179904513 32.87506098214749 427.2698442863634 1.7839541543641035" style="vector-effect: non-scaling-stroke;" /></g><g style="fill-opacity: 1.0;stroke: rgb(0.0 0.0 0.0);fill: rgb(0.0 0.0 0.0);stroke-width: 0.0;"><path d="M 404.66216772557635 10.686465128478838 C 404.6477106841316 19.40950270812586 404.60085714427265 28.13245651620315 404.52160807537786 36.855146078893455 C 412.07716361041656 25.147135043589625 419.6599295079876 13.456706139737072 427.2698442863483 1.7839541543693382 C 413.74424826861804 -1.5660002051639585 400.2264590144094 -4.947396409723729 386.71658612716084 -8.360207042649186 C 392.722005221044 -2.0335542839764242 398.70390700809617 4.315380225223686 404.66216772557885 10.686465128478408" style="vector-effect: non-scaling-stroke;" /></g><g style="fill-opacity: 1.0;stroke: rgb(0.0 0.0 0.0);fill: rgb(256.0 256.0 256.0);stroke-width: 0.1;"><path d="M 95.23809523809268 95.23809523809177 C 95.30288820018632 111.43627096845493 95.30288820018632 127.6346410778984 95.23809523809336 143.83281680826119" style="vector-effect: non-scaling-stroke;" /></g><g style="fill-opacity: 1.0;stroke: rgb(0.0 0.0 0.0);fill: rgb(0.0 0.0 0.0);stroke-width: 0.0;"><path d="M 95.33528429247706 119.53565040127809 C 87.23706327540378 116.29367415512598 79.15091058076257 113.02163305040344 71.0769935072544 109.71959478410483 C 79.15712041088752 121.07192895232924 87.2108427545981 132.44303369302236 95.23809523809341 143.83281680825496 C 103.35620802307308 132.50761541242332 111.50064039603802 121.20130354976848 119.67132632120625 109.9139728928735 C 111.57125162184035 113.15131493329663 103.45918166729143 116.3585628882503 95.33528429247653 119.53565040128058" style="vector-effect: non-scaling-stroke;" /></g></svg>