<?xml version="1.0" encoding="utf-8" ?>
<svg baseProfile="full" height="200" version="1.1" width="614" xmlns="http://www.w3.org/2000/svg" xmlns:ev="http://www.w3.org/2001/xml-events" xmlns:xlink="http://www.w3.org/1999/xlink">
    
            <g style="fill:rgb(256.0 256.0 256.0);stroke:rgb(128.50196078431372 128.50196078431372 128.50196078431372);stroke-width:3.0;fill-opacity:1.0">
                <path d="M 114.10 195.24 C 118.20 193.52 122.30 191.80 126.41 190.09 C 130.51 188.38 134.62 186.67 138.73 184.97 C 142.84 183.26 146.95 181.56 151.06 179.86 C 155.17 178.16 159.28 176.46 163.39 174.77 C 167.51 173.08 171.62 171.39 175.74 169.70 C 177.78 165.75 179.82 161.80 181.86 157.85 C 183.91 153.90 185.95 149.95 188.01 146.00 C 190.06 142.05 192.11 138.11 194.17 134.16 C 196.22 130.22 198.28 126.28 200.35 122.34 C 202.41 118.40 204.48 114.46 206.55 110.52 C 205.57 106.18 204.59 101.84 203.62 97.50 C 202.64 93.16 201.68 88.82 200.71 84.48 C 199.74 80.14 198.78 75.79 197.82 71.45 C 196.86 67.11 195.91 62.76 194.95 58.42 C 194.00 54.07 193.05 49.73 192.11 45.38 C 188.57 42.69 185.03 39.99 181.49 37.29 C 177.96 34.59 174.42 31.89 170.89 29.18 C 167.36 26.48 163.83 23.77 160.31 21.06 C 156.78 18.35 153.26 15.64 149.73 12.92 C 146.21 10.20 142.69 7.48 139.17 4.76 C 134.73 4.97 130.29 5.18 125.84 5.39 C 121.40 5.59 116.96 5.79 112.51 5.99 C 108.07 6.19 103.62 6.38 99.18 6.57 C 94.74 6.76 90.29 6.95 85.85 7.13 C 81.40 7.32 76.96 7.50 72.51 7.67 C 69.25 10.69 65.98 13.71 62.70 16.72 C 59.43 19.73 56.16 22.74 52.88 25.75 C 49.60 28.76 46.32 31.76 43.04 34.77 C 39.76 37.77 36.47 40.77 33.19 43.77 C 29.90 46.76 26.61 49.76 23.32 52.75 C 22.76 57.16 22.19 61.57 21.62 65.99 C 21.05 70.40 20.48 74.81 19.90 79.22 C 19.32 83.63 18.74 88.04 18.16 92.45 C 17.57 96.86 16.99 101.27 16.40 105.68 C 15.80 110.09 15.21 114.49 14.61 118.90 C 17.02 122.64 19.42 126.39 21.82 130.13 C 24.22 133.88 26.61 137.63 29.01 141.38 C 31.40 145.13 33.79 148.88 36.18 152.63 C 38.56 156.38 40.95 160.14 43.33 163.90 C 45.71 167.65 48.09 171.41 50.46 175.17 C 54.71 176.49 58.96 177.82 63.20 179.15 C 67.45 180.47 71.69 181.80 75.93 183.14 C 80.18 184.47 84.42 185.81 88.66 187.15 C 92.90 188.49 97.14 189.84 101.38 191.18 C 105.62 192.53 109.86 193.88 114.10 195.24 Z" />
            </g>
            <g style="fill:rgb(256.0 256.0 256.0);stroke:rgb(256.0 0.0 0.0);stroke-width:0.6000000000000001;fill-opacity:1.0">
                <path d="M 116.51 97.79 C 116.51 97.09 116.40 96.39 116.19 95.73 C 115.97 95.06 115.65 94.43 115.24 93.87 C 114.83 93.30 114.33 92.80 113.76 92.39 C 113.20 91.98 112.57 91.66 111.90 91.44 C 111.24 91.23 110.54 91.12 109.84 91.12 C 109.14 91.12 108.44 91.23 107.78 91.44 C 107.11 91.66 106.49 91.98 105.92 92.39 C 105.35 92.80 104.85 93.30 104.44 93.87 C 104.03 94.43 103.71 95.06 103.50 95.73 C 103.28 96.39 103.17 97.09 103.17 97.79 C 103.17 98.49 103.28 99.19 103.50 99.85 C 103.71 100.52 104.03 101.14 104.44 101.71 C 104.85 102.28 105.35 102.78 105.92 103.19 C 106.49 103.60 107.11 103.92 107.78 104.13 C 108.44 104.35 109.14 104.46 109.84 104.46 C 110.54 104.46 111.24 104.35 111.90 104.13 C 112.57 103.92 113.20 103.60 113.76 103.19 C 114.33 102.78 114.83 102.28 115.24 101.71 C 115.65 101.14 115.97 100.52 116.19 99.85 C 116.40 99.19 116.51 98.49 116.51 97.79 Z" />
            </g>
            <g style="fill:rgb(256.0 256.0 256.0);stroke:rgb(0.0 0.0 0.0);stroke-width:0.0;fill-opacity:0.0">
                <path d="M 206.75 97.79 C 220.09 97.79 233.44 97.79 246.78 97.79 C 260.13 97.79 273.47 97.79 286.82 97.79 C 300.16 97.79 313.50 97.79 326.85 97.79 C 340.19 97.79 353.54 97.79 366.88 97.79 C 380.23 97.79 393.57 97.79 406.92 97.79 C 406.97 97.79 407.01 97.79 407.04 97.79 C 407.08 97.79 407.10 97.79 407.11 97.79 C 407.12 97.79 407.12 97.79 407.11 97.79 C 407.10 97.79 407.08 97.79 407.04 97.79 C 407.01 97.79 406.97 97.79 406.92 97.79 C 393.57 97.79 380.23 97.79 366.88 97.79 C 353.54 97.79 340.19 97.79 326.85 97.79 C 313.50 97.79 300.16 97.79 286.82 97.79 C 273.47 97.79 260.13 97.79 246.78 97.79 C 233.44 97.79 220.09 97.79 206.75 97.79 C 206.69 97.79 206.65 97.79 206.62 97.79 C 206.59 97.79 206.57 97.79 206.56 97.79 C 206.55 97.79 206.55 97.79 206.56 97.79 C 206.57 97.79 206.59 97.79 206.62 97.79 C 206.65 97.79 206.69 97.79 206.75 97.79 Z" />
            </g>
            <g style="fill:rgb(256.0 256.0 256.0);stroke:rgb(128.50196078431372 128.50196078431372 128.50196078431372);stroke-width:3.0;fill-opacity:1.0">
                <path d="M 506.60 195.24 C 510.70 193.52 514.81 191.80 518.91 190.09 C 523.02 188.38 527.12 186.67 531.23 184.97 C 535.34 183.26 539.45 181.56 543.56 179.86 C 547.67 178.16 551.79 176.46 555.90 174.77 C 560.01 173.08 564.13 171.39 568.24 169.70 C 570.28 165.75 572.32 161.80 574.37 157.85 C 576.41 153.90 578.46 149.95 580.51 146.00 C 582.56 142.05 584.62 138.11 586.67 134.16 C 588.73 130.22 590.79 126.28 592.85 122.34 C 594.92 118.40 596.98 114.46 599.05 110.52 C 598.07 106.18 597.10 101.84 596.12 97.50 C 595.15 93.16 594.18 88.82 593.21 84.48 C 592.25 80.14 591.28 75.79 590.33 71.45 C 589.37 67.11 588.41 62.76 587.46 58.42 C 586.51 54.07 585.56 49.73 584.61 45.38 C 581.07 42.69 577.53 39.99 574.00 37.29 C 570.46 34.59 566.93 31.89 563.40 29.18 C 559.87 26.48 556.34 23.77 552.81 21.06 C 549.28 18.35 545.76 15.64 542.24 12.92 C 538.72 10.20 535.19 7.48 531.68 4.76 C 527.23 4.97 522.79 5.18 518.35 5.39 C 513.90 5.59 509.46 5.79 505.02 5.99 C 500.57 6.19 496.13 6.38 491.68 6.57 C 487.24 6.76 482.80 6.95 478.35 7.13 C 473.91 7.32 469.46 7.50 465.02 7.67 C 461.75 10.69 458.48 13.71 455.21 16.72 C 451.94 19.73 448.66 22.74 445.38 25.75 C 442.11 28.76 438.83 31.76 435.55 34.77 C 432.26 37.77 428.98 40.77 425.69 43.77 C 422.41 46.76 419.12 49.76 415.82 52.75 C 415.26 57.16 414.70 61.57 414.13 65.99 C 413.56 70.40 412.98 74.81 412.40 79.22 C 411.83 83.63 411.25 88.04 410.66 92.45 C 410.08 96.86 409.49 101.27 408.90 105.68 C 408.31 110.09 407.71 114.49 407.12 118.90 C 409.52 122.64 411.92 126.39 414.32 130.13 C 416.72 133.88 419.12 137.63 421.51 141.38 C 423.90 145.13 426.29 148.88 428.68 152.63 C 431.07 156.38 433.45 160.14 435.83 163.90 C 438.21 167.65 440.59 171.41 442.97 175.17 C 447.21 176.49 451.46 177.82 455.71 179.15 C 459.95 180.47 464.20 181.80 468.44 183.14 C 472.68 184.47 476.92 185.81 481.17 187.15 C 485.41 188.49 489.65 189.84 493.89 191.18 C 498.13 192.53 502.36 193.88 506.60 195.24 Z" />
            </g>
            <g style="fill:rgb(256.0 256.0 256.0);stroke:rgb(256.0 0.0 0.0);stroke-width:0.6000000000000001;fill-opacity:1.0">
                <path d="M 509.02 97.79 C 509.02 97.09 508.91 96.39 508.69 95.73 C 508.47 95.06 508.15 94.43 507.74 93.87 C 507.33 93.30 506.83 92.80 506.27 92.39 C 505.70 91.98 505.07 91.66 504.41 91.44 C 503.74 91.23 503.05 91.12 502.35 91.12 C 501.65 91.12 500.95 91.23 500.28 91.44 C 499.62 91.66 498.99 91.98 498.42 92.39 C 497.86 92.80 497.36 93.30 496.95 93.87 C 496.54 94.43 496.22 95.06 496.00 95.73 C 495.78 96.39 495.67 97.09 495.67 97.79 C 495.67 98.49 495.78 99.19 496.00 99.85 C 496.22 100.52 496.54 101.14 496.95 101.71 C 497.36 102.28 497.86 102.78 498.42 103.19 C 498.99 103.60 499.62 103.92 500.28 104.13 C 500.95 104.35 501.65 104.46 502.35 104.46 C 503.05 104.46 503.74 104.35 504.41 104.13 C 505.07 103.92 505.70 103.60 506.27 103.19 C 506.83 102.78 507.33 102.28 507.74 101.71 C 508.15 101.14 508.47 100.52 508.69 99.85 C 508.91 99.19 509.02 98.49 509.02 97.79 Z" />
            </g>
            <g style="fill:rgb(256.0 256.0 256.0);stroke:rgb(0.0 0.0 256.0);stroke-width:0.6000000000000001;fill-opacity:0">
                <path d="M 109.84 97.79 C 134.55 88.96 159.85 81.84 185.54 76.47 C 211.23 71.11 237.25 67.51 263.44 65.71 C 289.62 63.91 315.89 63.91 342.08 65.71 C 368.26 67.51 394.29 71.11 419.98 76.47 C 445.67 81.84 470.96 88.96 495.67 97.79" />
            </g>
            <g style="fill:rgb(128.50196078431372 128.50196078431372 128.50196078431372);stroke:rgb(0.0 0.0 0.0);stroke-width:0.0;fill-opacity:1.0">
                <path d="M 481.48 95.90 C 481.01 96.44 480.53 96.98 480.06 97.52 C 479.58 98.06 479.11 98.60 478.63 99.14 C 478.16 99.68 477.68 100.22 477.21 100.75 C 476.73 101.29 476.26 101.83 475.78 102.37 C 475.30 102.90 474.83 103.44 474.35 103.98 C 475.45 103.66 476.55 103.34 477.66 103.03 C 478.76 102.71 479.86 102.40 480.97 102.08 C 482.07 101.77 483.17 101.46 484.28 101.14 C 485.38 100.83 486.48 100.52 487.59 100.20 C 488.69 99.89 489.79 99.58 490.90 99.27 C 490.24 98.33 489.58 97.39 488.93 96.45 C 488.27 95.51 487.62 94.56 486.96 93.62 C 486.31 92.68 485.65 91.74 485.00 90.80 C 484.34 89.86 483.69 88.91 483.04 87.97 C 482.38 87.03 481.73 86.08 481.08 85.14 C 481.11 85.86 481.14 86.58 481.16 87.29 C 481.19 88.01 481.22 88.73 481.25 89.45 C 481.28 90.16 481.30 90.88 481.33 91.60 C 481.36 92.32 481.38 93.03 481.41 93.75 C 481.43 94.47 481.46 95.19 481.48 95.90 Z" />
            </g>
            <g style="fill:rgb(256.0 256.0 256.0);stroke:rgb(0.0 0.0 256.0);stroke-width:0.6000000000000001;fill-opacity:0">
                <path d="M 502.35 97.79 C 477.63 106.62 452.34 113.74 426.65 119.11 C 400.96 124.47 374.93 128.07 348.75 129.87 C 322.57 131.67 296.29 131.67 270.11 129.87 C 243.93 128.07 217.90 124.47 192.21 119.11 C 166.52 113.74 141.23 106.62 116.51 97.79" />
            </g>
            <g style="fill:rgb(128.50196078431372 128.50196078431372 128.50196078431372);stroke:rgb(0.0 0.0 0.0);stroke-width:0.0;fill-opacity:1.0">
                <path d="M 130.71 99.67 C 131.18 99.13 131.65 98.60 132.13 98.06 C 132.60 97.52 133.08 96.98 133.55 96.44 C 134.03 95.90 134.50 95.36 134.98 94.83 C 135.45 94.29 135.93 93.75 136.41 93.21 C 136.88 92.68 137.36 92.14 137.84 91.60 C 136.73 91.92 135.63 92.24 134.53 92.55 C 133.43 92.87 132.32 93.18 131.22 93.50 C 130.12 93.81 129.01 94.12 127.91 94.44 C 126.81 94.75 125.70 95.06 124.60 95.37 C 123.50 95.69 122.39 96.00 121.29 96.31 C 121.95 97.25 122.60 98.19 123.26 99.13 C 123.91 100.07 124.57 101.01 125.22 101.96 C 125.88 102.90 126.53 103.84 127.19 104.78 C 127.84 105.72 128.50 106.67 129.15 107.61 C 129.80 108.55 130.46 109.49 131.11 110.44 C 131.08 109.72 131.05 109.00 131.02 108.28 C 130.99 107.57 130.97 106.85 130.94 106.13 C 130.91 105.41 130.88 104.70 130.86 103.98 C 130.83 103.26 130.81 102.54 130.78 101.83 C 130.75 101.11 130.73 100.39 130.71 99.67 Z" />
            </g>
            <g style="fill:rgb(256.0 256.0 256.0);stroke:rgb(0.0 128.50196078431372 4.279975067166721e-14);stroke-width:0.6000000000000001;fill-opacity:0">
                <path d="M 203.68 97.79 C 223.18 104.04 242.67 110.30 262.16 116.56 C 281.65 122.82 301.14 129.08 320.63 135.35 C 340.12 141.61 359.60 147.88 379.09 154.16 C 398.58 160.43 418.06 166.71 437.54 172.99 C 457.03 179.27 476.51 185.55 495.99 191.84" />
            </g>
            <g style="fill:rgb(0.0 0.0 0.0);stroke:rgb(0.0 0.0 0.0);stroke-width:0.0;fill-opacity:1.0">
                <path d="M 481.75 190.39 C 481.29 190.95 480.84 191.50 480.38 192.05 C 479.92 192.61 479.46 193.16 479.01 193.71 C 478.55 194.27 478.09 194.82 477.63 195.37 C 477.17 195.92 476.71 196.47 476.25 197.03 C 475.79 197.58 475.33 198.13 474.87 198.68 C 475.96 198.33 477.06 197.98 478.15 197.63 C 479.24 197.28 480.33 196.93 481.43 196.58 C 482.52 196.24 483.61 195.89 484.71 195.54 C 485.80 195.19 486.89 194.85 487.99 194.50 C 489.08 194.15 490.17 193.81 491.27 193.46 C 490.58 192.54 489.90 191.62 489.21 190.70 C 488.53 189.78 487.84 188.86 487.16 187.94 C 486.47 187.02 485.79 186.10 485.11 185.18 C 484.42 184.26 483.74 183.34 483.06 182.41 C 482.38 181.49 481.69 180.57 481.01 179.65 C 481.07 180.36 481.12 181.08 481.17 181.79 C 481.22 182.51 481.27 183.23 481.32 183.94 C 481.37 184.66 481.42 185.38 481.46 186.09 C 481.51 186.81 481.56 187.53 481.61 188.24 C 481.66 188.96 481.70 189.67 481.75 190.39 Z" />
            </g>
            <g style="fill:rgb(256.0 256.0 256.0);stroke:rgb(0.0 0.0 0.0);stroke-width:0.6000000000000001;fill-opacity:0">
                <path d="M 109.84 97.79 C 109.86 102.24 109.87 106.69 109.88 111.13 C 109.89 115.58 109.90 120.03 109.90 124.48 C 109.91 128.93 109.91 133.37 109.90 137.82 C 109.90 142.27 109.89 146.72 109.88 151.17 C 109.87 155.62 109.86 160.06 109.84 164.51" />
            </g>
            <g style="fill:rgb(0.0 0.0 0.0);stroke:rgb(0.0 0.0 0.0);stroke-width:0.0;fill-opacity:1.0">
                <path d="M 106.90 150.50 C 106.23 150.23 105.56 149.97 104.90 149.70 C 104.23 149.43 103.57 149.16 102.90 148.89 C 102.23 148.62 101.57 148.35 100.90 148.08 C 100.24 147.81 99.57 147.54 98.91 147.27 C 98.24 147.00 97.58 146.73 96.91 146.46 C 97.58 147.39 98.24 148.33 98.91 149.26 C 99.57 150.20 100.23 151.13 100.90 152.07 C 101.56 153.01 102.22 153.94 102.89 154.88 C 103.55 155.81 104.21 156.75 104.87 157.69 C 105.53 158.62 106.20 159.56 106.86 160.50 C 107.52 159.57 108.19 158.64 108.86 157.70 C 109.53 156.77 110.20 155.84 110.87 154.91 C 111.54 153.98 112.21 153.05 112.88 152.12 C 113.55 151.19 114.22 150.26 114.90 149.33 C 115.57 148.40 116.24 147.47 116.91 146.54 C 116.25 146.81 115.58 147.07 114.91 147.34 C 114.24 147.60 113.58 147.87 112.91 148.13 C 112.24 148.40 111.57 148.66 110.91 148.92 C 110.24 149.19 109.57 149.45 108.90 149.71 C 108.23 149.98 107.57 150.24 106.90 150.50 Z" />
            </g></svg>