<?xml version="1.0" encoding="utf-8" ?>
<svg baseProfile="full" height="64" version="1.1" width="192" xmlns="http://www.w3.org/2000/svg" xmlns:ev="http://www.w3.org/2001/xml-events" xmlns:xlink="http://www.w3.org/1999/xlink"><defs /><g style="fill-opacity: 1.0;stroke: rgb(0.0 0.0 0.0);fill: rgb(0.0 95.37254901960779 219.85882352941175);stroke-width: 0.1;"><path d="M 12.190476190476211 30.476190476190474 C 12.190476190476211 27.132441780694162 9.438986790734425 24.38095238095238 6.095238095238114 24.38095238095238 C 2.7514893997418053 24.38095238095238 2.1316282072803006e-14 27.132441780694165 2.1316282072803006e-14 30.476190476190474 C 2.1316282072803006e-14 33.819939171686784 2.7514893997418053 36.57142857142857 6.095238095238117 36.57142857142857 C 9.438986790734425 36.57142857142857 12.190476190476211 33.819939171686784 12.190476190476211 30.476190476190474" style="vector-effect: non-scaling-stroke;" /></g><g style="fill-opacity: 1.0;stroke: rgb(0.0 0.0 0.0);fill: rgb(0.0 95.37254901960779 219.85882352941175);stroke-width: 0.1;"><path d="M 36.57142857142859 30.476190476190474 C 36.57142857142859 23.788693085197853 31.06844977194502 18.285714285714285 24.380952380952397 18.285714285714285 C 17.69345498995978 18.285714285714285 12.190476190476211 23.788693085197853 12.190476190476211 30.476190476190474 C 12.190476190476211 37.16368786718309 17.69345498995978 42.66666666666666 24.3809523809524 42.666666666666664 C 31.06844977194502 42.666666666666664 36.57142857142859 37.1636878671831 36.57142857142859 30.476190476190474" style="vector-effect: non-scaling-stroke;" /></g><g style="fill-opacity: 1.0;stroke: rgb(0.0 0.0 0.0);fill: rgb(0.0 95.37254901960779 219.85882352941175);stroke-width: 0.1;"><path d="M 73.14285714285717 30.476190476190474 C 73.14285714285717 20.44494438970154 64.88838894363181 12.190476190476186 54.857142857142875 12.190476190476186 C 44.82589677065394 12.190476190476186 36.57142857142859 20.44494438970154 36.57142857142859 30.476190476190478 C 36.57142857142859 40.5074365626794 44.82589677065394 48.76190476190476 54.85714285714288 48.76190476190476 C 64.88838894363181 48.76190476190476 73.14285714285717 40.50743656267941 73.14285714285717 30.476190476190474" style="vector-effect: non-scaling-stroke;" /></g><g style="fill-opacity: 1.0;stroke: rgb(0.0 0.0 0.0);fill: rgb(0.0 95.37254901960779 219.85882352941175);stroke-width: 0.1;"><path d="M 121.90476190476194 30.476190476190474 C 121.90476190476194 17.10119569420523 110.8988043057948 6.095238095238095 97.52380952380955 6.095238095238095 C 84.14881474182431 6.095238095238095 73.14285714285718 17.10119569420523 73.14285714285718 30.476190476190478 C 73.14285714285718 43.85118525817572 84.14881474182431 54.85714285714285 97.52380952380956 54.85714285714285 C 110.8988043057948 54.857142857142854 121.90476190476194 43.85118525817572 121.90476190476194 30.476190476190474" style="vector-effect: non-scaling-stroke;" /></g><g style="fill-opacity: 1.0;stroke: rgb(0.0 0.0 0.0);fill: rgb(0.0 95.37254901960779 219.85882352941175);stroke-width: 0.1;"><path d="M 182.8571428571429 30.476190476190474 C 182.8571428571429 13.757446998708918 169.09969585843396 0.0 152.3809523809524 0.0 C 135.66220890347086 0.0 121.90476190476194 13.757446998708922 121.90476190476194 30.476190476190478 C 121.90476190476194 47.19493395367202 135.66220890347086 60.95238095238094 152.3809523809524 60.95238095238095 C 169.09969585843396 60.95238095238095 182.8571428571429 47.194933953672034 182.8571428571429 30.476190476190474" style="vector-effect: non-scaling-stroke;" /></g></svg>