<?xml version="1.0" encoding="utf-8" ?>
<svg baseProfile="full" height="256" version="1.1" width="296" xmlns="http://www.w3.org/2000/svg" xmlns:ev="http://www.w3.org/2001/xml-events" xmlns:xlink="http://www.w3.org/1999/xlink"><defs /><g style="fill-opacity: 1.0;stroke: rgb(0.0 0.0 0.0);fill: rgb(256.0 151.59215686274507 0.0);stroke-width: 0.768;"><path d="M 139.0039505248935 21.333333333328472 C 144.86907265605439 21.309872750961418 150.73426516903265 21.309872750961418 156.59938730019343 21.333333333328262 C 153.6465087742956 16.26571886262815 150.71391251780642 11.186313148302741 147.8016689125434 6.095238095235658 C 144.88942530728036 11.186313148302991 141.95682905079119 16.2657188626284 139.0039505248935 21.333333333328515" style="vector-effect: non-scaling-stroke;" /></g><g style="fill-opacity: 1.0;stroke: rgb(0.0 0.0 0.0);fill: rgb(256.0 151.59215686274507 0.0);stroke-width: 0.768;"><path d="M 130.2062321372421 36.571428571423766 C 136.07135426840298 36.547967989056716 141.93654678138125 36.547967989056716 147.80166891254203 36.57142857142356 C 144.8487903866442 31.503814100723446 141.91619413015502 26.424408386398035 139.003950524892 21.333333333330952 C 136.09170691962896 26.424408386398284 133.15911066313978 31.503814100723694 130.2062321372421 36.57142857142381" style="vector-effect: non-scaling-stroke;" /></g><g style="fill-opacity: 1.0;stroke: rgb(0.0 0.0 0.0);fill: rgb(256.0 151.59215686274507 0.0);stroke-width: 0.768;"><path d="M 147.80166891254513 36.571428571423766 C 153.666791043706 36.547967989056716 159.53198355668428 36.547967989056716 165.39710568784506 36.57142857142356 C 162.44422716194723 31.503814100723446 159.51163090545805 26.424408386398035 156.59938730019502 21.333333333330952 C 153.687143694932 26.424408386398284 150.7545474384428 31.503814100723694 147.80166891254513 36.57142857142381" style="vector-effect: non-scaling-stroke;" /></g><g style="fill-opacity: 1.0;stroke: rgb(0.0 0.0 0.0);fill: rgb(256.0 151.59215686274507 0.0);stroke-width: 0.768;"><path d="M 121.40851374959047 51.80952380951899 C 127.27363588075137 51.78606322715194 133.13882839372963 51.78606322715194 139.0039505248904 51.80952380951879 C 136.05107199899257 46.74190933881867 133.1184757425034 41.66250362449327 130.20623213724036 36.57142857142618 C 127.29398853197733 41.66250362449352 124.36139227548814 46.74190933881893 121.40851374959047 51.809523809519035" style="vector-effect: non-scaling-stroke;" /></g><g style="fill-opacity: 1.0;stroke: rgb(0.0 0.0 0.0);fill: rgb(256.0 151.59215686274507 0.0);stroke-width: 0.768;"><path d="M 112.61079536193907 67.04761904761429 C 118.47591749309997 67.02415846524724 124.34111000607822 67.02415846524724 130.206232137239 67.04761904761409 C 127.25335361134118 61.98000457691397 124.32075735485199 56.900598862588566 121.40851374958896 51.80952380952148 C 118.49627014432593 56.900598862588815 115.56367388783674 61.980004576914226 112.61079536193907 67.04761904761433" style="vector-effect: non-scaling-stroke;" /></g><g style="fill-opacity: 1.0;stroke: rgb(0.0 0.0 0.0);fill: rgb(256.0 151.59215686274507 0.0);stroke-width: 0.768;"><path d="M 130.2062321372421 67.04761904761429 C 136.07135426840298 67.02415846524724 141.93654678138125 67.02415846524724 147.80166891254203 67.04761904761409 C 144.8487903866442 61.98000457691397 141.91619413015502 56.900598862588566 139.003950524892 51.80952380952148 C 136.09170691962896 56.900598862588815 133.15911066313978 61.980004576914226 130.2062321372421 67.04761904761433" style="vector-effect: non-scaling-stroke;" /></g><g style="fill-opacity: 1.0;stroke: rgb(0.0 0.0 0.0);fill: rgb(256.0 151.59215686274507 0.0);stroke-width: 0.768;"><path d="M 156.59938730019655 51.80952380951899 C 162.46450943135744 51.78606322715194 168.3297019443357 51.78606322715194 174.19482407549648 51.80952380951879 C 171.24194554959865 46.74190933881867 168.30934929310948 41.66250362449327 165.39710568784645 36.57142857142618 C 162.48486208258342 41.66250362449352 159.55226582609424 46.74190933881893 156.59938730019655 51.809523809519035" style="vector-effect: non-scaling-stroke;" /></g><g style="fill-opacity: 1.0;stroke: rgb(0.0 0.0 0.0);fill: rgb(256.0 151.59215686274507 0.0);stroke-width: 0.768;"><path d="M 147.80166891254515 67.04761904761429 C 153.66679104370604 67.02415846524724 159.5319835566843 67.02415846524724 165.39710568784508 67.04761904761409 C 162.44422716194725 61.98000457691397 159.51163090545808 56.900598862588566 156.59938730019505 51.80952380952148 C 153.68714369493202 56.900598862588815 150.75454743844284 61.980004576914226 147.80166891254515 67.04761904761433" style="vector-effect: non-scaling-stroke;" /></g><g style="fill-opacity: 1.0;stroke: rgb(0.0 0.0 0.0);fill: rgb(256.0 151.59215686274507 0.0);stroke-width: 0.768;"><path d="M 165.3971056878482 67.04761904761429 C 171.2622278190091 67.02415846524724 177.12742033198737 67.02415846524724 182.99254246314814 67.04761904761409 C 180.0396639372503 61.98000457691397 177.10706768076113 56.900598862588566 174.1948240754981 51.80952380952148 C 171.28258047023508 56.900598862588815 168.3499842137459 61.980004576914226 165.3971056878482 67.04761904761433" style="vector-effect: non-scaling-stroke;" /></g><g style="fill-opacity: 1.0;stroke: rgb(0.0 0.0 0.0);fill: rgb(256.0 151.59215686274507 0.0);stroke-width: 0.768;"><path d="M 103.81307697428741 82.28571428570946 C 109.67819910544831 82.26225370334241 115.54339161842657 82.26225370334241 121.40851374958733 82.28571428570926 C 118.45563522368953 77.21809981500914 115.52303896720034 72.13869410068374 112.6107953619373 67.04761904761665 C 109.69855175667428 72.13869410068398 106.76595550018509 77.2180998150094 103.81307697428741 82.2857142857095" style="vector-effect: non-scaling-stroke;" /></g><g style="fill-opacity: 1.0;stroke: rgb(0.0 0.0 0.0);fill: rgb(256.0 151.59215686274507 0.0);stroke-width: 0.768;"><path d="M 95.01535858663601 97.52380952380476 C 100.88048071779691 97.50034894143771 106.74567323077517 97.50034894143771 112.61079536193593 97.52380952380456 C 109.65791683603813 92.45619505310444 106.72532057954894 87.37678933877903 103.8130769742859 82.28571428571195 C 100.90083336902288 87.37678933877928 97.96823711253369 92.4561950531047 95.01535858663601 97.5238095238048" style="vector-effect: non-scaling-stroke;" /></g><g style="fill-opacity: 1.0;stroke: rgb(0.0 0.0 0.0);fill: rgb(256.0 151.59215686274507 0.0);stroke-width: 0.768;"><path d="M 112.61079536193904 97.52380952380476 C 118.47591749309996 97.50034894143771 124.34111000607821 97.50034894143771 130.20623213723897 97.52380952380456 C 127.25335361134117 92.45619505310444 124.32075735485198 87.37678933877903 121.40851374958895 82.28571428571195 C 118.49627014432592 87.37678933877928 115.56367388783673 92.4561950531047 112.61079536193905 97.5238095238048" style="vector-effect: non-scaling-stroke;" /></g><g style="fill-opacity: 1.0;stroke: rgb(0.0 0.0 0.0);fill: rgb(256.0 151.59215686274507 0.0);stroke-width: 0.768;"><path d="M 86.21764019898436 112.76190476189998 C 92.08276233014527 112.73844417953293 97.94795484312353 112.73844417953293 103.81307697428429 112.76190476189979 C 100.86019844838648 107.69429029119966 97.9276021918973 102.61488457687426 95.01535858663426 97.52380952380717 C 92.10311498137123 102.6148845768745 89.17051872488204 107.69429029119992 86.21764019898437 112.76190476190003" style="vector-effect: non-scaling-stroke;" /></g><g style="fill-opacity: 1.0;stroke: rgb(0.0 0.0 0.0);fill: rgb(256.0 151.59215686274507 0.0);stroke-width: 0.768;"><path d="M 77.41992181133296 127.99999999999528 C 83.28504394249387 127.97653941762823 89.15023645547213 127.97653941762823 95.01535858663289 127.99999999999508 C 92.06248006073508 122.93238552929496 89.12988380424589 117.85297981496956 86.21764019898286 112.76190476190247 C 83.30539659371983 117.8529798149698 80.37280033723064 122.93238552929522 77.41992181133297 127.99999999999532" style="vector-effect: non-scaling-stroke;" /></g><g style="fill-opacity: 1.0;stroke: rgb(0.0 0.0 0.0);fill: rgb(256.0 151.59215686274507 0.0);stroke-width: 0.768;"><path d="M 95.01535858663601 127.99999999999528 C 100.88048071779691 127.97653941762823 106.74567323077517 127.97653941762823 112.61079536193593 127.99999999999508 C 109.65791683603813 122.93238552929496 106.72532057954894 117.85297981496956 103.8130769742859 112.76190476190247 C 100.90083336902288 117.8529798149698 97.96823711253369 122.93238552929522 95.01535858663601 127.99999999999532" style="vector-effect: non-scaling-stroke;" /></g><g style="fill-opacity: 1.0;stroke: rgb(0.0 0.0 0.0);fill: rgb(256.0 151.59215686274507 0.0);stroke-width: 0.768;"><path d="M 121.40851374959047 112.76190476189998 C 127.27363588075137 112.73844417953293 133.13882839372963 112.73844417953293 139.0039505248904 112.76190476189979 C 136.05107199899257 107.69429029119966 133.1184757425034 102.61488457687426 130.20623213724036 97.52380952380717 C 127.29398853197733 102.6148845768745 124.36139227548814 107.69429029119992 121.40851374959047 112.76190476190003" style="vector-effect: non-scaling-stroke;" /></g><g style="fill-opacity: 1.0;stroke: rgb(0.0 0.0 0.0);fill: rgb(256.0 151.59215686274507 0.0);stroke-width: 0.768;"><path d="M 112.61079536193907 127.99999999999528 C 118.47591749309997 127.97653941762823 124.34111000607822 127.97653941762823 130.206232137239 127.99999999999508 C 127.25335361134118 122.93238552929496 124.32075735485199 117.85297981496956 121.40851374958896 112.76190476190247 C 118.49627014432593 117.8529798149698 115.56367388783674 122.93238552929522 112.61079536193907 127.99999999999532" style="vector-effect: non-scaling-stroke;" /></g><g style="fill-opacity: 1.0;stroke: rgb(0.0 0.0 0.0);fill: rgb(256.0 151.59215686274507 0.0);stroke-width: 0.768;"><path d="M 130.2062321372421 127.99999999999528 C 136.07135426840298 127.97653941762823 141.93654678138125 127.97653941762823 147.80166891254203 127.99999999999508 C 144.8487903866442 122.93238552929496 141.91619413015502 117.85297981496956 139.003950524892 112.76190476190247 C 136.09170691962896 117.8529798149698 133.15911066313978 122.93238552929522 130.2062321372421 127.99999999999532" style="vector-effect: non-scaling-stroke;" /></g><g style="fill-opacity: 1.0;stroke: rgb(0.0 0.0 0.0);fill: rgb(256.0 151.59215686274507 0.0);stroke-width: 0.768;"><path d="M 174.19482407549958 82.28571428570946 C 180.05994620666047 82.26225370334241 185.92513871963874 82.26225370334241 191.7902608507995 82.28571428570926 C 188.83738232490168 77.21809981500914 185.9047860684125 72.13869410068374 182.99254246314948 67.04761904761665 C 180.08029885788645 72.13869410068398 177.14770260139727 77.2180998150094 174.19482407549958 82.2857142857095" style="vector-effect: non-scaling-stroke;" /></g><g style="fill-opacity: 1.0;stroke: rgb(0.0 0.0 0.0);fill: rgb(256.0 151.59215686274507 0.0);stroke-width: 0.768;"><path d="M 165.39710568784818 97.52380952380476 C 171.26222781900907 97.50034894143771 177.12742033198734 97.50034894143771 182.9925424631481 97.52380952380456 C 180.03966393725028 92.45619505310444 177.1070676807611 87.37678933877903 174.19482407549808 82.28571428571195 C 171.28258047023505 87.37678933877928 168.34998421374587 92.4561950531047 165.39710568784818 97.5238095238048" style="vector-effect: non-scaling-stroke;" /></g><g style="fill-opacity: 1.0;stroke: rgb(0.0 0.0 0.0);fill: rgb(256.0 151.59215686274507 0.0);stroke-width: 0.768;"><path d="M 182.99254246315124 97.52380952380476 C 188.85766459431213 97.50034894143771 194.7228571072904 97.50034894143771 200.58797923845117 97.52380952380456 C 197.63510071255334 92.45619505310444 194.70250445606416 87.37678933877903 191.79026085080113 82.28571428571195 C 188.8780172455381 87.37678933877928 185.94542098904893 92.4561950531047 182.99254246315124 97.5238095238048" style="vector-effect: non-scaling-stroke;" /></g><g style="fill-opacity: 1.0;stroke: rgb(0.0 0.0 0.0);fill: rgb(256.0 151.59215686274507 0.0);stroke-width: 0.768;"><path d="M 156.59938730019653 112.76190476189998 C 162.4645094313574 112.73844417953293 168.32970194433568 112.73844417953293 174.19482407549646 112.76190476189979 C 171.24194554959863 107.69429029119966 168.30934929310945 102.61488457687426 165.39710568784642 97.52380952380717 C 162.4848620825834 102.6148845768745 159.5522658260942 107.69429029119992 156.59938730019653 112.76190476190003" style="vector-effect: non-scaling-stroke;" /></g><g style="fill-opacity: 1.0;stroke: rgb(0.0 0.0 0.0);fill: rgb(256.0 151.59215686274507 0.0);stroke-width: 0.768;"><path d="M 147.80166891254513 127.99999999999528 C 153.666791043706 127.97653941762823 159.53198355668428 127.97653941762823 165.39710568784506 127.99999999999508 C 162.44422716194723 122.93238552929496 159.51163090545805 117.85297981496956 156.59938730019502 112.76190476190247 C 153.687143694932 117.8529798149698 150.7545474384428 122.93238552929522 147.80166891254513 127.99999999999532" style="vector-effect: non-scaling-stroke;" /></g><g style="fill-opacity: 1.0;stroke: rgb(0.0 0.0 0.0);fill: rgb(256.0 151.59215686274507 0.0);stroke-width: 0.768;"><path d="M 165.39710568784815 127.99999999999528 C 171.26222781900904 127.97653941762823 177.1274203319873 127.97653941762823 182.99254246314808 127.99999999999508 C 180.03966393725025 122.93238552929496 177.10706768076108 117.85297981496956 174.19482407549805 112.76190476190247 C 171.28258047023502 117.8529798149698 168.34998421374584 122.93238552929522 165.39710568784815 127.99999999999532" style="vector-effect: non-scaling-stroke;" /></g><g style="fill-opacity: 1.0;stroke: rgb(0.0 0.0 0.0);fill: rgb(256.0 151.59215686274507 0.0);stroke-width: 0.768;"><path d="M 191.7902608508026 112.76190476189998 C 197.6553829819635 112.73844417953293 203.52057549494177 112.73844417953293 209.38569762610254 112.76190476189979 C 206.4328191002047 107.69429029119966 203.50022284371553 102.61488457687426 200.5879792384525 97.52380952380717 C 197.67573563318948 102.6148845768745 194.7431393767003 107.69429029119992 191.7902608508026 112.76190476190003" style="vector-effect: non-scaling-stroke;" /></g><g style="fill-opacity: 1.0;stroke: rgb(0.0 0.0 0.0);fill: rgb(256.0 151.59215686274507 0.0);stroke-width: 0.768;"><path d="M 182.9925424631512 127.99999999999528 C 188.8576645943121 127.97653941762823 194.72285710729037 127.97653941762823 200.58797923845114 127.99999999999508 C 197.6351007125533 122.93238552929496 194.70250445606413 117.85297981496956 191.7902608508011 112.76190476190247 C 188.87801724553808 117.8529798149698 185.9454209890489 122.93238552929522 182.9925424631512 127.99999999999532" style="vector-effect: non-scaling-stroke;" /></g><g style="fill-opacity: 1.0;stroke: rgb(0.0 0.0 0.0);fill: rgb(256.0 151.59215686274507 0.0);stroke-width: 0.768;"><path d="M 200.58797923845427 127.99999999999528 C 206.45310136961515 127.97653941762823 212.31829388259342 127.97653941762823 218.1834160137542 127.99999999999508 C 215.23053748785637 122.93238552929496 212.2979412313672 117.85297981496956 209.38569762610416 112.76190476190247 C 206.47345402084113 117.8529798149698 203.54085776435195 122.93238552929522 200.58797923845427 127.99999999999532" style="vector-effect: non-scaling-stroke;" /></g><g style="fill-opacity: 1.0;stroke: rgb(0.0 0.0 0.0);fill: rgb(256.0 151.59215686274507 0.0);stroke-width: 0.768;"><path d="M 68.62220342368133 143.2380952380904 C 74.48732555484223 143.21463465572336 80.35251806782048 143.21463465572336 86.21764019898124 143.23809523809018 C 83.26476167308344 138.17048076739007 80.33216541659425 133.09107505306466 77.41992181133122 127.99999999999758 C 74.50767820606819 133.0910750530649 71.575081949579 138.17048076739033 68.62220342368133 143.23809523809044" style="vector-effect: non-scaling-stroke;" /></g><g style="fill-opacity: 1.0;stroke: rgb(0.0 0.0 0.0);fill: rgb(256.0 151.59215686274507 0.0);stroke-width: 0.768;"><path d="M 59.82448503602992 158.4761904761857 C 65.68960716719083 158.45272989381866 71.55479968016908 158.45272989381866 77.41992181132984 158.47619047618548 C 74.46704328543204 153.40857600548537 71.53444702894285 148.32917029115995 68.62220342367982 143.23809523809288 C 65.70995981841679 148.3291702911602 62.7773635619276 153.40857600548563 59.82448503602993 158.47619047618574" style="vector-effect: non-scaling-stroke;" /></g><g style="fill-opacity: 1.0;stroke: rgb(0.0 0.0 0.0);fill: rgb(256.0 151.59215686274507 0.0);stroke-width: 0.768;"><path d="M 77.41992181133296 158.4761904761857 C 83.28504394249387 158.45272989381866 89.15023645547213 158.45272989381866 95.01535858663289 158.47619047618548 C 92.06248006073508 153.40857600548537 89.12988380424589 148.32917029115995 86.21764019898286 143.23809523809288 C 83.30539659371983 148.3291702911602 80.37280033723064 153.40857600548563 77.41992181133297 158.47619047618574" style="vector-effect: non-scaling-stroke;" /></g><g style="fill-opacity: 1.0;stroke: rgb(0.0 0.0 0.0);fill: rgb(256.0 151.59215686274507 0.0);stroke-width: 0.768;"><path d="M 51.02676664837828 173.71428571428095 C 56.89188877953918 173.6908251319139 62.757081292517434 173.6908251319139 68.6222034236782 173.71428571428072 C 65.6693248977804 168.6466712435806 62.7367286412912 163.5672655292552 59.82448503602818 158.47619047618812 C 56.91224143076516 163.56726552925545 53.97964517427596 168.64667124358087 51.026766648378285 173.71428571428098" style="vector-effect: non-scaling-stroke;" /></g><g style="fill-opacity: 1.0;stroke: rgb(0.0 0.0 0.0);fill: rgb(256.0 151.59215686274507 0.0);stroke-width: 0.768;"><path d="M 42.22904826072688 188.95238095237625 C 48.09417039188778 188.9289203700092 53.95936290486603 188.9289203700092 59.8244850360268 188.95238095237602 C 56.871606510129 183.8847664816759 53.9390102536398 178.8053607673505 51.02676664837678 173.71428571428342 C 48.114523043113756 178.80536076735075 45.18192678662456 183.88476648167617 42.229048260726884 188.95238095237627" style="vector-effect: non-scaling-stroke;" /></g><g style="fill-opacity: 1.0;stroke: rgb(0.0 0.0 0.0);fill: rgb(256.0 151.59215686274507 0.0);stroke-width: 0.768;"><path d="M 59.82448503602992 188.95238095237625 C 65.68960716719083 188.9289203700092 71.55479968016908 188.9289203700092 77.41992181132984 188.95238095237602 C 74.46704328543204 183.8847664816759 71.53444702894285 178.8053607673505 68.62220342367982 173.71428571428342 C 65.70995981841679 178.80536076735075 62.7773635619276 183.88476648167617 59.82448503602993 188.95238095237627" style="vector-effect: non-scaling-stroke;" /></g><g style="fill-opacity: 1.0;stroke: rgb(0.0 0.0 0.0);fill: rgb(256.0 151.59215686274507 0.0);stroke-width: 0.768;"><path d="M 86.21764019898436 173.71428571428095 C 92.08276233014527 173.6908251319139 97.94795484312353 173.6908251319139 103.81307697428429 173.71428571428072 C 100.86019844838648 168.6466712435806 97.9276021918973 163.5672655292552 95.01535858663426 158.47619047618812 C 92.10311498137123 163.56726552925545 89.17051872488204 168.64667124358087 86.21764019898437 173.71428571428098" style="vector-effect: non-scaling-stroke;" /></g><g style="fill-opacity: 1.0;stroke: rgb(0.0 0.0 0.0);fill: rgb(256.0 151.59215686274507 0.0);stroke-width: 0.768;"><path d="M 77.41992181133296 188.95238095237625 C 83.28504394249387 188.9289203700092 89.15023645547213 188.9289203700092 95.01535858663289 188.95238095237602 C 92.06248006073508 183.8847664816759 89.12988380424589 178.8053607673505 86.21764019898286 173.71428571428342 C 83.30539659371983 178.80536076735075 80.37280033723064 183.88476648167617 77.41992181133297 188.95238095237627" style="vector-effect: non-scaling-stroke;" /></g><g style="fill-opacity: 1.0;stroke: rgb(0.0 0.0 0.0);fill: rgb(256.0 151.59215686274507 0.0);stroke-width: 0.768;"><path d="M 95.01535858663601 188.95238095237625 C 100.88048071779691 188.9289203700092 106.74567323077517 188.9289203700092 112.61079536193593 188.95238095237602 C 109.65791683603813 183.8847664816759 106.72532057954894 178.8053607673505 103.8130769742859 173.71428571428342 C 100.90083336902288 178.80536076735075 97.96823711253369 183.88476648167617 95.01535858663601 188.95238095237627" style="vector-effect: non-scaling-stroke;" /></g><g style="fill-opacity: 1.0;stroke: rgb(0.0 0.0 0.0);fill: rgb(256.0 151.59215686274507 0.0);stroke-width: 0.768;"><path d="M 33.431329873075235 204.1904761904714 C 39.29645200423614 204.16701560810435 45.16164451721439 204.16701560810435 51.02676664837516 204.19047619047117 C 48.073888122477356 199.12286171977107 45.14129186598816 194.04345600544565 42.229048260725136 188.95238095237858 C 39.316804655462114 194.0434560054459 36.384208398972916 199.12286171977132 33.43132987307524 204.19047619047143" style="vector-effect: non-scaling-stroke;" /></g><g style="fill-opacity: 1.0;stroke: rgb(0.0 0.0 0.0);fill: rgb(256.0 151.59215686274507 0.0);stroke-width: 0.768;"><path d="M 24.633611485423835 219.4285714285667 C 30.498733616584737 219.40511084619965 36.36392612956299 219.40511084619965 42.22904826072376 219.42857142856647 C 39.276169734825956 214.36095695786636 36.34357347833676 209.28155124354095 33.431329873073736 204.19047619047387 C 30.51908626781071 209.2815512435412 27.586490011321516 214.36095695786662 24.63361148542384 219.42857142856673" style="vector-effect: non-scaling-stroke;" /></g><g style="fill-opacity: 1.0;stroke: rgb(0.0 0.0 0.0);fill: rgb(256.0 151.59215686274507 0.0);stroke-width: 0.768;"><path d="M 42.22904826072688 219.4285714285667 C 48.09417039188778 219.40511084619965 53.95936290486603 219.40511084619965 59.8244850360268 219.42857142856647 C 56.871606510129 214.36095695786636 53.9390102536398 209.28155124354095 51.02676664837678 204.19047619047387 C 48.114523043113756 209.2815512435412 45.18192678662456 214.36095695786662 42.229048260726884 219.42857142856673" style="vector-effect: non-scaling-stroke;" /></g><g style="fill-opacity: 1.0;stroke: rgb(0.0 0.0 0.0);fill: rgb(256.0 151.59215686274507 0.0);stroke-width: 0.768;"><path d="M 15.835893097772193 234.6666666666619 C 21.701015228933095 234.64320608429486 27.56620774191135 234.64320608429486 33.431329873072116 234.66666666666168 C 30.478451347174314 229.59905219596158 27.54585509068512 224.51964648163616 24.633611485422094 219.4285714285691 C 21.721367880159068 224.5196464816364 18.788771623669874 229.59905219596183 15.835893097772198 234.66666666666194" style="vector-effect: non-scaling-stroke;" /></g><g style="fill-opacity: 1.0;stroke: rgb(0.0 0.0 0.0);fill: rgb(256.0 151.59215686274507 0.0);stroke-width: 0.768;"><path d="M 7.038174710120796 249.9047619047572 C 12.9032968412817 249.88130132239016 18.768489354259952 249.88130132239016 24.633611485420722 249.90476190475698 C 21.680732959522913 244.83714743405687 18.748136703033722 239.75774171973146 15.835893097770697 234.66666666666438 C 12.923649492507673 239.7577417197317 9.991053236018479 244.83714743405713 7.038174710120801 249.90476190475724" style="vector-effect: non-scaling-stroke;" /></g><g style="fill-opacity: 1.0;stroke: rgb(0.0 0.0 0.0);fill: rgb(256.0 151.59215686274507 0.0);stroke-width: 0.768;"><path d="M 24.633611485423835 249.9047619047572 C 30.498733616584737 249.88130132239016 36.36392612956299 249.88130132239016 42.22904826072376 249.90476190475698 C 39.276169734825956 244.83714743405687 36.34357347833676 239.75774171973146 33.431329873073736 234.66666666666438 C 30.51908626781071 239.7577417197317 27.586490011321516 244.83714743405713 24.63361148542384 249.90476190475724" style="vector-effect: non-scaling-stroke;" /></g><g style="fill-opacity: 1.0;stroke: rgb(0.0 0.0 0.0);fill: rgb(256.0 151.59215686274507 0.0);stroke-width: 0.768;"><path d="M 51.02676664837828 234.6666666666619 C 56.89188877953918 234.64320608429486 62.757081292517434 234.64320608429486 68.6222034236782 234.66666666666168 C 65.6693248977804 229.59905219596158 62.7367286412912 224.51964648163616 59.82448503602818 219.4285714285691 C 56.91224143076516 224.5196464816364 53.97964517427596 229.59905219596183 51.026766648378285 234.66666666666194" style="vector-effect: non-scaling-stroke;" /></g><g style="fill-opacity: 1.0;stroke: rgb(0.0 0.0 0.0);fill: rgb(256.0 151.59215686274507 0.0);stroke-width: 0.768;"><path d="M 42.22904826072688 249.9047619047572 C 48.09417039188778 249.88130132239016 53.95936290486603 249.88130132239016 59.8244850360268 249.90476190475698 C 56.871606510129 244.83714743405687 53.9390102536398 239.75774171973146 51.02676664837678 234.66666666666438 C 48.114523043113756 239.7577417197317 45.18192678662456 244.83714743405713 42.229048260726884 249.90476190475724" style="vector-effect: non-scaling-stroke;" /></g><g style="fill-opacity: 1.0;stroke: rgb(0.0 0.0 0.0);fill: rgb(256.0 151.59215686274507 0.0);stroke-width: 0.768;"><path d="M 59.82448503602992 249.9047619047572 C 65.68960716719083 249.88130132239016 71.55479968016908 249.88130132239016 77.41992181132984 249.90476190475698 C 74.46704328543204 244.83714743405687 71.53444702894285 239.75774171973146 68.62220342367982 234.66666666666438 C 65.70995981841679 239.7577417197317 62.7773635619276 244.83714743405713 59.82448503602993 249.90476190475724" style="vector-effect: non-scaling-stroke;" /></g><g style="fill-opacity: 1.0;stroke: rgb(0.0 0.0 0.0);fill: rgb(256.0 151.59215686274507 0.0);stroke-width: 0.768;"><path d="M 103.81307697428741 204.1904761904714 C 109.67819910544831 204.16701560810435 115.54339161842657 204.16701560810435 121.40851374958733 204.19047619047117 C 118.45563522368953 199.12286171977107 115.52303896720034 194.04345600544565 112.6107953619373 188.95238095237858 C 109.69855175667428 194.0434560054459 106.76595550018509 199.12286171977132 103.81307697428741 204.19047619047143" style="vector-effect: non-scaling-stroke;" /></g><g style="fill-opacity: 1.0;stroke: rgb(0.0 0.0 0.0);fill: rgb(256.0 151.59215686274507 0.0);stroke-width: 0.768;"><path d="M 95.01535858663601 219.4285714285667 C 100.88048071779691 219.40511084619965 106.74567323077517 219.40511084619965 112.61079536193593 219.42857142856647 C 109.65791683603813 214.36095695786636 106.72532057954894 209.28155124354095 103.8130769742859 204.19047619047387 C 100.90083336902288 209.2815512435412 97.96823711253369 214.36095695786662 95.01535858663601 219.42857142856673" style="vector-effect: non-scaling-stroke;" /></g><g style="fill-opacity: 1.0;stroke: rgb(0.0 0.0 0.0);fill: rgb(256.0 151.59215686274507 0.0);stroke-width: 0.768;"><path d="M 112.61079536193904 219.4285714285667 C 118.47591749309996 219.40511084619965 124.34111000607821 219.40511084619965 130.20623213723897 219.42857142856647 C 127.25335361134117 214.36095695786636 124.32075735485198 209.28155124354095 121.40851374958895 204.19047619047387 C 118.49627014432592 209.2815512435412 115.56367388783673 214.36095695786662 112.61079536193905 219.42857142856673" style="vector-effect: non-scaling-stroke;" /></g><g style="fill-opacity: 1.0;stroke: rgb(0.0 0.0 0.0);fill: rgb(256.0 151.59215686274507 0.0);stroke-width: 0.768;"><path d="M 86.21764019898436 234.6666666666619 C 92.08276233014527 234.64320608429486 97.94795484312353 234.64320608429486 103.81307697428429 234.66666666666168 C 100.86019844838648 229.59905219596158 97.9276021918973 224.51964648163616 95.01535858663426 219.4285714285691 C 92.10311498137123 224.5196464816364 89.17051872488204 229.59905219596183 86.21764019898437 234.66666666666194" style="vector-effect: non-scaling-stroke;" /></g><g style="fill-opacity: 1.0;stroke: rgb(0.0 0.0 0.0);fill: rgb(256.0 151.59215686274507 0.0);stroke-width: 0.768;"><path d="M 77.41992181133296 249.9047619047572 C 83.28504394249387 249.88130132239016 89.15023645547213 249.88130132239016 95.01535858663289 249.90476190475698 C 92.06248006073508 244.83714743405687 89.12988380424589 239.75774171973146 86.21764019898286 234.66666666666438 C 83.30539659371983 239.7577417197317 80.37280033723064 244.83714743405713 77.41992181133297 249.90476190475724" style="vector-effect: non-scaling-stroke;" /></g><g style="fill-opacity: 1.0;stroke: rgb(0.0 0.0 0.0);fill: rgb(256.0 151.59215686274507 0.0);stroke-width: 0.768;"><path d="M 95.01535858663601 249.9047619047572 C 100.88048071779691 249.88130132239016 106.74567323077517 249.88130132239016 112.61079536193593 249.90476190475698 C 109.65791683603813 244.83714743405687 106.72532057954894 239.75774171973146 103.8130769742859 234.66666666666438 C 100.90083336902288 239.7577417197317 97.96823711253369 244.83714743405713 95.01535858663601 249.90476190475724" style="vector-effect: non-scaling-stroke;" /></g><g style="fill-opacity: 1.0;stroke: rgb(0.0 0.0 0.0);fill: rgb(256.0 151.59215686274507 0.0);stroke-width: 0.768;"><path d="M 121.40851374959047 234.6666666666619 C 127.27363588075137 234.64320608429486 133.13882839372963 234.64320608429486 139.0039505248904 234.66666666666168 C 136.05107199899257 229.59905219596158 133.1184757425034 224.51964648163616 130.20623213724036 219.4285714285691 C 127.29398853197733 224.5196464816364 124.36139227548814 229.59905219596183 121.40851374959047 234.66666666666194" style="vector-effect: non-scaling-stroke;" /></g><g style="fill-opacity: 1.0;stroke: rgb(0.0 0.0 0.0);fill: rgb(256.0 151.59215686274507 0.0);stroke-width: 0.768;"><path d="M 112.61079536193907 249.9047619047572 C 118.47591749309997 249.88130132239016 124.34111000607822 249.88130132239016 130.206232137239 249.90476190475698 C 127.25335361134118 244.83714743405687 124.32075735485199 239.75774171973146 121.40851374958896 234.66666666666438 C 118.49627014432593 239.7577417197317 115.56367388783674 244.83714743405713 112.61079536193907 249.90476190475724" style="vector-effect: non-scaling-stroke;" /></g><g style="fill-opacity: 1.0;stroke: rgb(0.0 0.0 0.0);fill: rgb(256.0 151.59215686274507 0.0);stroke-width: 0.768;"><path d="M 130.2062321372421 249.9047619047572 C 136.07135426840298 249.88130132239016 141.93654678138125 249.88130132239016 147.80166891254203 249.90476190475698 C 144.8487903866442 244.83714743405687 141.91619413015502 239.75774171973146 139.003950524892 234.66666666666438 C 136.09170691962896 239.7577417197317 133.15911066313978 244.83714743405713 130.2062321372421 249.90476190475724" style="vector-effect: non-scaling-stroke;" /></g><g style="fill-opacity: 1.0;stroke: rgb(0.0 0.0 0.0);fill: rgb(256.0 151.59215686274507 0.0);stroke-width: 0.768;"><path d="M 209.38569762610567 143.2380952380904 C 215.25081975726656 143.21463465572336 221.11601227024482 143.21463465572336 226.9811344014056 143.23809523809018 C 224.02825587550777 138.17048076739007 221.0956596190186 133.09107505306466 218.18341601375556 127.99999999999758 C 215.27117240849253 133.0910750530649 212.33857615200336 138.17048076739033 209.38569762610567 143.23809523809044" style="vector-effect: non-scaling-stroke;" /></g><g style="fill-opacity: 1.0;stroke: rgb(0.0 0.0 0.0);fill: rgb(256.0 151.59215686274507 0.0);stroke-width: 0.768;"><path d="M 200.58797923845427 158.4761904761857 C 206.45310136961515 158.45272989381866 212.31829388259342 158.45272989381866 218.1834160137542 158.47619047618548 C 215.23053748785637 153.40857600548537 212.2979412313672 148.32917029115995 209.38569762610416 143.23809523809288 C 206.47345402084113 148.3291702911602 203.54085776435195 153.40857600548563 200.58797923845427 158.47619047618574" style="vector-effect: non-scaling-stroke;" /></g><g style="fill-opacity: 1.0;stroke: rgb(0.0 0.0 0.0);fill: rgb(256.0 151.59215686274507 0.0);stroke-width: 0.768;"><path d="M 218.1834160137573 158.4761904761857 C 224.04853814491818 158.45272989381866 229.91373065789645 158.45272989381866 235.77885278905723 158.47619047618548 C 232.8259742631594 153.40857600548537 229.89337800667022 148.32917029115995 226.9811344014072 143.23809523809288 C 224.06889079614416 148.3291702911602 221.13629453965498 153.40857600548563 218.1834160137573 158.47619047618574" style="vector-effect: non-scaling-stroke;" /></g><g style="fill-opacity: 1.0;stroke: rgb(0.0 0.0 0.0);fill: rgb(256.0 151.59215686274507 0.0);stroke-width: 0.768;"><path d="M 191.79026085080264 173.71428571428095 C 197.65538298196353 173.6908251319139 203.5205754949418 173.6908251319139 209.38569762610257 173.71428571428072 C 206.43281910020474 168.6466712435806 203.50022284371556 163.5672655292552 200.58797923845253 158.47619047618812 C 197.6757356331895 163.56726552925545 194.74313937670033 168.64667124358087 191.79026085080264 173.71428571428098" style="vector-effect: non-scaling-stroke;" /></g><g style="fill-opacity: 1.0;stroke: rgb(0.0 0.0 0.0);fill: rgb(256.0 151.59215686274507 0.0);stroke-width: 0.768;"><path d="M 182.99254246315124 188.95238095237625 C 188.85766459431213 188.9289203700092 194.7228571072904 188.9289203700092 200.58797923845117 188.95238095237602 C 197.63510071255334 183.8847664816759 194.70250445606416 178.8053607673505 191.79026085080113 173.71428571428342 C 188.8780172455381 178.80536076735075 185.94542098904893 183.88476648167617 182.99254246315124 188.95238095237627" style="vector-effect: non-scaling-stroke;" /></g><g style="fill-opacity: 1.0;stroke: rgb(0.0 0.0 0.0);fill: rgb(256.0 151.59215686274507 0.0);stroke-width: 0.768;"><path d="M 200.58797923845427 188.95238095237625 C 206.45310136961515 188.9289203700092 212.31829388259342 188.9289203700092 218.1834160137542 188.95238095237602 C 215.23053748785637 183.8847664816759 212.2979412313672 178.8053607673505 209.38569762610416 173.71428571428342 C 206.47345402084113 178.80536076735075 203.54085776435195 183.88476648167617 200.58797923845427 188.95238095237627" style="vector-effect: non-scaling-stroke;" /></g><g style="fill-opacity: 1.0;stroke: rgb(0.0 0.0 0.0);fill: rgb(256.0 151.59215686274507 0.0);stroke-width: 0.768;"><path d="M 226.98113440140872 173.71428571428095 C 232.8462565325696 173.6908251319139 238.71144904554788 173.6908251319139 244.57657117670865 173.71428571428072 C 241.62369265081082 168.6466712435806 238.69109639432165 163.5672655292552 235.77885278905862 158.47619047618812 C 232.8666091837956 163.56726552925545 229.9340129273064 168.64667124358087 226.98113440140872 173.71428571428098" style="vector-effect: non-scaling-stroke;" /></g><g style="fill-opacity: 1.0;stroke: rgb(0.0 0.0 0.0);fill: rgb(256.0 151.59215686274507 0.0);stroke-width: 0.768;"><path d="M 218.18341601375732 188.95238095237625 C 224.0485381449182 188.9289203700092 229.91373065789648 188.9289203700092 235.77885278905725 188.95238095237602 C 232.82597426315942 183.8847664816759 229.89337800667025 178.8053607673505 226.98113440140722 173.71428571428342 C 224.0688907961442 178.80536076735075 221.136294539655 183.88476648167617 218.18341601375732 188.95238095237627" style="vector-effect: non-scaling-stroke;" /></g><g style="fill-opacity: 1.0;stroke: rgb(0.0 0.0 0.0);fill: rgb(256.0 151.59215686274507 0.0);stroke-width: 0.768;"><path d="M 235.77885278906038 188.95238095237625 C 241.64397492022127 188.9289203700092 247.50916743319954 188.9289203700092 253.3742895643603 188.95238095237602 C 250.42141103846248 183.8847664816759 247.4888147819733 178.8053607673505 244.57657117671027 173.71428571428342 C 241.66432757144725 178.80536076735075 238.73173131495807 183.88476648167617 235.77885278906038 188.95238095237627" style="vector-effect: non-scaling-stroke;" /></g><g style="fill-opacity: 1.0;stroke: rgb(0.0 0.0 0.0);fill: rgb(256.0 151.59215686274507 0.0);stroke-width: 0.768;"><path d="M 174.19482407549958 204.1904761904714 C 180.05994620666047 204.16701560810435 185.92513871963874 204.16701560810435 191.7902608507995 204.19047619047117 C 188.83738232490168 199.12286171977107 185.9047860684125 194.04345600544565 182.99254246314948 188.95238095237858 C 180.08029885788645 194.0434560054459 177.14770260139727 199.12286171977132 174.19482407549958 204.19047619047143" style="vector-effect: non-scaling-stroke;" /></g><g style="fill-opacity: 1.0;stroke: rgb(0.0 0.0 0.0);fill: rgb(256.0 151.59215686274507 0.0);stroke-width: 0.768;"><path d="M 165.39710568784818 219.4285714285667 C 171.26222781900907 219.40511084619965 177.12742033198734 219.40511084619965 182.9925424631481 219.42857142856647 C 180.03966393725028 214.36095695786636 177.1070676807611 209.28155124354095 174.19482407549808 204.19047619047387 C 171.28258047023505 209.2815512435412 168.34998421374587 214.36095695786662 165.39710568784818 219.42857142856673" style="vector-effect: non-scaling-stroke;" /></g><g style="fill-opacity: 1.0;stroke: rgb(0.0 0.0 0.0);fill: rgb(256.0 151.59215686274507 0.0);stroke-width: 0.768;"><path d="M 182.99254246315124 219.4285714285667 C 188.85766459431213 219.40511084619965 194.7228571072904 219.40511084619965 200.58797923845117 219.42857142856647 C 197.63510071255334 214.36095695786636 194.70250445606416 209.28155124354095 191.79026085080113 204.19047619047387 C 188.8780172455381 209.2815512435412 185.94542098904893 214.36095695786662 182.99254246315124 219.42857142856673" style="vector-effect: non-scaling-stroke;" /></g><g style="fill-opacity: 1.0;stroke: rgb(0.0 0.0 0.0);fill: rgb(256.0 151.59215686274507 0.0);stroke-width: 0.768;"><path d="M 156.59938730019653 234.6666666666619 C 162.4645094313574 234.64320608429486 168.32970194433568 234.64320608429486 174.19482407549646 234.66666666666168 C 171.24194554959863 229.59905219596158 168.30934929310945 224.51964648163616 165.39710568784642 219.4285714285691 C 162.4848620825834 224.5196464816364 159.5522658260942 229.59905219596183 156.59938730019653 234.66666666666194" style="vector-effect: non-scaling-stroke;" /></g><g style="fill-opacity: 1.0;stroke: rgb(0.0 0.0 0.0);fill: rgb(256.0 151.59215686274507 0.0);stroke-width: 0.768;"><path d="M 147.80166891254513 249.9047619047572 C 153.666791043706 249.88130132239016 159.53198355668428 249.88130132239016 165.39710568784506 249.90476190475698 C 162.44422716194723 244.83714743405687 159.51163090545805 239.75774171973146 156.59938730019502 234.66666666666438 C 153.687143694932 239.7577417197317 150.7545474384428 244.83714743405713 147.80166891254513 249.90476190475724" style="vector-effect: non-scaling-stroke;" /></g><g style="fill-opacity: 1.0;stroke: rgb(0.0 0.0 0.0);fill: rgb(256.0 151.59215686274507 0.0);stroke-width: 0.768;"><path d="M 165.39710568784815 249.9047619047572 C 171.26222781900904 249.88130132239016 177.1274203319873 249.88130132239016 182.99254246314808 249.90476190475698 C 180.03966393725025 244.83714743405687 177.10706768076108 239.75774171973146 174.19482407549805 234.66666666666438 C 171.28258047023502 239.7577417197317 168.34998421374584 244.83714743405713 165.39710568784815 249.90476190475724" style="vector-effect: non-scaling-stroke;" /></g><g style="fill-opacity: 1.0;stroke: rgb(0.0 0.0 0.0);fill: rgb(256.0 151.59215686274507 0.0);stroke-width: 0.768;"><path d="M 191.7902608508026 234.6666666666619 C 197.6553829819635 234.64320608429486 203.52057549494177 234.64320608429486 209.38569762610254 234.66666666666168 C 206.4328191002047 229.59905219596158 203.50022284371553 224.51964648163616 200.5879792384525 219.4285714285691 C 197.67573563318948 224.5196464816364 194.7431393767003 229.59905219596183 191.7902608508026 234.66666666666194" style="vector-effect: non-scaling-stroke;" /></g><g style="fill-opacity: 1.0;stroke: rgb(0.0 0.0 0.0);fill: rgb(256.0 151.59215686274507 0.0);stroke-width: 0.768;"><path d="M 182.9925424631512 249.9047619047572 C 188.8576645943121 249.88130132239016 194.72285710729037 249.88130132239016 200.58797923845114 249.90476190475698 C 197.6351007125533 244.83714743405687 194.70250445606413 239.75774171973146 191.7902608508011 234.66666666666438 C 188.87801724553808 239.7577417197317 185.9454209890489 244.83714743405713 182.9925424631512 249.90476190475724" style="vector-effect: non-scaling-stroke;" /></g><g style="fill-opacity: 1.0;stroke: rgb(0.0 0.0 0.0);fill: rgb(256.0 151.59215686274507 0.0);stroke-width: 0.768;"><path d="M 200.58797923845427 249.9047619047572 C 206.45310136961515 249.88130132239016 212.31829388259342 249.88130132239016 218.1834160137542 249.90476190475698 C 215.23053748785637 244.83714743405687 212.2979412313672 239.75774171973146 209.38569762610416 234.66666666666438 C 206.47345402084113 239.7577417197317 203.54085776435195 244.83714743405713 200.58797923845427 249.90476190475724" style="vector-effect: non-scaling-stroke;" /></g><g style="fill-opacity: 1.0;stroke: rgb(0.0 0.0 0.0);fill: rgb(256.0 151.59215686274507 0.0);stroke-width: 0.768;"><path d="M 244.57657117671175 204.1904761904714 C 250.44169330787264 204.16701560810435 256.3068858208509 204.16701560810435 262.17200795201165 204.19047619047117 C 259.21912942611385 199.12286171977107 256.28653316962465 194.04345600544565 253.37428956436165 188.95238095237858 C 250.46204595909862 194.0434560054459 247.52944970260944 199.12286171977132 244.57657117671175 204.19047619047143" style="vector-effect: non-scaling-stroke;" /></g><g style="fill-opacity: 1.0;stroke: rgb(0.0 0.0 0.0);fill: rgb(256.0 151.59215686274507 0.0);stroke-width: 0.768;"><path d="M 235.77885278906035 219.4285714285667 C 241.64397492022124 219.40511084619965 247.5091674331995 219.40511084619965 253.37428956436028 219.42857142856647 C 250.42141103846245 214.36095695786636 247.48881478197328 209.28155124354095 244.57657117671025 204.19047619047387 C 241.66432757144722 209.2815512435412 238.73173131495804 214.36095695786662 235.77885278906035 219.42857142856673" style="vector-effect: non-scaling-stroke;" /></g><g style="fill-opacity: 1.0;stroke: rgb(0.0 0.0 0.0);fill: rgb(256.0 151.59215686274507 0.0);stroke-width: 0.768;"><path d="M 253.3742895643634 219.4285714285667 C 259.2394116955243 219.40511084619965 265.10460420850256 219.40511084619965 270.96972633966334 219.42857142856647 C 268.01684781376554 214.36095695786636 265.08425155727633 209.28155124354095 262.1720079520133 204.19047619047387 C 259.2597643467503 209.2815512435412 256.32716809026107 214.36095695786662 253.3742895643634 219.42857142856673" style="vector-effect: non-scaling-stroke;" /></g><g style="fill-opacity: 1.0;stroke: rgb(0.0 0.0 0.0);fill: rgb(256.0 151.59215686274507 0.0);stroke-width: 0.768;"><path d="M 226.9811344014087 234.6666666666619 C 232.84625653256958 234.64320608429486 238.71144904554785 234.64320608429486 244.57657117670863 234.66666666666168 C 241.6236926508108 229.59905219596158 238.69109639432162 224.51964648163616 235.7788527890586 219.4285714285691 C 232.86660918379556 224.5196464816364 229.93401292730638 229.59905219596183 226.9811344014087 234.66666666666194" style="vector-effect: non-scaling-stroke;" /></g><g style="fill-opacity: 1.0;stroke: rgb(0.0 0.0 0.0);fill: rgb(256.0 151.59215686274507 0.0);stroke-width: 0.768;"><path d="M 218.1834160137573 249.9047619047572 C 224.04853814491818 249.88130132239016 229.91373065789645 249.88130132239016 235.77885278905723 249.90476190475698 C 232.8259742631594 244.83714743405687 229.89337800667022 239.75774171973146 226.9811344014072 234.66666666666438 C 224.06889079614416 239.7577417197317 221.13629453965498 244.83714743405713 218.1834160137573 249.90476190475724" style="vector-effect: non-scaling-stroke;" /></g><g style="fill-opacity: 1.0;stroke: rgb(0.0 0.0 0.0);fill: rgb(256.0 151.59215686274507 0.0);stroke-width: 0.768;"><path d="M 235.77885278906032 249.9047619047572 C 241.6439749202212 249.88130132239016 247.50916743319948 249.88130132239016 253.37428956436025 249.90476190475698 C 250.42141103846242 244.83714743405687 247.48881478197325 239.75774171973146 244.57657117671022 234.66666666666438 C 241.6643275714472 239.7577417197317 238.731731314958 244.83714743405713 235.77885278906032 249.90476190475724" style="vector-effect: non-scaling-stroke;" /></g><g style="fill-opacity: 1.0;stroke: rgb(0.0 0.0 0.0);fill: rgb(256.0 151.59215686274507 0.0);stroke-width: 0.768;"><path d="M 262.1720079520148 234.6666666666619 C 268.0371300831757 234.64320608429486 273.90232259615397 234.64320608429486 279.76744472731474 234.66666666666168 C 276.81456620141694 229.59905219596158 273.88196994492773 224.51964648163616 270.9697263396647 219.4285714285691 C 268.0574827344017 224.5196464816364 265.12488647791247 229.59905219596183 262.1720079520148 234.66666666666194" style="vector-effect: non-scaling-stroke;" /></g><g style="fill-opacity: 1.0;stroke: rgb(0.0 0.0 0.0);fill: rgb(256.0 151.59215686274507 0.0);stroke-width: 0.768;"><path d="M 253.3742895643634 249.9047619047572 C 259.2394116955243 249.88130132239016 265.10460420850256 249.88130132239016 270.96972633966334 249.90476190475698 C 268.01684781376554 244.83714743405687 265.08425155727633 239.75774171973146 262.1720079520133 234.66666666666438 C 259.2597643467503 239.7577417197317 256.32716809026107 244.83714743405713 253.3742895643634 249.90476190475724" style="vector-effect: non-scaling-stroke;" /></g><g style="fill-opacity: 1.0;stroke: rgb(0.0 0.0 0.0);fill: rgb(256.0 151.59215686274507 0.0);stroke-width: 0.768;"><path d="M 270.9697263396664 249.9047619047572 C 276.83484847082735 249.88130132239016 282.7000409838056 249.88130132239016 288.56516311496637 249.90476190475698 C 285.61228458906857 244.83714743405687 282.67968833257936 239.75774171973146 279.76744472731633 234.66666666666438 C 276.8552011220533 239.7577417197317 273.9226048655641 244.83714743405713 270.9697263396664 249.90476190475724" style="vector-effect: non-scaling-stroke;" /></g></svg>