<?xml version="1.0" encoding="utf-8" ?>
<svg baseProfile="full" height="64" version="1.1" width="64" xmlns="http://www.w3.org/2000/svg" xmlns:ev="http://www.w3.org/2001/xml-events" xmlns:xlink="http://www.w3.org/1999/xlink">
    
            <g style="fill:rgb(256.0 151.59215686274507 0.0);stroke:rgb(0.0 0.0 0.0);stroke-width:0.192;fill-opacity:1.0">
                <path d="M 62.48 32.00 C 62.48 28.80 61.97 25.62 60.98 22.58 C 60.00 19.54 58.54 16.67 56.66 14.09 C 54.78 11.50 52.50 9.22 49.91 7.34 C 47.33 5.46 44.46 4.00 41.42 3.02 C 38.38 2.03 35.20 1.52 32.00 1.52 C 28.80 1.52 25.62 2.03 22.58 3.02 C 19.54 4.00 16.67 5.46 14.09 7.34 C 11.50 9.22 9.22 11.50 7.34 14.09 C 5.46 16.67 4.00 19.54 3.02 22.58 C 2.03 25.62 1.52 28.80 1.52 32.00 C 1.52 35.20 2.03 38.38 3.02 41.42 C 4.00 44.46 5.46 47.33 7.34 49.91 C 9.22 52.50 11.50 54.78 14.09 56.66 C 16.67 58.54 19.54 60.00 22.58 60.98 C 25.62 61.97 28.80 62.48 32.00 62.48 C 35.20 62.48 38.38 61.97 41.42 60.98 C 44.46 60.00 47.33 58.54 49.91 56.66 C 52.50 54.78 54.78 52.50 56.66 49.91 C 58.54 47.33 60.00 44.46 60.98 41.42 C 61.97 38.38 62.48 35.20 62.48 32.00 Z" />
            </g></svg>