<?xml version="1.0" encoding="utf-8" ?>
<svg baseProfile="full" height="256" version="1.1" width="296" xmlns="http://www.w3.org/2000/svg" xmlns:ev="http://www.w3.org/2001/xml-events" xmlns:xlink="http://www.w3.org/1999/xlink">
    
            <g style="fill:rgb(256.0 151.59215686274507 0.0);stroke:rgb(0.0 0.0 0.0);stroke-width:0.768;fill-opacity:1.0">
                <path d="M 139.00 21.33 C 140.18 21.33 141.35 21.32 142.52 21.32 C 143.70 21.32 144.87 21.32 146.04 21.32 C 147.22 21.32 148.39 21.32 149.56 21.32 C 150.73 21.32 151.91 21.32 153.08 21.32 C 154.25 21.32 155.43 21.33 156.60 21.33 C 156.01 20.32 155.42 19.31 154.83 18.29 C 154.24 17.28 153.65 16.26 153.07 15.25 C 152.48 14.23 151.89 13.22 151.31 12.20 C 150.72 11.18 150.14 10.17 149.55 9.15 C 148.97 8.13 148.38 7.11 147.80 6.10 C 147.22 7.11 146.64 8.13 146.05 9.15 C 145.47 10.17 144.88 11.18 144.30 12.20 C 143.71 13.22 143.12 14.23 142.54 15.25 C 141.95 16.26 141.36 17.28 140.77 18.29 C 140.18 19.31 139.59 20.32 139.00 21.33 Z" />
            </g>
            <g style="fill:rgb(256.0 151.59215686274507 0.0);stroke:rgb(0.0 0.0 0.0);stroke-width:0.768;fill-opacity:1.0">
                <path d="M 130.21 36.57 C 131.38 36.57 132.55 36.56 133.73 36.56 C 134.90 36.56 136.07 36.56 137.24 36.55 C 138.42 36.55 139.59 36.55 140.76 36.55 C 141.94 36.56 143.11 36.56 144.28 36.56 C 145.46 36.56 146.63 36.57 147.80 36.57 C 147.21 35.56 146.62 34.54 146.03 33.53 C 145.44 32.51 144.86 31.50 144.27 30.48 C 143.68 29.47 143.09 28.45 142.51 27.44 C 141.92 26.42 141.34 25.40 140.75 24.39 C 140.17 23.37 139.59 22.35 139.00 21.33 C 138.42 22.35 137.84 23.37 137.25 24.39 C 136.67 25.40 136.09 26.42 135.50 27.44 C 134.91 28.45 134.33 29.47 133.74 30.48 C 133.15 31.50 132.56 32.51 131.98 33.53 C 131.39 34.54 130.80 35.56 130.21 36.57 Z" />
            </g>
            <g style="fill:rgb(256.0 151.59215686274507 0.0);stroke:rgb(0.0 0.0 0.0);stroke-width:0.768;fill-opacity:1.0">
                <path d="M 147.80 36.57 C 148.97 36.57 150.15 36.56 151.32 36.56 C 152.49 36.56 153.67 36.56 154.84 36.55 C 156.01 36.55 157.19 36.55 158.36 36.55 C 159.53 36.56 160.70 36.56 161.88 36.56 C 163.05 36.56 164.22 36.57 165.40 36.57 C 164.81 35.56 164.22 34.54 163.63 33.53 C 163.04 32.51 162.45 31.50 161.86 30.48 C 161.28 29.47 160.69 28.45 160.10 27.44 C 159.52 26.42 158.93 25.40 158.35 24.39 C 157.77 23.37 157.18 22.35 156.60 21.33 C 156.02 22.35 155.43 23.37 154.85 24.39 C 154.27 25.40 153.68 26.42 153.09 27.44 C 152.51 28.45 151.92 29.47 151.34 30.48 C 150.75 31.50 150.16 32.51 149.57 33.53 C 148.98 34.54 148.39 35.56 147.80 36.57 Z" />
            </g>
            <g style="fill:rgb(256.0 151.59215686274507 0.0);stroke:rgb(0.0 0.0 0.0);stroke-width:0.768;fill-opacity:1.0">
                <path d="M 121.41 51.81 C 122.58 51.80 123.75 51.80 124.93 51.80 C 126.10 51.80 127.27 51.79 128.45 51.79 C 129.62 51.79 130.79 51.79 131.97 51.79 C 133.14 51.79 134.31 51.80 135.48 51.80 C 136.66 51.80 137.83 51.80 139.00 51.81 C 138.41 50.80 137.82 49.78 137.23 48.77 C 136.65 47.75 136.06 46.74 135.47 45.72 C 134.88 44.71 134.30 43.69 133.71 42.68 C 133.12 41.66 132.54 40.64 131.96 39.62 C 131.37 38.61 130.79 37.59 130.21 36.57 C 129.62 37.59 129.04 38.61 128.46 39.62 C 127.87 40.64 127.29 41.66 126.70 42.68 C 126.12 43.69 125.53 44.71 124.94 45.72 C 124.35 46.74 123.77 47.75 123.18 48.77 C 122.59 49.78 122.00 50.80 121.41 51.81 Z" />
            </g>
            <g style="fill:rgb(256.0 151.59215686274507 0.0);stroke:rgb(0.0 0.0 0.0);stroke-width:0.768;fill-opacity:1.0">
                <path d="M 112.61 67.05 C 113.78 67.04 114.96 67.04 116.13 67.04 C 117.30 67.03 118.48 67.03 119.65 67.03 C 120.82 67.03 122.00 67.03 123.17 67.03 C 124.34 67.03 125.51 67.03 126.69 67.04 C 127.86 67.04 129.03 67.04 130.21 67.05 C 129.62 66.03 129.03 65.02 128.44 64.01 C 127.85 62.99 127.26 61.98 126.67 60.96 C 126.09 59.95 125.50 58.93 124.91 57.91 C 124.33 56.90 123.74 55.88 123.16 54.86 C 122.57 53.85 121.99 52.83 121.41 51.81 C 120.83 52.83 120.24 53.85 119.66 54.86 C 119.07 55.88 118.49 56.90 117.90 57.91 C 117.32 58.93 116.73 59.95 116.14 60.96 C 115.56 61.98 114.97 62.99 114.38 64.01 C 113.79 65.02 113.20 66.03 112.61 67.05 Z" />
            </g>
            <g style="fill:rgb(256.0 151.59215686274507 0.0);stroke:rgb(0.0 0.0 0.0);stroke-width:0.768;fill-opacity:1.0">
                <path d="M 130.21 67.05 C 131.38 67.04 132.55 67.04 133.73 67.04 C 134.90 67.03 136.07 67.03 137.24 67.03 C 138.42 67.03 139.59 67.03 140.76 67.03 C 141.94 67.03 143.11 67.03 144.28 67.04 C 145.46 67.04 146.63 67.04 147.80 67.05 C 147.21 66.03 146.62 65.02 146.03 64.01 C 145.44 62.99 144.86 61.98 144.27 60.96 C 143.68 59.95 143.09 58.93 142.51 57.91 C 141.92 56.90 141.34 55.88 140.75 54.86 C 140.17 53.85 139.59 52.83 139.00 51.81 C 138.42 52.83 137.84 53.85 137.25 54.86 C 136.67 55.88 136.09 56.90 135.50 57.91 C 134.91 58.93 134.33 59.95 133.74 60.96 C 133.15 61.98 132.56 62.99 131.98 64.01 C 131.39 65.02 130.80 66.03 130.21 67.05 Z" />
            </g>
            <g style="fill:rgb(256.0 151.59215686274507 0.0);stroke:rgb(0.0 0.0 0.0);stroke-width:0.768;fill-opacity:1.0">
                <path d="M 156.60 51.81 C 157.77 51.80 158.95 51.80 160.12 51.80 C 161.29 51.80 162.46 51.79 163.64 51.79 C 164.81 51.79 165.98 51.79 167.16 51.79 C 168.33 51.79 169.50 51.80 170.68 51.80 C 171.85 51.80 173.02 51.80 174.19 51.81 C 173.60 50.80 173.01 49.78 172.43 48.77 C 171.84 47.75 171.25 46.74 170.66 45.72 C 170.07 44.71 169.49 43.69 168.90 42.68 C 168.32 41.66 167.73 40.64 167.15 39.62 C 166.56 38.61 165.98 37.59 165.40 36.57 C 164.81 37.59 164.23 38.61 163.65 39.62 C 163.06 40.64 162.48 41.66 161.89 42.68 C 161.31 43.69 160.72 44.71 160.13 45.72 C 159.55 46.74 158.96 47.75 158.37 48.77 C 157.78 49.78 157.19 50.80 156.60 51.81 Z" />
            </g>
            <g style="fill:rgb(256.0 151.59215686274507 0.0);stroke:rgb(0.0 0.0 0.0);stroke-width:0.768;fill-opacity:1.0">
                <path d="M 147.80 67.05 C 148.97 67.04 150.15 67.04 151.32 67.04 C 152.49 67.03 153.67 67.03 154.84 67.03 C 156.01 67.03 157.19 67.03 158.36 67.03 C 159.53 67.03 160.70 67.03 161.88 67.04 C 163.05 67.04 164.22 67.04 165.40 67.05 C 164.81 66.03 164.22 65.02 163.63 64.01 C 163.04 62.99 162.45 61.98 161.86 60.96 C 161.28 59.95 160.69 58.93 160.10 57.91 C 159.52 56.90 158.93 55.88 158.35 54.86 C 157.77 53.85 157.18 52.83 156.60 51.81 C 156.02 52.83 155.43 53.85 154.85 54.86 C 154.27 55.88 153.68 56.90 153.09 57.91 C 152.51 58.93 151.92 59.95 151.34 60.96 C 150.75 61.98 150.16 62.99 149.57 64.01 C 148.98 65.02 148.39 66.03 147.80 67.05 Z" />
            </g>
            <g style="fill:rgb(256.0 151.59215686274507 0.0);stroke:rgb(0.0 0.0 0.0);stroke-width:0.768;fill-opacity:1.0">
                <path d="M 165.40 67.05 C 166.57 67.04 167.74 67.04 168.92 67.04 C 170.09 67.03 171.26 67.03 172.44 67.03 C 173.61 67.03 174.78 67.03 175.95 67.03 C 177.13 67.03 178.30 67.03 179.47 67.04 C 180.65 67.04 181.82 67.04 182.99 67.05 C 182.40 66.03 181.81 65.02 181.22 64.01 C 180.63 62.99 180.05 61.98 179.46 60.96 C 178.87 59.95 178.28 58.93 177.70 57.91 C 177.11 56.90 176.53 55.88 175.94 54.86 C 175.36 53.85 174.78 52.83 174.19 51.81 C 173.61 52.83 173.03 53.85 172.45 54.86 C 171.86 55.88 171.28 56.90 170.69 57.91 C 170.10 58.93 169.52 59.95 168.93 60.96 C 168.34 61.98 167.76 62.99 167.17 64.01 C 166.58 65.02 165.99 66.03 165.40 67.05 Z" />
            </g>
            <g style="fill:rgb(256.0 151.59215686274507 0.0);stroke:rgb(0.0 0.0 0.0);stroke-width:0.768;fill-opacity:1.0">
                <path d="M 103.81 82.29 C 104.99 82.28 106.16 82.28 107.33 82.27 C 108.51 82.27 109.68 82.27 110.85 82.27 C 112.02 82.27 113.20 82.27 114.37 82.27 C 115.54 82.27 116.72 82.27 117.89 82.27 C 119.06 82.28 120.24 82.28 121.41 82.29 C 120.82 81.27 120.23 80.26 119.64 79.24 C 119.05 78.23 118.46 77.21 117.87 76.20 C 117.29 75.18 116.70 74.17 116.12 73.15 C 115.53 72.13 114.94 71.12 114.36 70.10 C 113.78 69.08 113.19 68.07 112.61 67.05 C 112.03 68.07 111.45 69.08 110.86 70.10 C 110.28 71.12 109.69 72.13 109.11 73.15 C 108.52 74.17 107.93 75.18 107.35 76.20 C 106.76 77.21 106.17 78.23 105.58 79.24 C 104.99 80.26 104.40 81.27 103.81 82.29 Z" />
            </g>
            <g style="fill:rgb(256.0 151.59215686274507 0.0);stroke:rgb(0.0 0.0 0.0);stroke-width:0.768;fill-opacity:1.0">
                <path d="M 95.02 97.52 C 96.19 97.52 97.36 97.52 98.53 97.51 C 99.71 97.51 100.88 97.51 102.05 97.51 C 103.23 97.51 104.40 97.51 105.57 97.51 C 106.75 97.51 107.92 97.51 109.09 97.51 C 110.26 97.52 111.44 97.52 112.61 97.52 C 112.02 96.51 111.43 95.50 110.84 94.48 C 110.25 93.47 109.66 92.45 109.08 91.44 C 108.49 90.42 107.90 89.41 107.32 88.39 C 106.73 87.37 106.15 86.36 105.56 85.34 C 104.98 84.32 104.40 83.30 103.81 82.29 C 103.23 83.30 102.65 84.32 102.06 85.34 C 101.48 86.36 100.89 87.37 100.31 88.39 C 99.72 89.41 99.14 90.42 98.55 91.44 C 97.96 92.45 97.37 93.47 96.78 94.48 C 96.20 95.50 95.61 96.51 95.02 97.52 Z" />
            </g>
            <g style="fill:rgb(256.0 151.59215686274507 0.0);stroke:rgb(0.0 0.0 0.0);stroke-width:0.768;fill-opacity:1.0">
                <path d="M 112.61 97.52 C 113.78 97.52 114.96 97.52 116.13 97.51 C 117.30 97.51 118.48 97.51 119.65 97.51 C 120.82 97.51 122.00 97.51 123.17 97.51 C 124.34 97.51 125.51 97.51 126.69 97.51 C 127.86 97.52 129.03 97.52 130.21 97.52 C 129.62 96.51 129.03 95.50 128.44 94.48 C 127.85 93.47 127.26 92.45 126.67 91.44 C 126.09 90.42 125.50 89.41 124.91 88.39 C 124.33 87.37 123.74 86.36 123.16 85.34 C 122.57 84.32 121.99 83.30 121.41 82.29 C 120.83 83.30 120.24 84.32 119.66 85.34 C 119.07 86.36 118.49 87.37 117.90 88.39 C 117.32 89.41 116.73 90.42 116.14 91.44 C 115.56 92.45 114.97 93.47 114.38 94.48 C 113.79 95.50 113.20 96.51 112.61 97.52 Z" />
            </g>
            <g style="fill:rgb(256.0 151.59215686274507 0.0);stroke:rgb(0.0 0.0 0.0);stroke-width:0.768;fill-opacity:1.0">
                <path d="M 86.22 112.76 C 87.39 112.76 88.56 112.75 89.74 112.75 C 90.91 112.75 92.08 112.75 93.26 112.75 C 94.43 112.74 95.60 112.74 96.77 112.75 C 97.95 112.75 99.12 112.75 100.29 112.75 C 101.47 112.75 102.64 112.76 103.81 112.76 C 103.22 111.75 102.63 110.73 102.04 109.72 C 101.45 108.71 100.87 107.69 100.28 106.68 C 99.69 105.66 99.11 104.64 98.52 103.63 C 97.93 102.61 97.35 101.59 96.77 100.58 C 96.18 99.56 95.60 98.54 95.02 97.52 C 94.43 98.54 93.85 99.56 93.27 100.58 C 92.68 101.59 92.10 102.61 91.51 103.63 C 90.93 104.64 90.34 105.66 89.75 106.68 C 89.16 107.69 88.58 108.71 87.99 109.72 C 87.40 110.73 86.81 111.75 86.22 112.76 Z" />
            </g>
            <g style="fill:rgb(256.0 151.59215686274507 0.0);stroke:rgb(0.0 0.0 0.0);stroke-width:0.768;fill-opacity:1.0">
                <path d="M 77.42 128.00 C 78.59 128.00 79.77 127.99 80.94 127.99 C 82.11 127.99 83.29 127.98 84.46 127.98 C 85.63 127.98 86.80 127.98 87.98 127.98 C 89.15 127.98 90.32 127.99 91.50 127.99 C 92.67 127.99 93.84 128.00 95.02 128.00 C 94.42 126.99 93.84 125.97 93.25 124.96 C 92.66 123.94 92.07 122.93 91.48 121.91 C 90.89 120.90 90.31 119.88 89.72 118.87 C 89.14 117.85 88.55 116.83 87.97 115.82 C 87.38 114.80 86.80 113.78 86.22 112.76 C 85.64 113.78 85.05 114.80 84.47 115.82 C 83.88 116.83 83.30 117.85 82.71 118.87 C 82.13 119.88 81.54 120.90 80.95 121.91 C 80.37 122.93 79.78 123.94 79.19 124.96 C 78.60 125.97 78.01 126.99 77.42 128.00 Z" />
            </g>
            <g style="fill:rgb(256.0 151.59215686274507 0.0);stroke:rgb(0.0 0.0 0.0);stroke-width:0.768;fill-opacity:1.0">
                <path d="M 95.02 128.00 C 96.19 128.00 97.36 127.99 98.53 127.99 C 99.71 127.99 100.88 127.98 102.05 127.98 C 103.23 127.98 104.40 127.98 105.57 127.98 C 106.75 127.98 107.92 127.99 109.09 127.99 C 110.26 127.99 111.44 128.00 112.61 128.00 C 112.02 126.99 111.43 125.97 110.84 124.96 C 110.25 123.94 109.66 122.93 109.08 121.91 C 108.49 120.90 107.90 119.88 107.32 118.87 C 106.73 117.85 106.15 116.83 105.56 115.82 C 104.98 114.80 104.40 113.78 103.81 112.76 C 103.23 113.78 102.65 114.80 102.06 115.82 C 101.48 116.83 100.89 117.85 100.31 118.87 C 99.72 119.88 99.14 120.90 98.55 121.91 C 97.96 122.93 97.37 123.94 96.78 124.96 C 96.20 125.97 95.61 126.99 95.02 128.00 Z" />
            </g>
            <g style="fill:rgb(256.0 151.59215686274507 0.0);stroke:rgb(0.0 0.0 0.0);stroke-width:0.768;fill-opacity:1.0">
                <path d="M 121.41 112.76 C 122.58 112.76 123.75 112.75 124.93 112.75 C 126.10 112.75 127.27 112.75 128.45 112.75 C 129.62 112.74 130.79 112.74 131.97 112.75 C 133.14 112.75 134.31 112.75 135.48 112.75 C 136.66 112.75 137.83 112.76 139.00 112.76 C 138.41 111.75 137.82 110.73 137.23 109.72 C 136.65 108.71 136.06 107.69 135.47 106.68 C 134.88 105.66 134.30 104.64 133.71 103.63 C 133.12 102.61 132.54 101.59 131.96 100.58 C 131.37 99.56 130.79 98.54 130.21 97.52 C 129.62 98.54 129.04 99.56 128.46 100.58 C 127.87 101.59 127.29 102.61 126.70 103.63 C 126.12 104.64 125.53 105.66 124.94 106.68 C 124.35 107.69 123.77 108.71 123.18 109.72 C 122.59 110.73 122.00 111.75 121.41 112.76 Z" />
            </g>
            <g style="fill:rgb(256.0 151.59215686274507 0.0);stroke:rgb(0.0 0.0 0.0);stroke-width:0.768;fill-opacity:1.0">
                <path d="M 112.61 128.00 C 113.78 128.00 114.96 127.99 116.13 127.99 C 117.30 127.99 118.48 127.98 119.65 127.98 C 120.82 127.98 122.00 127.98 123.17 127.98 C 124.34 127.98 125.51 127.99 126.69 127.99 C 127.86 127.99 129.03 128.00 130.21 128.00 C 129.62 126.99 129.03 125.97 128.44 124.96 C 127.85 123.94 127.26 122.93 126.67 121.91 C 126.09 120.90 125.50 119.88 124.91 118.87 C 124.33 117.85 123.74 116.83 123.16 115.82 C 122.57 114.80 121.99 113.78 121.41 112.76 C 120.83 113.78 120.24 114.80 119.66 115.82 C 119.07 116.83 118.49 117.85 117.90 118.87 C 117.32 119.88 116.73 120.90 116.14 121.91 C 115.56 122.93 114.97 123.94 114.38 124.96 C 113.79 125.97 113.20 126.99 112.61 128.00 Z" />
            </g>
            <g style="fill:rgb(256.0 151.59215686274507 0.0);stroke:rgb(0.0 0.0 0.0);stroke-width:0.768;fill-opacity:1.0">
                <path d="M 130.21 128.00 C 131.38 128.00 132.55 127.99 133.73 127.99 C 134.90 127.99 136.07 127.98 137.24 127.98 C 138.42 127.98 139.59 127.98 140.76 127.98 C 141.94 127.98 143.11 127.99 144.28 127.99 C 145.46 127.99 146.63 128.00 147.80 128.00 C 147.21 126.99 146.62 125.97 146.03 124.96 C 145.44 123.94 144.86 122.93 144.27 121.91 C 143.68 120.90 143.09 119.88 142.51 118.87 C 141.92 117.85 141.34 116.83 140.75 115.82 C 140.17 114.80 139.59 113.78 139.00 112.76 C 138.42 113.78 137.84 114.80 137.25 115.82 C 136.67 116.83 136.09 117.85 135.50 118.87 C 134.91 119.88 134.33 120.90 133.74 121.91 C 133.15 122.93 132.56 123.94 131.98 124.96 C 131.39 125.97 130.80 126.99 130.21 128.00 Z" />
            </g>
            <g style="fill:rgb(256.0 151.59215686274507 0.0);stroke:rgb(0.0 0.0 0.0);stroke-width:0.768;fill-opacity:1.0">
                <path d="M 174.19 82.29 C 175.37 82.28 176.54 82.28 177.71 82.27 C 178.89 82.27 180.06 82.27 181.23 82.27 C 182.41 82.27 183.58 82.27 184.75 82.27 C 185.93 82.27 187.10 82.27 188.27 82.27 C 189.44 82.28 190.62 82.28 191.79 82.29 C 191.20 81.27 190.61 80.26 190.02 79.24 C 189.43 78.23 188.84 77.21 188.26 76.20 C 187.67 75.18 187.08 74.17 186.50 73.15 C 185.91 72.13 185.33 71.12 184.74 70.10 C 184.16 69.08 183.57 68.07 182.99 67.05 C 182.41 68.07 181.83 69.08 181.24 70.10 C 180.66 71.12 180.07 72.13 179.49 73.15 C 178.90 74.17 178.32 75.18 177.73 76.20 C 177.14 77.21 176.55 78.23 175.96 79.24 C 175.38 80.26 174.79 81.27 174.19 82.29 Z" />
            </g>
            <g style="fill:rgb(256.0 151.59215686274507 0.0);stroke:rgb(0.0 0.0 0.0);stroke-width:0.768;fill-opacity:1.0">
                <path d="M 165.40 97.52 C 166.57 97.52 167.74 97.52 168.92 97.51 C 170.09 97.51 171.26 97.51 172.44 97.51 C 173.61 97.51 174.78 97.51 175.95 97.51 C 177.13 97.51 178.30 97.51 179.47 97.51 C 180.65 97.52 181.82 97.52 182.99 97.52 C 182.40 96.51 181.81 95.50 181.22 94.48 C 180.63 93.47 180.05 92.45 179.46 91.44 C 178.87 90.42 178.28 89.41 177.70 88.39 C 177.11 87.37 176.53 86.36 175.94 85.34 C 175.36 84.32 174.78 83.30 174.19 82.29 C 173.61 83.30 173.03 84.32 172.45 85.34 C 171.86 86.36 171.28 87.37 170.69 88.39 C 170.10 89.41 169.52 90.42 168.93 91.44 C 168.34 92.45 167.76 93.47 167.17 94.48 C 166.58 95.50 165.99 96.51 165.40 97.52 Z" />
            </g>
            <g style="fill:rgb(256.0 151.59215686274507 0.0);stroke:rgb(0.0 0.0 0.0);stroke-width:0.768;fill-opacity:1.0">
                <path d="M 182.99 97.52 C 184.17 97.52 185.34 97.52 186.51 97.51 C 187.68 97.51 188.86 97.51 190.03 97.51 C 191.20 97.51 192.38 97.51 193.55 97.51 C 194.72 97.51 195.90 97.51 197.07 97.51 C 198.24 97.52 199.41 97.52 200.59 97.52 C 200.00 96.51 199.41 95.50 198.82 94.48 C 198.23 93.47 197.64 92.45 197.05 91.44 C 196.47 90.42 195.88 89.41 195.29 88.39 C 194.71 87.37 194.12 86.36 193.54 85.34 C 192.96 84.32 192.37 83.30 191.79 82.29 C 191.21 83.30 190.62 84.32 190.04 85.34 C 189.46 86.36 188.87 87.37 188.29 88.39 C 187.70 89.41 187.11 90.42 186.53 91.44 C 185.94 92.45 185.35 93.47 184.76 94.48 C 184.17 95.50 183.58 96.51 182.99 97.52 Z" />
            </g>
            <g style="fill:rgb(256.0 151.59215686274507 0.0);stroke:rgb(0.0 0.0 0.0);stroke-width:0.768;fill-opacity:1.0">
                <path d="M 156.60 112.76 C 157.77 112.76 158.95 112.75 160.12 112.75 C 161.29 112.75 162.46 112.75 163.64 112.75 C 164.81 112.74 165.98 112.74 167.16 112.75 C 168.33 112.75 169.50 112.75 170.68 112.75 C 171.85 112.75 173.02 112.76 174.19 112.76 C 173.60 111.75 173.01 110.73 172.43 109.72 C 171.84 108.71 171.25 107.69 170.66 106.68 C 170.07 105.66 169.49 104.64 168.90 103.63 C 168.32 102.61 167.73 101.59 167.15 100.58 C 166.56 99.56 165.98 98.54 165.40 97.52 C 164.81 98.54 164.23 99.56 163.65 100.58 C 163.06 101.59 162.48 102.61 161.89 103.63 C 161.31 104.64 160.72 105.66 160.13 106.68 C 159.55 107.69 158.96 108.71 158.37 109.72 C 157.78 110.73 157.19 111.75 156.60 112.76 Z" />
            </g>
            <g style="fill:rgb(256.0 151.59215686274507 0.0);stroke:rgb(0.0 0.0 0.0);stroke-width:0.768;fill-opacity:1.0">
                <path d="M 147.80 128.00 C 148.97 128.00 150.15 127.99 151.32 127.99 C 152.49 127.99 153.67 127.98 154.84 127.98 C 156.01 127.98 157.19 127.98 158.36 127.98 C 159.53 127.98 160.70 127.99 161.88 127.99 C 163.05 127.99 164.22 128.00 165.40 128.00 C 164.81 126.99 164.22 125.97 163.63 124.96 C 163.04 123.94 162.45 122.93 161.86 121.91 C 161.28 120.90 160.69 119.88 160.10 118.87 C 159.52 117.85 158.93 116.83 158.35 115.82 C 157.77 114.80 157.18 113.78 156.60 112.76 C 156.02 113.78 155.43 114.80 154.85 115.82 C 154.27 116.83 153.68 117.85 153.09 118.87 C 152.51 119.88 151.92 120.90 151.34 121.91 C 150.75 122.93 150.16 123.94 149.57 124.96 C 148.98 125.97 148.39 126.99 147.80 128.00 Z" />
            </g>
            <g style="fill:rgb(256.0 151.59215686274507 0.0);stroke:rgb(0.0 0.0 0.0);stroke-width:0.768;fill-opacity:1.0">
                <path d="M 165.40 128.00 C 166.57 128.00 167.74 127.99 168.92 127.99 C 170.09 127.99 171.26 127.98 172.44 127.98 C 173.61 127.98 174.78 127.98 175.95 127.98 C 177.13 127.98 178.30 127.99 179.47 127.99 C 180.65 127.99 181.82 128.00 182.99 128.00 C 182.40 126.99 181.81 125.97 181.22 124.96 C 180.63 123.94 180.05 122.93 179.46 121.91 C 178.87 120.90 178.28 119.88 177.70 118.87 C 177.11 117.85 176.53 116.83 175.94 115.82 C 175.36 114.80 174.78 113.78 174.19 112.76 C 173.61 113.78 173.03 114.80 172.45 115.82 C 171.86 116.83 171.28 117.85 170.69 118.87 C 170.10 119.88 169.52 120.90 168.93 121.91 C 168.34 122.93 167.76 123.94 167.17 124.96 C 166.58 125.97 165.99 126.99 165.40 128.00 Z" />
            </g>
            <g style="fill:rgb(256.0 151.59215686274507 0.0);stroke:rgb(0.0 0.0 0.0);stroke-width:0.768;fill-opacity:1.0">
                <path d="M 191.79 112.76 C 192.96 112.76 194.14 112.75 195.31 112.75 C 196.48 112.75 197.66 112.75 198.83 112.75 C 200.00 112.74 201.17 112.74 202.35 112.75 C 203.52 112.75 204.69 112.75 205.87 112.75 C 207.04 112.75 208.21 112.76 209.39 112.76 C 208.80 111.75 208.21 110.73 207.62 109.72 C 207.03 108.71 206.44 107.69 205.85 106.68 C 205.26 105.66 204.68 104.64 204.09 103.63 C 203.51 102.61 202.92 101.59 202.34 100.58 C 201.75 99.56 201.17 98.54 200.59 97.52 C 200.01 98.54 199.42 99.56 198.84 100.58 C 198.25 101.59 197.67 102.61 197.08 103.63 C 196.50 104.64 195.91 105.66 195.32 106.68 C 194.74 107.69 194.15 108.71 193.56 109.72 C 192.97 110.73 192.38 111.75 191.79 112.76 Z" />
            </g>
            <g style="fill:rgb(256.0 151.59215686274507 0.0);stroke:rgb(0.0 0.0 0.0);stroke-width:0.768;fill-opacity:1.0">
                <path d="M 182.99 128.00 C 184.17 128.00 185.34 127.99 186.51 127.99 C 187.68 127.99 188.86 127.98 190.03 127.98 C 191.20 127.98 192.38 127.98 193.55 127.98 C 194.72 127.98 195.90 127.99 197.07 127.99 C 198.24 127.99 199.41 128.00 200.59 128.00 C 200.00 126.99 199.41 125.97 198.82 124.96 C 198.23 123.94 197.64 122.93 197.05 121.91 C 196.47 120.90 195.88 119.88 195.29 118.87 C 194.71 117.85 194.12 116.83 193.54 115.82 C 192.96 114.80 192.37 113.78 191.79 112.76 C 191.21 113.78 190.62 114.80 190.04 115.82 C 189.46 116.83 188.87 117.85 188.29 118.87 C 187.70 119.88 187.11 120.90 186.53 121.91 C 185.94 122.93 185.35 123.94 184.76 124.96 C 184.17 125.97 183.58 126.99 182.99 128.00 Z" />
            </g>
            <g style="fill:rgb(256.0 151.59215686274507 0.0);stroke:rgb(0.0 0.0 0.0);stroke-width:0.768;fill-opacity:1.0">
                <path d="M 200.59 128.00 C 201.76 128.00 202.93 127.99 204.11 127.99 C 205.28 127.99 206.45 127.98 207.63 127.98 C 208.80 127.98 209.97 127.98 211.15 127.98 C 212.32 127.98 213.49 127.99 214.66 127.99 C 215.84 127.99 217.01 128.00 218.18 128.00 C 217.59 126.99 217.00 125.97 216.41 124.96 C 215.83 123.94 215.24 122.93 214.65 121.91 C 214.06 120.90 213.48 119.88 212.89 118.87 C 212.30 117.85 211.72 116.83 211.14 115.82 C 210.55 114.80 209.97 113.78 209.39 112.76 C 208.80 113.78 208.22 114.80 207.64 115.82 C 207.05 116.83 206.47 117.85 205.88 118.87 C 205.30 119.88 204.71 120.90 204.12 121.91 C 203.53 122.93 202.95 123.94 202.36 124.96 C 201.77 125.97 201.18 126.99 200.59 128.00 Z" />
            </g>
            <g style="fill:rgb(256.0 151.59215686274507 0.0);stroke:rgb(0.0 0.0 0.0);stroke-width:0.768;fill-opacity:1.0">
                <path d="M 68.62 143.24 C 69.80 143.23 70.97 143.23 72.14 143.23 C 73.31 143.22 74.49 143.22 75.66 143.22 C 76.83 143.22 78.01 143.22 79.18 143.22 C 80.35 143.22 81.53 143.22 82.70 143.23 C 83.87 143.23 85.04 143.23 86.22 143.24 C 85.63 142.22 85.04 141.21 84.45 140.20 C 83.86 139.18 83.27 138.17 82.68 137.15 C 82.10 136.14 81.51 135.12 80.92 134.10 C 80.34 133.09 79.75 132.07 79.17 131.05 C 78.59 130.04 78.00 129.02 77.42 128.00 C 76.84 129.02 76.25 130.04 75.67 131.05 C 75.09 132.07 74.50 133.09 73.92 134.10 C 73.33 135.12 72.74 136.14 72.16 137.15 C 71.57 138.17 70.98 139.18 70.39 140.20 C 69.80 141.21 69.21 142.22 68.62 143.24 Z" />
            </g>
            <g style="fill:rgb(256.0 151.59215686274507 0.0);stroke:rgb(0.0 0.0 0.0);stroke-width:0.768;fill-opacity:1.0">
                <path d="M 59.82 158.48 C 61.00 158.47 62.17 158.47 63.34 158.46 C 64.52 158.46 65.69 158.46 66.86 158.46 C 68.04 158.46 69.21 158.46 70.38 158.46 C 71.55 158.46 72.73 158.46 73.90 158.46 C 75.07 158.47 76.25 158.47 77.42 158.48 C 76.83 157.46 76.24 156.45 75.65 155.43 C 75.06 154.42 74.47 153.40 73.89 152.39 C 73.30 151.37 72.71 150.36 72.13 149.34 C 71.54 148.33 70.96 147.31 70.37 146.29 C 69.79 145.27 69.20 144.26 68.62 143.24 C 68.04 144.26 67.46 145.27 66.87 146.29 C 66.29 147.31 65.70 148.33 65.12 149.34 C 64.53 150.36 63.95 151.37 63.36 152.39 C 62.77 153.40 62.18 154.42 61.59 155.43 C 61.00 156.45 60.42 157.46 59.82 158.48 Z" />
            </g>
            <g style="fill:rgb(256.0 151.59215686274507 0.0);stroke:rgb(0.0 0.0 0.0);stroke-width:0.768;fill-opacity:1.0">
                <path d="M 77.42 158.48 C 78.59 158.47 79.77 158.47 80.94 158.46 C 82.11 158.46 83.29 158.46 84.46 158.46 C 85.63 158.46 86.80 158.46 87.98 158.46 C 89.15 158.46 90.32 158.46 91.50 158.46 C 92.67 158.47 93.84 158.47 95.02 158.48 C 94.42 157.46 93.84 156.45 93.25 155.43 C 92.66 154.42 92.07 153.40 91.48 152.39 C 90.89 151.37 90.31 150.36 89.72 149.34 C 89.14 148.33 88.55 147.31 87.97 146.29 C 87.38 145.27 86.80 144.26 86.22 143.24 C 85.64 144.26 85.05 145.27 84.47 146.29 C 83.88 147.31 83.30 148.33 82.71 149.34 C 82.13 150.36 81.54 151.37 80.95 152.39 C 80.37 153.40 79.78 154.42 79.19 155.43 C 78.60 156.45 78.01 157.46 77.42 158.48 Z" />
            </g>
            <g style="fill:rgb(256.0 151.59215686274507 0.0);stroke:rgb(0.0 0.0 0.0);stroke-width:0.768;fill-opacity:1.0">
                <path d="M 51.03 173.71 C 52.20 173.71 53.37 173.71 54.55 173.70 C 55.72 173.70 56.89 173.70 58.06 173.70 C 59.24 173.70 60.41 173.70 61.58 173.70 C 62.76 173.70 63.93 173.70 65.10 173.70 C 66.28 173.71 67.45 173.71 68.62 173.71 C 68.03 172.70 67.44 171.69 66.85 170.67 C 66.26 169.66 65.68 168.64 65.09 167.63 C 64.50 166.61 63.91 165.60 63.33 164.58 C 62.74 163.56 62.16 162.55 61.57 161.53 C 60.99 160.51 60.41 159.49 59.82 158.48 C 59.24 159.49 58.66 160.51 58.07 161.53 C 57.49 162.55 56.91 163.56 56.32 164.58 C 55.73 165.60 55.15 166.61 54.56 167.63 C 53.97 168.64 53.39 169.66 52.80 170.67 C 52.21 171.69 51.62 172.70 51.03 173.71 Z" />
            </g>
            <g style="fill:rgb(256.0 151.59215686274507 0.0);stroke:rgb(0.0 0.0 0.0);stroke-width:0.768;fill-opacity:1.0">
                <path d="M 42.23 188.95 C 43.40 188.95 44.58 188.94 45.75 188.94 C 46.92 188.94 48.09 188.94 49.27 188.94 C 50.44 188.93 51.61 188.93 52.79 188.94 C 53.96 188.94 55.13 188.94 56.31 188.94 C 57.48 188.94 58.65 188.95 59.82 188.95 C 59.23 187.94 58.64 186.92 58.06 185.91 C 57.47 184.90 56.88 183.88 56.29 182.87 C 55.70 181.85 55.12 180.83 54.53 179.82 C 53.95 178.80 53.36 177.78 52.78 176.77 C 52.19 175.75 51.61 174.73 51.03 173.71 C 50.44 174.73 49.86 175.75 49.28 176.77 C 48.69 177.78 48.11 178.80 47.52 179.82 C 46.94 180.83 46.35 181.85 45.76 182.87 C 45.18 183.88 44.59 184.90 44.00 185.91 C 43.41 186.92 42.82 187.94 42.23 188.95 Z" />
            </g>
            <g style="fill:rgb(256.0 151.59215686274507 0.0);stroke:rgb(0.0 0.0 0.0);stroke-width:0.768;fill-opacity:1.0">
                <path d="M 59.82 188.95 C 61.00 188.95 62.17 188.94 63.34 188.94 C 64.52 188.94 65.69 188.94 66.86 188.94 C 68.04 188.93 69.21 188.93 70.38 188.94 C 71.55 188.94 72.73 188.94 73.90 188.94 C 75.07 188.94 76.25 188.95 77.42 188.95 C 76.83 187.94 76.24 186.92 75.65 185.91 C 75.06 184.90 74.47 183.88 73.89 182.87 C 73.30 181.85 72.71 180.83 72.13 179.82 C 71.54 178.80 70.96 177.78 70.37 176.77 C 69.79 175.75 69.20 174.73 68.62 173.71 C 68.04 174.73 67.46 175.75 66.87 176.77 C 66.29 177.78 65.70 178.80 65.12 179.82 C 64.53 180.83 63.95 181.85 63.36 182.87 C 62.77 183.88 62.18 184.90 61.59 185.91 C 61.00 186.92 60.42 187.94 59.82 188.95 Z" />
            </g>
            <g style="fill:rgb(256.0 151.59215686274507 0.0);stroke:rgb(0.0 0.0 0.0);stroke-width:0.768;fill-opacity:1.0">
                <path d="M 86.22 173.71 C 87.39 173.71 88.56 173.71 89.74 173.70 C 90.91 173.70 92.08 173.70 93.26 173.70 C 94.43 173.70 95.60 173.70 96.77 173.70 C 97.95 173.70 99.12 173.70 100.29 173.70 C 101.47 173.71 102.64 173.71 103.81 173.71 C 103.22 172.70 102.63 171.69 102.04 170.67 C 101.45 169.66 100.87 168.64 100.28 167.63 C 99.69 166.61 99.11 165.60 98.52 164.58 C 97.93 163.56 97.35 162.55 96.77 161.53 C 96.18 160.51 95.60 159.49 95.02 158.48 C 94.43 159.49 93.85 160.51 93.27 161.53 C 92.68 162.55 92.10 163.56 91.51 164.58 C 90.93 165.60 90.34 166.61 89.75 167.63 C 89.16 168.64 88.58 169.66 87.99 170.67 C 87.40 171.69 86.81 172.70 86.22 173.71 Z" />
            </g>
            <g style="fill:rgb(256.0 151.59215686274507 0.0);stroke:rgb(0.0 0.0 0.0);stroke-width:0.768;fill-opacity:1.0">
                <path d="M 77.42 188.95 C 78.59 188.95 79.77 188.94 80.94 188.94 C 82.11 188.94 83.29 188.94 84.46 188.94 C 85.63 188.93 86.80 188.93 87.98 188.94 C 89.15 188.94 90.32 188.94 91.50 188.94 C 92.67 188.94 93.84 188.95 95.02 188.95 C 94.42 187.94 93.84 186.92 93.25 185.91 C 92.66 184.90 92.07 183.88 91.48 182.87 C 90.89 181.85 90.31 180.83 89.72 179.82 C 89.14 178.80 88.55 177.78 87.97 176.77 C 87.38 175.75 86.80 174.73 86.22 173.71 C 85.64 174.73 85.05 175.75 84.47 176.77 C 83.88 177.78 83.30 178.80 82.71 179.82 C 82.13 180.83 81.54 181.85 80.95 182.87 C 80.37 183.88 79.78 184.90 79.19 185.91 C 78.60 186.92 78.01 187.94 77.42 188.95 Z" />
            </g>
            <g style="fill:rgb(256.0 151.59215686274507 0.0);stroke:rgb(0.0 0.0 0.0);stroke-width:0.768;fill-opacity:1.0">
                <path d="M 95.02 188.95 C 96.19 188.95 97.36 188.94 98.53 188.94 C 99.71 188.94 100.88 188.94 102.05 188.94 C 103.23 188.93 104.40 188.93 105.57 188.94 C 106.75 188.94 107.92 188.94 109.09 188.94 C 110.26 188.94 111.44 188.95 112.61 188.95 C 112.02 187.94 111.43 186.92 110.84 185.91 C 110.25 184.90 109.66 183.88 109.08 182.87 C 108.49 181.85 107.90 180.83 107.32 179.82 C 106.73 178.80 106.15 177.78 105.56 176.77 C 104.98 175.75 104.40 174.73 103.81 173.71 C 103.23 174.73 102.65 175.75 102.06 176.77 C 101.48 177.78 100.89 178.80 100.31 179.82 C 99.72 180.83 99.14 181.85 98.55 182.87 C 97.96 183.88 97.37 184.90 96.78 185.91 C 96.20 186.92 95.61 187.94 95.02 188.95 Z" />
            </g>
            <g style="fill:rgb(256.0 151.59215686274507 0.0);stroke:rgb(0.0 0.0 0.0);stroke-width:0.768;fill-opacity:1.0">
                <path d="M 33.43 204.19 C 34.60 204.19 35.78 204.18 36.95 204.18 C 38.12 204.18 39.30 204.17 40.47 204.17 C 41.64 204.17 42.82 204.17 43.99 204.17 C 45.16 204.17 46.33 204.18 47.51 204.18 C 48.68 204.18 49.85 204.19 51.03 204.19 C 50.44 203.18 49.85 202.16 49.26 201.15 C 48.67 200.13 48.08 199.12 47.49 198.10 C 46.91 197.09 46.32 196.07 45.73 195.06 C 45.15 194.04 44.56 193.02 43.98 192.01 C 43.39 190.99 42.81 189.97 42.23 188.95 C 41.65 189.97 41.06 190.99 40.48 192.01 C 39.90 193.02 39.31 194.04 38.72 195.06 C 38.14 196.07 37.55 197.09 36.97 198.10 C 36.38 199.12 35.79 200.13 35.20 201.15 C 34.61 202.16 34.02 203.18 33.43 204.19 Z" />
            </g>
            <g style="fill:rgb(256.0 151.59215686274507 0.0);stroke:rgb(0.0 0.0 0.0);stroke-width:0.768;fill-opacity:1.0">
                <path d="M 24.63 219.43 C 25.81 219.42 26.98 219.42 28.15 219.42 C 29.33 219.41 30.50 219.41 31.67 219.41 C 32.84 219.41 34.02 219.41 35.19 219.41 C 36.36 219.41 37.54 219.41 38.71 219.42 C 39.88 219.42 41.06 219.42 42.23 219.43 C 41.64 218.42 41.05 217.40 40.46 216.39 C 39.87 215.37 39.28 214.36 38.70 213.34 C 38.11 212.33 37.52 211.31 36.94 210.29 C 36.35 209.28 35.77 208.26 35.18 207.24 C 34.60 206.23 34.01 205.21 33.43 204.19 C 32.85 205.21 32.27 206.23 31.68 207.24 C 31.10 208.26 30.51 209.28 29.93 210.29 C 29.34 211.31 28.75 212.33 28.17 213.34 C 27.58 214.36 26.99 215.37 26.40 216.39 C 25.81 217.40 25.22 218.42 24.63 219.43 Z" />
            </g>
            <g style="fill:rgb(256.0 151.59215686274507 0.0);stroke:rgb(0.0 0.0 0.0);stroke-width:0.768;fill-opacity:1.0">
                <path d="M 42.23 219.43 C 43.40 219.42 44.58 219.42 45.75 219.42 C 46.92 219.41 48.09 219.41 49.27 219.41 C 50.44 219.41 51.61 219.41 52.79 219.41 C 53.96 219.41 55.13 219.41 56.31 219.42 C 57.48 219.42 58.65 219.42 59.82 219.43 C 59.23 218.42 58.64 217.40 58.06 216.39 C 57.47 215.37 56.88 214.36 56.29 213.34 C 55.70 212.33 55.12 211.31 54.53 210.29 C 53.95 209.28 53.36 208.26 52.78 207.24 C 52.19 206.23 51.61 205.21 51.03 204.19 C 50.44 205.21 49.86 206.23 49.28 207.24 C 48.69 208.26 48.11 209.28 47.52 210.29 C 46.94 211.31 46.35 212.33 45.76 213.34 C 45.18 214.36 44.59 215.37 44.00 216.39 C 43.41 217.40 42.82 218.42 42.23 219.43 Z" />
            </g>
            <g style="fill:rgb(256.0 151.59215686274507 0.0);stroke:rgb(0.0 0.0 0.0);stroke-width:0.768;fill-opacity:1.0">
                <path d="M 15.84 234.67 C 17.01 234.66 18.18 234.66 19.35 234.66 C 20.53 234.65 21.70 234.65 22.87 234.65 C 24.05 234.65 25.22 234.65 26.39 234.65 C 27.57 234.65 28.74 234.65 29.91 234.66 C 31.09 234.66 32.26 234.66 33.43 234.67 C 32.84 233.65 32.25 232.64 31.66 231.62 C 31.07 230.61 30.48 229.60 29.90 228.58 C 29.31 227.56 28.72 226.55 28.14 225.53 C 27.55 224.52 26.97 223.50 26.38 222.48 C 25.80 221.46 25.22 220.45 24.63 219.43 C 24.05 220.45 23.47 221.46 22.88 222.48 C 22.30 223.50 21.71 224.52 21.13 225.53 C 20.54 226.55 19.96 227.56 19.37 228.58 C 18.78 229.60 18.19 230.61 17.61 231.62 C 17.02 232.64 16.43 233.65 15.84 234.67 Z" />
            </g>
            <g style="fill:rgb(256.0 151.59215686274507 0.0);stroke:rgb(0.0 0.0 0.0);stroke-width:0.768;fill-opacity:1.0">
                <path d="M 7.04 249.90 C 8.21 249.90 9.38 249.90 10.56 249.89 C 11.73 249.89 12.90 249.89 14.08 249.89 C 15.25 249.89 16.42 249.89 17.60 249.89 C 18.77 249.89 19.94 249.89 21.11 249.89 C 22.29 249.90 23.46 249.90 24.63 249.90 C 24.04 248.89 23.45 247.88 22.86 246.86 C 22.28 245.85 21.69 244.83 21.10 243.82 C 20.51 242.80 19.93 241.79 19.34 240.77 C 18.75 239.75 18.17 238.74 17.59 237.72 C 17.00 236.70 16.42 235.68 15.84 234.67 C 15.25 235.68 14.67 236.70 14.09 237.72 C 13.50 238.74 12.92 239.75 12.33 240.77 C 11.75 241.79 11.16 242.80 10.57 243.82 C 9.98 244.83 9.40 245.85 8.81 246.86 C 8.22 247.88 7.63 248.89 7.04 249.90 Z" />
            </g>
            <g style="fill:rgb(256.0 151.59215686274507 0.0);stroke:rgb(0.0 0.0 0.0);stroke-width:0.768;fill-opacity:1.0">
                <path d="M 24.63 249.90 C 25.81 249.90 26.98 249.90 28.15 249.89 C 29.33 249.89 30.50 249.89 31.67 249.89 C 32.84 249.89 34.02 249.89 35.19 249.89 C 36.36 249.89 37.54 249.89 38.71 249.89 C 39.88 249.90 41.06 249.90 42.23 249.90 C 41.64 248.89 41.05 247.88 40.46 246.86 C 39.87 245.85 39.28 244.83 38.70 243.82 C 38.11 242.80 37.52 241.79 36.94 240.77 C 36.35 239.75 35.77 238.74 35.18 237.72 C 34.60 236.70 34.01 235.68 33.43 234.67 C 32.85 235.68 32.27 236.70 31.68 237.72 C 31.10 238.74 30.51 239.75 29.93 240.77 C 29.34 241.79 28.75 242.80 28.17 243.82 C 27.58 244.83 26.99 245.85 26.40 246.86 C 25.81 247.88 25.22 248.89 24.63 249.90 Z" />
            </g>
            <g style="fill:rgb(256.0 151.59215686274507 0.0);stroke:rgb(0.0 0.0 0.0);stroke-width:0.768;fill-opacity:1.0">
                <path d="M 51.03 234.67 C 52.20 234.66 53.37 234.66 54.55 234.66 C 55.72 234.65 56.89 234.65 58.06 234.65 C 59.24 234.65 60.41 234.65 61.58 234.65 C 62.76 234.65 63.93 234.65 65.10 234.66 C 66.28 234.66 67.45 234.66 68.62 234.67 C 68.03 233.65 67.44 232.64 66.85 231.62 C 66.26 230.61 65.68 229.60 65.09 228.58 C 64.50 227.56 63.91 226.55 63.33 225.53 C 62.74 224.52 62.16 223.50 61.57 222.48 C 60.99 221.46 60.41 220.45 59.82 219.43 C 59.24 220.45 58.66 221.46 58.07 222.48 C 57.49 223.50 56.91 224.52 56.32 225.53 C 55.73 226.55 55.15 227.56 54.56 228.58 C 53.97 229.60 53.39 230.61 52.80 231.62 C 52.21 232.64 51.62 233.65 51.03 234.67 Z" />
            </g>
            <g style="fill:rgb(256.0 151.59215686274507 0.0);stroke:rgb(0.0 0.0 0.0);stroke-width:0.768;fill-opacity:1.0">
                <path d="M 42.23 249.90 C 43.40 249.90 44.58 249.90 45.75 249.89 C 46.92 249.89 48.09 249.89 49.27 249.89 C 50.44 249.89 51.61 249.89 52.79 249.89 C 53.96 249.89 55.13 249.89 56.31 249.89 C 57.48 249.90 58.65 249.90 59.82 249.90 C 59.23 248.89 58.64 247.88 58.06 246.86 C 57.47 245.85 56.88 244.83 56.29 243.82 C 55.70 242.80 55.12 241.79 54.53 240.77 C 53.95 239.75 53.36 238.74 52.78 237.72 C 52.19 236.70 51.61 235.68 51.03 234.67 C 50.44 235.68 49.86 236.70 49.28 237.72 C 48.69 238.74 48.11 239.75 47.52 240.77 C 46.94 241.79 46.35 242.80 45.76 243.82 C 45.18 244.83 44.59 245.85 44.00 246.86 C 43.41 247.88 42.82 248.89 42.23 249.90 Z" />
            </g>
            <g style="fill:rgb(256.0 151.59215686274507 0.0);stroke:rgb(0.0 0.0 0.0);stroke-width:0.768;fill-opacity:1.0">
                <path d="M 59.82 249.90 C 61.00 249.90 62.17 249.90 63.34 249.89 C 64.52 249.89 65.69 249.89 66.86 249.89 C 68.04 249.89 69.21 249.89 70.38 249.89 C 71.55 249.89 72.73 249.89 73.90 249.89 C 75.07 249.90 76.25 249.90 77.42 249.90 C 76.83 248.89 76.24 247.88 75.65 246.86 C 75.06 245.85 74.47 244.83 73.89 243.82 C 73.30 242.80 72.71 241.79 72.13 240.77 C 71.54 239.75 70.96 238.74 70.37 237.72 C 69.79 236.70 69.20 235.68 68.62 234.67 C 68.04 235.68 67.46 236.70 66.87 237.72 C 66.29 238.74 65.70 239.75 65.12 240.77 C 64.53 241.79 63.95 242.80 63.36 243.82 C 62.77 244.83 62.18 245.85 61.59 246.86 C 61.00 247.88 60.42 248.89 59.82 249.90 Z" />
            </g>
            <g style="fill:rgb(256.0 151.59215686274507 0.0);stroke:rgb(0.0 0.0 0.0);stroke-width:0.768;fill-opacity:1.0">
                <path d="M 103.81 204.19 C 104.99 204.19 106.16 204.18 107.33 204.18 C 108.51 204.18 109.68 204.17 110.85 204.17 C 112.02 204.17 113.20 204.17 114.37 204.17 C 115.54 204.17 116.72 204.18 117.89 204.18 C 119.06 204.18 120.24 204.19 121.41 204.19 C 120.82 203.18 120.23 202.16 119.64 201.15 C 119.05 200.13 118.46 199.12 117.87 198.10 C 117.29 197.09 116.70 196.07 116.12 195.06 C 115.53 194.04 114.94 193.02 114.36 192.01 C 113.78 190.99 113.19 189.97 112.61 188.95 C 112.03 189.97 111.45 190.99 110.86 192.01 C 110.28 193.02 109.69 194.04 109.11 195.06 C 108.52 196.07 107.93 197.09 107.35 198.10 C 106.76 199.12 106.17 200.13 105.58 201.15 C 104.99 202.16 104.40 203.18 103.81 204.19 Z" />
            </g>
            <g style="fill:rgb(256.0 151.59215686274507 0.0);stroke:rgb(0.0 0.0 0.0);stroke-width:0.768;fill-opacity:1.0">
                <path d="M 95.02 219.43 C 96.19 219.42 97.36 219.42 98.53 219.42 C 99.71 219.41 100.88 219.41 102.05 219.41 C 103.23 219.41 104.40 219.41 105.57 219.41 C 106.75 219.41 107.92 219.41 109.09 219.42 C 110.26 219.42 111.44 219.42 112.61 219.43 C 112.02 218.42 111.43 217.40 110.84 216.39 C 110.25 215.37 109.66 214.36 109.08 213.34 C 108.49 212.33 107.90 211.31 107.32 210.29 C 106.73 209.28 106.15 208.26 105.56 207.24 C 104.98 206.23 104.40 205.21 103.81 204.19 C 103.23 205.21 102.65 206.23 102.06 207.24 C 101.48 208.26 100.89 209.28 100.31 210.29 C 99.72 211.31 99.14 212.33 98.55 213.34 C 97.96 214.36 97.37 215.37 96.78 216.39 C 96.20 217.40 95.61 218.42 95.02 219.43 Z" />
            </g>
            <g style="fill:rgb(256.0 151.59215686274507 0.0);stroke:rgb(0.0 0.0 0.0);stroke-width:0.768;fill-opacity:1.0">
                <path d="M 112.61 219.43 C 113.78 219.42 114.96 219.42 116.13 219.42 C 117.30 219.41 118.48 219.41 119.65 219.41 C 120.82 219.41 122.00 219.41 123.17 219.41 C 124.34 219.41 125.51 219.41 126.69 219.42 C 127.86 219.42 129.03 219.42 130.21 219.43 C 129.62 218.42 129.03 217.40 128.44 216.39 C 127.85 215.37 127.26 214.36 126.67 213.34 C 126.09 212.33 125.50 211.31 124.91 210.29 C 124.33 209.28 123.74 208.26 123.16 207.24 C 122.57 206.23 121.99 205.21 121.41 204.19 C 120.83 205.21 120.24 206.23 119.66 207.24 C 119.07 208.26 118.49 209.28 117.90 210.29 C 117.32 211.31 116.73 212.33 116.14 213.34 C 115.56 214.36 114.97 215.37 114.38 216.39 C 113.79 217.40 113.20 218.42 112.61 219.43 Z" />
            </g>
            <g style="fill:rgb(256.0 151.59215686274507 0.0);stroke:rgb(0.0 0.0 0.0);stroke-width:0.768;fill-opacity:1.0">
                <path d="M 86.22 234.67 C 87.39 234.66 88.56 234.66 89.74 234.66 C 90.91 234.65 92.08 234.65 93.26 234.65 C 94.43 234.65 95.60 234.65 96.77 234.65 C 97.95 234.65 99.12 234.65 100.29 234.66 C 101.47 234.66 102.64 234.66 103.81 234.67 C 103.22 233.65 102.63 232.64 102.04 231.62 C 101.45 230.61 100.87 229.60 100.28 228.58 C 99.69 227.56 99.11 226.55 98.52 225.53 C 97.93 224.52 97.35 223.50 96.77 222.48 C 96.18 221.46 95.60 220.45 95.02 219.43 C 94.43 220.45 93.85 221.46 93.27 222.48 C 92.68 223.50 92.10 224.52 91.51 225.53 C 90.93 226.55 90.34 227.56 89.75 228.58 C 89.16 229.60 88.58 230.61 87.99 231.62 C 87.40 232.64 86.81 233.65 86.22 234.67 Z" />
            </g>
            <g style="fill:rgb(256.0 151.59215686274507 0.0);stroke:rgb(0.0 0.0 0.0);stroke-width:0.768;fill-opacity:1.0">
                <path d="M 77.42 249.90 C 78.59 249.90 79.77 249.90 80.94 249.89 C 82.11 249.89 83.29 249.89 84.46 249.89 C 85.63 249.89 86.80 249.89 87.98 249.89 C 89.15 249.89 90.32 249.89 91.50 249.89 C 92.67 249.90 93.84 249.90 95.02 249.90 C 94.42 248.89 93.84 247.88 93.25 246.86 C 92.66 245.85 92.07 244.83 91.48 243.82 C 90.89 242.80 90.31 241.79 89.72 240.77 C 89.14 239.75 88.55 238.74 87.97 237.72 C 87.38 236.70 86.80 235.68 86.22 234.67 C 85.64 235.68 85.05 236.70 84.47 237.72 C 83.88 238.74 83.30 239.75 82.71 240.77 C 82.13 241.79 81.54 242.80 80.95 243.82 C 80.37 244.83 79.78 245.85 79.19 246.86 C 78.60 247.88 78.01 248.89 77.42 249.90 Z" />
            </g>
            <g style="fill:rgb(256.0 151.59215686274507 0.0);stroke:rgb(0.0 0.0 0.0);stroke-width:0.768;fill-opacity:1.0">
                <path d="M 95.02 249.90 C 96.19 249.90 97.36 249.90 98.53 249.89 C 99.71 249.89 100.88 249.89 102.05 249.89 C 103.23 249.89 104.40 249.89 105.57 249.89 C 106.75 249.89 107.92 249.89 109.09 249.89 C 110.26 249.90 111.44 249.90 112.61 249.90 C 112.02 248.89 111.43 247.88 110.84 246.86 C 110.25 245.85 109.66 244.83 109.08 243.82 C 108.49 242.80 107.90 241.79 107.32 240.77 C 106.73 239.75 106.15 238.74 105.56 237.72 C 104.98 236.70 104.40 235.68 103.81 234.67 C 103.23 235.68 102.65 236.70 102.06 237.72 C 101.48 238.74 100.89 239.75 100.31 240.77 C 99.72 241.79 99.14 242.80 98.55 243.82 C 97.96 244.83 97.37 245.85 96.78 246.86 C 96.20 247.88 95.61 248.89 95.02 249.90 Z" />
            </g>
            <g style="fill:rgb(256.0 151.59215686274507 0.0);stroke:rgb(0.0 0.0 0.0);stroke-width:0.768;fill-opacity:1.0">
                <path d="M 121.41 234.67 C 122.58 234.66 123.75 234.66 124.93 234.66 C 126.10 234.65 127.27 234.65 128.45 234.65 C 129.62 234.65 130.79 234.65 131.97 234.65 C 133.14 234.65 134.31 234.65 135.48 234.66 C 136.66 234.66 137.83 234.66 139.00 234.67 C 138.41 233.65 137.82 232.64 137.23 231.62 C 136.65 230.61 136.06 229.60 135.47 228.58 C 134.88 227.56 134.30 226.55 133.71 225.53 C 133.12 224.52 132.54 223.50 131.96 222.48 C 131.37 221.46 130.79 220.45 130.21 219.43 C 129.62 220.45 129.04 221.46 128.46 222.48 C 127.87 223.50 127.29 224.52 126.70 225.53 C 126.12 226.55 125.53 227.56 124.94 228.58 C 124.35 229.60 123.77 230.61 123.18 231.62 C 122.59 232.64 122.00 233.65 121.41 234.67 Z" />
            </g>
            <g style="fill:rgb(256.0 151.59215686274507 0.0);stroke:rgb(0.0 0.0 0.0);stroke-width:0.768;fill-opacity:1.0">
                <path d="M 112.61 249.90 C 113.78 249.90 114.96 249.90 116.13 249.89 C 117.30 249.89 118.48 249.89 119.65 249.89 C 120.82 249.89 122.00 249.89 123.17 249.89 C 124.34 249.89 125.51 249.89 126.69 249.89 C 127.86 249.90 129.03 249.90 130.21 249.90 C 129.62 248.89 129.03 247.88 128.44 246.86 C 127.85 245.85 127.26 244.83 126.67 243.82 C 126.09 242.80 125.50 241.79 124.91 240.77 C 124.33 239.75 123.74 238.74 123.16 237.72 C 122.57 236.70 121.99 235.68 121.41 234.67 C 120.83 235.68 120.24 236.70 119.66 237.72 C 119.07 238.74 118.49 239.75 117.90 240.77 C 117.32 241.79 116.73 242.80 116.14 243.82 C 115.56 244.83 114.97 245.85 114.38 246.86 C 113.79 247.88 113.20 248.89 112.61 249.90 Z" />
            </g>
            <g style="fill:rgb(256.0 151.59215686274507 0.0);stroke:rgb(0.0 0.0 0.0);stroke-width:0.768;fill-opacity:1.0">
                <path d="M 130.21 249.90 C 131.38 249.90 132.55 249.90 133.73 249.89 C 134.90 249.89 136.07 249.89 137.24 249.89 C 138.42 249.89 139.59 249.89 140.76 249.89 C 141.94 249.89 143.11 249.89 144.28 249.89 C 145.46 249.90 146.63 249.90 147.80 249.90 C 147.21 248.89 146.62 247.88 146.03 246.86 C 145.44 245.85 144.86 244.83 144.27 243.82 C 143.68 242.80 143.09 241.79 142.51 240.77 C 141.92 239.75 141.34 238.74 140.75 237.72 C 140.17 236.70 139.59 235.68 139.00 234.67 C 138.42 235.68 137.84 236.70 137.25 237.72 C 136.67 238.74 136.09 239.75 135.50 240.77 C 134.91 241.79 134.33 242.80 133.74 243.82 C 133.15 244.83 132.56 245.85 131.98 246.86 C 131.39 247.88 130.80 248.89 130.21 249.90 Z" />
            </g>
            <g style="fill:rgb(256.0 151.59215686274507 0.0);stroke:rgb(0.0 0.0 0.0);stroke-width:0.768;fill-opacity:1.0">
                <path d="M 209.39 143.24 C 210.56 143.23 211.73 143.23 212.90 143.23 C 214.08 143.22 215.25 143.22 216.42 143.22 C 217.60 143.22 218.77 143.22 219.94 143.22 C 221.12 143.22 222.29 143.22 223.46 143.23 C 224.64 143.23 225.81 143.23 226.98 143.24 C 226.39 142.22 225.80 141.21 225.21 140.20 C 224.62 139.18 224.03 138.17 223.45 137.15 C 222.86 136.14 222.27 135.12 221.69 134.10 C 221.10 133.09 220.52 132.07 219.93 131.05 C 219.35 130.04 218.77 129.02 218.18 128.00 C 217.60 129.02 217.02 130.04 216.43 131.05 C 215.85 132.07 215.26 133.09 214.68 134.10 C 214.09 135.12 213.51 136.14 212.92 137.15 C 212.33 138.17 211.74 139.18 211.15 140.20 C 210.57 141.21 209.98 142.22 209.39 143.24 Z" />
            </g>
            <g style="fill:rgb(256.0 151.59215686274507 0.0);stroke:rgb(0.0 0.0 0.0);stroke-width:0.768;fill-opacity:1.0">
                <path d="M 200.59 158.48 C 201.76 158.47 202.93 158.47 204.11 158.46 C 205.28 158.46 206.45 158.46 207.63 158.46 C 208.80 158.46 209.97 158.46 211.15 158.46 C 212.32 158.46 213.49 158.46 214.66 158.46 C 215.84 158.47 217.01 158.47 218.18 158.48 C 217.59 157.46 217.00 156.45 216.41 155.43 C 215.83 154.42 215.24 153.40 214.65 152.39 C 214.06 151.37 213.48 150.36 212.89 149.34 C 212.30 148.33 211.72 147.31 211.14 146.29 C 210.55 145.27 209.97 144.26 209.39 143.24 C 208.80 144.26 208.22 145.27 207.64 146.29 C 207.05 147.31 206.47 148.33 205.88 149.34 C 205.30 150.36 204.71 151.37 204.12 152.39 C 203.53 153.40 202.95 154.42 202.36 155.43 C 201.77 156.45 201.18 157.46 200.59 158.48 Z" />
            </g>
            <g style="fill:rgb(256.0 151.59215686274507 0.0);stroke:rgb(0.0 0.0 0.0);stroke-width:0.768;fill-opacity:1.0">
                <path d="M 218.18 158.48 C 219.36 158.47 220.53 158.47 221.70 158.46 C 222.88 158.46 224.05 158.46 225.22 158.46 C 226.39 158.46 227.57 158.46 228.74 158.46 C 229.91 158.46 231.09 158.46 232.26 158.46 C 233.43 158.47 234.61 158.47 235.78 158.48 C 235.19 157.46 234.60 156.45 234.01 155.43 C 233.42 154.42 232.83 153.40 232.25 152.39 C 231.66 151.37 231.07 150.36 230.49 149.34 C 229.90 148.33 229.31 147.31 228.73 146.29 C 228.15 145.27 227.56 144.26 226.98 143.24 C 226.40 144.26 225.82 145.27 225.23 146.29 C 224.65 147.31 224.06 148.33 223.48 149.34 C 222.89 150.36 222.30 151.37 221.72 152.39 C 221.13 153.40 220.54 154.42 219.95 155.43 C 219.36 156.45 218.77 157.46 218.18 158.48 Z" />
            </g>
            <g style="fill:rgb(256.0 151.59215686274507 0.0);stroke:rgb(0.0 0.0 0.0);stroke-width:0.768;fill-opacity:1.0">
                <path d="M 191.79 173.71 C 192.96 173.71 194.14 173.71 195.31 173.70 C 196.48 173.70 197.66 173.70 198.83 173.70 C 200.00 173.70 201.17 173.70 202.35 173.70 C 203.52 173.70 204.69 173.70 205.87 173.70 C 207.04 173.71 208.21 173.71 209.39 173.71 C 208.80 172.70 208.21 171.69 207.62 170.67 C 207.03 169.66 206.44 168.64 205.85 167.63 C 205.26 166.61 204.68 165.60 204.09 164.58 C 203.51 163.56 202.92 162.55 202.34 161.53 C 201.75 160.51 201.17 159.49 200.59 158.48 C 200.01 159.49 199.42 160.51 198.84 161.53 C 198.25 162.55 197.67 163.56 197.08 164.58 C 196.50 165.60 195.91 166.61 195.32 167.63 C 194.74 168.64 194.15 169.66 193.56 170.67 C 192.97 171.69 192.38 172.70 191.79 173.71 Z" />
            </g>
            <g style="fill:rgb(256.0 151.59215686274507 0.0);stroke:rgb(0.0 0.0 0.0);stroke-width:0.768;fill-opacity:1.0">
                <path d="M 182.99 188.95 C 184.17 188.95 185.34 188.94 186.51 188.94 C 187.68 188.94 188.86 188.94 190.03 188.94 C 191.20 188.93 192.38 188.93 193.55 188.94 C 194.72 188.94 195.90 188.94 197.07 188.94 C 198.24 188.94 199.41 188.95 200.59 188.95 C 200.00 187.94 199.41 186.92 198.82 185.91 C 198.23 184.90 197.64 183.88 197.05 182.87 C 196.47 181.85 195.88 180.83 195.29 179.82 C 194.71 178.80 194.12 177.78 193.54 176.77 C 192.96 175.75 192.37 174.73 191.79 173.71 C 191.21 174.73 190.62 175.75 190.04 176.77 C 189.46 177.78 188.87 178.80 188.29 179.82 C 187.70 180.83 187.11 181.85 186.53 182.87 C 185.94 183.88 185.35 184.90 184.76 185.91 C 184.17 186.92 183.58 187.94 182.99 188.95 Z" />
            </g>
            <g style="fill:rgb(256.0 151.59215686274507 0.0);stroke:rgb(0.0 0.0 0.0);stroke-width:0.768;fill-opacity:1.0">
                <path d="M 200.59 188.95 C 201.76 188.95 202.93 188.94 204.11 188.94 C 205.28 188.94 206.45 188.94 207.63 188.94 C 208.80 188.93 209.97 188.93 211.15 188.94 C 212.32 188.94 213.49 188.94 214.66 188.94 C 215.84 188.94 217.01 188.95 218.18 188.95 C 217.59 187.94 217.00 186.92 216.41 185.91 C 215.83 184.90 215.24 183.88 214.65 182.87 C 214.06 181.85 213.48 180.83 212.89 179.82 C 212.30 178.80 211.72 177.78 211.14 176.77 C 210.55 175.75 209.97 174.73 209.39 173.71 C 208.80 174.73 208.22 175.75 207.64 176.77 C 207.05 177.78 206.47 178.80 205.88 179.82 C 205.30 180.83 204.71 181.85 204.12 182.87 C 203.53 183.88 202.95 184.90 202.36 185.91 C 201.77 186.92 201.18 187.94 200.59 188.95 Z" />
            </g>
            <g style="fill:rgb(256.0 151.59215686274507 0.0);stroke:rgb(0.0 0.0 0.0);stroke-width:0.768;fill-opacity:1.0">
                <path d="M 226.98 173.71 C 228.15 173.71 229.33 173.71 230.50 173.70 C 231.67 173.70 232.85 173.70 234.02 173.70 C 235.19 173.70 236.37 173.70 237.54 173.70 C 238.71 173.70 239.88 173.70 241.06 173.70 C 242.23 173.71 243.40 173.71 244.58 173.71 C 243.99 172.70 243.40 171.69 242.81 170.67 C 242.22 169.66 241.63 168.64 241.04 167.63 C 240.46 166.61 239.87 165.60 239.28 164.58 C 238.70 163.56 238.11 162.55 237.53 161.53 C 236.94 160.51 236.36 159.49 235.78 158.48 C 235.20 159.49 234.61 160.51 234.03 161.53 C 233.44 162.55 232.86 163.56 232.27 164.58 C 231.69 165.60 231.10 166.61 230.51 167.63 C 229.93 168.64 229.34 169.66 228.75 170.67 C 228.16 171.69 227.57 172.70 226.98 173.71 Z" />
            </g>
            <g style="fill:rgb(256.0 151.59215686274507 0.0);stroke:rgb(0.0 0.0 0.0);stroke-width:0.768;fill-opacity:1.0">
                <path d="M 218.18 188.95 C 219.36 188.95 220.53 188.94 221.70 188.94 C 222.88 188.94 224.05 188.94 225.22 188.94 C 226.39 188.93 227.57 188.93 228.74 188.94 C 229.91 188.94 231.09 188.94 232.26 188.94 C 233.43 188.94 234.61 188.95 235.78 188.95 C 235.19 187.94 234.60 186.92 234.01 185.91 C 233.42 184.90 232.83 183.88 232.25 182.87 C 231.66 181.85 231.07 180.83 230.49 179.82 C 229.90 178.80 229.31 177.78 228.73 176.77 C 228.15 175.75 227.56 174.73 226.98 173.71 C 226.40 174.73 225.82 175.75 225.23 176.77 C 224.65 177.78 224.06 178.80 223.48 179.82 C 222.89 180.83 222.30 181.85 221.72 182.87 C 221.13 183.88 220.54 184.90 219.95 185.91 C 219.36 186.92 218.77 187.94 218.18 188.95 Z" />
            </g>
            <g style="fill:rgb(256.0 151.59215686274507 0.0);stroke:rgb(0.0 0.0 0.0);stroke-width:0.768;fill-opacity:1.0">
                <path d="M 235.78 188.95 C 236.95 188.95 238.12 188.94 239.30 188.94 C 240.47 188.94 241.64 188.94 242.82 188.94 C 243.99 188.93 245.16 188.93 246.34 188.94 C 247.51 188.94 248.68 188.94 249.86 188.94 C 251.03 188.94 252.20 188.95 253.37 188.95 C 252.78 187.94 252.19 186.92 251.60 185.91 C 251.02 184.90 250.43 183.88 249.84 182.87 C 249.25 181.85 248.67 180.83 248.08 179.82 C 247.50 178.80 246.91 177.78 246.33 176.77 C 245.74 175.75 245.16 174.73 244.58 173.71 C 243.99 174.73 243.41 175.75 242.83 176.77 C 242.24 177.78 241.66 178.80 241.07 179.82 C 240.49 180.83 239.90 181.85 239.31 182.87 C 238.73 183.88 238.14 184.90 237.55 185.91 C 236.96 186.92 236.37 187.94 235.78 188.95 Z" />
            </g>
            <g style="fill:rgb(256.0 151.59215686274507 0.0);stroke:rgb(0.0 0.0 0.0);stroke-width:0.768;fill-opacity:1.0">
                <path d="M 174.19 204.19 C 175.37 204.19 176.54 204.18 177.71 204.18 C 178.89 204.18 180.06 204.17 181.23 204.17 C 182.41 204.17 183.58 204.17 184.75 204.17 C 185.93 204.17 187.10 204.18 188.27 204.18 C 189.44 204.18 190.62 204.19 191.79 204.19 C 191.20 203.18 190.61 202.16 190.02 201.15 C 189.43 200.13 188.84 199.12 188.26 198.10 C 187.67 197.09 187.08 196.07 186.50 195.06 C 185.91 194.04 185.33 193.02 184.74 192.01 C 184.16 190.99 183.57 189.97 182.99 188.95 C 182.41 189.97 181.83 190.99 181.24 192.01 C 180.66 193.02 180.07 194.04 179.49 195.06 C 178.90 196.07 178.32 197.09 177.73 198.10 C 177.14 199.12 176.55 200.13 175.96 201.15 C 175.38 202.16 174.79 203.18 174.19 204.19 Z" />
            </g>
            <g style="fill:rgb(256.0 151.59215686274507 0.0);stroke:rgb(0.0 0.0 0.0);stroke-width:0.768;fill-opacity:1.0">
                <path d="M 165.40 219.43 C 166.57 219.42 167.74 219.42 168.92 219.42 C 170.09 219.41 171.26 219.41 172.44 219.41 C 173.61 219.41 174.78 219.41 175.95 219.41 C 177.13 219.41 178.30 219.41 179.47 219.42 C 180.65 219.42 181.82 219.42 182.99 219.43 C 182.40 218.42 181.81 217.40 181.22 216.39 C 180.63 215.37 180.05 214.36 179.46 213.34 C 178.87 212.33 178.28 211.31 177.70 210.29 C 177.11 209.28 176.53 208.26 175.94 207.24 C 175.36 206.23 174.78 205.21 174.19 204.19 C 173.61 205.21 173.03 206.23 172.45 207.24 C 171.86 208.26 171.28 209.28 170.69 210.29 C 170.10 211.31 169.52 212.33 168.93 213.34 C 168.34 214.36 167.76 215.37 167.17 216.39 C 166.58 217.40 165.99 218.42 165.40 219.43 Z" />
            </g>
            <g style="fill:rgb(256.0 151.59215686274507 0.0);stroke:rgb(0.0 0.0 0.0);stroke-width:0.768;fill-opacity:1.0">
                <path d="M 182.99 219.43 C 184.17 219.42 185.34 219.42 186.51 219.42 C 187.68 219.41 188.86 219.41 190.03 219.41 C 191.20 219.41 192.38 219.41 193.55 219.41 C 194.72 219.41 195.90 219.41 197.07 219.42 C 198.24 219.42 199.41 219.42 200.59 219.43 C 200.00 218.42 199.41 217.40 198.82 216.39 C 198.23 215.37 197.64 214.36 197.05 213.34 C 196.47 212.33 195.88 211.31 195.29 210.29 C 194.71 209.28 194.12 208.26 193.54 207.24 C 192.96 206.23 192.37 205.21 191.79 204.19 C 191.21 205.21 190.62 206.23 190.04 207.24 C 189.46 208.26 188.87 209.28 188.29 210.29 C 187.70 211.31 187.11 212.33 186.53 213.34 C 185.94 214.36 185.35 215.37 184.76 216.39 C 184.17 217.40 183.58 218.42 182.99 219.43 Z" />
            </g>
            <g style="fill:rgb(256.0 151.59215686274507 0.0);stroke:rgb(0.0 0.0 0.0);stroke-width:0.768;fill-opacity:1.0">
                <path d="M 156.60 234.67 C 157.77 234.66 158.95 234.66 160.12 234.66 C 161.29 234.65 162.46 234.65 163.64 234.65 C 164.81 234.65 165.98 234.65 167.16 234.65 C 168.33 234.65 169.50 234.65 170.68 234.66 C 171.85 234.66 173.02 234.66 174.19 234.67 C 173.60 233.65 173.01 232.64 172.43 231.62 C 171.84 230.61 171.25 229.60 170.66 228.58 C 170.07 227.56 169.49 226.55 168.90 225.53 C 168.32 224.52 167.73 223.50 167.15 222.48 C 166.56 221.46 165.98 220.45 165.40 219.43 C 164.81 220.45 164.23 221.46 163.65 222.48 C 163.06 223.50 162.48 224.52 161.89 225.53 C 161.31 226.55 160.72 227.56 160.13 228.58 C 159.55 229.60 158.96 230.61 158.37 231.62 C 157.78 232.64 157.19 233.65 156.60 234.67 Z" />
            </g>
            <g style="fill:rgb(256.0 151.59215686274507 0.0);stroke:rgb(0.0 0.0 0.0);stroke-width:0.768;fill-opacity:1.0">
                <path d="M 147.80 249.90 C 148.97 249.90 150.15 249.90 151.32 249.89 C 152.49 249.89 153.67 249.89 154.84 249.89 C 156.01 249.89 157.19 249.89 158.36 249.89 C 159.53 249.89 160.70 249.89 161.88 249.89 C 163.05 249.90 164.22 249.90 165.40 249.90 C 164.81 248.89 164.22 247.88 163.63 246.86 C 163.04 245.85 162.45 244.83 161.86 243.82 C 161.28 242.80 160.69 241.79 160.10 240.77 C 159.52 239.75 158.93 238.74 158.35 237.72 C 157.77 236.70 157.18 235.68 156.60 234.67 C 156.02 235.68 155.43 236.70 154.85 237.72 C 154.27 238.74 153.68 239.75 153.09 240.77 C 152.51 241.79 151.92 242.80 151.34 243.82 C 150.75 244.83 150.16 245.85 149.57 246.86 C 148.98 247.88 148.39 248.89 147.80 249.90 Z" />
            </g>
            <g style="fill:rgb(256.0 151.59215686274507 0.0);stroke:rgb(0.0 0.0 0.0);stroke-width:0.768;fill-opacity:1.0">
                <path d="M 165.40 249.90 C 166.57 249.90 167.74 249.90 168.92 249.89 C 170.09 249.89 171.26 249.89 172.44 249.89 C 173.61 249.89 174.78 249.89 175.95 249.89 C 177.13 249.89 178.30 249.89 179.47 249.89 C 180.65 249.90 181.82 249.90 182.99 249.90 C 182.40 248.89 181.81 247.88 181.22 246.86 C 180.63 245.85 180.05 244.83 179.46 243.82 C 178.87 242.80 178.28 241.79 177.70 240.77 C 177.11 239.75 176.53 238.74 175.94 237.72 C 175.36 236.70 174.78 235.68 174.19 234.67 C 173.61 235.68 173.03 236.70 172.45 237.72 C 171.86 238.74 171.28 239.75 170.69 240.77 C 170.10 241.79 169.52 242.80 168.93 243.82 C 168.34 244.83 167.76 245.85 167.17 246.86 C 166.58 247.88 165.99 248.89 165.40 249.90 Z" />
            </g>
            <g style="fill:rgb(256.0 151.59215686274507 0.0);stroke:rgb(0.0 0.0 0.0);stroke-width:0.768;fill-opacity:1.0">
                <path d="M 191.79 234.67 C 192.96 234.66 194.14 234.66 195.31 234.66 C 196.48 234.65 197.66 234.65 198.83 234.65 C 200.00 234.65 201.17 234.65 202.35 234.65 C 203.52 234.65 204.69 234.65 205.87 234.66 C 207.04 234.66 208.21 234.66 209.39 234.67 C 208.80 233.65 208.21 232.64 207.62 231.62 C 207.03 230.61 206.44 229.60 205.85 228.58 C 205.26 227.56 204.68 226.55 204.09 225.53 C 203.51 224.52 202.92 223.50 202.34 222.48 C 201.75 221.46 201.17 220.45 200.59 219.43 C 200.01 220.45 199.42 221.46 198.84 222.48 C 198.25 223.50 197.67 224.52 197.08 225.53 C 196.50 226.55 195.91 227.56 195.32 228.58 C 194.74 229.60 194.15 230.61 193.56 231.62 C 192.97 232.64 192.38 233.65 191.79 234.67 Z" />
            </g>
            <g style="fill:rgb(256.0 151.59215686274507 0.0);stroke:rgb(0.0 0.0 0.0);stroke-width:0.768;fill-opacity:1.0">
                <path d="M 182.99 249.90 C 184.17 249.90 185.34 249.90 186.51 249.89 C 187.68 249.89 188.86 249.89 190.03 249.89 C 191.20 249.89 192.38 249.89 193.55 249.89 C 194.72 249.89 195.90 249.89 197.07 249.89 C 198.24 249.90 199.41 249.90 200.59 249.90 C 200.00 248.89 199.41 247.88 198.82 246.86 C 198.23 245.85 197.64 244.83 197.05 243.82 C 196.47 242.80 195.88 241.79 195.29 240.77 C 194.71 239.75 194.12 238.74 193.54 237.72 C 192.96 236.70 192.37 235.68 191.79 234.67 C 191.21 235.68 190.62 236.70 190.04 237.72 C 189.46 238.74 188.87 239.75 188.29 240.77 C 187.70 241.79 187.11 242.80 186.53 243.82 C 185.94 244.83 185.35 245.85 184.76 246.86 C 184.17 247.88 183.58 248.89 182.99 249.90 Z" />
            </g>
            <g style="fill:rgb(256.0 151.59215686274507 0.0);stroke:rgb(0.0 0.0 0.0);stroke-width:0.768;fill-opacity:1.0">
                <path d="M 200.59 249.90 C 201.76 249.90 202.93 249.90 204.11 249.89 C 205.28 249.89 206.45 249.89 207.63 249.89 C 208.80 249.89 209.97 249.89 211.15 249.89 C 212.32 249.89 213.49 249.89 214.66 249.89 C 215.84 249.90 217.01 249.90 218.18 249.90 C 217.59 248.89 217.00 247.88 216.41 246.86 C 215.83 245.85 215.24 244.83 214.65 243.82 C 214.06 242.80 213.48 241.79 212.89 240.77 C 212.30 239.75 211.72 238.74 211.14 237.72 C 210.55 236.70 209.97 235.68 209.39 234.67 C 208.80 235.68 208.22 236.70 207.64 237.72 C 207.05 238.74 206.47 239.75 205.88 240.77 C 205.30 241.79 204.71 242.80 204.12 243.82 C 203.53 244.83 202.95 245.85 202.36 246.86 C 201.77 247.88 201.18 248.89 200.59 249.90 Z" />
            </g>
            <g style="fill:rgb(256.0 151.59215686274507 0.0);stroke:rgb(0.0 0.0 0.0);stroke-width:0.768;fill-opacity:1.0">
                <path d="M 244.58 204.19 C 245.75 204.19 246.92 204.18 248.10 204.18 C 249.27 204.18 250.44 204.17 251.61 204.17 C 252.79 204.17 253.96 204.17 255.13 204.17 C 256.31 204.17 257.48 204.18 258.65 204.18 C 259.83 204.18 261.00 204.19 262.17 204.19 C 261.58 203.18 260.99 202.16 260.40 201.15 C 259.81 200.13 259.23 199.12 258.64 198.10 C 258.05 197.09 257.46 196.07 256.88 195.06 C 256.29 194.04 255.71 193.02 255.12 192.01 C 254.54 190.99 253.96 189.97 253.37 188.95 C 252.79 189.97 252.21 190.99 251.62 192.01 C 251.04 193.02 250.46 194.04 249.87 195.06 C 249.28 196.07 248.70 197.09 248.11 198.10 C 247.52 199.12 246.93 200.13 246.35 201.15 C 245.76 202.16 245.17 203.18 244.58 204.19 Z" />
            </g>
            <g style="fill:rgb(256.0 151.59215686274507 0.0);stroke:rgb(0.0 0.0 0.0);stroke-width:0.768;fill-opacity:1.0">
                <path d="M 235.78 219.43 C 236.95 219.42 238.12 219.42 239.30 219.42 C 240.47 219.41 241.64 219.41 242.82 219.41 C 243.99 219.41 245.16 219.41 246.34 219.41 C 247.51 219.41 248.68 219.41 249.86 219.42 C 251.03 219.42 252.20 219.42 253.37 219.43 C 252.78 218.42 252.19 217.40 251.60 216.39 C 251.02 215.37 250.43 214.36 249.84 213.34 C 249.25 212.33 248.67 211.31 248.08 210.29 C 247.50 209.28 246.91 208.26 246.33 207.24 C 245.74 206.23 245.16 205.21 244.58 204.19 C 243.99 205.21 243.41 206.23 242.83 207.24 C 242.24 208.26 241.66 209.28 241.07 210.29 C 240.49 211.31 239.90 212.33 239.31 213.34 C 238.73 214.36 238.14 215.37 237.55 216.39 C 236.96 217.40 236.37 218.42 235.78 219.43 Z" />
            </g>
            <g style="fill:rgb(256.0 151.59215686274507 0.0);stroke:rgb(0.0 0.0 0.0);stroke-width:0.768;fill-opacity:1.0">
                <path d="M 253.37 219.43 C 254.55 219.42 255.72 219.42 256.89 219.42 C 258.07 219.41 259.24 219.41 260.41 219.41 C 261.59 219.41 262.76 219.41 263.93 219.41 C 265.10 219.41 266.28 219.41 267.45 219.42 C 268.62 219.42 269.80 219.42 270.97 219.43 C 270.38 218.42 269.79 217.40 269.20 216.39 C 268.61 215.37 268.02 214.36 267.44 213.34 C 266.85 212.33 266.26 211.31 265.68 210.29 C 265.09 209.28 264.51 208.26 263.92 207.24 C 263.34 206.23 262.75 205.21 262.17 204.19 C 261.59 205.21 261.01 206.23 260.42 207.24 C 259.84 208.26 259.25 209.28 258.67 210.29 C 258.08 211.31 257.50 212.33 256.91 213.34 C 256.32 214.36 255.73 215.37 255.14 216.39 C 254.55 217.40 253.96 218.42 253.37 219.43 Z" />
            </g>
            <g style="fill:rgb(256.0 151.59215686274507 0.0);stroke:rgb(0.0 0.0 0.0);stroke-width:0.768;fill-opacity:1.0">
                <path d="M 226.98 234.67 C 228.15 234.66 229.33 234.66 230.50 234.66 C 231.67 234.65 232.85 234.65 234.02 234.65 C 235.19 234.65 236.37 234.65 237.54 234.65 C 238.71 234.65 239.88 234.65 241.06 234.66 C 242.23 234.66 243.40 234.66 244.58 234.67 C 243.99 233.65 243.40 232.64 242.81 231.62 C 242.22 230.61 241.63 229.60 241.04 228.58 C 240.46 227.56 239.87 226.55 239.28 225.53 C 238.70 224.52 238.11 223.50 237.53 222.48 C 236.94 221.46 236.36 220.45 235.78 219.43 C 235.20 220.45 234.61 221.46 234.03 222.48 C 233.44 223.50 232.86 224.52 232.27 225.53 C 231.69 226.55 231.10 227.56 230.51 228.58 C 229.93 229.60 229.34 230.61 228.75 231.62 C 228.16 232.64 227.57 233.65 226.98 234.67 Z" />
            </g>
            <g style="fill:rgb(256.0 151.59215686274507 0.0);stroke:rgb(0.0 0.0 0.0);stroke-width:0.768;fill-opacity:1.0">
                <path d="M 218.18 249.90 C 219.36 249.90 220.53 249.90 221.70 249.89 C 222.88 249.89 224.05 249.89 225.22 249.89 C 226.39 249.89 227.57 249.89 228.74 249.89 C 229.91 249.89 231.09 249.89 232.26 249.89 C 233.43 249.90 234.61 249.90 235.78 249.90 C 235.19 248.89 234.60 247.88 234.01 246.86 C 233.42 245.85 232.83 244.83 232.25 243.82 C 231.66 242.80 231.07 241.79 230.49 240.77 C 229.90 239.75 229.31 238.74 228.73 237.72 C 228.15 236.70 227.56 235.68 226.98 234.67 C 226.40 235.68 225.82 236.70 225.23 237.72 C 224.65 238.74 224.06 239.75 223.48 240.77 C 222.89 241.79 222.30 242.80 221.72 243.82 C 221.13 244.83 220.54 245.85 219.95 246.86 C 219.36 247.88 218.77 248.89 218.18 249.90 Z" />
            </g>
            <g style="fill:rgb(256.0 151.59215686274507 0.0);stroke:rgb(0.0 0.0 0.0);stroke-width:0.768;fill-opacity:1.0">
                <path d="M 235.78 249.90 C 236.95 249.90 238.12 249.90 239.30 249.89 C 240.47 249.89 241.64 249.89 242.82 249.89 C 243.99 249.89 245.16 249.89 246.34 249.89 C 247.51 249.89 248.68 249.89 249.86 249.89 C 251.03 249.90 252.20 249.90 253.37 249.90 C 252.78 248.89 252.19 247.88 251.60 246.86 C 251.02 245.85 250.43 244.83 249.84 243.82 C 249.25 242.80 248.67 241.79 248.08 240.77 C 247.50 239.75 246.91 238.74 246.33 237.72 C 245.74 236.70 245.16 235.68 244.58 234.67 C 243.99 235.68 243.41 236.70 242.83 237.72 C 242.24 238.74 241.66 239.75 241.07 240.77 C 240.49 241.79 239.90 242.80 239.31 243.82 C 238.73 244.83 238.14 245.85 237.55 246.86 C 236.96 247.88 236.37 248.89 235.78 249.90 Z" />
            </g>
            <g style="fill:rgb(256.0 151.59215686274507 0.0);stroke:rgb(0.0 0.0 0.0);stroke-width:0.768;fill-opacity:1.0">
                <path d="M 262.17 234.67 C 263.35 234.66 264.52 234.66 265.69 234.66 C 266.86 234.65 268.04 234.65 269.21 234.65 C 270.38 234.65 271.56 234.65 272.73 234.65 C 273.90 234.65 275.08 234.65 276.25 234.66 C 277.42 234.66 278.59 234.66 279.77 234.67 C 279.18 233.65 278.59 232.64 278.00 231.62 C 277.41 230.61 276.82 229.60 276.23 228.58 C 275.65 227.56 275.06 226.55 274.47 225.53 C 273.89 224.52 273.30 223.50 272.72 222.48 C 272.14 221.46 271.55 220.45 270.97 219.43 C 270.39 220.45 269.80 221.46 269.22 222.48 C 268.64 223.50 268.05 224.52 267.47 225.53 C 266.88 226.55 266.29 227.56 265.71 228.58 C 265.12 229.60 264.53 230.61 263.94 231.62 C 263.35 232.64 262.76 233.65 262.17 234.67 Z" />
            </g>
            <g style="fill:rgb(256.0 151.59215686274507 0.0);stroke:rgb(0.0 0.0 0.0);stroke-width:0.768;fill-opacity:1.0">
                <path d="M 253.37 249.90 C 254.55 249.90 255.72 249.90 256.89 249.89 C 258.07 249.89 259.24 249.89 260.41 249.89 C 261.59 249.89 262.76 249.89 263.93 249.89 C 265.10 249.89 266.28 249.89 267.45 249.89 C 268.62 249.90 269.80 249.90 270.97 249.90 C 270.38 248.89 269.79 247.88 269.20 246.86 C 268.61 245.85 268.02 244.83 267.44 243.82 C 266.85 242.80 266.26 241.79 265.68 240.77 C 265.09 239.75 264.51 238.74 263.92 237.72 C 263.34 236.70 262.75 235.68 262.17 234.67 C 261.59 235.68 261.01 236.70 260.42 237.72 C 259.84 238.74 259.25 239.75 258.67 240.77 C 258.08 241.79 257.50 242.80 256.91 243.82 C 256.32 244.83 255.73 245.85 255.14 246.86 C 254.55 247.88 253.96 248.89 253.37 249.90 Z" />
            </g>
            <g style="fill:rgb(256.0 151.59215686274507 0.0);stroke:rgb(0.0 0.0 0.0);stroke-width:0.768;fill-opacity:1.0">
                <path d="M 270.97 249.90 C 272.14 249.90 273.32 249.90 274.49 249.89 C 275.66 249.89 276.83 249.89 278.01 249.89 C 279.18 249.89 280.35 249.89 281.53 249.89 C 282.70 249.89 283.87 249.89 285.05 249.89 C 286.22 249.90 287.39 249.90 288.57 249.90 C 287.97 248.89 287.38 247.88 286.80 246.86 C 286.21 245.85 285.62 244.83 285.03 243.82 C 284.44 242.80 283.86 241.79 283.27 240.77 C 282.69 239.75 282.10 238.74 281.52 237.72 C 280.93 236.70 280.35 235.68 279.77 234.67 C 279.18 235.68 278.60 236.70 278.02 237.72 C 277.43 238.74 276.85 239.75 276.26 240.77 C 275.68 241.79 275.09 242.80 274.50 243.82 C 273.92 244.83 273.33 245.85 272.74 246.86 C 272.15 247.88 271.56 248.89 270.97 249.90 Z" />
            </g></svg>