<?xml version="1.0" encoding="utf-8" ?>
<svg baseProfile="full" height="64" version="1.1" width="178" xmlns="http://www.w3.org/2000/svg" xmlns:ev="http://www.w3.org/2001/xml-events" xmlns:xlink="http://www.w3.org/1999/xlink"><defs><marker id="arrow" markerHeight="3.5" markerWidth="5" orient="auto" refX="5.0" refY="1.7"><polygon points="0,0 5,1.75 0,3.5" /></marker></defs><g style="fill:white;" /><g style="fill: rgb(256.0 151.59215686274507 0.0);stroke: rgb(0.0 0.0 0.0); stroke-width: 0.1;fill-opacity: 1.0;"><path d="M 56.52373138292609 32.633991529534704 C 56.52373138292609 56.849605948860905 25.400733978550388 69.74117357545596 8.277708812046086 52.61814840895166 C -8.84531635445822 35.49512324244736 4.0462512721368284 4.3721258380716606 28.261865691463033 4.372125838071657 C 52.477480110789244 4.372125838071657 65.36904773738429 35.49512324244736 48.24602257088 52.618148408951654 C 31.1229974043757 69.74117357545596 -7.105427357601002e-15 56.84960594886091 -7.105427357601002e-15 32.633991529534704 C -7.105427357601002e-15 8.418377110208496 31.1229974043757 -4.473190516386552 48.24602257088 12.649834650117747 C 65.36904773738429 29.772859816622045 52.477480110789244 60.89585722099775 28.261865691463044 60.89585722099775 C 4.0462512721368284 60.89585722099775 -8.84531635445822 29.77285981662204 8.277708812046086 12.649834650117747 C 25.400733978550388 -4.473190516386552 56.52373138292609 8.418377110208503 56.52373138292609 32.633991529534704" style="vector-effect: non-scaling-stroke;" /></g><g style="fill: rgb(0.0 95.37254901960779 219.85882352941175);stroke: rgb(0.0 0.0 0.0); stroke-width: 0.1;fill-opacity: 1.0;"><path d="M -141.30932845731468 -27.194992941278585 C 65.94430617702511 48.91330484439568 75.36494691539029 48.89446356291946 84.78559707438913 48.89446356291946 C 94.20624723338797 48.89446356291946 103.62688797175315 48.91330484439568 113.04746276585217 48.950987294301854 C 108.30454140990676 40.811371429313596 103.57790401232543 32.662277870700635 98.86757893282615 24.503755512841924 C 94.15725385332688 16.345233154983212 89.46325051254279 8.177298314894035 84.78559707438872 0.0 C 80.10794363623545 8.17729831489524 75.41394029545137 16.345233154984417 70.70361521595208 24.503755512843128 C 65.99329013645281 32.66227787070184 61.26665273887147 40.811371429314796 56.52373138292647 48.95098729430266" style="vector-effect: non-scaling-stroke;" /></g><g style="fill: rgb(256.0 151.59215686274507 0.0);stroke: rgb(0.0 0.0 0.0); stroke-width: 0.1;fill-opacity: 1.0;"><path d="M 113.10398649723457 4.372125838071657 C 122.52456129133404 4.334443388164681 131.9452020296992 4.315602106688461 141.36585218869806 4.315602106688461 C 150.7865023476969 4.315602106688461 160.20714308606208 4.334443388164681 169.6277178801611 4.372125838070854 C 169.66540033006845 13.792700632170314 169.68424161154468 23.21334137053549 169.68424161154468 32.633991529534335 C 169.68424161154468 42.05464168853318 169.66540033006845 51.47528242689836 169.62771788016227 60.895857220997385 C 160.20714308606244 60.93353967090472 150.78650234769725 60.95238095238095 141.36585218869843 60.95238095238095 C 131.94520202969957 60.95238095238095 122.52456129133441 60.93353967090472 113.10398649723537 60.89585722099855 C 113.0663040473284 51.475282426898715 113.04746276585217 42.054641688533536 113.04746276585217 32.6339915295347 C 113.04746276585217 23.213341370535854 113.0663040473284 13.79270063217068 113.10398649723457 4.372125838071651" style="vector-effect: non-scaling-stroke;" /></g></svg>