<?xml version="1.0" encoding="utf-8" ?>
<svg baseProfile="full" height="64" version="1.1" width="192" xmlns="http://www.w3.org/2000/svg" xmlns:ev="http://www.w3.org/2001/xml-events" xmlns:xlink="http://www.w3.org/1999/xlink">
    
            <g style="fill:rgb(0.0 95.37254901960779 219.85882352941175);stroke:rgb(0.0 0.0 0.0);stroke-width:0.192;fill-opacity:1.0">
                <path d="M 16.76 32.00 C 16.76 31.36 16.66 30.72 16.46 30.12 C 16.27 29.51 15.97 28.93 15.60 28.42 C 15.22 27.90 14.77 27.44 14.25 27.07 C 13.73 26.69 13.16 26.40 12.55 26.20 C 11.94 26.01 11.31 25.90 10.67 25.90 C 10.03 25.90 9.39 26.01 8.78 26.20 C 8.17 26.40 7.60 26.69 7.08 27.07 C 6.57 27.44 6.11 27.90 5.74 28.42 C 5.36 28.93 5.07 29.51 4.87 30.12 C 4.67 30.72 4.57 31.36 4.57 32.00 C 4.57 32.64 4.67 33.28 4.87 33.88 C 5.07 34.49 5.36 35.07 5.74 35.58 C 6.11 36.10 6.57 36.56 7.08 36.93 C 7.60 37.31 8.17 37.60 8.78 37.80 C 9.39 37.99 10.03 38.10 10.67 38.10 C 11.31 38.10 11.94 37.99 12.55 37.80 C 13.16 37.60 13.73 37.31 14.25 36.93 C 14.77 36.56 15.22 36.10 15.60 35.58 C 15.97 35.07 16.27 34.49 16.46 33.88 C 16.66 33.28 16.76 32.64 16.76 32.00 Z" />
            </g>
            <g style="fill:rgb(0.0 95.37254901960779 219.85882352941175);stroke:rgb(0.0 0.0 0.0);stroke-width:0.192;fill-opacity:1.0">
                <path d="M 41.14 32.00 C 41.14 30.72 40.94 29.45 40.55 28.23 C 40.15 27.02 39.57 25.87 38.81 24.83 C 38.06 23.80 37.15 22.89 36.12 22.14 C 35.08 21.39 33.94 20.80 32.72 20.41 C 31.50 20.01 30.23 19.81 28.95 19.81 C 27.67 19.81 26.40 20.01 25.19 20.41 C 23.97 20.80 22.82 21.39 21.79 22.14 C 20.75 22.89 19.84 23.80 19.09 24.83 C 18.34 25.87 17.75 27.02 17.36 28.23 C 16.96 29.45 16.76 30.72 16.76 32.00 C 16.76 33.28 16.96 34.55 17.36 35.77 C 17.75 36.98 18.34 38.13 19.09 39.17 C 19.84 40.20 20.75 41.11 21.79 41.86 C 22.82 42.61 23.97 43.20 25.19 43.59 C 26.40 43.99 27.67 44.19 28.95 44.19 C 30.23 44.19 31.50 43.99 32.72 43.59 C 33.94 43.20 35.08 42.61 36.12 41.86 C 37.15 41.11 38.06 40.20 38.81 39.17 C 39.57 38.13 40.15 36.98 40.55 35.77 C 40.94 34.55 41.14 33.28 41.14 32.00 Z" />
            </g>
            <g style="fill:rgb(0.0 95.37254901960779 219.85882352941175);stroke:rgb(0.0 0.0 0.0);stroke-width:0.192;fill-opacity:1.0">
                <path d="M 77.71 32.00 C 77.71 30.08 77.41 28.17 76.82 26.35 C 76.23 24.52 75.35 22.80 74.22 21.25 C 73.09 19.70 71.73 18.33 70.18 17.21 C 68.62 16.08 66.90 15.20 65.08 14.61 C 63.25 14.02 61.35 13.71 59.43 13.71 C 57.51 13.71 55.60 14.02 53.78 14.61 C 51.95 15.20 50.23 16.08 48.68 17.21 C 47.13 18.33 45.76 19.70 44.64 21.25 C 43.51 22.80 42.63 24.52 42.04 26.35 C 41.44 28.17 41.14 30.08 41.14 32.00 C 41.14 33.92 41.44 35.83 42.04 37.65 C 42.63 39.48 43.51 41.20 44.64 42.75 C 45.76 44.30 47.13 45.67 48.68 46.79 C 50.23 47.92 51.95 48.80 53.78 49.39 C 55.60 49.98 57.51 50.29 59.43 50.29 C 61.35 50.29 63.25 49.98 65.08 49.39 C 66.90 48.80 68.62 47.92 70.18 46.79 C 71.73 45.67 73.09 44.30 74.22 42.75 C 75.35 41.20 76.23 39.48 76.82 37.65 C 77.41 35.83 77.71 33.92 77.71 32.00 Z" />
            </g>
            <g style="fill:rgb(0.0 95.37254901960779 219.85882352941175);stroke:rgb(0.0 0.0 0.0);stroke-width:0.192;fill-opacity:1.0">
                <path d="M 126.48 32.00 C 126.48 29.44 126.07 26.90 125.28 24.47 C 124.49 22.03 123.32 19.74 121.82 17.67 C 120.32 15.60 118.50 13.78 116.43 12.28 C 114.36 10.77 112.06 9.60 109.63 8.81 C 107.20 8.02 104.65 7.62 102.10 7.62 C 99.54 7.62 96.99 8.02 94.56 8.81 C 92.13 9.60 89.83 10.77 87.76 12.28 C 85.69 13.78 83.87 15.60 82.37 17.67 C 80.87 19.74 79.70 22.03 78.91 24.47 C 78.12 26.90 77.71 29.44 77.71 32.00 C 77.71 34.56 78.12 37.10 78.91 39.53 C 79.70 41.97 80.87 44.26 82.37 46.33 C 83.87 48.40 85.69 50.22 87.76 51.72 C 89.83 53.23 92.13 54.40 94.56 55.19 C 96.99 55.98 99.54 56.38 102.10 56.38 C 104.65 56.38 107.20 55.98 109.63 55.19 C 112.06 54.40 114.36 53.23 116.43 51.72 C 118.50 50.22 120.32 48.40 121.82 46.33 C 123.32 44.26 124.49 41.97 125.28 39.53 C 126.07 37.10 126.48 34.56 126.48 32.00 Z" />
            </g>
            <g style="fill:rgb(0.0 95.37254901960779 219.85882352941175);stroke:rgb(0.0 0.0 0.0);stroke-width:0.192;fill-opacity:1.0">
                <path d="M 187.43 32.00 C 187.43 28.80 186.93 25.62 185.94 22.58 C 184.95 19.54 183.49 16.67 181.61 14.09 C 179.73 11.50 177.45 9.22 174.87 7.34 C 172.28 5.46 169.41 4.00 166.37 3.02 C 163.33 2.03 160.15 1.52 156.95 1.52 C 153.75 1.52 150.58 2.03 147.53 3.02 C 144.49 4.00 141.63 5.46 139.04 7.34 C 136.45 9.22 134.18 11.50 132.30 14.09 C 130.42 16.67 128.96 19.54 127.97 22.58 C 126.98 25.62 126.48 28.80 126.48 32.00 C 126.48 35.20 126.98 38.38 127.97 41.42 C 128.96 44.46 130.42 47.33 132.30 49.91 C 134.18 52.50 136.45 54.78 139.04 56.66 C 141.63 58.54 144.49 60.00 147.53 60.98 C 150.58 61.97 153.75 62.48 156.95 62.48 C 160.15 62.48 163.33 61.97 166.37 60.98 C 169.41 60.00 172.28 58.54 174.87 56.66 C 177.45 54.78 179.73 52.50 181.61 49.91 C 183.49 47.33 184.95 44.46 185.94 41.42 C 186.93 38.38 187.43 35.20 187.43 32.00 Z" />
            </g></svg>