<?xml version="1.0" encoding="utf-8" ?>
<svg baseProfile="full" height="64" version="1.1" width="192" xmlns="http://www.w3.org/2000/svg" xmlns:ev="http://www.w3.org/2001/xml-events" xmlns:xlink="http://www.w3.org/1999/xlink"><defs /><g style="fill-opacity: 1.0;stroke: rgb(0.0 0.0 0.0);fill: rgb(0.0 95.37254901960779 219.85882352941175);stroke-width: 0.192;"><path d="M 16.761904761904766 32.0 C 16.761904761904766 28.656251304503687 14.01041536216298 25.904761904761905 10.66666666666667 25.904761904761905 C 7.3229179711703605 25.904761904761905 4.5714285714285765 28.65625130450369 4.5714285714285765 32.0 C 4.5714285714285765 35.34374869549631 7.3229179711703605 38.095238095238095 10.666666666666671 38.095238095238095 C 14.01041536216298 38.095238095238095 16.761904761904766 35.34374869549631 16.761904761904766 32.0" style="vector-effect: non-scaling-stroke;" /></g><g style="fill-opacity: 1.0;stroke: rgb(0.0 0.0 0.0);fill: rgb(0.0 95.37254901960779 219.85882352941175);stroke-width: 0.192;"><path d="M 41.142857142857146 32.0 C 41.142857142857146 25.312502609007378 35.639878343373574 19.80952380952381 28.952380952380953 19.80952380952381 C 22.264883561388334 19.80952380952381 16.761904761904766 25.312502609007378 16.761904761904766 32.0 C 16.761904761904766 38.68749739099262 22.264883561388334 44.19047619047619 28.952380952380956 44.19047619047619 C 35.639878343373574 44.19047619047619 41.142857142857146 38.687497390992625 41.142857142857146 32.0" style="vector-effect: non-scaling-stroke;" /></g><g style="fill-opacity: 1.0;stroke: rgb(0.0 0.0 0.0);fill: rgb(0.0 95.37254901960779 219.85882352941175);stroke-width: 0.192;"><path d="M 77.71428571428572 32.0 C 77.71428571428572 21.968753913511065 69.45981751506037 13.714285714285712 59.42857142857143 13.714285714285712 C 49.397325342082496 13.714285714285712 41.142857142857146 21.968753913511065 41.142857142857146 32.0 C 41.142857142857146 42.031246086488935 49.397325342082496 50.285714285714285 59.42857142857144 50.285714285714285 C 69.45981751506037 50.28571428571429 77.71428571428572 42.031246086488935 77.71428571428572 32.0" style="vector-effect: non-scaling-stroke;" /></g><g style="fill-opacity: 1.0;stroke: rgb(0.0 0.0 0.0);fill: rgb(0.0 95.37254901960779 219.85882352941175);stroke-width: 0.192;"><path d="M 126.4761904761905 32.0 C 126.4761904761905 18.625005218014756 115.47023287722335 7.61904761904762 102.0952380952381 7.61904761904762 C 88.72024331325287 7.61904761904762 77.71428571428574 18.625005218014756 77.71428571428574 32.0 C 77.71428571428574 45.37499478198524 88.72024331325287 56.38095238095237 102.09523809523812 56.38095238095238 C 115.47023287722335 56.38095238095238 126.4761904761905 45.374994781985244 126.4761904761905 32.0" style="vector-effect: non-scaling-stroke;" /></g><g style="fill-opacity: 1.0;stroke: rgb(0.0 0.0 0.0);fill: rgb(0.0 95.37254901960779 219.85882352941175);stroke-width: 0.192;"><path d="M 187.42857142857144 32.0 C 187.42857142857144 15.281256522518444 173.67112442986252 1.5238095238095255 156.95238095238096 1.5238095238095255 C 140.2336374748994 1.5238095238095255 126.4761904761905 15.281256522518447 126.4761904761905 32.00000000000001 C 126.4761904761905 48.71874347748155 140.2336374748994 62.47619047619047 156.95238095238096 62.47619047619047 C 173.67112442986252 62.476190476190474 187.42857142857144 48.71874347748155 187.42857142857144 32.0" style="vector-effect: non-scaling-stroke;" /></g></svg>