<?xml version="1.0" encoding="utf-8" ?>
<svg baseProfile="full" height="64" version="1.1" width="128" xmlns="http://www.w3.org/2000/svg" xmlns:ev="http://www.w3.org/2001/xml-events" xmlns:xlink="http://www.w3.org/1999/xlink">
    
            <g style="fill:rgb(256.0 151.59215686274507 0.0);stroke:rgb(0.0 0.0 0.0);stroke-width:0.192;fill-opacity:1.0">
                <path d="M 63.88 32.00 C 63.88 28.81 63.37 25.64 62.39 22.60 C 61.40 19.57 59.94 16.70 58.07 14.12 C 56.19 11.54 53.92 9.27 51.34 7.39 C 48.76 5.52 45.89 4.06 42.86 3.07 C 39.82 2.09 36.65 1.58 33.46 1.58 C 30.27 1.58 27.10 2.09 24.06 3.07 C 21.03 4.06 18.16 5.52 15.58 7.39 C 13.00 9.27 10.73 11.54 8.85 14.12 C 6.98 16.70 5.52 19.57 4.53 22.60 C 3.55 25.64 3.04 28.81 3.04 32.00 C 3.04 35.19 3.55 38.36 4.53 41.40 C 5.52 44.43 6.98 47.30 8.85 49.88 C 10.73 52.46 13.00 54.73 15.58 56.61 C 18.16 58.48 21.03 59.94 24.06 60.93 C 27.10 61.91 30.27 62.42 33.46 62.42 C 36.65 62.42 39.82 61.91 42.86 60.93 C 45.89 59.94 48.76 58.48 51.34 56.61 C 53.92 54.73 56.19 52.46 58.07 49.88 C 59.94 47.30 61.40 44.43 62.39 41.40 C 63.37 38.36 63.88 35.19 63.88 32.00 Z" />
            </g>
            <g style="fill:rgb(0.0 95.37254901960779 219.85882352941175);stroke:rgb(0.0 0.0 0.0);stroke-width:0.192;fill-opacity:1.0">
                <path d="M 63.94 1.58 C 67.99 1.57 72.05 1.56 76.10 1.55 C 80.16 1.54 84.21 1.53 88.27 1.53 C 92.32 1.52 96.38 1.52 100.43 1.53 C 104.49 1.53 108.55 1.54 112.60 1.55 C 116.66 1.56 120.71 1.57 124.77 1.58 C 124.78 5.64 124.80 9.70 124.81 13.75 C 124.82 17.81 124.82 21.86 124.83 25.92 C 124.83 29.97 124.83 34.03 124.83 38.08 C 124.82 42.14 124.82 46.19 124.81 50.25 C 124.80 54.30 124.78 58.36 124.77 62.42 C 120.71 62.43 116.66 62.44 112.60 62.45 C 108.55 62.46 104.49 62.47 100.43 62.47 C 96.38 62.48 92.32 62.48 88.27 62.47 C 84.21 62.47 80.16 62.46 76.10 62.45 C 72.05 62.44 67.99 62.43 63.94 62.42 C 63.92 58.36 63.91 54.30 63.90 50.25 C 63.89 46.19 63.88 42.14 63.88 38.08 C 63.87 34.03 63.87 29.97 63.88 25.92 C 63.88 21.86 63.89 17.81 63.90 13.75 C 63.91 9.70 63.92 5.64 63.94 1.58 Z" />
            </g></svg>