<?xml version="1.0" encoding="utf-8" ?>
<svg baseProfile="full" height="256" version="1.1" width="296" xmlns="http://www.w3.org/2000/svg" xmlns:ev="http://www.w3.org/2001/xml-events" xmlns:xlink="http://www.w3.org/1999/xlink"><defs /><g style="fill-opacity: 1.0;stroke: rgb(0.0 0.0 0.0);fill: rgb(256.0 151.59215686274507 0.0);stroke-width: 0.1;"><path d="M 131.9657758147659 15.238095238094951 C 137.83089794592757 15.214634655727936 143.69609045890658 15.214634655727936 149.56121259006815 15.238095238094784 C 146.6083340641697 10.170480767393876 143.67573780768035 5.091075053067795 140.76349420241695 1.6342482922482304e-13 C 137.85125059715378 5.09107505306817 134.91865434066446 10.17048076739425 131.96577581476615 15.238095238095035" style="vector-effect: non-scaling-stroke;" /></g><g style="fill-opacity: 1.0;stroke: rgb(0.0 0.0 0.0);fill: rgb(256.0 151.59215686274507 0.0);stroke-width: 0.1;"><path d="M 123.16805742711469 30.476190476190197 C 129.03317955827637 30.452729893823182 134.89837207125538 30.452729893823182 140.76349420241695 30.476190476190034 C 137.8106156765185 25.408576005489124 134.87801942002915 20.32917029116304 131.96577581476575 15.238095238095411 C 129.05353220950258 20.32917029116342 126.12093595301326 25.408576005489497 123.16805742711495 30.476190476190283" style="vector-effect: non-scaling-stroke;" /></g><g style="fill-opacity: 1.0;stroke: rgb(0.0 0.0 0.0);fill: rgb(256.0 151.59215686274507 0.0);stroke-width: 0.1;"><path d="M 140.7634942024168 30.476190476190197 C 146.6286163335785 30.452729893823182 152.4938088465575 30.452729893823182 158.35893097771907 30.476190476190034 C 155.4060524518206 25.408576005489124 152.47345619533127 20.32917029116304 149.56121259006787 15.238095238095411 C 146.6489689848047 20.32917029116342 143.71637272831538 25.408576005489497 140.76349420241706 30.476190476190283" style="vector-effect: non-scaling-stroke;" /></g><g style="fill-opacity: 1.0;stroke: rgb(0.0 0.0 0.0);fill: rgb(256.0 151.59215686274507 0.0);stroke-width: 0.1;"><path d="M 114.37033903946377 45.714285714285445 C 120.23546117062544 45.69082513191843 126.10065368360448 45.69082513191843 131.96577581476603 45.71428571428528 C 129.01289728886758 40.64667124358437 126.08030103237824 35.56726552925829 123.16805742711483 30.47619047619066 C 120.25581382185167 35.56726552925866 117.32321756536234 40.64667124358475 114.37033903946403 45.71428571428553" style="vector-effect: non-scaling-stroke;" /></g><g style="fill-opacity: 1.0;stroke: rgb(0.0 0.0 0.0);fill: rgb(256.0 151.59215686274507 0.0);stroke-width: 0.1;"><path d="M 105.57262065181258 60.95238095238069 C 111.43774278297425 60.92892037001368 117.30293529595329 60.92892037001368 123.16805742711483 60.95238095238053 C 120.21517890121639 55.88476648167962 117.28258264472706 50.80536076735354 114.37033903946364 45.71428571428591 C 111.45809543420049 50.80536076735392 108.52549917771115 55.884766481679996 105.57262065181284 60.95238095238078" style="vector-effect: non-scaling-stroke;" /></g><g style="fill-opacity: 1.0;stroke: rgb(0.0 0.0 0.0);fill: rgb(256.0 151.59215686274507 0.0);stroke-width: 0.1;"><path d="M 123.16805742711472 60.95238095238069 C 129.0331795582764 60.92892037001368 134.8983720712554 60.92892037001368 140.76349420241698 60.95238095238053 C 137.81061567651852 55.88476648167962 134.87801942002918 50.80536076735354 131.96577581476578 45.71428571428591 C 129.0535322095026 50.80536076735392 126.12093595301329 55.884766481679996 123.16805742711497 60.95238095238078" style="vector-effect: non-scaling-stroke;" /></g><g style="fill-opacity: 1.0;stroke: rgb(0.0 0.0 0.0);fill: rgb(256.0 151.59215686274507 0.0);stroke-width: 0.1;"><path d="M 149.561212590068 45.714285714285445 C 155.4263347212297 45.69082513191843 161.2915272342087 45.69082513191843 167.15664936537027 45.71428571428528 C 164.20377083947182 40.64667124358437 161.27117458298247 35.56726552925829 158.35893097771907 30.47619047619066 C 155.4466873724559 35.56726552925866 152.51409111596658 40.64667124358475 149.56121259006827 45.71428571428553" style="vector-effect: non-scaling-stroke;" /></g><g style="fill-opacity: 1.0;stroke: rgb(0.0 0.0 0.0);fill: rgb(256.0 151.59215686274507 0.0);stroke-width: 0.1;"><path d="M 140.7634942024168 60.95238095238069 C 146.6286163335785 60.92892037001368 152.4938088465575 60.92892037001368 158.35893097771907 60.95238095238053 C 155.4060524518206 55.88476648167962 152.47345619533127 50.80536076735354 149.56121259006787 45.71428571428591 C 146.6489689848047 50.80536076735392 143.71637272831538 55.884766481679996 140.76349420241706 60.95238095238078" style="vector-effect: non-scaling-stroke;" /></g><g style="fill-opacity: 1.0;stroke: rgb(0.0 0.0 0.0);fill: rgb(256.0 151.59215686274507 0.0);stroke-width: 0.1;"><path d="M 158.35893097771893 60.95238095238069 C 164.2240531088806 60.92892037001368 170.08924562185962 60.92892037001368 175.9543677530212 60.95238095238053 C 173.00148922712273 55.88476648167962 170.06889297063339 50.80536076735354 167.15664936537 45.71428571428591 C 164.24440576010682 50.80536076735392 161.3118095036175 55.884766481679996 158.35893097771918 60.95238095238078" style="vector-effect: non-scaling-stroke;" /></g><g style="fill-opacity: 1.0;stroke: rgb(0.0 0.0 0.0);fill: rgb(256.0 151.59215686274507 0.0);stroke-width: 0.1;"><path d="M 96.77490226416165 76.19047619047595 C 102.64002439532332 76.16701560810893 108.50521690830236 76.16701560810893 114.3703390394639 76.19047619047578 C 111.41746051356546 71.12286171977486 108.48486425707613 66.04345600544879 105.57262065181271 60.952380952381155 C 102.66037704654956 66.04345600544916 99.72778079006022 71.12286171977524 96.77490226416191 76.19047619047602" style="vector-effect: non-scaling-stroke;" /></g><g style="fill-opacity: 1.0;stroke: rgb(0.0 0.0 0.0);fill: rgb(256.0 151.59215686274507 0.0);stroke-width: 0.1;"><path d="M 87.97718387651047 91.42857142857119 C 93.84230600767214 91.40511084620417 99.70749852065117 91.40511084620417 105.57262065181271 91.42857142857102 C 102.61974212591427 86.3609569578701 99.68714586942494 81.28155124354403 96.77490226416153 76.1904761904764 C 93.86265865889837 81.2815512435444 90.93006240240904 86.36095695787048 87.97718387651072 91.42857142857126" style="vector-effect: non-scaling-stroke;" /></g><g style="fill-opacity: 1.0;stroke: rgb(0.0 0.0 0.0);fill: rgb(256.0 151.59215686274507 0.0);stroke-width: 0.1;"><path d="M 105.57262065181258 91.42857142857119 C 111.43774278297425 91.40511084620417 117.30293529595329 91.40511084620417 123.16805742711483 91.42857142857102 C 120.21517890121639 86.3609569578701 117.28258264472706 81.28155124354403 114.37033903946364 76.1904761904764 C 111.45809543420049 81.2815512435444 108.52549917771115 86.36095695787048 105.57262065181284 91.42857142857126" style="vector-effect: non-scaling-stroke;" /></g><g style="fill-opacity: 1.0;stroke: rgb(0.0 0.0 0.0);fill: rgb(256.0 151.59215686274507 0.0);stroke-width: 0.1;"><path d="M 79.17946548885953 106.66666666666644 C 85.0445876200212 106.64320608429942 90.90978013300024 106.64320608429942 96.77490226416178 106.66666666666627 C 93.82202373826334 101.59905219596536 90.889427481774 96.51964648163928 87.9771838765106 91.42857142857164 C 85.06494027124744 96.51964648163965 82.1323440147581 101.59905219596574 79.17946548885979 106.66666666666652" style="vector-effect: non-scaling-stroke;" /></g><g style="fill-opacity: 1.0;stroke: rgb(0.0 0.0 0.0);fill: rgb(256.0 151.59215686274507 0.0);stroke-width: 0.1;"><path d="M 70.38174710120835 121.90476190476168 C 76.24686923237002 121.88130132239466 82.11206174534905 121.88130132239466 87.9771838765106 121.90476190476151 C 85.02430535061215 116.8371474340606 82.09170909412282 111.75774171973453 79.1794654888594 106.66666666666688 C 76.26722188359625 111.7577417197349 73.33462562710692 116.83714743406098 70.3817471012086 121.90476190476176" style="vector-effect: non-scaling-stroke;" /></g><g style="fill-opacity: 1.0;stroke: rgb(0.0 0.0 0.0);fill: rgb(256.0 151.59215686274507 0.0);stroke-width: 0.1;"><path d="M 87.97718387651047 121.90476190476168 C 93.84230600767214 121.88130132239466 99.70749852065117 121.88130132239466 105.57262065181271 121.90476190476151 C 102.61974212591427 116.8371474340606 99.68714586942494 111.75774171973453 96.77490226416153 106.66666666666688 C 93.86265865889837 111.7577417197349 90.93006240240904 116.83714743406098 87.97718387651072 121.90476190476176" style="vector-effect: non-scaling-stroke;" /></g><g style="fill-opacity: 1.0;stroke: rgb(0.0 0.0 0.0);fill: rgb(256.0 151.59215686274507 0.0);stroke-width: 0.1;"><path d="M 114.37033903946377 106.66666666666644 C 120.23546117062544 106.64320608429942 126.10065368360448 106.64320608429942 131.96577581476603 106.66666666666627 C 129.01289728886758 101.59905219596536 126.08030103237824 96.51964648163928 123.16805742711483 91.42857142857164 C 120.25581382185167 96.51964648163965 117.32321756536234 101.59905219596574 114.37033903946403 106.66666666666652" style="vector-effect: non-scaling-stroke;" /></g><g style="fill-opacity: 1.0;stroke: rgb(0.0 0.0 0.0);fill: rgb(256.0 151.59215686274507 0.0);stroke-width: 0.1;"><path d="M 105.57262065181258 121.90476190476168 C 111.43774278297425 121.88130132239466 117.30293529595329 121.88130132239466 123.16805742711483 121.90476190476151 C 120.21517890121639 116.8371474340606 117.28258264472706 111.75774171973453 114.37033903946364 106.66666666666688 C 111.45809543420049 111.7577417197349 108.52549917771115 116.83714743406098 105.57262065181284 121.90476190476176" style="vector-effect: non-scaling-stroke;" /></g><g style="fill-opacity: 1.0;stroke: rgb(0.0 0.0 0.0);fill: rgb(256.0 151.59215686274507 0.0);stroke-width: 0.1;"><path d="M 123.16805742711472 121.90476190476168 C 129.0331795582764 121.88130132239466 134.8983720712554 121.88130132239466 140.76349420241698 121.90476190476151 C 137.81061567651852 116.8371474340606 134.87801942002918 111.75774171973453 131.96577581476578 106.66666666666688 C 129.0535322095026 111.7577417197349 126.12093595301329 116.83714743406098 123.16805742711497 121.90476190476176" style="vector-effect: non-scaling-stroke;" /></g><g style="fill-opacity: 1.0;stroke: rgb(0.0 0.0 0.0);fill: rgb(256.0 151.59215686274507 0.0);stroke-width: 0.1;"><path d="M 167.15664936537013 76.19047619047595 C 173.0217714965318 76.16701560810893 178.88696400951082 76.16701560810893 184.7520861406724 76.19047619047578 C 181.79920761477393 71.12286171977486 178.8666113582846 66.04345600544879 175.9543677530212 60.952380952381155 C 173.04212414775802 66.04345600544916 170.1095278912687 71.12286171977524 167.15664936537038 76.19047619047602" style="vector-effect: non-scaling-stroke;" /></g><g style="fill-opacity: 1.0;stroke: rgb(0.0 0.0 0.0);fill: rgb(256.0 151.59215686274507 0.0);stroke-width: 0.1;"><path d="M 158.35893097771893 91.42857142857119 C 164.2240531088806 91.40511084620417 170.08924562185962 91.40511084620417 175.9543677530212 91.42857142857102 C 173.00148922712273 86.3609569578701 170.06889297063339 81.28155124354403 167.15664936537 76.1904761904764 C 164.24440576010682 81.2815512435444 161.3118095036175 86.36095695787048 158.35893097771918 91.42857142857126" style="vector-effect: non-scaling-stroke;" /></g><g style="fill-opacity: 1.0;stroke: rgb(0.0 0.0 0.0);fill: rgb(256.0 151.59215686274507 0.0);stroke-width: 0.1;"><path d="M 175.95436775302105 91.42857142857119 C 181.81948988418273 91.40511084620417 187.68468239716174 91.40511084620417 193.5498045283233 91.42857142857102 C 190.59692600242485 86.3609569578701 187.6643297459355 81.28155124354403 184.7520861406721 76.1904761904764 C 181.83984253540893 81.2815512435444 178.90724627891962 86.36095695787048 175.9543677530213 91.42857142857126" style="vector-effect: non-scaling-stroke;" /></g><g style="fill-opacity: 1.0;stroke: rgb(0.0 0.0 0.0);fill: rgb(256.0 151.59215686274507 0.0);stroke-width: 0.1;"><path d="M 149.561212590068 106.66666666666644 C 155.4263347212297 106.64320608429942 161.2915272342087 106.64320608429942 167.15664936537027 106.66666666666627 C 164.20377083947182 101.59905219596536 161.27117458298247 96.51964648163928 158.35893097771907 91.42857142857164 C 155.4466873724559 96.51964648163965 152.51409111596658 101.59905219596574 149.56121259006827 106.66666666666652" style="vector-effect: non-scaling-stroke;" /></g><g style="fill-opacity: 1.0;stroke: rgb(0.0 0.0 0.0);fill: rgb(256.0 151.59215686274507 0.0);stroke-width: 0.1;"><path d="M 140.7634942024168 121.90476190476168 C 146.6286163335785 121.88130132239466 152.4938088465575 121.88130132239466 158.35893097771907 121.90476190476151 C 155.4060524518206 116.8371474340606 152.47345619533127 111.75774171973453 149.56121259006787 106.66666666666688 C 146.6489689848047 111.7577417197349 143.71637272831538 116.83714743406098 140.76349420241706 121.90476190476176" style="vector-effect: non-scaling-stroke;" /></g><g style="fill-opacity: 1.0;stroke: rgb(0.0 0.0 0.0);fill: rgb(256.0 151.59215686274507 0.0);stroke-width: 0.1;"><path d="M 158.35893097771893 121.90476190476168 C 164.2240531088806 121.88130132239466 170.08924562185962 121.88130132239466 175.9543677530212 121.90476190476151 C 173.00148922712273 116.8371474340606 170.06889297063339 111.75774171973453 167.15664936537 106.66666666666688 C 164.24440576010682 111.7577417197349 161.3118095036175 116.83714743406098 158.35893097771918 121.90476190476176" style="vector-effect: non-scaling-stroke;" /></g><g style="fill-opacity: 1.0;stroke: rgb(0.0 0.0 0.0);fill: rgb(256.0 151.59215686274507 0.0);stroke-width: 0.1;"><path d="M 184.75208614067225 106.66666666666644 C 190.61720827183393 106.64320608429942 196.48240078481294 106.64320608429942 202.3475229159745 106.66666666666627 C 199.39464439007605 101.59905219596536 196.4620481335867 96.51964648163928 193.5498045283233 91.42857142857164 C 190.63756092306014 96.51964648163965 187.70496466657082 101.59905219596574 184.7520861406725 106.66666666666652" style="vector-effect: non-scaling-stroke;" /></g><g style="fill-opacity: 1.0;stroke: rgb(0.0 0.0 0.0);fill: rgb(256.0 151.59215686274507 0.0);stroke-width: 0.1;"><path d="M 175.95436775302105 121.90476190476168 C 181.81948988418273 121.88130132239466 187.68468239716174 121.88130132239466 193.5498045283233 121.90476190476151 C 190.59692600242485 116.8371474340606 187.6643297459355 111.75774171973453 184.7520861406721 106.66666666666688 C 181.83984253540893 111.7577417197349 178.90724627891962 116.83714743406098 175.9543677530213 121.90476190476176" style="vector-effect: non-scaling-stroke;" /></g><g style="fill-opacity: 1.0;stroke: rgb(0.0 0.0 0.0);fill: rgb(256.0 151.59215686274507 0.0);stroke-width: 0.1;"><path d="M 193.54980452832316 121.90476190476168 C 199.41492665948485 121.88130132239466 205.28011917246386 121.88130132239466 211.14524130362543 121.90476190476151 C 208.19236277772697 116.8371474340606 205.25976652123762 111.75774171973453 202.34752291597422 106.66666666666688 C 199.43527931071105 111.7577417197349 196.50268305422173 116.83714743406098 193.54980452832342 121.90476190476176" style="vector-effect: non-scaling-stroke;" /></g><g style="fill-opacity: 1.0;stroke: rgb(0.0 0.0 0.0);fill: rgb(256.0 151.59215686274507 0.0);stroke-width: 0.1;"><path d="M 61.58402871355742 137.1428571428568 C 67.4491508447191 137.11939656048978 73.31434335769814 137.11939656048978 79.17946548885968 137.14285714285663 C 76.22658696296124 132.07524267215572 73.2939907064719 126.99583695782964 70.38174710120849 121.90476190476201 C 67.46950349594533 126.99583695783001 64.536907239456 132.0752426721561 61.58402871355768 137.14285714285688" style="vector-effect: non-scaling-stroke;" /></g><g style="fill-opacity: 1.0;stroke: rgb(0.0 0.0 0.0);fill: rgb(256.0 151.59215686274507 0.0);stroke-width: 0.1;"><path d="M 52.786310325906236 152.38095238095204 C 58.65143245706791 152.35749179858502 64.51662497004695 152.35749179858502 70.38174710120849 152.38095238095187 C 67.42886857531005 147.31333791025097 64.49627231882071 142.23393219592487 61.5840287135573 137.14285714285725 C 58.671785108294145 142.23393219592526 55.73918885180481 147.31333791025133 52.78631032590649 152.38095238095212" style="vector-effect: non-scaling-stroke;" /></g><g style="fill-opacity: 1.0;stroke: rgb(0.0 0.0 0.0);fill: rgb(256.0 151.59215686274507 0.0);stroke-width: 0.1;"><path d="M 70.38174710120836 152.38095238095204 C 76.24686923237003 152.35749179858502 82.11206174534907 152.35749179858502 87.97718387651061 152.38095238095187 C 85.02430535061217 147.31333791025097 82.09170909412283 142.23393219592487 79.17946548885942 137.14285714285725 C 76.26722188359626 142.23393219592526 73.33462562710693 147.31333791025133 70.38174710120862 152.38095238095212" style="vector-effect: non-scaling-stroke;" /></g><g style="fill-opacity: 1.0;stroke: rgb(0.0 0.0 0.0);fill: rgb(256.0 151.59215686274507 0.0);stroke-width: 0.1;"><path d="M 43.988591938255304 167.61904761904728 C 49.85371406941698 167.59558703668026 55.718906582396016 167.59558703668026 61.58402871355756 167.6190476190471 C 58.63115018765911 162.5514331483462 55.69855393116978 157.4720274340201 52.78631032590637 152.3809523809525 C 49.874066720643214 157.4720274340205 46.94147046415388 162.55143314834658 43.98859193825556 167.61904761904736" style="vector-effect: non-scaling-stroke;" /></g><g style="fill-opacity: 1.0;stroke: rgb(0.0 0.0 0.0);fill: rgb(256.0 151.59215686274507 0.0);stroke-width: 0.1;"><path d="M 35.19087355060412 182.85714285714252 C 41.05599568176579 182.8336822747755 46.92118819474483 182.8336822747755 52.78631032590637 182.85714285714235 C 49.83343180000792 177.78952838644145 46.900835543518596 172.71012267211535 43.98859193825518 167.61904761904773 C 41.076348332992026 172.71012267211574 38.14375207650269 177.78952838644182 35.19087355060437 182.8571428571426" style="vector-effect: non-scaling-stroke;" /></g><g style="fill-opacity: 1.0;stroke: rgb(0.0 0.0 0.0);fill: rgb(256.0 151.59215686274507 0.0);stroke-width: 0.1;"><path d="M 52.786310325906236 182.85714285714252 C 58.65143245706791 182.8336822747755 64.51662497004695 182.8336822747755 70.38174710120849 182.85714285714235 C 67.42886857531005 177.78952838644145 64.49627231882071 172.71012267211535 61.5840287135573 167.61904761904773 C 58.671785108294145 172.71012267211574 55.73918885180481 177.78952838644182 52.78631032590649 182.8571428571426" style="vector-effect: non-scaling-stroke;" /></g><g style="fill-opacity: 1.0;stroke: rgb(0.0 0.0 0.0);fill: rgb(256.0 151.59215686274507 0.0);stroke-width: 0.1;"><path d="M 79.17946548885955 167.61904761904728 C 85.04458762002122 167.59558703668026 90.90978013300025 167.59558703668026 96.7749022641618 167.6190476190471 C 93.82202373826335 162.5514331483462 90.88942748177402 157.4720274340201 87.97718387651061 152.3809523809525 C 85.06494027124745 157.4720274340205 82.13234401475812 162.55143314834658 79.1794654888598 167.61904761904736" style="vector-effect: non-scaling-stroke;" /></g><g style="fill-opacity: 1.0;stroke: rgb(0.0 0.0 0.0);fill: rgb(256.0 151.59215686274507 0.0);stroke-width: 0.1;"><path d="M 70.38174710120836 182.85714285714252 C 76.24686923237003 182.8336822747755 82.11206174534907 182.8336822747755 87.97718387651061 182.85714285714235 C 85.02430535061217 177.78952838644145 82.09170909412283 172.71012267211535 79.17946548885942 167.61904761904773 C 76.26722188359626 172.71012267211574 73.33462562710693 177.78952838644182 70.38174710120862 182.8571428571426" style="vector-effect: non-scaling-stroke;" /></g><g style="fill-opacity: 1.0;stroke: rgb(0.0 0.0 0.0);fill: rgb(256.0 151.59215686274507 0.0);stroke-width: 0.1;"><path d="M 87.97718387651048 182.85714285714252 C 93.84230600767215 182.8336822747755 99.70749852065119 182.8336822747755 105.57262065181273 182.85714285714235 C 102.61974212591429 177.78952838644145 99.68714586942495 172.71012267211535 96.77490226416154 167.61904761904773 C 93.86265865889838 172.71012267211574 90.93006240240905 177.78952838644182 87.97718387651074 182.8571428571426" style="vector-effect: non-scaling-stroke;" /></g><g style="fill-opacity: 1.0;stroke: rgb(0.0 0.0 0.0);fill: rgb(256.0 151.59215686274507 0.0);stroke-width: 0.1;"><path d="M 26.393155162953178 198.0952380952378 C 32.25827729411486 198.07177751287077 38.12346980709389 198.07177751287077 43.98859193825543 198.09523809523762 C 41.035713412356984 193.02762362453672 38.10311715586765 187.94821791021062 35.190873550604245 182.857142857143 C 32.27862994534109 187.948217910211 29.346033688851755 193.02762362453709 26.393155162953434 198.09523809523787" style="vector-effect: non-scaling-stroke;" /></g><g style="fill-opacity: 1.0;stroke: rgb(0.0 0.0 0.0);fill: rgb(256.0 151.59215686274507 0.0);stroke-width: 0.1;"><path d="M 17.59543677530199 213.33333333333303 C 23.46055890646367 213.309872750966 29.325751419442703 213.309872750966 35.190873550604245 213.33333333333286 C 32.237995024705796 208.26571886263196 29.305398768216467 203.18631314830586 26.393155162953057 198.09523809523824 C 23.480911557689897 203.18631314830625 20.548315301200567 208.26571886263233 17.595436775302247 213.33333333333312" style="vector-effect: non-scaling-stroke;" /></g><g style="fill-opacity: 1.0;stroke: rgb(0.0 0.0 0.0);fill: rgb(256.0 151.59215686274507 0.0);stroke-width: 0.1;"><path d="M 35.19087355060411 213.33333333333303 C 41.05599568176579 213.309872750966 46.92118819474482 213.309872750966 52.78631032590636 213.33333333333286 C 49.833431800007915 208.26571886263196 46.90083554351858 203.18631314830586 43.988591938255176 198.09523809523824 C 41.07634833299202 203.18631314830625 38.143752076502686 208.26571886263233 35.190873550604366 213.33333333333312" style="vector-effect: non-scaling-stroke;" /></g><g style="fill-opacity: 1.0;stroke: rgb(0.0 0.0 0.0);fill: rgb(256.0 151.59215686274507 0.0);stroke-width: 0.1;"><path d="M 8.797718387651061 228.57142857142827 C 14.66284051881274 228.54796798906125 20.52803303179177 228.54796798906125 26.393155162953313 228.5714285714281 C 23.44027663705487 223.5038141007272 20.507680380565535 218.4244083864011 17.595436775302126 213.33333333333348 C 14.683193170038967 218.4244083864015 11.750596913549636 223.50381410072757 8.797718387651317 228.57142857142836" style="vector-effect: non-scaling-stroke;" /></g><g style="fill-opacity: 1.0;stroke: rgb(0.0 0.0 0.0);fill: rgb(256.0 151.59215686274507 0.0);stroke-width: 0.1;"><path d="M -1.2789769243681803e-13 243.8095238095235 C 5.8651221311615505 243.7860632271565 11.73031464414058 243.7860632271565 17.595436775302126 243.80952380952334 C 14.642558249403677 238.74190933882244 11.709961992914346 233.66250362449634 8.797718387650937 228.57142857142873 C 5.885474782387778 233.66250362449674 2.952878525898446 238.7419093388228 1.2789769243681803e-13 243.8095238095236" style="vector-effect: non-scaling-stroke;" /></g><g style="fill-opacity: 1.0;stroke: rgb(0.0 0.0 0.0);fill: rgb(256.0 151.59215686274507 0.0);stroke-width: 0.1;"><path d="M 17.59543677530199 243.8095238095235 C 23.46055890646367 243.7860632271565 29.325751419442703 243.7860632271565 35.190873550604245 243.80952380952334 C 32.237995024705796 238.74190933882244 29.305398768216467 233.66250362449634 26.393155162953057 228.57142857142873 C 23.480911557689897 233.66250362449674 20.548315301200567 238.7419093388228 17.595436775302247 243.8095238095236" style="vector-effect: non-scaling-stroke;" /></g><g style="fill-opacity: 1.0;stroke: rgb(0.0 0.0 0.0);fill: rgb(256.0 151.59215686274507 0.0);stroke-width: 0.1;"><path d="M 43.9885919382553 228.57142857142827 C 49.85371406941698 228.54796798906125 55.71890658239601 228.54796798906125 61.58402871355755 228.5714285714281 C 58.6311501876591 223.5038141007272 55.69855393116977 218.4244083864011 52.78631032590636 213.33333333333348 C 49.87406672064321 218.4244083864015 46.94147046415387 223.50381410072757 43.98859193825555 228.57142857142836" style="vector-effect: non-scaling-stroke;" /></g><g style="fill-opacity: 1.0;stroke: rgb(0.0 0.0 0.0);fill: rgb(256.0 151.59215686274507 0.0);stroke-width: 0.1;"><path d="M 35.19087355060411 243.8095238095235 C 41.05599568176579 243.7860632271565 46.92118819474482 243.7860632271565 52.78631032590636 243.80952380952334 C 49.833431800007915 238.74190933882244 46.90083554351858 233.66250362449634 43.988591938255176 228.57142857142873 C 41.07634833299202 233.66250362449674 38.143752076502686 238.7419093388228 35.190873550604366 243.8095238095236" style="vector-effect: non-scaling-stroke;" /></g><g style="fill-opacity: 1.0;stroke: rgb(0.0 0.0 0.0);fill: rgb(256.0 151.59215686274507 0.0);stroke-width: 0.1;"><path d="M 52.78631032590623 243.8095238095235 C 58.65143245706791 243.7860632271565 64.51662497004693 243.7860632271565 70.38174710120849 243.80952380952334 C 67.42886857531003 238.74190933882244 64.4962723188207 233.66250362449634 61.584028713557295 228.57142857142873 C 58.67178510829414 233.66250362449674 55.739188851804805 238.7419093388228 52.786310325906484 243.8095238095236" style="vector-effect: non-scaling-stroke;" /></g><g style="fill-opacity: 1.0;stroke: rgb(0.0 0.0 0.0);fill: rgb(256.0 151.59215686274507 0.0);stroke-width: 0.1;"><path d="M 96.77490226416165 198.0952380952378 C 102.64002439532332 198.07177751287077 108.50521690830236 198.07177751287077 114.3703390394639 198.09523809523762 C 111.41746051356546 193.02762362453672 108.48486425707613 187.94821791021062 105.57262065181271 182.857142857143 C 102.66037704654956 187.948217910211 99.72778079006022 193.02762362453709 96.77490226416191 198.09523809523787" style="vector-effect: non-scaling-stroke;" /></g><g style="fill-opacity: 1.0;stroke: rgb(0.0 0.0 0.0);fill: rgb(256.0 151.59215686274507 0.0);stroke-width: 0.1;"><path d="M 87.97718387651047 213.33333333333303 C 93.84230600767214 213.309872750966 99.70749852065117 213.309872750966 105.57262065181271 213.33333333333286 C 102.61974212591427 208.26571886263196 99.68714586942494 203.18631314830586 96.77490226416153 198.09523809523824 C 93.86265865889837 203.18631314830625 90.93006240240904 208.26571886263233 87.97718387651072 213.33333333333312" style="vector-effect: non-scaling-stroke;" /></g><g style="fill-opacity: 1.0;stroke: rgb(0.0 0.0 0.0);fill: rgb(256.0 151.59215686274507 0.0);stroke-width: 0.1;"><path d="M 105.57262065181258 213.33333333333303 C 111.43774278297425 213.309872750966 117.30293529595329 213.309872750966 123.16805742711483 213.33333333333286 C 120.21517890121639 208.26571886263196 117.28258264472706 203.18631314830586 114.37033903946364 198.09523809523824 C 111.45809543420049 203.18631314830625 108.52549917771115 208.26571886263233 105.57262065181284 213.33333333333312" style="vector-effect: non-scaling-stroke;" /></g><g style="fill-opacity: 1.0;stroke: rgb(0.0 0.0 0.0);fill: rgb(256.0 151.59215686274507 0.0);stroke-width: 0.1;"><path d="M 79.17946548885953 228.57142857142827 C 85.0445876200212 228.54796798906125 90.90978013300024 228.54796798906125 96.77490226416178 228.5714285714281 C 93.82202373826334 223.5038141007272 90.889427481774 218.4244083864011 87.9771838765106 213.33333333333348 C 85.06494027124744 218.4244083864015 82.1323440147581 223.50381410072757 79.17946548885979 228.57142857142836" style="vector-effect: non-scaling-stroke;" /></g><g style="fill-opacity: 1.0;stroke: rgb(0.0 0.0 0.0);fill: rgb(256.0 151.59215686274507 0.0);stroke-width: 0.1;"><path d="M 70.38174710120835 243.8095238095235 C 76.24686923237002 243.7860632271565 82.11206174534905 243.7860632271565 87.9771838765106 243.80952380952334 C 85.02430535061215 238.74190933882244 82.09170909412282 233.66250362449634 79.1794654888594 228.57142857142873 C 76.26722188359625 233.66250362449674 73.33462562710692 238.7419093388228 70.3817471012086 243.8095238095236" style="vector-effect: non-scaling-stroke;" /></g><g style="fill-opacity: 1.0;stroke: rgb(0.0 0.0 0.0);fill: rgb(256.0 151.59215686274507 0.0);stroke-width: 0.1;"><path d="M 87.97718387651047 243.8095238095235 C 93.84230600767214 243.7860632271565 99.70749852065117 243.7860632271565 105.57262065181271 243.80952380952334 C 102.61974212591427 238.74190933882244 99.68714586942494 233.66250362449634 96.77490226416153 228.57142857142873 C 93.86265865889837 233.66250362449674 90.93006240240904 238.7419093388228 87.97718387651072 243.8095238095236" style="vector-effect: non-scaling-stroke;" /></g><g style="fill-opacity: 1.0;stroke: rgb(0.0 0.0 0.0);fill: rgb(256.0 151.59215686274507 0.0);stroke-width: 0.1;"><path d="M 114.37033903946377 228.57142857142827 C 120.23546117062544 228.54796798906125 126.10065368360448 228.54796798906125 131.96577581476603 228.5714285714281 C 129.01289728886758 223.5038141007272 126.08030103237824 218.4244083864011 123.16805742711483 213.33333333333348 C 120.25581382185167 218.4244083864015 117.32321756536234 223.50381410072757 114.37033903946403 228.57142857142836" style="vector-effect: non-scaling-stroke;" /></g><g style="fill-opacity: 1.0;stroke: rgb(0.0 0.0 0.0);fill: rgb(256.0 151.59215686274507 0.0);stroke-width: 0.1;"><path d="M 105.57262065181258 243.8095238095235 C 111.43774278297425 243.7860632271565 117.30293529595329 243.7860632271565 123.16805742711483 243.80952380952334 C 120.21517890121639 238.74190933882244 117.28258264472706 233.66250362449634 114.37033903946364 228.57142857142873 C 111.45809543420049 233.66250362449674 108.52549917771115 238.7419093388228 105.57262065181284 243.8095238095236" style="vector-effect: non-scaling-stroke;" /></g><g style="fill-opacity: 1.0;stroke: rgb(0.0 0.0 0.0);fill: rgb(256.0 151.59215686274507 0.0);stroke-width: 0.1;"><path d="M 123.16805742711472 243.8095238095235 C 129.0331795582764 243.7860632271565 134.8983720712554 243.7860632271565 140.76349420241698 243.80952380952334 C 137.81061567651852 238.74190933882244 134.87801942002918 233.66250362449634 131.96577581476578 228.57142857142873 C 129.0535322095026 233.66250362449674 126.12093595301329 238.7419093388228 123.16805742711497 243.8095238095236" style="vector-effect: non-scaling-stroke;" /></g><g style="fill-opacity: 1.0;stroke: rgb(0.0 0.0 0.0);fill: rgb(256.0 151.59215686274507 0.0);stroke-width: 0.1;"><path d="M 202.34752291597437 137.1428571428568 C 208.21264504713605 137.11939656048978 214.07783756011506 137.11939656048978 219.94295969127663 137.14285714285663 C 216.99008116537817 132.07524267215572 214.05748490888882 126.99583695782964 211.14524130362543 121.90476190476201 C 208.23299769836225 126.99583695783001 205.30040144187294 132.0752426721561 202.34752291597462 137.14285714285688" style="vector-effect: non-scaling-stroke;" /></g><g style="fill-opacity: 1.0;stroke: rgb(0.0 0.0 0.0);fill: rgb(256.0 151.59215686274507 0.0);stroke-width: 0.1;"><path d="M 193.54980452832316 152.38095238095204 C 199.41492665948485 152.35749179858502 205.28011917246386 152.35749179858502 211.14524130362543 152.38095238095187 C 208.19236277772697 147.31333791025097 205.25976652123762 142.23393219592487 202.34752291597422 137.14285714285725 C 199.43527931071105 142.23393219592526 196.50268305422173 147.31333791025133 193.54980452832342 152.38095238095212" style="vector-effect: non-scaling-stroke;" /></g><g style="fill-opacity: 1.0;stroke: rgb(0.0 0.0 0.0);fill: rgb(256.0 151.59215686274507 0.0);stroke-width: 0.1;"><path d="M 211.14524130362528 152.38095238095204 C 217.01036343478697 152.35749179858502 222.87555594776597 152.35749179858502 228.74067807892754 152.38095238095187 C 225.7877995530291 147.31333791025097 222.85520329653974 142.23393219592487 219.94295969127634 137.14285714285725 C 217.03071608601317 142.23393219592526 214.09811982952385 147.31333791025133 211.14524130362554 152.38095238095212" style="vector-effect: non-scaling-stroke;" /></g><g style="fill-opacity: 1.0;stroke: rgb(0.0 0.0 0.0);fill: rgb(256.0 151.59215686274507 0.0);stroke-width: 0.1;"><path d="M 184.75208614067225 167.61904761904728 C 190.61720827183393 167.59558703668026 196.48240078481294 167.59558703668026 202.3475229159745 167.6190476190471 C 199.39464439007605 162.5514331483462 196.4620481335867 157.4720274340201 193.5498045283233 152.3809523809525 C 190.63756092306014 157.4720274340205 187.70496466657082 162.55143314834658 184.7520861406725 167.61904761904736" style="vector-effect: non-scaling-stroke;" /></g><g style="fill-opacity: 1.0;stroke: rgb(0.0 0.0 0.0);fill: rgb(256.0 151.59215686274507 0.0);stroke-width: 0.1;"><path d="M 175.95436775302105 182.85714285714252 C 181.81948988418273 182.8336822747755 187.68468239716174 182.8336822747755 193.5498045283233 182.85714285714235 C 190.59692600242485 177.78952838644145 187.6643297459355 172.71012267211535 184.7520861406721 167.61904761904773 C 181.83984253540893 172.71012267211574 178.90724627891962 177.78952838644182 175.9543677530213 182.8571428571426" style="vector-effect: non-scaling-stroke;" /></g><g style="fill-opacity: 1.0;stroke: rgb(0.0 0.0 0.0);fill: rgb(256.0 151.59215686274507 0.0);stroke-width: 0.1;"><path d="M 193.54980452832316 182.85714285714252 C 199.41492665948485 182.8336822747755 205.28011917246386 182.8336822747755 211.14524130362543 182.85714285714235 C 208.19236277772697 177.78952838644145 205.25976652123762 172.71012267211535 202.34752291597422 167.61904761904773 C 199.43527931071105 172.71012267211574 196.50268305422173 177.78952838644182 193.54980452832342 182.8571428571426" style="vector-effect: non-scaling-stroke;" /></g><g style="fill-opacity: 1.0;stroke: rgb(0.0 0.0 0.0);fill: rgb(256.0 151.59215686274507 0.0);stroke-width: 0.1;"><path d="M 219.94295969127649 167.61904761904728 C 225.80808182243817 167.59558703668026 231.67327433541718 167.59558703668026 237.53839646657875 167.6190476190471 C 234.5855179406803 162.5514331483462 231.65292168419094 157.4720274340201 228.74067807892754 152.3809523809525 C 225.82843447366437 157.4720274340205 222.89583821717505 162.55143314834658 219.94295969127674 167.61904761904736" style="vector-effect: non-scaling-stroke;" /></g><g style="fill-opacity: 1.0;stroke: rgb(0.0 0.0 0.0);fill: rgb(256.0 151.59215686274507 0.0);stroke-width: 0.1;"><path d="M 211.14524130362528 182.85714285714252 C 217.01036343478697 182.8336822747755 222.87555594776597 182.8336822747755 228.74067807892754 182.85714285714235 C 225.7877995530291 177.78952838644145 222.85520329653974 172.71012267211535 219.94295969127634 167.61904761904773 C 217.03071608601317 172.71012267211574 214.09811982952385 177.78952838644182 211.14524130362554 182.8571428571426" style="vector-effect: non-scaling-stroke;" /></g><g style="fill-opacity: 1.0;stroke: rgb(0.0 0.0 0.0);fill: rgb(256.0 151.59215686274507 0.0);stroke-width: 0.1;"><path d="M 228.7406780789274 182.85714285714252 C 234.6058002100891 182.8336822747755 240.4709927230681 182.8336822747755 246.33611485422966 182.85714285714235 C 243.3832363283312 177.78952838644145 240.45064007184186 172.71012267211535 237.53839646657846 167.61904761904773 C 234.6261528613153 172.71012267211574 231.69355660482597 177.78952838644182 228.74067807892766 182.8571428571426" style="vector-effect: non-scaling-stroke;" /></g><g style="fill-opacity: 1.0;stroke: rgb(0.0 0.0 0.0);fill: rgb(256.0 151.59215686274507 0.0);stroke-width: 0.1;"><path d="M 167.15664936537013 198.0952380952378 C 173.0217714965318 198.07177751287077 178.88696400951082 198.07177751287077 184.7520861406724 198.09523809523762 C 181.79920761477393 193.02762362453672 178.8666113582846 187.94821791021062 175.9543677530212 182.857142857143 C 173.04212414775802 187.948217910211 170.1095278912687 193.02762362453709 167.15664936537038 198.09523809523787" style="vector-effect: non-scaling-stroke;" /></g><g style="fill-opacity: 1.0;stroke: rgb(0.0 0.0 0.0);fill: rgb(256.0 151.59215686274507 0.0);stroke-width: 0.1;"><path d="M 158.35893097771893 213.33333333333303 C 164.2240531088806 213.309872750966 170.08924562185962 213.309872750966 175.9543677530212 213.33333333333286 C 173.00148922712273 208.26571886263196 170.06889297063339 203.18631314830586 167.15664936537 198.09523809523824 C 164.24440576010682 203.18631314830625 161.3118095036175 208.26571886263233 158.35893097771918 213.33333333333312" style="vector-effect: non-scaling-stroke;" /></g><g style="fill-opacity: 1.0;stroke: rgb(0.0 0.0 0.0);fill: rgb(256.0 151.59215686274507 0.0);stroke-width: 0.1;"><path d="M 175.95436775302105 213.33333333333303 C 181.81948988418273 213.309872750966 187.68468239716174 213.309872750966 193.5498045283233 213.33333333333286 C 190.59692600242485 208.26571886263196 187.6643297459355 203.18631314830586 184.7520861406721 198.09523809523824 C 181.83984253540893 203.18631314830625 178.90724627891962 208.26571886263233 175.9543677530213 213.33333333333312" style="vector-effect: non-scaling-stroke;" /></g><g style="fill-opacity: 1.0;stroke: rgb(0.0 0.0 0.0);fill: rgb(256.0 151.59215686274507 0.0);stroke-width: 0.1;"><path d="M 149.561212590068 228.57142857142827 C 155.4263347212297 228.54796798906125 161.2915272342087 228.54796798906125 167.15664936537027 228.5714285714281 C 164.20377083947182 223.5038141007272 161.27117458298247 218.4244083864011 158.35893097771907 213.33333333333348 C 155.4466873724559 218.4244083864015 152.51409111596658 223.50381410072757 149.56121259006827 228.57142857142836" style="vector-effect: non-scaling-stroke;" /></g><g style="fill-opacity: 1.0;stroke: rgb(0.0 0.0 0.0);fill: rgb(256.0 151.59215686274507 0.0);stroke-width: 0.1;"><path d="M 140.7634942024168 243.8095238095235 C 146.6286163335785 243.7860632271565 152.4938088465575 243.7860632271565 158.35893097771907 243.80952380952334 C 155.4060524518206 238.74190933882244 152.47345619533127 233.66250362449634 149.56121259006787 228.57142857142873 C 146.6489689848047 233.66250362449674 143.71637272831538 238.7419093388228 140.76349420241706 243.8095238095236" style="vector-effect: non-scaling-stroke;" /></g><g style="fill-opacity: 1.0;stroke: rgb(0.0 0.0 0.0);fill: rgb(256.0 151.59215686274507 0.0);stroke-width: 0.1;"><path d="M 158.35893097771893 243.8095238095235 C 164.2240531088806 243.7860632271565 170.08924562185962 243.7860632271565 175.9543677530212 243.80952380952334 C 173.00148922712273 238.74190933882244 170.06889297063339 233.66250362449634 167.15664936537 228.57142857142873 C 164.24440576010682 233.66250362449674 161.3118095036175 238.7419093388228 158.35893097771918 243.8095238095236" style="vector-effect: non-scaling-stroke;" /></g><g style="fill-opacity: 1.0;stroke: rgb(0.0 0.0 0.0);fill: rgb(256.0 151.59215686274507 0.0);stroke-width: 0.1;"><path d="M 184.75208614067225 228.57142857142827 C 190.61720827183393 228.54796798906125 196.48240078481294 228.54796798906125 202.3475229159745 228.5714285714281 C 199.39464439007605 223.5038141007272 196.4620481335867 218.4244083864011 193.5498045283233 213.33333333333348 C 190.63756092306014 218.4244083864015 187.70496466657082 223.50381410072757 184.7520861406725 228.57142857142836" style="vector-effect: non-scaling-stroke;" /></g><g style="fill-opacity: 1.0;stroke: rgb(0.0 0.0 0.0);fill: rgb(256.0 151.59215686274507 0.0);stroke-width: 0.1;"><path d="M 175.95436775302105 243.8095238095235 C 181.81948988418273 243.7860632271565 187.68468239716174 243.7860632271565 193.5498045283233 243.80952380952334 C 190.59692600242485 238.74190933882244 187.6643297459355 233.66250362449634 184.7520861406721 228.57142857142873 C 181.83984253540893 233.66250362449674 178.90724627891962 238.7419093388228 175.9543677530213 243.8095238095236" style="vector-effect: non-scaling-stroke;" /></g><g style="fill-opacity: 1.0;stroke: rgb(0.0 0.0 0.0);fill: rgb(256.0 151.59215686274507 0.0);stroke-width: 0.1;"><path d="M 193.54980452832316 243.8095238095235 C 199.41492665948485 243.7860632271565 205.28011917246386 243.7860632271565 211.14524130362543 243.80952380952334 C 208.19236277772697 238.74190933882244 205.25976652123762 233.66250362449634 202.34752291597422 228.57142857142873 C 199.43527931071105 233.66250362449674 196.50268305422173 238.7419093388228 193.54980452832342 243.8095238095236" style="vector-effect: non-scaling-stroke;" /></g><g style="fill-opacity: 1.0;stroke: rgb(0.0 0.0 0.0);fill: rgb(256.0 151.59215686274507 0.0);stroke-width: 0.1;"><path d="M 237.5383964665786 198.0952380952378 C 243.4035185977403 198.07177751287077 249.2687111107193 198.07177751287077 255.13383324188086 198.09523809523762 C 252.1809547159824 193.02762362453672 249.24835845949306 187.94821791021062 246.33611485422966 182.857142857143 C 243.4238712489665 187.948217910211 240.49127499247717 193.02762362453709 237.53839646657886 198.09523809523787" style="vector-effect: non-scaling-stroke;" /></g><g style="fill-opacity: 1.0;stroke: rgb(0.0 0.0 0.0);fill: rgb(256.0 151.59215686274507 0.0);stroke-width: 0.1;"><path d="M 228.7406780789274 213.33333333333303 C 234.6058002100891 213.309872750966 240.4709927230681 213.309872750966 246.33611485422966 213.33333333333286 C 243.3832363283312 208.26571886263196 240.45064007184186 203.18631314830586 237.53839646657846 198.09523809523824 C 234.6261528613153 203.18631314830625 231.69355660482597 208.26571886263233 228.74067807892766 213.33333333333312" style="vector-effect: non-scaling-stroke;" /></g><g style="fill-opacity: 1.0;stroke: rgb(0.0 0.0 0.0);fill: rgb(256.0 151.59215686274507 0.0);stroke-width: 0.1;"><path d="M 246.33611485422952 213.33333333333303 C 252.2012369853912 213.309872750966 258.0664294983702 213.309872750966 263.9315516295318 213.33333333333286 C 260.9786731036333 208.26571886263196 258.046076847144 203.18631314830586 255.13383324188058 198.09523809523824 C 252.2215896366174 203.18631314830625 249.2889933801281 208.26571886263233 246.33611485422978 213.33333333333312" style="vector-effect: non-scaling-stroke;" /></g><g style="fill-opacity: 1.0;stroke: rgb(0.0 0.0 0.0);fill: rgb(256.0 151.59215686274507 0.0);stroke-width: 0.1;"><path d="M 219.94295969127649 228.57142857142827 C 225.80808182243817 228.54796798906125 231.67327433541718 228.54796798906125 237.53839646657875 228.5714285714281 C 234.5855179406803 223.5038141007272 231.65292168419094 218.4244083864011 228.74067807892754 213.33333333333348 C 225.82843447366437 218.4244083864015 222.89583821717505 223.50381410072757 219.94295969127674 228.57142857142836" style="vector-effect: non-scaling-stroke;" /></g><g style="fill-opacity: 1.0;stroke: rgb(0.0 0.0 0.0);fill: rgb(256.0 151.59215686274507 0.0);stroke-width: 0.1;"><path d="M 211.14524130362528 243.8095238095235 C 217.01036343478697 243.7860632271565 222.87555594776597 243.7860632271565 228.74067807892754 243.80952380952334 C 225.7877995530291 238.74190933882244 222.85520329653974 233.66250362449634 219.94295969127634 228.57142857142873 C 217.03071608601317 233.66250362449674 214.09811982952385 238.7419093388228 211.14524130362554 243.8095238095236" style="vector-effect: non-scaling-stroke;" /></g><g style="fill-opacity: 1.0;stroke: rgb(0.0 0.0 0.0);fill: rgb(256.0 151.59215686274507 0.0);stroke-width: 0.1;"><path d="M 228.7406780789274 243.8095238095235 C 234.6058002100891 243.7860632271565 240.4709927230681 243.7860632271565 246.33611485422966 243.80952380952334 C 243.3832363283312 238.74190933882244 240.45064007184186 233.66250362449634 237.53839646657846 228.57142857142873 C 234.6261528613153 233.66250362449674 231.69355660482597 238.7419093388228 228.74067807892766 243.8095238095236" style="vector-effect: non-scaling-stroke;" /></g><g style="fill-opacity: 1.0;stroke: rgb(0.0 0.0 0.0);fill: rgb(256.0 151.59215686274507 0.0);stroke-width: 0.1;"><path d="M 255.13383324188072 228.57142857142827 C 260.9989553730424 228.54796798906125 266.86414788602144 228.54796798906125 272.72927001718296 228.5714285714281 C 269.7763914912845 223.5038141007272 266.8437952347952 218.4244083864011 263.9315516295318 213.33333333333348 C 261.01930802426864 218.4244083864015 258.08671176777926 223.50381410072757 255.13383324188098 228.57142857142836" style="vector-effect: non-scaling-stroke;" /></g><g style="fill-opacity: 1.0;stroke: rgb(0.0 0.0 0.0);fill: rgb(256.0 151.59215686274507 0.0);stroke-width: 0.1;"><path d="M 246.33611485422952 243.8095238095235 C 252.2012369853912 243.7860632271565 258.0664294983702 243.7860632271565 263.9315516295318 243.80952380952334 C 260.9786731036333 238.74190933882244 258.046076847144 233.66250362449634 255.13383324188058 228.57142857142873 C 252.2215896366174 233.66250362449674 249.2889933801281 238.7419093388228 246.33611485422978 243.8095238095236" style="vector-effect: non-scaling-stroke;" /></g><g style="fill-opacity: 1.0;stroke: rgb(0.0 0.0 0.0);fill: rgb(256.0 151.59215686274507 0.0);stroke-width: 0.1;"><path d="M 263.9315516295316 243.8095238095235 C 269.7966737606933 243.7860632271565 275.66186627367233 243.7860632271565 281.52698840483384 243.80952380952334 C 278.5741098789354 238.74190933882244 275.6415136224461 233.66250362449634 272.72927001718267 228.57142857142873 C 269.8170264119195 233.66250362449674 266.88443015543015 238.7419093388228 263.93155162953184 243.8095238095236" style="vector-effect: non-scaling-stroke;" /></g></svg>