<?xml version="1.0" encoding="utf-8" ?>
<svg baseProfile="full" height="64" version="1.1" width="64" xmlns="http://www.w3.org/2000/svg" xmlns:ev="http://www.w3.org/2001/xml-events" xmlns:xlink="http://www.w3.org/1999/xlink"><defs><marker id="arrow" markerHeight="3.5" markerWidth="5" orient="auto" refX="5.0" refY="1.7"><polygon points="0,0 5,1.75 0,3.5" /></marker></defs><g style="fill:white;" /><g style="fill: rgb(256.0 151.59215686274507 0.0);stroke: rgb(0.0 0.0 0.0); stroke-width: 0.1;fill-opacity: 1.0;"><path d="M 60.95238095238095 30.476190476190474 C 60.95238095238095 13.757446998708918 47.19493395367202 0.0 30.476190476190467 0.0 C 13.757446998708922 0.0 0.0 13.757446998708922 0.0 30.476190476190478 C 0.0 47.19493395367202 13.757446998708922 60.95238095238094 30.476190476190478 60.95238095238095 C 47.19493395367202 60.95238095238095 60.95238095238095 47.194933953672034 60.95238095238095 30.476190476190474" style="vector-effect: non-scaling-stroke;" /></g><g style="fill: rgb(256.0 151.59215686274507 0.0);stroke: rgb(0.0 0.0 0.0); stroke-width: 0.1;fill-opacity: 1.0;"><path d="M 55.87301587301587 30.476190476190474 C 55.87301587301587 16.543904244955844 44.4084767074251 5.079365079365079 30.47619047619047 5.079365079365079 C 16.543904244955847 5.079365079365079 5.079365079365083 16.543904244955847 5.079365079365083 30.476190476190478 C 5.079365079365083 44.4084767074251 16.543904244955847 55.87301587301586 30.47619047619048 55.873015873015866 C 44.4084767074251 55.87301587301587 55.87301587301587 44.40847670742511 55.87301587301587 30.476190476190474" style="vector-effect: non-scaling-stroke;" /></g><g style="fill: rgb(256.0 151.59215686274507 0.0);stroke: rgb(0.0 0.0 0.0); stroke-width: 0.1;fill-opacity: 1.0;"><path d="M 50.79365079365079 30.476190476190474 C 50.79365079365079 19.330361491202773 41.622019461178176 10.158730158730158 30.47619047619047 10.158730158730158 C 19.330361491202773 10.158730158730158 10.158730158730158 19.330361491202773 10.158730158730158 30.476190476190478 C 10.158730158730158 41.622019461178176 19.330361491202773 50.793650793650784 30.476190476190478 50.793650793650784 C 41.622019461178176 50.79365079365079 50.79365079365079 41.622019461178176 50.79365079365079 30.476190476190474" style="vector-effect: non-scaling-stroke;" /></g><g style="fill: rgb(256.0 151.59215686274507 0.0);stroke: rgb(0.0 0.0 0.0); stroke-width: 0.1;fill-opacity: 1.0;"><path d="M 45.71428571428571 30.476190476190474 C 45.71428571428571 22.116818737449698 38.835562214931244 15.238095238095237 30.476190476190467 15.238095238095237 C 22.116818737449695 15.238095238095237 15.238095238095234 22.116818737449698 15.238095238095234 30.476190476190478 C 15.238095238095234 38.83556221493125 22.116818737449695 45.71428571428571 30.476190476190474 45.71428571428571 C 38.835562214931244 45.71428571428571 45.71428571428571 38.83556221493125 45.71428571428571 30.476190476190474" style="vector-effect: non-scaling-stroke;" /></g><g style="fill: rgb(256.0 151.59215686274507 0.0);stroke: rgb(0.0 0.0 0.0); stroke-width: 0.1;fill-opacity: 1.0;"><path d="M 40.63492063492063 30.476190476190474 C 40.63492063492063 24.903275983696624 36.049104968684325 20.317460317460316 30.476190476190474 20.317460317460316 C 24.903275983696624 20.317460317460316 20.317460317460316 24.903275983696624 20.317460317460316 30.476190476190474 C 20.317460317460316 36.049104968684325 24.903275983696624 40.63492063492063 30.476190476190474 40.63492063492063 C 36.049104968684325 40.63492063492063 40.63492063492063 36.049104968684325 40.63492063492063 30.476190476190474" style="vector-effect: non-scaling-stroke;" /></g></svg>