<?xml version="1.0" encoding="utf-8" ?>
<svg baseProfile="full" height="512" version="1.1" width="443" xmlns="http://www.w3.org/2000/svg" xmlns:ev="http://www.w3.org/2001/xml-events" xmlns:xlink="http://www.w3.org/1999/xlink"><defs /><g style="fill-opacity: 0;stroke: rgb(0.0 0.0 0.0);fill: rgb(256.0 256.0 256.0);stroke-width: 0.1536;"><path d="M 10.54761904761898 133.9727553219479 C 57.425738412511464 133.935252676445 104.30442031764797 133.935252676445 151.18253968253939 133.9727553219473 C 174.58912112127075 93.35636174755967 198.02846207383914 52.758232321781776 221.49999999999918 12.179341392897655 C 244.9715379261604 52.75823232178237 268.4108788787288 93.35636174756027 291.81746031746025 133.9727553219467 C 338.6955796823528 133.9352526764438 385.57426158748933 133.9352526764438 432.45238095238074 133.9727553219461" style="vector-effect: non-scaling-stroke;" /></g><g style="fill-opacity: 0;stroke: rgb(0.0 0.0 0.0);fill: rgb(256.0 256.0 256.0);stroke-width: 0.1536;"><path d="M 10.54761904761898 255.7661692509997 C 26.173658835916473 255.75366836916524 41.79988613762864 255.75366836916524 57.42592592592578 255.76616925099938 C 65.22811973883634 242.22737139287023 73.04123338969242 228.6946615842775 80.865079365079 215.16836460798285 C 88.68892534046603 228.69466158427772 96.50203899132211 242.22737139287045 104.30423280423258 255.76616925099924 C 119.93027259253014 255.75366836916479 135.5564998942423 255.75366836916479 151.18253968253947 255.76616925099896 C 158.98473349544994 242.22737139286968 166.79784714630603 228.694661584277 174.6216931216926 215.1683646079823 C 166.79784714630557 201.64206763168752 158.9847334954495 188.1093578230948 151.18253968253902 174.570559964966 C 166.8085794708367 174.5580590831314 182.43480677254885 174.5580590831314 198.060846560846 174.57055996496555 C 205.86304037375652 161.0317621068363 213.6761540246126 147.4990522982436 221.49999999999918 133.97275532194894 C 229.3238459753862 147.49905229824373 237.1369596262423 161.03176210683645 244.93915343915276 174.57055996496524 C 260.56519322745015 174.55805908313081 276.1914205291623 174.55805908313081 291.8174603174595 174.57055996496496 C 284.0152665045492 188.10935782309434 276.20215285369306 201.64206763168707 268.3783068783065 215.16836460798174 C 276.2021528536935 228.69466158427653 284.01526650454963 242.22737139286923 291.8174603174601 255.76616925099805 C 307.44350010575755 255.7536683691636 323.06972740746977 255.7536683691636 338.6957671957669 255.76616925099773 C 346.4979610086773 242.22737139286858 354.31107465953335 228.69466158427585 362.13492063492 215.1683646079812 C 369.95876661030724 228.69466158427608 377.7718802611633 242.2273713928688 385.5740740740738 255.7661692509976 C 401.20011386237127 255.75366836916314 416.82634116408343 255.75366836916314 432.45238095238057 255.7661692509973" style="vector-effect: non-scaling-stroke;" /></g><g style="fill-opacity: 0;stroke: rgb(0.0 0.0 0.0);fill: rgb(256.0 256.0 256.0);stroke-width: 0.1536;"><path d="M 10.54761904761898 377.55958318004986 C 15.756298977051477 377.55541621943837 20.965041410955536 377.55541621943837 26.173721340387914 377.5595831800498 C 28.774452611358047 373.04665056067336 31.37882382831005 368.5357472911425 33.98677248677227 364.0269816323776 C 36.59472114523467 368.5357472911425 39.199092362186676 373.0466505606734 41.79982363315686 377.5595831800497 C 47.00850356258937 377.5554162194382 52.21724599649342 377.5554162194382 57.4259259259258 377.55958318004963 C 60.02665719689589 373.0466505606732 62.63102841384789 368.5357472911423 65.23897707231012 364.0269816323774 C 62.631028413847815 359.5182159736125 60.02665719689582 355.0073127040816 57.42592592592563 350.4943800847053 C 62.634605855358174 350.49021312409377 67.84334828926222 350.49021312409377 73.0520282186946 350.4943800847052 C 75.6527594896647 345.9814474653288 78.2571307066167 341.4705441957979 80.86507936507893 336.961778537033 C 83.47302802354129 341.47054419579797 86.07739924049329 345.9814474653288 88.67813051146348 350.49438008470514 C 93.88681044089599 350.4902131240936 99.09555287480003 350.4902131240936 104.30423280423241 350.494380084705 C 101.70350153326233 355.0073127040816 99.09913031631032 359.5182159736124 96.4911816578481 364.02698163237733 C 99.09913031631048 368.5357472911423 101.70350153326247 373.04665056067313 104.30423280423265 377.55958318004946 C 109.51291273366513 377.555416219438 114.7216551675692 377.555416219438 119.93033509700157 377.5595831800494 C 122.53106636797165 373.04665056067296 125.13543758492365 368.53574729114206 127.74338624338587 364.0269816323772 C 130.35133490184836 368.5357472911421 132.95570611880035 373.046650560673 135.55643738977054 377.5595831800493 C 140.76511731920303 377.5554162194378 145.9738597531071 377.5554162194378 151.18253968253947 377.55958318004923 C 153.78327095350966 373.0466505606728 156.38764217046165 368.5357472911419 158.99559082892387 364.026981632377 C 156.38764217046156 359.51821597361214 153.78327095350957 355.00731270408124 151.18253968253939 350.49438008470497 C 156.39121961197188 350.4902131240935 161.59996204587594 350.4902131240935 166.80864197530832 350.4943800847049 C 169.40937324627853 345.9814474653285 172.01374446323052 341.4705441957976 174.62169312169274 336.96177853703267 C 172.0137444632303 332.45301287826777 169.4093732462783 327.9421096087369 166.80864197530812 323.4291769893606 C 161.59996204587569 323.43334394997214 156.39121961197162 323.43334394997214 151.18253968253924 323.4291769893607 C 153.78327095350943 318.91624436998416 156.38764217046142 314.40534110045326 158.99559082892364 309.89657544168836 C 156.3876421704612 305.38780978292345 153.7832709535092 300.8769065133926 151.18253968253902 296.36397389401634 C 156.39121961197154 296.3598069334048 161.59996204587557 296.3598069334048 166.80864197530798 296.3639738940162 C 169.40937324627816 291.85104127463984 172.01374446323015 287.34013800510894 174.62169312169237 282.8313723463441 C 177.22964178015482 287.34013800510905 179.8340129971068 291.8510412746399 182.434744268077 296.3639738940162 C 187.6434241975095 296.3598069334047 192.85216663141355 296.3598069334047 198.06084656084593 296.3639738940161 C 200.66157783181615 291.85104127463967 203.26594904876814 287.3401380051088 205.87389770723036 282.8313723463439 C 203.265949048768 278.3226066875791 200.661577831816 273.8117034180482 198.06084656084582 269.29877079867185 C 203.26952649027834 269.29460383806037 208.4782689241824 269.29460383806037 213.68694885361478 269.2987707986718 C 216.28768012458497 264.78583817929535 218.89205134153696 260.2749349097645 221.49999999999918 255.76616925099958 C 224.10794865846157 260.2749349097645 226.71231987541358 264.7858381792954 229.31305114638377 269.2987707986717 C 234.5217310758162 269.2946038380602 239.73047350972024 269.2946038380602 244.93915343915265 269.2987707986716 C 242.33842216818255 273.81170341804807 239.73405095123053 278.32260668757897 237.1261022927683 282.83137234634387 C 239.73405095123073 287.3401380051088 242.33842216818272 291.85104127463967 244.9391534391529 296.363973894016 C 250.1478333685854 296.35980693340446 255.35657580248943 296.35980693340446 260.5652557319218 296.3639738940159 C 263.16598700289194 291.8510412746395 265.77035821984396 287.34013800510866 268.3783068783062 282.83137234634376 C 270.9862555367686 287.3401380051087 273.59062675372064 291.85104127463956 276.1913580246908 296.3639738940159 C 281.4000379541233 296.35980693340434 286.60878038802736 296.35980693340434 291.81746031745973 296.36397389401577 C 289.21672904648955 300.8769065133922 286.6123578295376 305.3878097829231 284.00440917107534 309.896575441688 C 286.61235782953776 314.405341100453 289.2167290464898 318.9162443699838 291.81746031745996 323.42917698936014 C 286.6087803880274 323.4333439499717 281.4000379541233 323.4333439499717 276.19135802469094 323.4291769893603 C 273.59062675372076 327.9421096087367 270.98625553676874 332.4530128782676 268.37830687830655 336.9617785370325 C 270.98625553676897 341.4705441957974 273.5906267537209 345.9814474653283 276.1913580246911 350.4943800847046 C 281.40003795412355 350.4902131240931 286.6087803880276 350.4902131240931 291.81746031746 350.4943800847045 C 289.2167290464899 355.007312704081 286.6123578295379 359.51821597361186 284.0044091710757 364.02698163237676 C 286.6123578295381 368.5357472911417 289.2167290464901 373.04665056067256 291.8174603174603 377.5595831800489 C 297.02614024689274 377.55541621943735 302.23488268079683 377.55541621943735 307.4435626102292 377.55958318004883 C 310.0442938811993 373.0466505606724 312.6486650981513 368.53574729114155 315.25661375661355 364.02698163237665 C 317.86456241507597 368.53574729114155 320.468933632028 373.04665056067245 323.06966490299817 377.5595831800487 C 328.2783448324306 377.55541621943723 333.4870872663347 377.55541621943723 338.6957671957671 377.55958318004866 C 341.2964984667372 373.0466505606722 343.9008696836892 368.5357472911413 346.50881834215147 364.0269816323764 C 343.90086968368905 359.5182159736115 341.2964984667371 355.0073127040806 338.6957671957669 350.49438008470435 C 343.9044471251994 350.49021312409286 349.11318955910343 350.49021312409286 354.32186948853587 350.4943800847043 C 356.92260075950605 345.9814474653278 359.526971976458 341.47054419579695 362.13492063492026 336.96177853703205 C 364.74286929338257 341.47054419579695 367.34724051033453 345.98144746532785 369.9479717813047 350.4943800847041 C 375.1566517107372 350.49021312409263 380.3653941446413 350.49021312409263 385.5740740740736 350.49438008470406 C 382.9733428031036 355.00731270408056 380.3689715861516 359.51821597361146 377.76102292768934 364.02698163237636 C 380.3689715861517 368.5357472911413 382.9733428031037 373.04665056067216 385.5740740740739 377.5595831800485 C 390.7827540035064 377.55541621943695 395.9914964374105 377.55541621943695 401.20017636684287 377.5595831800484 C 403.8009076378129 373.046650560672 406.4052788547649 368.5357472911411 409.01322751322715 364.0269816323762 C 411.6211761716896 368.53574729114115 414.22554738864164 373.04665056067205 416.82627865961183 377.5595831800483 C 422.0349585890443 377.5554162194368 427.2437010229484 377.5554162194368 432.4523809523808 377.5595831800482" style="vector-effect: non-scaling-stroke;" /></g><g style="fill-opacity: 0;stroke: rgb(0.0 0.0 0.0);fill: rgb(256.0 256.0 256.0);stroke-width: 0.1536;"><path d="M 10.54761904761898 499.35299710910056 C 12.283845690763146 499.35160812223006 14.020093168731163 499.35160812223006 15.75631981187529 499.3529971091005 C 16.623230235532002 497.84868623597504 17.49135397451601 496.3450518127981 18.360670194003422 494.8421299265431 C 19.22998641349091 496.3450518127981 20.098110152474916 497.8486862359751 20.965020576131643 499.3529971091005 C 22.701247219275807 499.35160812223 24.437494697243828 499.35160812223 26.173721340387953 499.35299710910044 C 27.040631764044665 497.848686235975 27.908755503028672 496.34505181279803 28.778071722516085 494.84212992654307 C 27.908755503028637 493.3392080402881 27.04063176404463 491.8355736171111 26.1737213403879 490.3312627439857 C 27.90994798353208 490.3298737571152 29.6461954615001 490.3298737571152 31.382422104644228 490.33126274398563 C 32.24933252830094 488.82695187086017 33.11745626728495 487.3233174476832 33.98677248677237 485.82039556142826 C 34.85608870625981 487.3233174476832 35.72421244524382 488.82695187086017 36.59112286890055 490.3312627439856 C 38.327349512044705 490.3298737571151 40.06359699001273 490.3298737571151 41.79982363315685 490.3312627439856 C 40.93291320950016 491.83557361711104 40.06478947051615 493.33920804028804 39.195473251028744 494.842129926543 C 40.06478947051619 496.345051812798 40.9329132095002 497.8486862359749 41.799823633156926 499.35299710910033 C 43.53605027630109 499.35160812222983 45.27229775426911 499.35160812222983 47.00852439741323 499.35299710910033 C 47.87543482106994 497.84868623597487 48.74355856005395 496.34505181279786 49.61287477954136 494.8421299265429 C 50.48219099902885 496.3450518127979 51.35031473801286 497.84868623597487 52.21722516166959 499.3529971091003 C 53.95345180481376 499.3516081222298 55.68969928278178 499.3516081222298 57.4259259259259 499.3529971091002 C 58.29283634958264 497.84868623597475 59.16096008856665 496.3450518127978 60.03027630805406 494.84212992654284 C 59.16096008856659 493.3392080402879 58.292836349582586 491.8355736171109 57.42592592592585 490.3312627439855 C 59.162152569070045 490.329873757115 60.89840004703806 490.329873757115 62.63462669018219 490.33126274398546 C 63.501537113838914 488.82695187086 64.36966085282293 487.323317447683 65.23897707231033 485.82039556142803 C 64.36966085282288 484.31747367517306 63.50153711383886 482.8138392519961 62.63462669018213 481.3095283788707 C 60.89840004703798 481.3109173657412 59.16215256906996 481.3109173657412 57.42592592592584 481.3095283788707 C 58.292836349582565 479.80521750574525 59.160960088566576 478.30158308256824 60.030276308053985 476.79866119631333 C 59.1609600885665 475.29573931005837 58.292836349582494 473.79210488688136 57.42592592592576 472.28779401375596 C 59.16215256906994 472.28640502688546 60.89840004703795 472.28640502688546 62.63462669018209 472.2877940137559 C 63.5015371138388 470.78348314063044 64.36966085282282 469.2798487174535 65.23897707231022 467.7769268311985 C 66.10829329179771 469.2798487174535 66.97641703078172 470.7834831406305 67.84332745443845 472.2877940137559 C 69.57955409758262 472.2864050268854 71.31580157555064 472.2864050268854 73.05202821869476 472.2877940137559 C 73.91893864235149 470.7834831406304 74.78706238133549 469.27984871745343 75.6563786008229 467.77692683119847 C 74.78706238133543 466.2740049449435 73.91893864235143 464.7703705217665 73.0520282186947 463.2660596486411 C 74.7882548618389 463.2646706617706 76.5245023398069 463.2646706617706 78.26072898295104 463.2660596486411 C 79.12763940660774 461.76174877551557 79.99576314559175 460.2581143523386 80.86507936507917 458.75519246608366 C 81.73439558456666 460.2581143523386 82.60251932355065 461.7617487755156 83.46942974720739 463.26605964864103 C 85.20565639035154 463.26467066177054 86.94190386831956 463.26467066177054 88.67813051146368 463.266059648641 C 87.81122008780699 464.7703705217665 86.94309634882298 466.27400494494344 86.07378012933557 467.7769268311984 C 86.94309634882303 469.2798487174534 87.81122008780704 470.7834831406303 88.67813051146378 472.2877940137558 C 90.41435715460793 472.2864050268853 92.15060463257596 472.2864050268853 93.88683127572008 472.28779401375573 C 94.75374169937677 470.78348314063027 95.62186543836079 469.2798487174533 96.4911816578482 467.77692683119835 C 97.36049787733569 469.2798487174533 98.22862161631969 470.7834831406303 99.09553203997642 472.28779401375573 C 100.83175868312058 472.28640502688523 102.56800616108859 472.28640502688523 104.30423280423273 472.2877940137557 C 103.43732238057602 473.7921048868812 102.56919864159201 475.29573931005814 101.69988242210461 476.7986611963131 C 102.56919864159207 478.3015830825681 103.43732238057608 479.8052175057451 104.30423280423281 481.3095283788705 C 102.56800616108863 481.310917365741 100.8317586831206 481.310917365741 99.09553203997648 481.3095283788705 C 98.22862161631977 482.813839251996 97.36049787733576 484.31747367517295 96.49118165784834 485.8203955614279 C 97.36049787733582 487.3233174476829 98.22862161631983 488.82695187085983 99.09553203997655 490.3312627439853 C 100.83175868312071 490.3298737571148 102.56800616108872 490.3298737571148 104.30423280423284 490.33126274398523 C 103.43732238057615 491.83557361711075 102.56919864159215 493.3392080402877 101.69988242210474 494.84212992654267 C 102.56919864159221 496.34505181279764 103.4373223805762 497.8486862359746 104.30423280423294 499.35299710910004 C 106.0404594473771 499.3516081222295 107.77670692534511 499.3516081222295 109.51293356848925 499.3529971091 C 110.37984399214596 497.8486862359745 111.24796773112998 496.3450518127976 112.11728395061738 494.8421299265426 C 112.98660017010486 496.3450518127976 113.85472390908888 497.8486862359745 114.72163433274561 499.35299710909993 C 116.45786097588976 499.35160812222944 118.19410845385778 499.35160812222944 119.93033509700192 499.35299710909993 C 120.79724552065862 497.84868623597447 121.66536925964263 496.34505181279746 122.53468547913005 494.8421299265425 C 121.66536925964257 493.33920804028753 120.79724552065856 491.8355736171106 119.93033509700184 490.3312627439851 C 121.66656174014605 490.3298737571146 123.40280921811407 490.3298737571146 125.1390358612582 490.3312627439851 C 126.00594628491493 488.82695187085966 126.87407002389892 487.32331744768265 127.74338624338634 485.8203955614277 C 128.61270246287376 487.32331744768265 129.48082620185778 488.82695187085966 130.3477366255145 490.33126274398506 C 132.08396326865866 490.32987375711457 133.82021074662669 490.32987375711457 135.55643738977082 490.331262743985 C 134.68952696611413 491.8355736171105 133.82140322713013 493.3392080402875 132.95208700764272 494.84212992654244 C 133.82140322713016 496.3450518127974 134.68952696611416 497.8486862359744 135.5564373897709 499.3529971090998 C 137.29266403291507 499.3516081222293 139.02891151088306 499.3516081222293 140.7651381540272 499.35299710909976 C 141.63204857768392 497.8486862359743 142.5001723166679 496.34505181279735 143.36948853615533 494.8421299265424 C 144.23880475564283 496.34505181279735 145.10692849462683 497.84868623597436 145.97383891828355 499.35299710909976 C 147.7100655614277 499.35160812222927 149.44631303939573 499.35160812222927 151.18253968253987 499.3529971090997 C 152.0494501061966 497.84868623597424 152.91757384518058 496.3450518127973 153.786890064668 494.8421299265423 C 152.91757384518056 493.33920804028736 152.04945010619656 491.83557361711036 151.18253968253984 490.33126274398495 C 152.918766325684 490.32987375711446 154.655013803652 490.32987375711446 156.39124044679616 490.3312627439849 C 157.25815087045285 488.82695187085943 158.12627460943685 487.3233174476825 158.99559082892426 485.8203955614275 C 158.12627460943676 484.3174736751725 157.25815087045277 482.81383925199555 156.39124044679605 481.30952837887014 C 154.65501380365188 481.3109173657406 152.9187663256839 481.3109173657406 151.18253968253975 481.30952837887014 C 152.04945010619647 479.8052175057447 152.91757384518047 478.3015830825677 153.7868900646679 476.7986611963127 C 152.91757384518044 475.29573931005774 152.04945010619642 473.7921048868808 151.1825396825397 472.2877940137554 C 152.91876632568386 472.2864050268849 154.65501380365188 472.2864050268849 156.39124044679602 472.28779401375533 C 157.25815087045274 470.78348314062987 158.12627460943673 469.2798487174529 158.99559082892415 467.77692683119795 C 159.86490704841162 469.2798487174529 160.73303078739565 470.78348314062987 161.59994121105237 472.2877940137553 C 163.33616785419653 472.28640502688484 165.07241533216455 472.28640502688484 166.8086419753087 472.2877940137553 C 167.67555239896535 470.7834831406298 168.54367613794935 469.27984871745286 169.41299235743676 467.7769268311979 C 168.54367613794935 466.27400494494293 167.67555239896532 464.7703705217659 166.8086419753086 463.2660596486405 C 168.5448686184528 463.26467066177 170.2811160964208 463.26467066177 172.01734273956492 463.26605964864046 C 172.88425316322164 461.761748775515 173.75237690220564 460.258114352338 174.62169312169306 458.7551924660831 C 173.75237690220558 457.25227057982806 172.88425316322156 455.7486361566511 172.01734273956484 454.24432528352565 C 170.28111609642073 454.24571427039615 168.54486861845268 454.24571427039615 166.80864197530857 454.2443252835257 C 167.67555239896527 452.74001441040025 168.5436761379493 451.23637998722324 169.4129923574367 449.7334581009683 C 168.5436761379492 448.2305362147133 167.6755523989652 446.72690179153636 166.80864197530846 445.2225909184109 C 165.07241533216435 445.2239799052814 163.33616785419633 445.2239799052814 161.5999412110522 445.22259091841096 C 160.73303078739548 446.7269017915364 159.86490704841148 448.23053621471337 158.99559082892407 449.73345810096833 C 158.12627460943662 448.2305362147133 157.25815087045262 446.72690179153636 156.39124044679588 445.22259091841096 C 154.6550138036517 445.22397990528145 152.9187663256837 445.22397990528145 151.18253968253958 445.222590918411 C 152.04945010619628 443.7182800452855 152.9175738451803 442.21464562210855 153.7868900646677 440.7117237358536 C 152.91757384518027 439.2088018495986 152.04945010619628 437.7051674264216 151.18253968253953 436.2008565532962 C 152.91876632568372 436.1994675664257 154.6550138036517 436.1994675664257 156.39124044679588 436.20085655329615 C 157.25815087045254 434.6965456801707 158.12627460943654 433.19291125699374 158.99559082892395 431.6899893707388 C 158.1262746094365 430.18706748448375 157.2581508704525 428.6834330613068 156.39124044679576 427.1791221881814 C 154.65501380365166 427.18051117505183 152.9187663256836 427.18051117505183 151.1825396825395 427.1791221881814 C 152.04945010619622 425.6748113150559 152.91757384518021 424.17117689187893 153.78689006466763 422.66825500562396 C 152.9175738451802 421.165333119369 152.04945010619616 419.66169869619205 151.18253968253944 418.1573878230666 C 152.91876632568358 418.1559988361961 154.6550138036516 418.1559988361961 156.39124044679573 418.15738782306653 C 157.25815087045245 416.6530769499411 158.12627460943648 415.1494425267641 158.9955908289239 413.64652064050915 C 159.86490704841134 415.1494425267641 160.73303078739536 416.6530769499411 161.59994121105208 418.15738782306653 C 163.33616785419625 418.15599883619603 165.07241533216427 418.15599883619603 166.8086419753084 418.15738782306653 C 167.67555239896512 416.653076949941 168.54367613794912 415.14944252676406 169.41299235743654 413.6465206405091 C 168.5436761379491 412.1435987542541 167.67555239896507 410.6399643310772 166.80864197530835 409.1356534579517 C 168.5448686184525 409.1342644710812 170.28111609642053 409.1342644710812 172.01734273956467 409.13565345795166 C 172.8842531632214 407.63134258482626 173.75237690220538 406.12770816164925 174.6216931216928 404.6247862753943 C 175.49100934118027 406.1277081616493 176.35913308016427 407.63134258482626 177.22604350382102 409.13565345795166 C 178.9622701469652 409.13426447108117 180.69851762493323 409.13426447108117 182.43474426807737 409.13565345795166 C 181.56783384442062 410.63996433107707 180.69971010543662 412.14359875425407 179.83039388594918 413.64652064050904 C 180.69971010543665 415.149442526764 181.56783384442065 416.653076949941 182.43474426807737 418.1573878230664 C 184.17097091122156 418.1559988361959 185.90721838918958 418.1559988361959 187.64344503233372 418.15738782306636 C 188.5103554559904 416.65307694994095 189.37847919497437 415.14944252676395 190.2477954144618 413.646520640509 C 191.1171116339493 415.149442526764 191.9852353729333 416.65307694994095 192.85214579659 418.15738782306636 C 194.5883724397342 418.15599883619586 196.32461991770222 418.15599883619586 198.06084656084633 418.1573878230663 C 198.92775698450308 416.65307694994084 199.79588072348704 415.1494425267639 200.66519694297443 413.6465206405089 C 199.79588072348702 412.14359875425396 198.927756984503 410.63996433107695 198.06084656084627 409.13565345795155 C 199.79707320399046 409.13426447108105 201.53332068195846 409.13426447108105 203.2695473251026 409.1356534579515 C 204.13645774875937 407.63134258482603 205.00458148774334 406.1277081616491 205.87389770723075 404.6247862753941 C 205.00458148774328 403.12186438913915 204.13645774875928 401.6182299659622 203.26954732510256 400.11391909283674 C 201.53332068195843 400.11530807970723 199.79707320399038 400.11530807970723 198.06084656084627 400.1139190928368 C 198.927756984503 398.6096082197113 199.795880723487 397.10597379653433 200.66519694297438 395.60305191027936 C 199.7958807234869 394.1001300240244 198.9277569845029 392.59649560084745 198.0608465608462 391.09218472772204 C 199.79707320399035 391.0907957408515 201.53332068195837 391.0907957408515 203.26954732510248 391.09218472772193 C 204.1364577487592 389.58787385459647 205.0045814877432 388.0842394314195 205.87389770723058 386.58131754516455 C 206.74321392671808 388.0842394314195 207.6113376657021 389.5878738545965 208.47824808935886 391.09218472772193 C 210.21447473250302 391.09079574085143 211.950722210471 391.09079574085143 213.68694885361515 391.09218472772193 C 214.55385927727187 389.5878738545964 215.42198301625587 388.08423943141946 216.29129923574325 386.5813175451645 C 215.42198301625584 385.0783956589095 214.55385927727178 383.5747612357326 213.68694885361506 382.0704503626072 C 215.42317549675926 382.0690613757366 217.15942297472728 382.0690613757366 218.8956496178714 382.07045036260706 C 219.76256004152816 380.5661394894816 220.63068378051216 379.06250506630465 221.49999999999955 377.5595831800497 C 222.369316219487 379.06250506630465 223.23743995847101 380.56613948948166 224.10435038212773 382.07045036260706 C 225.8405770252719 382.06906137573657 227.57682450323995 382.06906137573657 229.31305114638405 382.07045036260706 C 228.44614072272734 383.5747612357325 227.57801698374334 385.07839565890947 226.70870076425592 386.58131754516444 C 227.57801698374334 388.08423943141946 228.44614072272736 389.5878738545964 229.3130511463841 391.0921847277218 C 231.0492777895283 391.0907957408513 232.78552526749633 391.0907957408513 234.52175191064043 391.0921847277218 C 235.3886623342972 389.58787385459635 236.25678607328118 388.08423943141935 237.1261022927686 386.58131754516444 C 237.99541851225604 388.0842394314194 238.86354225124003 389.5878738545964 239.73045267489675 391.0921847277218 C 241.46667931804097 391.0907957408513 243.20292679600897 391.0907957408513 244.9391534391531 391.09218472772176 C 244.07224301549633 392.5964956008472 243.20411927651236 394.10013002402417 242.33480305702494 395.60305191027913 C 243.2041192765124 397.1059737965341 244.0722430154964 398.6096082197111 244.93915343915313 400.1139190928365 C 243.20292679600894 400.115308079707 241.46667931804092 400.115308079707 239.7304526748968 400.11391909283657 C 238.86354225124003 401.61822996596203 237.99541851225604 403.121864389139 237.12610229276865 404.62478627539394 C 237.9954185122561 406.1277081616489 238.86354225124012 407.6313425848259 239.73045267489684 409.1356534579513 C 241.466679318041 409.1342644710808 243.20292679600905 409.1342644710808 244.9391534391532 409.13565345795126 C 244.07224301549644 410.6399643310768 243.20411927651247 412.14359875425373 242.33480305702503 413.6465206405087 C 243.20411927651247 415.14944252676366 244.0722430154965 416.65307694994067 244.93915343915322 418.1573878230661 C 246.6753800822974 418.1559988361956 248.41162756026543 418.1559988361956 250.14785420340954 418.1573878230661 C 251.01476462706623 416.6530769499406 251.88288836605022 415.14944252676366 252.7522045855376 413.6465206405087 C 253.62152080502517 415.14944252676366 254.48964454400914 416.65307694994067 255.3565549676659 418.1573878230661 C 257.0927816108101 418.1559988361956 258.8290290887781 418.1559988361956 260.5652557319222 418.1573878230661 C 261.4321661555789 416.6530769499406 262.30028989456287 415.1494425267636 263.1696061140503 413.6465206405087 C 262.30028989456287 412.1435987542537 261.4321661555788 410.6399643310767 260.5652557319221 409.1356534579513 C 262.30148237506626 409.1342644710808 264.0377298530343 409.1342644710808 265.7739564961784 409.13565345795126 C 266.6408669198351 407.6313425848258 267.5089906588191 406.1277081616488 268.3783068783065 404.62478627539383 C 269.24762309779396 406.12770816164885 270.11574683677793 407.6313425848258 270.9826572604347 409.13565345795126 C 272.71888390357884 409.13426447108077 274.4551313815469 409.13426447108077 276.191358024691 409.1356534579512 C 275.32444760103425 410.6399643310767 274.4563238620503 412.14359875425373 273.58700764256287 413.6465206405087 C 274.45632386205034 415.14944252676366 275.3244476010343 416.6530769499406 276.19135802469106 418.157387823066 C 277.9275846678353 418.1559988361956 279.66383214580327 418.1559988361956 281.4000587889474 418.157387823066 C 282.26696921260407 416.65307694994056 283.1350929515881 415.1494425267636 284.00440917107545 413.64652064050864 C 284.873725390563 415.14944252676366 285.741849129547 416.6530769499406 286.6087595532037 418.157387823066 C 288.3449861963479 418.1559988361955 290.0812336743159 418.1559988361955 291.8174603174601 418.157387823066 C 290.9505498938034 419.6616986961915 290.08242615481936 421.1653331193684 289.21310993533194 422.6682550056234 C 290.0824261548194 424.17117689187836 290.9505498938034 425.6748113150553 291.81746031746013 427.17912218818077 C 290.08123367431597 427.18051117505127 288.3449861963479 427.18051117505127 286.6087595532038 427.1791221881808 C 285.7418491295471 428.6834330613063 284.8737253905631 430.18706748448324 284.0044091710757 431.6899893707382 C 284.8737253905631 433.19291125699317 285.7418491295471 434.6965456801702 286.60875955320387 436.2008565532956 C 288.34498619634803 436.1994675664251 290.0812336743161 436.1994675664251 291.8174603174602 436.2008565532956 C 290.95054989380344 437.70516742642104 290.0824261548195 439.208801849598 289.21310993533206 440.71172373585296 C 290.0824261548195 442.2146456221079 290.9505498938035 443.7182800452849 291.81746031746025 445.22259091841033 C 290.0812336743161 445.2239799052808 288.34498619634803 445.2239799052808 286.6087595532039 445.2225909184104 C 285.7418491295471 446.72690179153585 284.87372539056315 448.23053621471286 284.00440917107574 449.73345810096777 C 283.1350929515883 448.2305362147128 282.2669692126043 446.7269017915358 281.40005878894755 445.2225909184104 C 279.66383214580344 445.2239799052809 277.9275846678354 445.2239799052809 276.1913580246912 445.22259091841045 C 275.32444760103454 446.7269017915359 274.4563238620505 448.23053621471286 273.58700764256315 449.7334581009678 C 274.4563238620506 451.2363799872228 275.3244476010346 452.7400144103998 276.19135802469134 454.2443252835252 C 274.4551313815472 454.2457142703957 272.7188839035791 454.2457142703957 270.98265726043496 454.24432528352526 C 270.11574683677827 455.7486361566507 269.2476230977943 457.25227057982767 268.3783068783069 458.75519246608263 C 269.2476230977943 460.25811435233766 270.1157468367783 461.7617487755146 270.9826572604351 463.26605964864 C 272.71888390357924 463.2646706617695 274.4551313815473 463.2646706617695 276.1913580246914 463.26605964864 C 275.32444760103465 464.77037052176547 274.4563238620507 466.2740049449424 273.58700764256326 467.7769268311974 C 274.4563238620507 469.27984871745235 275.3244476010347 470.78348314062936 276.19135802469145 472.28779401375476 C 277.9275846678356 472.28640502688427 279.66383214580367 472.28640502688427 281.4000587889478 472.2877940137547 C 282.2669692126045 470.7834831406293 283.1350929515885 469.2798487174523 284.0044091710759 467.77692683119733 C 284.8737253905634 469.27984871745235 285.74184912954735 470.7834831406293 286.6087595532041 472.28779401375476 C 288.3449861963483 472.28640502688427 290.0812336743163 472.28640502688427 291.8174603174604 472.2877940137547 C 290.95054989380367 473.79210488688017 290.0824261548197 475.2957393100571 289.2131099353323 476.7986611963121 C 290.0824261548197 478.30158308256705 290.9505498938037 479.80521750574405 291.8174603174605 481.30952837886946 C 290.08123367431625 481.31091736573995 288.34498619634826 481.31091736573995 286.60875955320415 481.3095283788695 C 285.74184912954735 482.813839251995 284.8737253905634 484.3174736751719 284.00440917107596 485.8203955614269 C 284.87372539056344 487.32331744768186 285.74184912954746 488.82695187085886 286.60875955320415 490.33126274398427 C 288.3449861963483 490.3298737571138 290.08123367431637 490.3298737571138 291.8174603174605 490.3312627439842 C 290.9505498938038 491.83557361710973 290.08242615481976 493.3392080402867 289.21310993533234 494.84212992654165 C 290.08242615481976 496.3450518127966 290.9505498938038 497.8486862359736 291.81746031746053 499.352997109099 C 293.5536869606047 499.3516081222285 295.28993443857274 499.3516081222285 297.02616108171685 499.352997109099 C 297.89307150537354 497.84868623597356 298.76119524435757 496.34505181279656 299.6305114638449 494.8421299265416 C 300.49982768333246 496.34505181279656 301.3679514223164 497.84868623597356 302.23486184597317 499.35299710909896 C 303.97108848911734 499.35160812222847 305.7073359670854 499.35160812222847 307.4435626102295 499.3529971090989 C 308.31047303388624 497.84868623597345 309.1785967728702 496.3450518127965 310.0479129923576 494.84212992654153 C 309.17859677287015 493.33920804028656 308.3104730338861 491.83557361710956 307.44356261022943 490.33126274398415 C 309.1797892533736 490.32987375711366 310.91603673134165 490.32987375711366 312.65226337448576 490.3312627439841 C 313.5191737981425 488.82695187085864 314.3872975371265 487.3233174476817 315.2566137566139 485.8203955614267 C 316.1259299761013 487.3233174476817 316.9940537150854 488.82695187085864 317.8609641387421 490.3312627439841 C 319.59719078188624 490.32987375711355 321.33343825985423 490.32987375711355 323.0696649029984 490.33126274398404 C 322.2027544793417 491.8355736171095 321.3346307403577 493.3392080402865 320.46531452087027 494.8421299265415 C 321.3346307403577 496.34505181279644 322.2027544793417 497.8486862359734 323.06966490299845 499.35299710909885 C 324.8058915461426 499.3516081222283 326.54213902411067 499.3516081222283 328.2783656672548 499.3529971090988 C 329.14527609091147 497.84868623597333 330.0133998298955 496.3450518127964 330.88271604938285 494.8421299265414 C 331.7520322688704 496.3450518127964 332.62015600785435 497.84868623597333 333.4870664315111 499.35299710909874 C 335.22329307465526 499.35160812222824 336.9595405526233 499.35160812222824 338.6957671957674 499.35299710909874 C 339.56267761942416 497.8486862359732 340.43080135840813 496.34505181279627 341.30011757789555 494.8421299265413 C 340.4308013584081 493.33920804028634 339.56267761942405 491.8355736171094 338.69576719576736 490.331262743984 C 340.4319938389115 490.3298737571135 342.1682413168796 490.3298737571135 343.9044679600237 490.3312627439839 C 344.7713783836804 488.82695187085847 345.63950212266445 487.32331744768146 346.5088183421518 485.8203955614265 C 345.63950212266434 484.3174736751716 344.77137838368037 482.8138392519946 343.9044679600236 481.3095283788692 C 342.16824131687946 481.31091736573967 340.43199383891147 481.31091736573967 338.69576719576736 481.30952837886923 C 339.56267761942405 479.8052175057437 340.4308013584081 478.30158308256676 341.30011757789543 476.7986611963118 C 340.43080135840796 475.29573931005683 339.562677619424 473.7921048868799 338.69576719576725 472.2877940137544 C 340.4319938389114 472.2864050268839 342.16824131687946 472.2864050268839 343.90446796002357 472.28779401375436 C 344.7713783836803 470.7834831406289 345.6395021226643 469.27984871745196 346.50881834215164 467.776926831197 C 347.3781345616392 469.279848717452 348.2462583006232 470.78348314062896 349.11316872427994 472.28779401375436 C 350.8493953674241 472.28640502688387 352.58564284539204 472.28640502688387 354.3218694885362 472.28779401375436 C 355.18877991219296 470.78348314062885 356.0569036511769 469.2798487174519 356.92621987066434 467.77692683119693 C 356.0569036511769 466.27400494494196 355.1887799121929 464.770370521765 354.32186948853615 463.2660596486396 C 356.0580961316803 463.26467066176906 357.7943436096483 463.26467066176906 359.5305702527924 463.26605964863955 C 360.39748067644916 461.7617487755141 361.26560441543313 460.2581143523371 362.13492063492055 458.7551924660821 C 363.00423685440796 460.2581143523371 363.872360593392 461.7617487755141 364.73927101704874 463.2660596486395 C 366.4754976601929 463.264670661769 368.2117451381609 463.264670661769 369.94797178130506 463.26605964863944 C 369.08106135764837 464.77037052176496 368.21293761866434 466.2740049449419 367.3436213991769 467.7769268311969 C 368.21293761866434 469.27984871745184 369.08106135764837 470.78348314062885 369.9479717813051 472.28779401375425 C 371.6841984244493 472.28640502688376 373.42044590241727 472.28640502688376 375.1566725455614 472.2877940137542 C 376.0235829692181 470.78348314062873 376.8917067082021 469.2798487174518 377.7610229276895 467.7769268311968 C 378.6303391471769 469.2798487174518 379.49846288616095 470.7834831406288 380.3653733098177 472.2877940137542 C 382.10159995296186 472.2864050268837 383.83784743092986 472.2864050268837 385.57407407407396 472.28779401375414 C 384.7071636504173 473.79210488687966 383.8390399114333 475.2957393100566 382.9697236919459 476.79866119631157 C 383.8390399114333 478.30158308256654 384.70716365041733 479.80521750574354 385.5740740740741 481.30952837886895 C 383.8378474309299 481.31091736573944 382.10159995296186 481.31091736573944 380.36537330981776 481.309528378869 C 379.49846288616106 482.81383925199447 378.6303391471771 484.3174736751714 377.7610229276897 485.8203955614264 C 378.6303391471771 487.32331744768135 379.4984628861611 488.82695187085835 380.36537330981787 490.33126274398376 C 382.10159995296203 490.32987375711326 383.83784743092997 490.32987375711326 385.57407407407413 490.3312627439837 C 384.7071636504175 491.8355736171092 383.8390399114335 493.33920804028617 382.96972369194606 494.84212992654113 C 383.8390399114335 496.3450518127961 384.7071636504175 497.84868623597305 385.5740740740742 499.3529971090985 C 387.31030071721835 499.351608122228 389.04654819518635 499.351608122228 390.7827748383305 499.35299710909845 C 391.64968526198726 497.848686235973 392.51780900097117 496.34505181279604 393.38712522045864 494.8421299265411 C 394.2564414399461 496.34505181279604 395.1245651789301 497.848686235973 395.9914756025869 499.35299710909845 C 397.72770224573105 499.35160812222796 399.463949723699 499.35160812222796 401.20017636684315 499.3529971090984 C 402.0670867904999 497.84868623597293 402.9352105294839 496.34505181279593 403.8045267489713 494.84212992654096 C 402.93521052948387 493.339208040286 402.06708679049984 491.83557361710905 401.2001763668431 490.33126274398364 C 402.93640300998726 490.32987375711315 404.67265048795525 490.32987375711315 406.4088771310994 490.3312627439836 C 407.2757875547561 488.8269518708581 408.14391129374013 487.3233174476811 409.0132275132275 485.82039556142615 C 409.8825437327149 487.3233174476811 410.75066747169893 488.8269518708581 411.6175778953557 490.33126274398353 C 413.35380453849984 490.32987375711303 415.09005201646784 490.32987375711303 416.826278659612 490.3312627439835 C 415.9593682359553 491.835573617109 415.0912444969713 493.33920804028594 414.22192827748387 494.8421299265409 C 415.0912444969713 496.3450518127959 415.9593682359553 497.8486862359729 416.82627865961206 499.3529971090983 C 418.5625053027562 499.3516081222278 420.2987527807242 499.3516081222278 422.0349794238684 499.3529971090982 C 422.90188984752507 497.8486862359728 423.7700135865091 496.3450518127958 424.63932980599645 494.84212992654085 C 425.50864602548387 496.3450518127958 426.37676976446784 497.8486862359728 427.24368018812464 499.3529971090982 C 428.9799068312688 499.35160812222773 430.7161543092368 499.35160812222773 432.45238095238096 499.35299710909817" style="vector-effect: non-scaling-stroke;" /></g></svg>