<?xml version="1.0" encoding="utf-8" ?>
<svg baseProfile="full" height="512" version="1.1" width="443" xmlns="http://www.w3.org/2000/svg" xmlns:ev="http://www.w3.org/2001/xml-events" xmlns:xlink="http://www.w3.org/1999/xlink"><defs /><g style="fill-opacity: 1.0;stroke: rgb(0.0 0.0 0.0);fill: rgb(256.0 256.0 256.0);stroke-width: 0.512;"><path d="M -2.842170943040401e-14 121.79341392905533 C 46.87811936489251 121.75591128355244 93.75680127002907 121.75591128355244 140.63492063492055 121.79341392905474 C 164.0415020736519 81.17702035466708 187.48084302622036 40.57889092888912 210.95238095237983 4.959588295605499e-12 C 234.42391887854055 40.578890928889635 257.86325983110885 81.17702035466777 281.26984126984064 121.79341392905417 C 328.1479606347332 121.75591128355124 375.0266425398697 121.75591128355124 421.90476190476124 121.79341392905353" style="vector-effect: non-scaling-stroke;" /></g><g style="fill-opacity: 1.0;stroke: rgb(0.0 0.0 0.0);fill: rgb(256.0 256.0 256.0);stroke-width: 0.512;"><path d="M -2.842170943040401e-14 243.58682785810697 C 15.626039788297483 243.57432697627252 31.25226709000967 243.57432697627252 46.87830687830683 243.58682785810666 C 54.68050069121724 230.04802999997742 62.49361434207348 216.51532019138475 70.31746031746007 202.98902321509007 C 78.14130629284688 216.51532019138494 85.95441994370297 230.04802999997767 93.7566137566135 243.5868278581065 C 109.38265354491108 243.57432697627206 125.00888084662326 243.57432697627206 140.63492063492043 243.58682785810623 C 148.43711444783088 230.0480299999769 156.25022809868696 216.5153201913842 164.0740740740736 202.9890232150895 C 156.25022809868645 189.46272623879466 148.4371144478302 175.930016430202 140.63492063491972 162.39121857207311 C 156.2609604232173 162.3787176902389 171.8871877249295 162.3787176902389 187.51322751322664 162.39121857207306 C 195.315421326137 148.8524207139437 203.12853497699322 135.31971090535103 210.95238095237983 121.79341392905637 C 218.77622692776694 135.31971090535114 226.58934057862302 148.8524207139439 234.39153439153355 162.39121857207272 C 250.01757417983106 162.3787176902383 265.6438014815433 162.3787176902383 281.2698412698404 162.39121857207243 C 273.46764745692997 175.9300164302016 265.6545338060739 189.46272623879432 257.8306878306872 202.989023215089 C 265.65453380607437 216.51532019138378 273.46764745693065 230.04802999997642 281.2698412698411 243.58682785810524 C 296.89588105813857 243.57432697627073 312.5221083598508 243.57432697627073 328.1481481481479 243.58682785810487 C 335.95034196105826 230.04802999997568 343.7634556119144 216.51532019138304 351.5873015873011 202.98902321508837 C 359.41114756268803 216.5153201913832 367.2242612135441 230.04802999997594 375.02645502645464 243.58682785810475 C 390.65249481475223 243.57432697627027 406.27872211646434 243.57432697627027 421.9047619047616 243.5868278581044" style="vector-effect: non-scaling-stroke;" /></g><g style="fill-opacity: 1.0;stroke: rgb(0.0 0.0 0.0);fill: rgb(256.0 256.0 256.0);stroke-width: 0.512;"><path d="M -2.842170943040401e-14 365.3802417871567 C 5.208679929432475 365.3760748265452 10.417422363336538 365.3760748265452 15.626102292768923 365.38024178715665 C 18.226833563738985 360.8673091677802 20.831204780691028 356.35640589824936 23.439153439153326 351.84764023948446 C 26.047102097615646 356.3564058982494 28.651473314567678 360.8673091677803 31.252204585537775 365.3802417871566 C 36.46088451497029 365.3760748265451 41.66962694887435 365.3760748265451 46.87830687830674 365.38024178715654 C 49.47903814927682 360.8673091677801 52.08340936622884 356.3564058982492 54.69135802469113 351.8476402394843 C 52.08340936622876 347.33887458071933 49.47903814927672 342.82797131118843 46.87830687830668 338.31503869181216 C 52.08698680773916 338.31087173120073 57.29572924164323 338.31087173120073 62.50440917107561 338.31503869181216 C 65.10514044204562 333.8021060724357 67.70951165899766 329.2912028029048 70.31746031745996 324.78243714414 C 72.9254089759224 329.2912028029049 75.52978019287441 333.8021060724358 78.13051146384451 338.3150386918121 C 83.33919139327702 338.31087173120056 88.54793382718108 338.31087173120056 93.75661375661346 338.315038691812 C 91.15588248564333 342.82797131118843 88.55151126869129 347.33887458071933 85.94356261022901 351.8476402394842 C 88.55151126869146 356.35640589824914 91.1558824856435 360.86730916778004 93.7566137566136 365.3802417871563 C 98.9652936860461 365.3760748265448 104.17403611995015 365.3760748265448 109.38271604938254 365.38024178715625 C 111.98344732035255 360.86730916777987 114.58781853730459 356.35640589824897 117.19576719576689 351.8476402394841 C 119.80371585422928 356.356405898249 122.40808707118133 360.8673091677799 125.00881834215141 365.38024178715625 C 130.2174982715839 365.37607482654465 135.42624070548797 365.37607482654465 140.63492063492038 365.3802417871561 C 143.23565190589053 360.8673091677797 145.84002312284255 356.3564058982488 148.44797178130483 351.84764023948395 C 145.8400231228424 347.33887458071905 143.23565190589036 342.82797131118815 140.63492063492032 338.3150386918119 C 145.8436005643528 338.31087173120045 151.05234299825688 338.31087173120045 156.26102292768925 338.3150386918119 C 158.86175419865933 333.80210607243544 161.46612541561137 329.29120280290454 164.07407407407368 324.7824371441397 C 161.46612541561132 320.2736714853748 158.86175419865927 315.7627682158439 156.26102292768917 311.2498355964676 C 151.05234299825665 311.25400255707905 145.8436005643526 311.25400255707905 140.63492063492023 311.2498355964676 C 143.23565190589036 306.73690297709123 145.8400231228424 302.22599970756033 148.4479717813047 297.71723404879543 C 145.84002312284224 293.2084683900306 143.2356519058902 288.6975651204997 140.63492063492018 284.1846325011234 C 145.8436005643527 284.180465540512 151.05234299825673 284.180465540512 156.2610229276891 284.1846325011234 C 158.86175419865927 279.671699881747 161.4661254156113 275.1607966122161 164.0740740740736 270.65203095345123 C 166.68202273253596 275.16079661221613 169.28639394948797 279.67169988174703 171.88712522045807 284.18463250112336 C 177.09580514989057 284.18046554051193 182.30454758379466 284.18046554051193 187.51322751322704 284.18463250112336 C 190.11395878419717 279.6716998817469 192.71833000114918 275.160796612216 195.32627865961146 270.6520309534511 C 192.71833000114904 266.1432652946863 190.113958784197 261.6323620251554 187.51322751322695 257.1194294057791 C 192.72190744265947 257.1152624451677 197.93064987656356 257.1152624451677 203.1393298059959 257.1194294057791 C 205.74006107696604 252.60649678640266 208.3444322939181 248.09559351687176 210.95238095238037 243.5868278581069 C 213.5603296108428 248.09559351687182 216.16470082779483 252.60649678640272 218.76543209876493 257.11942940577904 C 223.97411202819734 257.11526244516756 229.18285446210143 257.11526244516756 234.3915343915338 257.119429405779 C 231.79080312056368 261.63236202515543 229.1864319036117 266.14326529468633 226.57848324514939 270.6520309534512 C 229.18643190361183 275.16079661221613 231.79080312056388 279.67169988174703 234.39153439153398 284.1846325011233 C 239.60021432096644 284.1804655405118 244.80895675487054 284.1804655405118 250.0176366843029 284.18463250112325 C 252.61836795527304 279.6716998817468 255.2227391722251 275.1607966122159 257.83068783068734 270.652030953451 C 260.43863648914976 275.160796612216 263.0430077061018 279.6716998817469 265.64373897707185 284.1846325011232 C 270.85241890650434 284.1804655405117 276.0611613404084 284.1804655405117 281.26984126984075 284.18463250112313 C 278.6691099988707 288.6975651204996 276.06473878191866 293.2084683900305 273.45679012345636 297.7172340487953 C 276.0647387819188 302.2259997075603 278.6691099988708 306.7369029770912 281.269841269841 311.24983559646745 C 276.0611613404085 311.2540025570789 270.85241890650434 311.2540025570789 265.6437389770721 311.24983559646745 C 263.0430077061019 315.7627682158439 260.43863648914987 320.2736714853748 257.83068783068757 324.78243714413964 C 260.43863648915 329.2912028029046 263.043007706102 333.8021060724355 265.6437389770722 338.31503869181176 C 270.85241890650457 338.3108717312003 276.0611613404087 338.3108717312003 281.269841269841 338.3150386918117 C 278.6691099988709 342.82797131118815 276.0647387819189 347.33887458071905 273.4567901234566 351.8476402394839 C 276.064738781919 356.35640589824885 278.669109998871 360.86730916777975 281.2698412698412 365.380241787156 C 286.4785211992737 365.37607482654454 291.68726363317774 365.37607482654454 296.8959435626101 365.38024178715597 C 299.4966748335801 360.8673091677795 302.1010460505322 356.3564058982487 304.7089947089945 351.8476402394838 C 307.31694336745693 356.35640589824874 309.92131458440883 360.86730916777964 312.522045855379 365.3802417871559 C 317.7307257848115 365.3760748265444 322.93946821871555 365.3760748265444 328.1481481481479 365.38024178715585 C 330.748879419118 360.8673091677794 333.35325063607 356.3564058982485 335.9611992945323 351.8476402394836 C 333.35325063607 347.33887458071865 330.7488794191179 342.8279713111878 328.1481481481479 338.3150386918115 C 333.3568280775803 338.31087173120005 338.56557051148434 338.31087173120005 343.77425044091683 338.3150386918115 C 346.3749817118869 333.80210607243504 348.9793529288389 329.29120280290414 351.5873015873012 324.7824371441393 C 354.19525024576353 329.2912028029042 356.79962146271566 333.8021060724351 359.40035273368574 338.3150386918114 C 364.6090326631182 338.3108717311999 369.8177750970224 338.3108717311999 375.02645502645464 338.3150386918113 C 372.4257237554847 342.82797131118775 369.82135253853266 347.33887458071865 367.21340388007036 351.8476402394835 C 369.8213525385328 356.35640589824845 372.4257237554848 360.86730916777935 375.02645502645487 365.3802417871557 C 380.2351349558875 365.37607482654414 385.4438773897915 365.37607482654414 390.6525573192239 365.38024178715557 C 393.25328859019396 360.8673091677792 395.857659807146 356.3564058982483 398.4656084656083 351.84764023948344 C 401.0735571240706 356.35640589824834 403.6779283410227 360.86730916777924 406.2786596119929 365.38024178715557 C 411.4873395414253 365.376074826544 416.6960819753293 365.376074826544 421.9047619047618 365.38024178715546" style="vector-effect: non-scaling-stroke;" /></g><g style="fill-opacity: 1.0;stroke: rgb(0.0 0.0 0.0);fill: rgb(256.0 256.0 256.0);stroke-width: 0.512;"><path d="M -2.842170943040401e-14 487.17365571620746 C 1.7362266431441393 487.17226672933697 3.4724741211121595 487.17226672933697 5.208700764256289 487.1736557162074 C 6.075611187913001 485.66934484308194 6.943734926897028 484.165710419905 7.8130511463844226 482.66278853365003 C 8.682367365871864 484.165710419905 9.550491104855872 485.66934484308194 10.417401528512604 487.1736557162074 C 12.153628171656772 487.1722667293369 13.889875649624793 487.1722667293369 15.626102292768921 487.17365571620735 C 16.49301271642563 485.6693448430819 17.361136455409643 484.1657104199049 18.230452674897037 482.6627885336499 C 17.36113645540961 481.15986664739495 16.493012716425586 479.656232224218 15.626102292768856 478.15192135109254 C 17.362328935913027 478.1505323642221 19.098576413881048 478.1505323642221 20.834803057025177 478.15192135109254 C 21.701713480681885 476.6476104779671 22.56983721966591 475.1439760547901 23.439153439153305 473.6410541685351 C 24.308469658640767 475.1439760547901 25.176593397624774 476.6476104779671 26.043503821281508 478.1519213510925 C 27.779730464425683 478.150532364222 29.515977942393704 478.150532364222 31.252204585537832 478.1519213510924 C 30.385294161881113 479.6562322242179 29.517170422897106 481.1598666473949 28.647854203409704 482.66278853364986 C 29.517170422897152 484.1657104199048 30.385294161881177 485.6693448430818 31.252204585537907 487.17365571620724 C 32.988431228682074 487.1722667293367 34.724678706650096 487.1722667293367 36.460905349794224 487.1736557162072 C 37.327815773450936 485.6693448430817 38.19593951243496 484.16571041990477 39.065255731922356 482.6627885336498 C 39.9345719514098 484.16571041990477 40.802695690393804 485.6693448430817 41.669606114050545 487.1736557162071 C 43.40583275719471 487.1722667293366 45.14208023516273 487.1722667293366 46.87830687830686 487.1736557162071 C 47.745217301963585 485.6693448430816 48.613341040947596 484.16571041990466 49.48265726043499 482.6627885336497 C 48.61334104094757 481.1598666473947 47.745217301963535 479.6562322242178 46.87830687830681 478.15192135109237 C 48.61453352145097 478.1505323642219 50.35078099941899 478.1505323642219 52.08700764256312 478.1519213510923 C 52.95391806621984 476.64761047796685 53.82204180520387 475.14397605478985 54.69135802469126 473.64105416853494 C 53.82204180520384 472.13813228227997 52.95391806621983 470.63449785910296 52.0870076425631 469.13018698597756 C 50.35078099941892 469.13157597284805 48.614533521450895 469.13157597284805 46.87830687830677 469.13018698597756 C 47.745217301963514 467.6258761128521 48.61334104094752 466.12224168967515 49.48265726043491 464.6193198034202 C 48.613341040947475 463.1163979171652 47.74521730196344 461.61276349398827 46.87830687830672 460.10845262086286 C 48.614533521450895 460.10706363399237 50.35078099941891 460.10706363399237 52.087007642563044 460.1084526208628 C 52.953918066219764 458.60414174773734 53.82204180520379 457.1005073245604 54.69135802469118 455.59758543830543 C 55.56067424417863 457.1005073245604 56.42879798316263 458.60414174773734 57.295708406819365 460.1084526208628 C 59.031935049963536 460.1070636339923 60.76818252793155 460.1070636339923 62.504409171075686 460.10845262086275 C 63.37131959473241 458.6041417477373 64.23944333371642 457.1005073245603 65.10875955320381 455.5975854383054 C 64.23944333371638 454.0946635520504 63.37131959473235 452.59102912887346 62.504409171075615 451.086718255748 C 64.24063581421979 451.0853292688775 65.97688329218781 451.0853292688775 67.71310993533194 451.086718255748 C 68.58002035898866 449.5824073826225 69.44814409797269 448.07877295944553 70.31746031746009 446.57585107319056 C 71.18677653694755 448.07877295944553 72.05490027593156 449.58240738262253 72.92181069958829 451.08671825574794 C 74.65803734273243 451.08532926887744 76.39428482070045 451.08532926887744 78.13051146384457 451.0867182557479 C 77.26360104018785 452.5910291288734 76.39547730120385 454.09466355205035 75.52616108171645 455.5975854383053 C 76.39547730120391 457.1005073245603 77.26360104018794 458.60414174773723 78.13051146384466 460.1084526208627 C 79.86673810698882 460.1070636339922 81.60298558495684 460.1070636339922 83.33921222810098 460.10845262086264 C 84.20612265175772 458.6041417477371 85.07424639074175 457.10050732456017 85.94356261022914 455.5975854383052 C 86.81287882971655 457.1005073245602 87.68100256870058 458.6041417477372 88.54791299235731 460.1084526208626 C 90.28413963550148 460.1070636339921 92.02038711346948 460.1070636339921 93.7566137566136 460.1084526208626 C 92.88970333295688 461.61276349398804 92.02157959397286 463.116397917165 91.15226337448546 464.61931980341996 C 92.02157959397292 466.122241689675 92.88970333295694 467.6258761128519 93.75661375661366 469.13018698597733 C 92.02038711346951 469.1315759728478 90.28413963550149 469.1315759728478 88.54791299235737 469.13018698597733 C 87.68100256870062 470.63449785910285 86.8128788297166 472.1381322822798 85.9435626102292 473.64105416853477 C 86.81287882971665 475.14397605478973 87.68100256870068 476.6476104779667 88.5479129923574 478.15192135109214 C 90.28413963550155 478.15053236422165 92.02038711346957 478.15053236422165 93.7566137566137 478.1519213510921 C 92.889703332957 479.65623222421755 92.02157959397297 481.15986664739455 91.15226337448557 482.6627885336495 C 92.02157959397303 484.1657104199045 92.88970333295705 485.66934484308143 93.75661375661377 487.17365571620684 C 95.49284039975794 487.17226672933634 97.22908787772596 487.17226672933634 98.96531452087008 487.1736557162068 C 99.83222494452681 485.6693448430813 100.70034868351084 484.16571041990437 101.56966490299823 482.6627885336494 C 102.43898112248566 484.16571041990437 103.30710486146968 485.6693448430814 104.17401528512642 487.1736557162068 C 105.91024192827058 487.1722667293363 107.6464894062386 487.1722667293363 109.38271604938274 487.1736557162067 C 110.24962647303944 485.66934484308126 111.11775021202348 484.1657104199043 111.98706643151087 482.66278853364935 C 111.11775021202342 481.1598666473943 110.24962647303938 479.6562322242174 109.38271604938267 478.15192135109197 C 111.11894269252686 478.1505323642215 112.85519017049488 478.1505323642215 114.591416813639 478.1519213510919 C 115.4583272372957 476.64761047796645 116.32645097627973 475.1439760547895 117.19576719576713 473.64105416853454 C 118.06508341525458 475.1439760547895 118.93320715423862 476.64761047796645 119.80011757789534 478.15192135109186 C 121.53634422103951 478.15053236422136 123.27259169900753 478.15053236422136 125.00881834215166 478.15192135109186 C 124.14190791849495 479.6562322242173 123.27378417951093 481.15986664739427 122.40446796002352 482.66278853364923 C 123.27378417951098 484.1657104199042 124.14190791849501 485.6693448430812 125.00881834215173 487.1736557162066 C 126.74504498529589 487.1722667293361 128.4812924632639 487.1722667293361 130.21751910640805 487.17365571620655 C 131.08442953006477 485.6693448430811 131.9525532690488 484.16571041990414 132.82186948853618 482.6627885336492 C 133.69118570802362 484.16571041990414 134.55930944700765 485.6693448430811 135.42621987066437 487.17365571620655 C 137.16244651380853 487.172266729336 138.89869399177655 487.172266729336 140.6349206349207 487.1736557162065 C 141.5018310585774 485.66934484308103 142.36995479756143 484.16571041990403 143.23927101704882 482.66278853364906 C 142.3699547975614 481.1598666473941 141.50183105857738 479.65623222421715 140.63492063492066 478.15192135109174 C 142.3711472780648 478.15053236422125 144.10739475603282 478.15053236422125 145.84362139917693 478.1519213510917 C 146.7105318228337 476.6476104779662 147.57865556181773 475.1439760547893 148.4479717813051 473.6410541685343 C 147.57865556181764 472.13813228227934 146.71053182283362 470.63449785910234 145.8436213991769 469.13018698597693 C 144.10739475603273 469.1315759728474 142.3711472780647 469.1315759728474 140.63492063492058 469.13018698597693 C 141.50183105857732 467.6258761128515 142.36995479756135 466.1222416896745 143.23927101704874 464.61931980341956 C 142.3699547975613 463.11639791716453 141.50183105857724 461.6127634939876 140.63492063492052 460.1084526208622 C 142.37114727806468 460.10706363399163 144.1073947560327 460.10706363399163 145.8436213991768 460.1084526208621 C 146.71053182283356 458.60414174773666 147.57865556181758 457.10050732455966 148.44797178130497 455.5975854383047 C 149.31728800079242 457.10050732455966 150.18541173977644 458.60414174773666 151.05232216343316 460.10845262086207 C 152.7885488065773 460.1070636339916 154.52479628454535 460.1070636339916 156.26102292768945 460.108452620862 C 157.1279333513462 458.60414174773655 157.99605709033023 457.1005073245596 158.8653733098176 455.59758543830463 C 157.9960570903302 454.0946635520496 157.12793335134617 452.59102912887266 156.26102292768945 451.08671825574726 C 157.9972495708336 451.08532926887676 159.7334970488016 451.08532926887676 161.46972369194572 451.0867182557472 C 162.33663411560246 449.58240738262174 163.2047578545865 448.0787729594448 164.07407407407388 446.5758510731898 C 163.2047578545864 445.0729291869348 162.33663411560238 443.56929476375785 161.46972369194566 442.06498389063245 C 159.73349704880155 442.0663728775029 157.9972495708335 442.0663728775029 156.2610229276894 442.06498389063245 C 157.12793335134612 440.560673017507 157.99605709033014 439.05703859433004 158.86537330981753 437.55411670807507 C 157.9960570903301 436.0511948218201 157.1279333513461 434.5475603986431 156.26102292768934 433.0432495255177 C 154.52479628454518 433.0446385123882 152.78854880657718 433.0446385123882 151.05232216343308 433.0432495255177 C 150.1854117397763 434.5475603986432 149.31728800079227 436.05119482182016 148.4479717813049 437.5541167080751 C 147.57865556181747 436.0511948218201 146.71053182283345 434.54756039864316 145.8436213991767 433.04324952551775 C 144.10739475603256 433.04463851238825 142.37114727806454 433.04463851238825 140.6349206349204 433.04324952551775 C 141.5018310585772 431.5389386523923 142.36995479756123 430.03530422921534 143.23927101704862 428.5323823429604 C 142.36995479756115 427.0294604567054 141.50183105857712 425.52582603352846 140.6349206349204 424.021515160403 C 142.37114727806457 424.0201261735325 144.1073947560326 424.0201261735325 145.8436213991767 424.021515160403 C 146.71053182283345 422.51720428727754 147.5786555618175 421.01356986410053 148.4479717813049 419.51064797784557 C 147.57865556181744 418.0077260915906 146.71053182283342 416.50409166841365 145.84362139917667 414.9997807952882 C 144.10739475603253 415.00116978215874 142.37114727806448 415.00116978215874 140.63492063492038 414.99978079528825 C 141.5018310585771 413.4954699221628 142.36995479756112 411.99183549898584 143.23927101704854 410.48891361273087 C 142.3699547975611 408.98599172647585 141.50183105857707 407.4823573032989 140.63492063492035 405.97804643017344 C 142.37114727806448 405.976657443303 144.1073947560325 405.976657443303 145.84362139917664 405.97804643017344 C 146.71053182283336 404.473735557048 147.57865556181738 402.970101133871 148.44797178130477 401.46717924761606 C 149.31728800079225 402.970101133871 150.18541173977627 404.473735557048 151.052322163433 405.97804643017344 C 152.78854880657715 405.9766574433029 154.52479628454518 405.9766574433029 156.26102292768928 405.9780464301734 C 157.127933351346 404.4737355570479 157.99605709033003 402.9701011338709 158.86537330981741 401.46717924761595 C 157.99605709033 399.964257361361 157.12793335134597 398.460622938184 156.26102292768923 396.95631206505857 C 157.9972495708334 396.95492307818813 159.7334970488014 396.95492307818813 161.46972369194555 396.95631206505857 C 162.3366341156023 395.4520011919331 163.20475785458632 393.94836676875616 164.07407407407374 392.4454448825012 C 164.94339029356115 393.94836676875616 165.81151403254518 395.45200119193316 166.6784244562019 396.95631206505857 C 168.41465109934612 396.9549230781881 170.15089857731414 396.9549230781881 171.88712522045827 396.9563120650585 C 171.02021479680147 398.460622938184 170.15209105781744 399.964257361361 169.28277483833008 401.46717924761595 C 170.15209105781753 402.9701011338709 171.02021479680155 404.4737355570479 171.88712522045827 405.9780464301733 C 173.6233518636024 405.9766574433028 175.35959934157046 405.9766574433028 177.09582598471457 405.9780464301733 C 177.9627364083713 404.4737355570478 178.83086014735534 402.97010113387086 179.7001763668427 401.4671792476159 C 180.5694925863302 402.9701011338709 181.43761632531422 404.47373555704786 182.30452674897091 405.97804643017326 C 184.04075339211508 405.97665744330277 185.77700087008313 405.97665744330277 187.51322751322724 405.9780464301732 C 188.38013793688398 404.47373555704775 189.248261675868 402.9701011338708 190.11757789535537 401.46717924761583 C 189.24826167586792 399.96425736136086 188.3801379368839 398.46062293818386 187.51322751322718 396.95631206505846 C 189.24945415637129 396.95492307818796 190.98570163433936 396.95492307818796 192.72192827748347 396.95631206505846 C 193.5888387011402 395.45200119193294 194.45696244012424 393.948366768756 195.32627865961157 392.445444882501 C 194.45696244012416 390.94252299624605 193.58883870114013 389.4388885730691 192.72192827748344 387.93457769994365 C 190.98570163433928 387.93596668681414 189.24945415637126 387.93596668681414 187.51322751322712 387.9345776999437 C 188.38013793688384 386.4302668268182 189.24826167586787 384.92663240364124 190.11757789535523 383.42371051738627 C 189.24826167586778 381.9207886311313 188.38013793688376 380.41715420795435 187.51322751322704 378.9128433348289 C 189.24945415637117 378.9114543479584 190.98570163433925 378.9114543479584 192.72192827748336 378.91284333482884 C 193.58883870114005 377.4085324617034 194.45696244012407 375.9048980385264 195.32627865961143 374.40197615227146 C 196.1955948790989 375.9048980385264 197.06371861808293 377.40853246170343 197.93062904173962 378.91284333482884 C 199.6668556848838 378.9114543479583 201.40310316285183 378.9114543479583 203.13932980599597 378.9128433348288 C 204.00624022965272 377.4085324617033 204.87436396863674 375.9048980385263 205.7436801881241 374.40197615227135 C 204.8743639686367 372.8990542660164 204.00624022965266 371.3954198428394 203.1393298059959 369.89110896971397 C 204.87555644914005 369.88971998284353 206.6118039271081 369.88971998284353 208.34803057025223 369.89110896971397 C 209.21494099390895 368.38679809658845 210.08306473289298 366.8831636734115 210.95238095238034 365.3802417871566 C 211.8216971718678 366.88316367341156 212.68982091085184 368.3867980965885 213.55673133450853 369.8911089697139 C 215.29295797765272 369.8897199828434 217.02920545562077 369.8897199828434 218.7654320987649 369.8911089697139 C 217.89852167510819 371.3954198428394 217.03039793612416 372.8990542660164 216.16108171663674 374.4019761522713 C 217.0303979361242 375.90489803852626 217.8985216751082 377.4085324617032 218.76543209876493 378.91284333482866 C 220.5016587419091 378.91145434795817 222.23790621987715 378.91145434795817 223.97413286302128 378.9128433348286 C 224.841043286678 377.40853246170315 225.70916702566203 375.9048980385262 226.57848324514944 374.40197615227123 C 227.44779946463677 375.9048980385262 228.31592320362083 377.4085324617032 229.18283362727752 378.9128433348286 C 230.91906027042174 378.9114543479581 232.65530774838976 378.9114543479581 234.39153439153387 378.9128433348286 C 233.52462396787715 380.41715420795407 232.65650022889312 381.920788631131 231.78718400940576 383.423710517386 C 232.6565002288932 384.926632403641 233.52462396787723 386.43026682681796 234.39153439153395 387.93457769994336 C 232.6553077483898 387.93596668681386 230.91906027042174 387.93596668681386 229.1828336272776 387.9345776999434 C 228.315923203621 389.43888857306894 227.44779946463697 390.9425229962459 226.57848324514953 392.44544488250085 C 227.44779946463697 393.9483667687558 228.315923203621 395.4520011919328 229.18283362727772 396.9563120650582 C 230.91906027042185 396.95492307818773 232.6553077483899 396.95492307818773 234.39153439153404 396.95631206505817 C 233.5246239678773 398.46062293818363 232.65650022889326 399.9642573613606 231.7871840094059 401.46717924761555 C 232.65650022889335 402.97010113387057 233.52462396787737 404.4737355570475 234.3915343915341 405.9780464301729 C 236.12776103467826 405.97665744330243 237.8640085126463 405.97665744330243 239.60023515579044 405.9780464301729 C 240.46714557944722 404.47373555704746 241.33526931843124 402.9701011338705 242.2045855379186 401.46717924761555 C 243.073901757406 402.97010113387057 243.94202549639002 404.4737355570475 244.8089359200467 405.9780464301729 C 246.54516256319096 405.97665744330243 248.28141004115895 405.97665744330243 250.01763668430308 405.9780464301729 C 250.8845471079598 404.47373555704746 251.75267084694383 402.97010113387046 252.6219870664312 401.4671792476155 C 251.75267084694377 399.9642573613605 250.88454710795975 398.4606229381836 250.017636684303 396.95631206505817 C 251.75386332744714 396.9549230781877 253.49011080541518 396.9549230781877 255.22633744855932 396.9563120650581 C 256.093247872216 395.4520011919327 256.9613716112001 393.94836676875576 257.83068783068745 392.44544488250074 C 258.7000040501748 393.94836676875576 259.5681277891589 395.4520011919327 260.4350382128156 396.9563120650581 C 262.17126485595975 396.9549230781877 263.9075123339278 396.9549230781877 265.64373897707196 396.9563120650581 C 264.77682855341516 398.4606229381836 263.9087048144312 399.9642573613605 263.03938859494383 401.4671792476155 C 263.9087048144312 402.97010113387046 264.77682855341527 404.47373555704746 265.64373897707196 405.97804643017287 C 267.3799656202161 405.97665744330243 269.1162130981842 405.97665744330243 270.85243974132834 405.97804643017287 C 271.71935016498514 404.4737355570474 272.5874739039691 402.97010113387046 273.45679012345647 401.4671792476155 C 274.32610634294383 402.97010113387046 275.1942300819279 404.4737355570474 276.0611405055846 405.97804643017287 C 277.79736714872877 405.9766574433024 279.5336146266968 405.9766574433024 281.269841269841 405.9780464301728 C 280.4029308461843 407.48235730329833 279.5348071072002 408.9859917264753 278.66549088771285 410.48891361273024 C 279.5348071072003 411.9918354989852 280.4029308461843 413.49546992216216 281.269841269841 414.9997807952876 C 279.53361462669693 415.0011697821581 277.79736714872877 415.0011697821581 276.0611405055847 414.9997807952876 C 275.194230081928 416.50409166841314 274.32610634294406 418.0077260915901 273.4567901234566 419.51064797784505 C 274.32610634294406 421.0135698641 275.194230081928 422.51720428727697 276.06114050558483 424.02151516040243 C 277.797367148729 424.02012617353193 279.53361462669704 424.02012617353193 281.2698412698411 424.0215151604024 C 280.4029308461844 425.5258260335279 279.53480710720044 427.02946045670484 278.6654908877131 428.5323823429598 C 279.53480710720044 430.0353042292148 280.4029308461845 431.5389386523917 281.2698412698412 433.0432495255171 C 279.53361462669704 433.0446385123876 277.797367148729 433.0446385123876 276.06114050558483 433.0432495255172 C 275.19423008192814 434.54756039864264 274.3261063429442 436.05119482181965 273.4567901234568 437.5541167080746 C 272.58747390396934 436.0511948218196 271.71935016498537 434.54756039864264 270.8524397413287 433.04324952551724 C 269.1162130981845 433.0446385123877 267.37996562021635 433.0446385123877 265.6437389770723 433.04324952551724 C 264.7768285534156 434.54756039864276 263.90870481443164 436.0511948218197 263.0393885949443 437.5541167080747 C 263.90870481443164 439.05703859432964 264.7768285534156 440.5606730175066 265.6437389770724 442.064983890632 C 263.90751233392825 442.0663728775025 262.1712648559602 442.0663728775025 260.43503821281615 442.06498389063205 C 259.56812778915935 443.5692947637575 258.7000040501754 445.0729291869345 257.830687830688 446.5758510731895 C 258.7000040501754 448.07877295944445 259.56812778915946 449.5824073826214 260.43503821281615 451.08671825574686 C 262.1712648559603 451.0853292688763 263.90751233392837 451.0853292688763 265.64373897707253 451.0867182557468 C 264.7768285534157 452.59102912887226 263.90870481443176 454.0946635520492 263.0393885949444 455.5975854383042 C 263.90870481443176 457.1005073245592 264.77682855341584 458.60414174773615 265.64373897707253 460.10845262086156 C 267.3799656202167 460.10706363399106 269.11621309818474 460.10706363399106 270.8524397413289 460.1084526208615 C 271.7193501649855 458.60414174773604 272.58747390396957 457.1005073245591 273.4567901234569 455.5975854383041 C 274.3261063429444 457.10050732455915 275.19423008192837 458.6041417477361 276.06114050558506 460.1084526208615 C 277.79736714872934 460.107063633991 279.5336146266974 460.107063633991 281.26984126984144 460.1084526208615 C 280.40293084618474 461.61276349398696 279.5348071072008 463.11639791716397 278.6654908877134 464.6193198034189 C 279.5348071072008 466.1222416896739 280.40293084618486 467.62587611285085 281.26984126984155 469.13018698597625 C 279.5336146266974 469.1315759728468 277.79736714872934 469.1315759728468 276.0611405055852 469.1301869859763 C 275.1942300819286 470.6344978591018 274.3261063429446 472.1381322822788 273.45679012345715 473.64105416853374 C 274.3261063429446 475.1439760547887 275.1942300819286 476.6476104779657 276.0611405055853 478.1519213510911 C 277.79736714872945 478.1505323642206 279.5336146266975 478.1505323642206 281.26984126984166 478.1519213510911 C 280.40293084618486 479.6562322242166 279.5348071072009 481.1598666473935 278.66549088771353 482.6627885336485 C 279.534807107201 484.16571041990346 280.402930846185 485.6693448430804 281.26984126984166 487.1736557162059 C 283.0060679129858 487.1722667293354 284.7423153909539 487.1722667293354 286.47854203409804 487.1736557162058 C 287.34545245775473 485.66934484308035 288.2135761967388 484.1657104199034 289.0828924162262 482.66278853364844 C 289.95220863571353 484.1657104199034 290.8203323746976 485.66934484308035 291.6872427983543 487.17365571620576 C 293.42346944149847 487.17226672933526 295.1597169194665 487.17226672933526 296.8959435626107 487.17365571620576 C 297.7628539862674 485.66934484308024 298.63097772525134 484.1657104199033 299.5002939447387 482.6627885336483 C 298.63097772525134 481.15986664739336 297.76285398626726 479.65623222421635 296.89594356261057 478.15192135109095 C 298.6321702057546 478.15053236422045 300.36841768372267 478.15053236422045 302.10464432686683 478.15192135109095 C 302.9715547505235 476.64761047796543 303.8396784895076 475.1439760547885 304.70899470899496 473.6410541685335 C 305.57831092848244 475.1439760547885 306.4464346674664 476.64761047796543 307.3133450911231 478.1519213510909 C 309.04957173426726 478.1505323642204 310.7858192122353 478.1505323642204 312.5220458553795 478.15192135109083 C 311.65513543172267 479.6562322242163 310.7870116927387 481.15986664739324 309.91769547325134 482.6627885336482 C 310.7870116927388 484.16571041990323 311.6551354317228 485.6693448430802 312.5220458553795 487.1736557162056 C 314.25827249852364 487.1722667293351 315.9945199764917 487.1722667293351 317.73074661963585 487.17365571620553 C 318.59765704329254 485.66934484308007 319.4657807822766 484.1657104199031 320.335097001764 482.66278853364815 C 321.20441322125134 484.1657104199031 322.0725369602354 485.6693448430801 322.9394473838921 487.17365571620553 C 324.6756740270363 487.17226672933504 326.41192150500433 487.17226672933504 328.1481481481485 487.1736557162055 C 329.0150585718052 485.66934484308 329.88318231078915 484.165710419903 330.7524985302765 482.66278853364804 C 329.88318231078915 481.15986664739313 329.0150585718052 479.6562322242162 328.1481481481484 478.1519213510907 C 329.88437479129254 478.1505323642202 331.6206222692606 478.1505323642202 333.35684891240464 478.1519213510907 C 334.22375933606145 476.6476104779652 335.09188307504553 475.14397605478825 335.9611992945328 473.6410541685333 C 335.0918830750454 472.1381322822783 334.22375933606133 470.6344978591014 333.35684891240464 469.13018698597597 C 331.6206222692605 469.1315759728464 329.88437479129243 469.1315759728464 328.14814814814827 469.13018698597597 C 329.01505857180507 467.6258761128505 329.88318231078915 466.12224168967356 330.7524985302765 464.6193198034186 C 329.88318231078904 463.1163979171636 329.01505857180496 461.6127634939867 328.14814814814827 460.1084526208612 C 329.88437479129243 460.1070636339908 331.6206222692605 460.1070636339908 333.35684891240464 460.1084526208612 C 334.22375933606133 458.60414174773575 335.0918830750453 457.10050732455875 335.96119929453266 455.5975854383038 C 336.83051551402014 457.10050732455875 337.6986392530041 458.60414174773575 338.5655496766609 460.10845262086116 C 340.3017763198051 460.1070636339907 342.038023797773 460.1070636339907 343.77425044091717 460.10845262086116 C 344.64116086457386 458.60414174773564 345.50928460355794 457.1005073245587 346.3786008230453 455.5975854383037 C 345.50928460355783 454.0946635520488 344.64116086457386 452.5910291288718 343.77425044091706 451.0867182557464 C 345.5104770840612 451.0853292688759 347.24672456202927 451.0853292688759 348.98295120517344 451.08671825574635 C 349.8498616288301 449.5824073826209 350.7179853678142 448.07877295944394 351.58730158730145 446.57585107318897 C 352.4566178067889 448.07877295944394 353.324741545773 449.5824073826209 354.1916519694297 451.08671825574635 C 355.92787861257386 451.08532926887585 357.6641260905418 451.08532926887585 359.40035273368596 451.0867182557463 C 358.5334423100293 452.59102912887175 357.6653185710452 454.09466355204876 356.79600235155783 455.5975854383037 C 357.6653185710453 457.1005073245587 358.5334423100294 458.60414174773564 359.4003527336861 460.10845262086104 C 361.13657937683024 460.10706363399055 362.8728268547983 460.10706363399055 364.60905349794234 460.10845262086104 C 365.47596392159915 458.6041417477355 366.3440876605831 457.1005073245586 367.2134038800705 455.5975854383036 C 368.08272009955795 457.1005073245586 368.9508438385419 458.6041417477356 369.8177542621987 460.108452620861 C 371.5539809053429 460.1070636339905 373.2902283833108 460.1070636339905 375.026455026455 460.10845262086093 C 374.1595446027983 461.6127634939864 373.2914208638142 463.1163979171634 372.42210464432685 464.61931980341836 C 373.2914208638143 466.12224168967333 374.1595446027983 467.6258761128503 375.0264550264551 469.13018698597574 C 373.29022838331093 469.1315759728462 371.5539809053429 469.1315759728462 369.8177542621987 469.13018698597574 C 368.950843838542 470.6344978591012 368.08272009955795 472.1381322822782 367.2134038800706 473.6410541685332 C 368.08272009955806 475.14397605478814 368.95084383854214 476.6476104779651 369.81775426219883 478.1519213510905 C 371.553980905343 478.15053236422 373.29022838331093 478.15053236422 375.0264550264551 478.1519213510905 C 374.1595446027984 479.65623222421596 373.2914208638143 481.1598666473929 372.42210464432696 482.66278853364787 C 373.29142086381444 484.16571041990284 374.1595446027985 485.66934484307984 375.0264550264552 487.17365571620525 C 376.7626816695994 487.17226672933475 378.4989291475674 487.17226672933475 380.2351557907115 487.1736557162052 C 381.1020662143683 485.6693448430797 381.97018995335225 484.1657104199028 382.8395061728396 482.6627885336478 C 383.7088223923271 484.1657104199028 384.57694613131105 485.6693448430797 385.44385655496785 487.1736557162052 C 387.180083198112 487.1722667293347 388.91633067607995 487.1722667293347 390.6525573192241 487.17365571620513 C 391.5194677428808 485.66934484307967 392.3875914818649 484.16571041990267 393.25690770135225 482.6627885336477 C 392.3875914818648 481.15986664739273 391.5194677428808 479.6562322242158 390.652557319224 478.1519213510903 C 392.38878396236817 478.1505323642198 394.1250314403362 478.1505323642198 395.8612580834804 478.1519213510903 C 396.72816850713707 476.6476104779648 397.59629224612104 475.14397605478786 398.4656084656084 473.6410541685329 C 399.33492468509587 475.14397605478786 400.20304842407995 476.64761047796486 401.06995884773664 478.15192135109027 C 402.8061854908808 478.15053236421977 404.54243296884874 478.15053236421977 406.2786596119929 478.1519213510902 C 405.4117491883362 479.65623222421567 404.54362544935213 481.1598666473927 403.6743092298648 482.66278853364764 C 404.54362544935225 484.1657104199026 405.41174918833633 485.66934484307956 406.278659611993 487.17365571620496 C 408.0148862551372 487.17226672933447 409.75113373310523 487.17226672933447 411.4873603762493 487.17365571620496 C 412.3542707999061 485.6693448430795 413.22239453889006 484.1657104199025 414.0917107583774 482.66278853364753 C 414.9610269778649 484.16571041990255 415.82915071684886 485.6693448430795 416.69606114050566 487.1736557162049 C 418.4322877836497 487.1722667293344 420.16853526161776 487.1722667293344 421.9047619047619 487.1736557162049" style="vector-effect: non-scaling-stroke;" /></g></svg>