<?xml version="1.0" encoding="utf-8" ?>
<svg baseProfile="full" height="512" version="1.1" width="443" xmlns="http://www.w3.org/2000/svg" xmlns:ev="http://www.w3.org/2001/xml-events" xmlns:xlink="http://www.w3.org/1999/xlink">
    
            <g style="fill:rgb(256.0 256.0 256.0);stroke:rgb(0.0 0.0 0.0);stroke-width:0.1536;fill-opacity:0">
                <path d="M 10.55 133.97 C 19.92 133.97 29.30 133.96 38.67 133.95 C 48.05 133.95 57.43 133.95 66.80 133.95 C 76.18 133.94 85.55 133.94 94.93 133.95 C 104.30 133.95 113.68 133.95 123.06 133.95 C 132.43 133.96 141.81 133.97 151.18 133.97 C 155.86 125.85 160.55 117.73 165.23 109.61 C 169.91 101.48 174.60 93.36 179.29 85.24 C 183.97 77.12 188.66 69.00 193.35 60.88 C 198.04 52.76 202.73 44.65 207.42 36.53 C 212.11 28.41 216.81 20.30 221.50 12.18 C 226.19 20.30 230.89 28.41 235.58 36.53 C 240.27 44.65 244.96 52.76 249.65 60.88 C 254.34 69.00 259.03 77.12 263.71 85.24 C 268.40 93.36 273.09 101.48 277.77 109.61 C 282.45 117.73 287.14 125.85 291.82 133.97 C 301.19 133.97 310.57 133.96 319.94 133.95 C 329.32 133.95 338.70 133.95 348.07 133.95 C 357.45 133.94 366.82 133.94 376.20 133.95 C 385.57 133.95 394.95 133.95 404.33 133.95 C 413.70 133.96 423.08 133.97 432.45 133.97" />
            </g>
            <g style="fill:rgb(256.0 256.0 256.0);stroke:rgb(0.0 0.0 0.0);stroke-width:0.1536;fill-opacity:0">
                <path d="M 10.55 255.77 C 13.67 255.76 16.80 255.76 19.92 255.76 C 23.05 255.76 26.17 255.76 29.30 255.76 C 32.42 255.76 35.55 255.76 38.67 255.76 C 41.80 255.76 44.93 255.76 48.05 255.76 C 51.18 255.76 54.30 255.76 57.43 255.77 C 58.99 253.06 60.55 250.35 62.11 247.64 C 63.67 244.94 65.23 242.23 66.79 239.52 C 68.36 236.82 69.92 234.11 71.48 231.40 C 73.04 228.70 74.61 225.99 76.17 223.28 C 77.74 220.58 79.30 217.87 80.87 215.17 C 82.43 217.87 83.99 220.58 85.56 223.28 C 87.12 225.99 88.69 228.70 90.25 231.40 C 91.81 234.11 93.37 236.82 94.94 239.52 C 96.50 242.23 98.06 244.94 99.62 247.64 C 101.18 250.35 102.74 253.06 104.30 255.77 C 107.43 255.76 110.55 255.76 113.68 255.76 C 116.81 255.76 119.93 255.76 123.06 255.76 C 126.18 255.76 129.31 255.76 132.43 255.76 C 135.56 255.76 138.68 255.76 141.81 255.76 C 144.93 255.76 148.06 255.76 151.18 255.77 C 152.74 253.06 154.30 250.35 155.87 247.64 C 157.43 244.94 158.99 242.23 160.55 239.52 C 162.11 236.82 163.68 234.11 165.24 231.40 C 166.80 228.70 168.36 225.99 169.93 223.28 C 171.49 220.58 173.06 217.87 174.62 215.17 C 173.06 212.46 171.49 209.76 169.93 207.05 C 168.36 204.35 166.80 201.64 165.24 198.93 C 163.68 196.23 162.11 193.52 160.55 190.81 C 158.99 188.11 157.43 185.40 155.87 182.69 C 154.30 179.99 152.74 177.28 151.18 174.57 C 154.31 174.57 157.43 174.57 160.56 174.56 C 163.68 174.56 166.81 174.56 169.93 174.56 C 173.06 174.56 176.18 174.56 179.31 174.56 C 182.43 174.56 185.56 174.56 188.69 174.56 C 191.81 174.57 194.94 174.57 198.06 174.57 C 199.62 171.86 201.18 169.16 202.74 166.45 C 204.30 163.74 205.87 161.03 207.43 158.33 C 208.99 155.62 210.55 152.91 212.12 150.21 C 213.68 147.50 215.24 144.80 216.81 142.09 C 218.37 139.38 219.94 136.68 221.50 133.97 C 223.06 136.68 224.63 139.38 226.19 142.09 C 227.76 144.80 229.32 147.50 230.88 150.21 C 232.45 152.91 234.01 155.62 235.57 158.33 C 237.13 161.03 238.70 163.74 240.26 166.45 C 241.82 169.16 243.38 171.86 244.94 174.57 C 248.06 174.57 251.19 174.57 254.31 174.56 C 257.44 174.56 260.57 174.56 263.69 174.56 C 266.82 174.56 269.94 174.56 273.07 174.56 C 276.19 174.56 279.32 174.56 282.44 174.56 C 285.57 174.57 288.69 174.57 291.82 174.57 C 290.26 177.28 288.70 179.99 287.13 182.69 C 285.57 185.40 284.01 188.11 282.45 190.81 C 280.89 193.52 279.32 196.23 277.76 198.93 C 276.20 201.64 274.64 204.35 273.07 207.05 C 271.51 209.76 269.94 212.46 268.38 215.17 C 269.94 217.87 271.51 220.58 273.07 223.28 C 274.64 225.99 276.20 228.70 277.76 231.40 C 279.32 234.11 280.89 236.82 282.45 239.52 C 284.01 242.23 285.57 244.94 287.13 247.64 C 288.70 250.35 290.26 253.06 291.82 255.77 C 294.94 255.76 298.07 255.76 301.19 255.76 C 304.32 255.76 307.44 255.76 310.57 255.76 C 313.69 255.76 316.82 255.76 319.94 255.76 C 323.07 255.76 326.19 255.76 329.32 255.76 C 332.45 255.76 335.57 255.76 338.70 255.77 C 340.26 253.06 341.82 250.35 343.38 247.64 C 344.94 244.94 346.50 242.23 348.06 239.52 C 349.63 236.82 351.19 234.11 352.75 231.40 C 354.31 228.70 355.88 225.99 357.44 223.28 C 359.01 220.58 360.57 217.87 362.13 215.17 C 363.70 217.87 365.26 220.58 366.83 223.28 C 368.39 225.99 369.96 228.70 371.52 231.40 C 373.08 234.11 374.64 236.82 376.21 239.52 C 377.77 242.23 379.33 244.94 380.89 247.64 C 382.45 250.35 384.01 253.06 385.57 255.77 C 388.70 255.76 391.82 255.76 394.95 255.76 C 398.07 255.76 401.20 255.76 404.33 255.76 C 407.45 255.76 410.58 255.76 413.70 255.76 C 416.83 255.76 419.95 255.76 423.08 255.76 C 426.20 255.76 429.33 255.76 432.45 255.77" />
            </g>
            <g style="fill:rgb(256.0 256.0 256.0);stroke:rgb(0.0 0.0 0.0);stroke-width:0.1536;fill-opacity:0">
                <path d="M 10.55 377.56 C 11.59 377.56 12.63 377.56 13.67 377.56 C 14.71 377.56 15.76 377.56 16.80 377.56 C 17.84 377.56 18.88 377.56 19.92 377.56 C 20.97 377.56 22.01 377.56 23.05 377.56 C 24.09 377.56 25.13 377.56 26.17 377.56 C 26.69 376.66 27.21 375.75 27.73 374.85 C 28.26 373.95 28.78 373.05 29.30 372.15 C 29.82 371.24 30.34 370.34 30.86 369.44 C 31.38 368.54 31.90 367.63 32.42 366.73 C 32.94 365.83 33.47 364.93 33.99 364.03 C 34.51 364.93 35.03 365.83 35.55 366.73 C 36.07 367.63 36.59 368.54 37.11 369.44 C 37.64 370.34 38.16 371.24 38.68 372.15 C 39.20 373.05 39.72 373.95 40.24 374.85 C 40.76 375.75 41.28 376.66 41.80 377.56 C 42.84 377.56 43.88 377.56 44.93 377.56 C 45.97 377.56 47.01 377.56 48.05 377.56 C 49.09 377.56 50.13 377.56 51.18 377.56 C 52.22 377.56 53.26 377.56 54.30 377.56 C 55.34 377.56 56.38 377.56 57.43 377.56 C 57.95 376.66 58.47 375.75 58.99 374.85 C 59.51 373.95 60.03 373.05 60.55 372.15 C 61.07 371.24 61.59 370.34 62.11 369.44 C 62.63 368.54 63.15 367.63 63.67 366.73 C 64.20 365.83 64.72 364.93 65.24 364.03 C 64.72 363.13 64.20 362.22 63.67 361.32 C 63.15 360.42 62.63 359.52 62.11 358.62 C 61.59 357.71 61.07 356.81 60.55 355.91 C 60.03 355.01 59.51 354.10 58.99 353.20 C 58.47 352.30 57.95 351.40 57.43 350.49 C 58.47 350.49 59.51 350.49 60.55 350.49 C 61.59 350.49 62.63 350.49 63.68 350.49 C 64.72 350.49 65.76 350.49 66.80 350.49 C 67.84 350.49 68.89 350.49 69.93 350.49 C 70.97 350.49 72.01 350.49 73.05 350.49 C 73.57 349.59 74.09 348.69 74.61 347.79 C 75.13 346.88 75.65 345.98 76.17 345.08 C 76.70 344.18 77.22 343.28 77.74 342.37 C 78.26 341.47 78.78 340.57 79.30 339.67 C 79.82 338.77 80.34 337.86 80.87 336.96 C 81.39 337.86 81.91 338.77 82.43 339.67 C 82.95 340.57 83.47 341.47 83.99 342.37 C 84.51 343.28 85.03 344.18 85.56 345.08 C 86.08 345.98 86.60 346.88 87.12 347.79 C 87.64 348.69 88.16 349.59 88.68 350.49 C 89.72 350.49 90.76 350.49 91.80 350.49 C 92.85 350.49 93.89 350.49 94.93 350.49 C 95.97 350.49 97.01 350.49 98.05 350.49 C 99.10 350.49 100.14 350.49 101.18 350.49 C 102.22 350.49 103.26 350.49 104.30 350.49 C 103.78 351.40 103.26 352.30 102.74 353.20 C 102.22 354.10 101.70 355.01 101.18 355.91 C 100.66 356.81 100.14 357.71 99.62 358.62 C 99.10 359.52 98.58 360.42 98.06 361.32 C 97.53 362.22 97.01 363.13 96.49 364.03 C 97.01 364.93 97.53 365.83 98.06 366.73 C 98.58 367.63 99.10 368.54 99.62 369.44 C 100.14 370.34 100.66 371.24 101.18 372.15 C 101.70 373.05 102.22 373.95 102.74 374.85 C 103.26 375.75 103.78 376.66 104.30 377.56 C 105.35 377.56 106.39 377.56 107.43 377.56 C 108.47 377.56 109.51 377.56 110.55 377.56 C 111.60 377.56 112.64 377.56 113.68 377.56 C 114.72 377.56 115.76 377.56 116.81 377.56 C 117.85 377.56 118.89 377.56 119.93 377.56 C 120.45 376.66 120.97 375.75 121.49 374.85 C 122.01 373.95 122.53 373.05 123.05 372.15 C 123.57 371.24 124.09 370.34 124.62 369.44 C 125.14 368.54 125.66 367.63 126.18 366.73 C 126.70 365.83 127.22 364.93 127.74 364.03 C 128.26 364.93 128.79 365.83 129.31 366.73 C 129.83 367.63 130.35 368.54 130.87 369.44 C 131.39 370.34 131.91 371.24 132.43 372.15 C 132.95 373.05 133.48 373.95 134.00 374.85 C 134.52 375.75 135.04 376.66 135.56 377.56 C 136.60 377.56 137.64 377.56 138.68 377.56 C 139.72 377.56 140.77 377.56 141.81 377.56 C 142.85 377.56 143.89 377.56 144.93 377.56 C 145.97 377.56 147.02 377.56 148.06 377.56 C 149.10 377.56 150.14 377.56 151.18 377.56 C 151.70 376.66 152.22 375.75 152.74 374.85 C 153.26 373.95 153.78 373.05 154.31 372.15 C 154.83 371.24 155.35 370.34 155.87 369.44 C 156.39 368.54 156.91 367.63 157.43 366.73 C 157.95 365.83 158.47 364.93 159.00 364.03 C 158.47 363.13 157.95 362.22 157.43 361.32 C 156.91 360.42 156.39 359.52 155.87 358.62 C 155.35 357.71 154.83 356.81 154.31 355.91 C 153.78 355.01 153.26 354.10 152.74 353.20 C 152.22 352.30 151.70 351.40 151.18 350.49 C 152.22 350.49 153.27 350.49 154.31 350.49 C 155.35 350.49 156.39 350.49 157.43 350.49 C 158.47 350.49 159.52 350.49 160.56 350.49 C 161.60 350.49 162.64 350.49 163.68 350.49 C 164.73 350.49 165.77 350.49 166.81 350.49 C 167.33 349.59 167.85 348.69 168.37 347.79 C 168.89 346.88 169.41 345.98 169.93 345.08 C 170.45 344.18 170.97 343.28 171.49 342.37 C 172.01 341.47 172.54 340.57 173.06 339.67 C 173.58 338.77 174.10 337.86 174.62 336.96 C 174.10 336.06 173.58 335.16 173.06 334.26 C 172.54 333.35 172.01 332.45 171.49 331.55 C 170.97 330.65 170.45 329.75 169.93 328.84 C 169.41 327.94 168.89 327.04 168.37 326.14 C 167.85 325.23 167.33 324.33 166.81 323.43 C 165.77 323.43 164.73 323.43 163.68 323.43 C 162.64 323.43 161.60 323.43 160.56 323.43 C 159.52 323.43 158.47 323.43 157.43 323.43 C 156.39 323.43 155.35 323.43 154.31 323.43 C 153.27 323.43 152.22 323.43 151.18 323.43 C 151.70 322.53 152.22 321.62 152.74 320.72 C 153.26 319.82 153.78 318.92 154.31 318.01 C 154.83 317.11 155.35 316.21 155.87 315.31 C 156.39 314.41 156.91 313.50 157.43 312.60 C 157.95 311.70 158.47 310.80 159.00 309.90 C 158.47 308.99 157.95 308.09 157.43 307.19 C 156.91 306.29 156.39 305.39 155.87 304.49 C 155.35 303.58 154.83 302.68 154.31 301.78 C 153.78 300.88 153.26 299.97 152.74 299.07 C 152.22 298.17 151.70 297.27 151.18 296.36 C 152.22 296.36 153.27 296.36 154.31 296.36 C 155.35 296.36 156.39 296.36 157.43 296.36 C 158.47 296.36 159.52 296.36 160.56 296.36 C 161.60 296.36 162.64 296.36 163.68 296.36 C 164.73 296.36 165.77 296.36 166.81 296.36 C 167.33 295.46 167.85 294.56 168.37 293.66 C 168.89 292.75 169.41 291.85 169.93 290.95 C 170.45 290.05 170.97 289.15 171.49 288.24 C 172.01 287.34 172.54 286.44 173.06 285.54 C 173.58 284.63 174.10 283.73 174.62 282.83 C 175.14 283.73 175.66 284.63 176.19 285.54 C 176.71 286.44 177.23 287.34 177.75 288.24 C 178.27 289.15 178.79 290.05 179.31 290.95 C 179.83 291.85 180.35 292.75 180.87 293.66 C 181.39 294.56 181.91 295.46 182.43 296.36 C 183.48 296.36 184.52 296.36 185.56 296.36 C 186.60 296.36 187.64 296.36 188.69 296.36 C 189.73 296.36 190.77 296.36 191.81 296.36 C 192.85 296.36 193.89 296.36 194.94 296.36 C 195.98 296.36 197.02 296.36 198.06 296.36 C 198.58 295.46 199.10 294.56 199.62 293.66 C 200.14 292.75 200.66 291.85 201.18 290.95 C 201.70 290.05 202.23 289.15 202.75 288.24 C 203.27 287.34 203.79 286.44 204.31 285.54 C 204.83 284.63 205.35 283.73 205.87 282.83 C 205.35 281.93 204.83 281.03 204.31 280.13 C 203.79 279.22 203.27 278.32 202.75 277.42 C 202.23 276.52 201.70 275.62 201.18 274.71 C 200.66 273.81 200.14 272.91 199.62 272.01 C 199.10 271.10 198.58 270.20 198.06 269.30 C 199.10 269.30 200.14 269.30 201.19 269.30 C 202.23 269.30 203.27 269.30 204.31 269.30 C 205.35 269.30 206.39 269.30 207.44 269.30 C 208.48 269.30 209.52 269.30 210.56 269.30 C 211.60 269.30 212.65 269.30 213.69 269.30 C 214.21 268.40 214.73 267.49 215.25 266.59 C 215.77 265.69 216.29 264.79 216.81 263.88 C 217.33 262.98 217.85 262.08 218.37 261.18 C 218.89 260.28 219.41 259.37 219.94 258.47 C 220.46 257.57 220.98 256.67 221.50 255.77 C 222.02 256.67 222.54 257.57 223.06 258.47 C 223.59 259.37 224.11 260.28 224.63 261.18 C 225.15 262.08 225.67 262.98 226.19 263.88 C 226.71 264.79 227.23 265.69 227.75 266.59 C 228.27 267.49 228.79 268.40 229.31 269.30 C 230.35 269.30 231.40 269.30 232.44 269.30 C 233.48 269.30 234.52 269.30 235.56 269.30 C 236.61 269.30 237.65 269.30 238.69 269.30 C 239.73 269.30 240.77 269.30 241.81 269.30 C 242.86 269.30 243.90 269.30 244.94 269.30 C 244.42 270.20 243.90 271.10 243.38 272.01 C 242.86 272.91 242.34 273.81 241.82 274.71 C 241.30 275.62 240.77 276.52 240.25 277.42 C 239.73 278.32 239.21 279.22 238.69 280.13 C 238.17 281.03 237.65 281.93 237.13 282.83 C 237.65 283.73 238.17 284.63 238.69 285.54 C 239.21 286.44 239.73 287.34 240.25 288.24 C 240.77 289.15 241.30 290.05 241.82 290.95 C 242.34 291.85 242.86 292.75 243.38 293.66 C 243.90 294.56 244.42 295.46 244.94 296.36 C 245.98 296.36 247.02 296.36 248.06 296.36 C 249.11 296.36 250.15 296.36 251.19 296.36 C 252.23 296.36 253.27 296.36 254.31 296.36 C 255.36 296.36 256.40 296.36 257.44 296.36 C 258.48 296.36 259.52 296.36 260.57 296.36 C 261.09 295.46 261.61 294.56 262.13 293.66 C 262.65 292.75 263.17 291.85 263.69 290.95 C 264.21 290.05 264.73 289.15 265.25 288.24 C 265.77 287.34 266.29 286.44 266.81 285.54 C 267.34 284.63 267.86 283.73 268.38 282.83 C 268.90 283.73 269.42 284.63 269.94 285.54 C 270.46 286.44 270.99 287.34 271.51 288.24 C 272.03 289.15 272.55 290.05 273.07 290.95 C 273.59 291.85 274.11 292.75 274.63 293.66 C 275.15 294.56 275.67 295.46 276.19 296.36 C 277.23 296.36 278.27 296.36 279.32 296.36 C 280.36 296.36 281.40 296.36 282.44 296.36 C 283.48 296.36 284.53 296.36 285.57 296.36 C 286.61 296.36 287.65 296.36 288.69 296.36 C 289.73 296.36 290.78 296.36 291.82 296.36 C 291.30 297.27 290.78 298.17 290.26 299.07 C 289.74 299.97 289.22 300.88 288.69 301.78 C 288.17 302.68 287.65 303.58 287.13 304.49 C 286.61 305.39 286.09 306.29 285.57 307.19 C 285.05 308.09 284.53 308.99 284.00 309.90 C 284.53 310.80 285.05 311.70 285.57 312.60 C 286.09 313.50 286.61 314.41 287.13 315.31 C 287.65 316.21 288.17 317.11 288.69 318.01 C 289.22 318.92 289.74 319.82 290.26 320.72 C 290.78 321.62 291.30 322.53 291.82 323.43 C 290.78 323.43 289.73 323.43 288.69 323.43 C 287.65 323.43 286.61 323.43 285.57 323.43 C 284.53 323.43 283.48 323.43 282.44 323.43 C 281.40 323.43 280.36 323.43 279.32 323.43 C 278.27 323.43 277.23 323.43 276.19 323.43 C 275.67 324.33 275.15 325.23 274.63 326.14 C 274.11 327.04 273.59 327.94 273.07 328.84 C 272.55 329.75 272.03 330.65 271.51 331.55 C 270.99 332.45 270.46 333.35 269.94 334.26 C 269.42 335.16 268.90 336.06 268.38 336.96 C 268.90 337.86 269.42 338.77 269.94 339.67 C 270.46 340.57 270.99 341.47 271.51 342.37 C 272.03 343.28 272.55 344.18 273.07 345.08 C 273.59 345.98 274.11 346.88 274.63 347.79 C 275.15 348.69 275.67 349.59 276.19 350.49 C 277.23 350.49 278.27 350.49 279.32 350.49 C 280.36 350.49 281.40 350.49 282.44 350.49 C 283.48 350.49 284.53 350.49 285.57 350.49 C 286.61 350.49 287.65 350.49 288.69 350.49 C 289.73 350.49 290.78 350.49 291.82 350.49 C 291.30 351.40 290.78 352.30 290.26 353.20 C 289.74 354.10 289.22 355.01 288.69 355.91 C 288.17 356.81 287.65 357.71 287.13 358.62 C 286.61 359.52 286.09 360.42 285.57 361.32 C 285.05 362.22 284.53 363.13 284.00 364.03 C 284.53 364.93 285.05 365.83 285.57 366.73 C 286.09 367.63 286.61 368.54 287.13 369.44 C 287.65 370.34 288.17 371.24 288.69 372.15 C 289.22 373.05 289.74 373.95 290.26 374.85 C 290.78 375.75 291.30 376.66 291.82 377.56 C 292.86 377.56 293.90 377.56 294.94 377.56 C 295.98 377.56 297.03 377.56 298.07 377.56 C 299.11 377.56 300.15 377.56 301.19 377.56 C 302.23 377.56 303.28 377.56 304.32 377.56 C 305.36 377.56 306.40 377.56 307.44 377.56 C 307.96 376.66 308.48 375.75 309.00 374.85 C 309.52 373.95 310.05 373.05 310.57 372.15 C 311.09 371.24 311.61 370.34 312.13 369.44 C 312.65 368.54 313.17 367.63 313.69 366.73 C 314.21 365.83 314.74 364.93 315.26 364.03 C 315.78 364.93 316.30 365.83 316.82 366.73 C 317.34 367.63 317.86 368.54 318.38 369.44 C 318.91 370.34 319.43 371.24 319.95 372.15 C 320.47 373.05 320.99 373.95 321.51 374.85 C 322.03 375.75 322.55 376.66 323.07 377.56 C 324.11 377.56 325.15 377.56 326.19 377.56 C 327.24 377.56 328.28 377.56 329.32 377.56 C 330.36 377.56 331.40 377.56 332.45 377.56 C 333.49 377.56 334.53 377.56 335.57 377.56 C 336.61 377.56 337.65 377.56 338.70 377.56 C 339.22 376.66 339.74 375.75 340.26 374.85 C 340.78 373.95 341.30 373.05 341.82 372.15 C 342.34 371.24 342.86 370.34 343.38 369.44 C 343.90 368.54 344.42 367.63 344.94 366.73 C 345.47 365.83 345.99 364.93 346.51 364.03 C 345.99 363.13 345.47 362.22 344.94 361.32 C 344.42 360.42 343.90 359.52 343.38 358.62 C 342.86 357.71 342.34 356.81 341.82 355.91 C 341.30 355.01 340.78 354.10 340.26 353.20 C 339.74 352.30 339.22 351.40 338.70 350.49 C 339.74 350.49 340.78 350.49 341.82 350.49 C 342.86 350.49 343.90 350.49 344.95 350.49 C 345.99 350.49 347.03 350.49 348.07 350.49 C 349.11 350.49 350.15 350.49 351.20 350.49 C 352.24 350.49 353.28 350.49 354.32 350.49 C 354.84 349.59 355.36 348.69 355.88 347.79 C 356.40 346.88 356.92 345.98 357.44 345.08 C 357.97 344.18 358.49 343.28 359.01 342.37 C 359.53 341.47 360.05 340.57 360.57 339.67 C 361.09 338.77 361.61 337.86 362.13 336.96 C 362.66 337.86 363.18 338.77 363.70 339.67 C 364.22 340.57 364.74 341.47 365.26 342.37 C 365.78 343.28 366.30 344.18 366.83 345.08 C 367.35 345.98 367.87 346.88 368.39 347.79 C 368.91 348.69 369.43 349.59 369.95 350.49 C 370.99 350.49 372.03 350.49 373.07 350.49 C 374.11 350.49 375.16 350.49 376.20 350.49 C 377.24 350.49 378.28 350.49 379.32 350.49 C 380.37 350.49 381.41 350.49 382.45 350.49 C 383.49 350.49 384.53 350.49 385.57 350.49 C 385.05 351.40 384.53 352.30 384.01 353.20 C 383.49 354.10 382.97 355.01 382.45 355.91 C 381.93 356.81 381.41 357.71 380.89 358.62 C 380.37 359.52 379.85 360.42 379.33 361.32 C 378.80 362.22 378.28 363.13 377.76 364.03 C 378.28 364.93 378.80 365.83 379.33 366.73 C 379.85 367.63 380.37 368.54 380.89 369.44 C 381.41 370.34 381.93 371.24 382.45 372.15 C 382.97 373.05 383.49 373.95 384.01 374.85 C 384.53 375.75 385.05 376.66 385.57 377.56 C 386.62 377.56 387.66 377.56 388.70 377.56 C 389.74 377.56 390.78 377.56 391.82 377.56 C 392.87 377.56 393.91 377.56 394.95 377.56 C 395.99 377.56 397.03 377.56 398.07 377.56 C 399.12 377.56 400.16 377.56 401.20 377.56 C 401.72 376.66 402.24 375.75 402.76 374.85 C 403.28 373.95 403.80 373.05 404.32 372.15 C 404.84 371.24 405.36 370.34 405.89 369.44 C 406.41 368.54 406.93 367.63 407.45 366.73 C 407.97 365.83 408.49 364.93 409.01 364.03 C 409.53 364.93 410.06 365.83 410.58 366.73 C 411.10 367.63 411.62 368.54 412.14 369.44 C 412.66 370.34 413.18 371.24 413.70 372.15 C 414.22 373.05 414.74 373.95 415.27 374.85 C 415.79 375.75 416.31 376.66 416.83 377.56 C 417.87 377.56 418.91 377.56 419.95 377.56 C 420.99 377.56 422.03 377.56 423.08 377.56 C 424.12 377.56 425.16 377.56 426.20 377.56 C 427.24 377.56 428.29 377.56 429.33 377.56 C 430.37 377.56 431.41 377.56 432.45 377.56" />
            </g>
            <g style="fill:rgb(256.0 256.0 256.0);stroke:rgb(0.0 0.0 0.0);stroke-width:0.1536;fill-opacity:0">
                <path d="M 10.55 499.35 C 10.89 499.35 11.24 499.35 11.59 499.35 C 11.94 499.35 12.28 499.35 12.63 499.35 C 12.98 499.35 13.33 499.35 13.67 499.35 C 14.02 499.35 14.37 499.35 14.71 499.35 C 15.06 499.35 15.41 499.35 15.76 499.35 C 15.93 499.05 16.10 498.75 16.28 498.45 C 16.45 498.15 16.62 497.85 16.80 497.55 C 16.97 497.25 17.14 496.95 17.32 496.65 C 17.49 496.35 17.67 496.04 17.84 495.74 C 18.01 495.44 18.19 495.14 18.36 494.84 C 18.53 495.14 18.71 495.44 18.88 495.74 C 19.06 496.04 19.23 496.35 19.40 496.65 C 19.58 496.95 19.75 497.25 19.92 497.55 C 20.10 497.85 20.27 498.15 20.44 498.45 C 20.62 498.75 20.79 499.05 20.97 499.35 C 21.31 499.35 21.66 499.35 22.01 499.35 C 22.35 499.35 22.70 499.35 23.05 499.35 C 23.40 499.35 23.74 499.35 24.09 499.35 C 24.44 499.35 24.78 499.35 25.13 499.35 C 25.48 499.35 25.83 499.35 26.17 499.35 C 26.35 499.05 26.52 498.75 26.69 498.45 C 26.87 498.15 27.04 497.85 27.21 497.55 C 27.39 497.25 27.56 496.95 27.74 496.65 C 27.91 496.35 28.08 496.04 28.26 495.74 C 28.43 495.44 28.60 495.14 28.78 494.84 C 28.60 494.54 28.43 494.24 28.26 493.94 C 28.08 493.64 27.91 493.34 27.74 493.04 C 27.56 492.74 27.39 492.44 27.21 492.14 C 27.04 491.84 26.87 491.53 26.69 491.23 C 26.52 490.93 26.35 490.63 26.17 490.33 C 26.52 490.33 26.87 490.33 27.22 490.33 C 27.56 490.33 27.91 490.33 28.26 490.33 C 28.60 490.33 28.95 490.33 29.30 490.33 C 29.65 490.33 29.99 490.33 30.34 490.33 C 30.69 490.33 31.04 490.33 31.38 490.33 C 31.56 490.03 31.73 489.73 31.90 489.43 C 32.08 489.13 32.25 488.83 32.42 488.53 C 32.60 488.23 32.77 487.92 32.94 487.62 C 33.12 487.32 33.29 487.02 33.47 486.72 C 33.64 486.42 33.81 486.12 33.99 485.82 C 34.16 486.12 34.33 486.42 34.51 486.72 C 34.68 487.02 34.86 487.32 35.03 487.62 C 35.20 487.92 35.38 488.23 35.55 488.53 C 35.72 488.83 35.90 489.13 36.07 489.43 C 36.24 489.73 36.42 490.03 36.59 490.33 C 36.94 490.33 37.29 490.33 37.63 490.33 C 37.98 490.33 38.33 490.33 38.67 490.33 C 39.02 490.33 39.37 490.33 39.72 490.33 C 40.06 490.33 40.41 490.33 40.76 490.33 C 41.11 490.33 41.45 490.33 41.80 490.33 C 41.63 490.63 41.45 490.93 41.28 491.23 C 41.11 491.53 40.93 491.84 40.76 492.14 C 40.59 492.44 40.41 492.74 40.24 493.04 C 40.06 493.34 39.89 493.64 39.72 493.94 C 39.54 494.24 39.37 494.54 39.20 494.84 C 39.37 495.14 39.54 495.44 39.72 495.74 C 39.89 496.04 40.06 496.35 40.24 496.65 C 40.41 496.95 40.59 497.25 40.76 497.55 C 40.93 497.85 41.11 498.15 41.28 498.45 C 41.45 498.75 41.63 499.05 41.80 499.35 C 42.15 499.35 42.49 499.35 42.84 499.35 C 43.19 499.35 43.54 499.35 43.88 499.35 C 44.23 499.35 44.58 499.35 44.93 499.35 C 45.27 499.35 45.62 499.35 45.97 499.35 C 46.31 499.35 46.66 499.35 47.01 499.35 C 47.18 499.05 47.36 498.75 47.53 498.45 C 47.70 498.15 47.88 497.85 48.05 497.55 C 48.22 497.25 48.40 496.95 48.57 496.65 C 48.74 496.35 48.92 496.04 49.09 495.74 C 49.27 495.44 49.44 495.14 49.61 494.84 C 49.79 495.14 49.96 495.44 50.13 495.74 C 50.31 496.04 50.48 496.35 50.66 496.65 C 50.83 496.95 51.00 497.25 51.18 497.55 C 51.35 497.85 51.52 498.15 51.70 498.45 C 51.87 498.75 52.04 499.05 52.22 499.35 C 52.56 499.35 52.91 499.35 53.26 499.35 C 53.61 499.35 53.95 499.35 54.30 499.35 C 54.65 499.35 55.00 499.35 55.34 499.35 C 55.69 499.35 56.04 499.35 56.38 499.35 C 56.73 499.35 57.08 499.35 57.43 499.35 C 57.60 499.05 57.77 498.75 57.95 498.45 C 58.12 498.15 58.29 497.85 58.47 497.55 C 58.64 497.25 58.81 496.95 58.99 496.65 C 59.16 496.35 59.34 496.04 59.51 495.74 C 59.68 495.44 59.86 495.14 60.03 494.84 C 59.86 494.54 59.68 494.24 59.51 493.94 C 59.34 493.64 59.16 493.34 58.99 493.04 C 58.81 492.74 58.64 492.44 58.47 492.14 C 58.29 491.84 58.12 491.53 57.95 491.23 C 57.77 490.93 57.60 490.63 57.43 490.33 C 57.77 490.33 58.12 490.33 58.47 490.33 C 58.81 490.33 59.16 490.33 59.51 490.33 C 59.86 490.33 60.20 490.33 60.55 490.33 C 60.90 490.33 61.25 490.33 61.59 490.33 C 61.94 490.33 62.29 490.33 62.63 490.33 C 62.81 490.03 62.98 489.73 63.15 489.43 C 63.33 489.13 63.50 488.83 63.68 488.53 C 63.85 488.23 64.02 487.92 64.20 487.62 C 64.37 487.32 64.54 487.02 64.72 486.72 C 64.89 486.42 65.07 486.12 65.24 485.82 C 65.07 485.52 64.89 485.22 64.72 484.92 C 64.54 484.62 64.37 484.32 64.20 484.02 C 64.02 483.72 63.85 483.42 63.68 483.11 C 63.50 482.81 63.33 482.51 63.15 482.21 C 62.98 481.91 62.81 481.61 62.63 481.31 C 62.29 481.31 61.94 481.31 61.59 481.31 C 61.25 481.31 60.90 481.31 60.55 481.31 C 60.20 481.31 59.86 481.31 59.51 481.31 C 59.16 481.31 58.81 481.31 58.47 481.31 C 58.12 481.31 57.77 481.31 57.43 481.31 C 57.60 481.01 57.77 480.71 57.95 480.41 C 58.12 480.11 58.29 479.81 58.47 479.50 C 58.64 479.20 58.81 478.90 58.99 478.60 C 59.16 478.30 59.34 478.00 59.51 477.70 C 59.68 477.40 59.86 477.10 60.03 476.80 C 59.86 476.50 59.68 476.20 59.51 475.90 C 59.34 475.60 59.16 475.30 58.99 474.99 C 58.81 474.69 58.64 474.39 58.47 474.09 C 58.29 473.79 58.12 473.49 57.95 473.19 C 57.77 472.89 57.60 472.59 57.43 472.29 C 57.77 472.29 58.12 472.29 58.47 472.29 C 58.81 472.29 59.16 472.29 59.51 472.29 C 59.86 472.29 60.20 472.29 60.55 472.29 C 60.90 472.29 61.25 472.29 61.59 472.29 C 61.94 472.29 62.29 472.29 62.63 472.29 C 62.81 471.99 62.98 471.69 63.15 471.39 C 63.33 471.08 63.50 470.78 63.68 470.48 C 63.85 470.18 64.02 469.88 64.20 469.58 C 64.37 469.28 64.54 468.98 64.72 468.68 C 64.89 468.38 65.07 468.08 65.24 467.78 C 65.41 468.08 65.59 468.38 65.76 468.68 C 65.93 468.98 66.11 469.28 66.28 469.58 C 66.46 469.88 66.63 470.18 66.80 470.48 C 66.98 470.78 67.15 471.08 67.32 471.39 C 67.50 471.69 67.67 471.99 67.84 472.29 C 68.19 472.29 68.54 472.29 68.89 472.29 C 69.23 472.29 69.58 472.29 69.93 472.29 C 70.27 472.29 70.62 472.29 70.97 472.29 C 71.32 472.29 71.66 472.29 72.01 472.29 C 72.36 472.29 72.70 472.29 73.05 472.29 C 73.23 471.99 73.40 471.69 73.57 471.39 C 73.75 471.08 73.92 470.78 74.09 470.48 C 74.27 470.18 74.44 469.88 74.61 469.58 C 74.79 469.28 74.96 468.98 75.13 468.68 C 75.31 468.38 75.48 468.08 75.66 467.78 C 75.48 467.48 75.31 467.18 75.13 466.88 C 74.96 466.57 74.79 466.27 74.61 465.97 C 74.44 465.67 74.27 465.37 74.09 465.07 C 73.92 464.77 73.75 464.47 73.57 464.17 C 73.40 463.87 73.23 463.57 73.05 463.27 C 73.40 463.27 73.75 463.27 74.09 463.27 C 74.44 463.27 74.79 463.27 75.14 463.27 C 75.48 463.27 75.83 463.27 76.18 463.27 C 76.52 463.27 76.87 463.27 77.22 463.27 C 77.57 463.27 77.91 463.27 78.26 463.27 C 78.43 462.97 78.61 462.66 78.78 462.36 C 78.95 462.06 79.13 461.76 79.30 461.46 C 79.48 461.16 79.65 460.86 79.82 460.56 C 80.00 460.26 80.17 459.96 80.34 459.66 C 80.52 459.36 80.69 459.06 80.87 458.76 C 81.04 459.06 81.21 459.36 81.39 459.66 C 81.56 459.96 81.73 460.26 81.91 460.56 C 82.08 460.86 82.25 461.16 82.43 461.46 C 82.60 461.76 82.78 462.06 82.95 462.36 C 83.12 462.66 83.30 462.97 83.47 463.27 C 83.82 463.27 84.16 463.27 84.51 463.27 C 84.86 463.27 85.21 463.27 85.55 463.27 C 85.90 463.27 86.25 463.27 86.59 463.27 C 86.94 463.27 87.29 463.27 87.64 463.27 C 87.98 463.27 88.33 463.27 88.68 463.27 C 88.50 463.57 88.33 463.87 88.16 464.17 C 87.98 464.47 87.81 464.77 87.64 465.07 C 87.46 465.37 87.29 465.67 87.12 465.97 C 86.94 466.27 86.77 466.57 86.60 466.88 C 86.42 467.18 86.25 467.48 86.07 467.78 C 86.25 468.08 86.42 468.38 86.60 468.68 C 86.77 468.98 86.94 469.28 87.12 469.58 C 87.29 469.88 87.46 470.18 87.64 470.48 C 87.81 470.78 87.98 471.08 88.16 471.39 C 88.33 471.69 88.50 471.99 88.68 472.29 C 89.03 472.29 89.37 472.29 89.72 472.29 C 90.07 472.29 90.41 472.29 90.76 472.29 C 91.11 472.29 91.46 472.29 91.80 472.29 C 92.15 472.29 92.50 472.29 92.85 472.29 C 93.19 472.29 93.54 472.29 93.89 472.29 C 94.06 471.99 94.23 471.69 94.41 471.39 C 94.58 471.08 94.75 470.78 94.93 470.48 C 95.10 470.18 95.27 469.88 95.45 469.58 C 95.62 469.28 95.80 468.98 95.97 468.68 C 96.14 468.38 96.32 468.08 96.49 467.78 C 96.67 468.08 96.84 468.38 97.01 468.68 C 97.19 468.98 97.36 469.28 97.53 469.58 C 97.71 469.88 97.88 470.18 98.05 470.48 C 98.23 470.78 98.40 471.08 98.58 471.39 C 98.75 471.69 98.92 471.99 99.10 472.29 C 99.44 472.29 99.79 472.29 100.14 472.29 C 100.48 472.29 100.83 472.29 101.18 472.29 C 101.53 472.29 101.87 472.29 102.22 472.29 C 102.57 472.29 102.92 472.29 103.26 472.29 C 103.61 472.29 103.96 472.29 104.30 472.29 C 104.13 472.59 103.96 472.89 103.78 473.19 C 103.61 473.49 103.44 473.79 103.26 474.09 C 103.09 474.39 102.92 474.69 102.74 474.99 C 102.57 475.30 102.40 475.60 102.22 475.90 C 102.05 476.20 101.87 476.50 101.70 476.80 C 101.87 477.10 102.05 477.40 102.22 477.70 C 102.40 478.00 102.57 478.30 102.74 478.60 C 102.92 478.90 103.09 479.20 103.26 479.50 C 103.44 479.81 103.61 480.11 103.78 480.41 C 103.96 480.71 104.13 481.01 104.30 481.31 C 103.96 481.31 103.61 481.31 103.26 481.31 C 102.92 481.31 102.57 481.31 102.22 481.31 C 101.87 481.31 101.53 481.31 101.18 481.31 C 100.83 481.31 100.48 481.31 100.14 481.31 C 99.79 481.31 99.44 481.31 99.10 481.31 C 98.92 481.61 98.75 481.91 98.58 482.21 C 98.40 482.51 98.23 482.81 98.05 483.11 C 97.88 483.42 97.71 483.72 97.53 484.02 C 97.36 484.32 97.19 484.62 97.01 484.92 C 96.84 485.22 96.67 485.52 96.49 485.82 C 96.67 486.12 96.84 486.42 97.01 486.72 C 97.19 487.02 97.36 487.32 97.53 487.62 C 97.71 487.92 97.88 488.23 98.05 488.53 C 98.23 488.83 98.40 489.13 98.58 489.43 C 98.75 489.73 98.92 490.03 99.10 490.33 C 99.44 490.33 99.79 490.33 100.14 490.33 C 100.48 490.33 100.83 490.33 101.18 490.33 C 101.53 490.33 101.87 490.33 102.22 490.33 C 102.57 490.33 102.92 490.33 103.26 490.33 C 103.61 490.33 103.96 490.33 104.30 490.33 C 104.13 490.63 103.96 490.93 103.78 491.23 C 103.61 491.53 103.44 491.84 103.26 492.14 C 103.09 492.44 102.92 492.74 102.74 493.04 C 102.57 493.34 102.40 493.64 102.22 493.94 C 102.05 494.24 101.87 494.54 101.70 494.84 C 101.87 495.14 102.05 495.44 102.22 495.74 C 102.40 496.04 102.57 496.35 102.74 496.65 C 102.92 496.95 103.09 497.25 103.26 497.55 C 103.44 497.85 103.61 498.15 103.78 498.45 C 103.96 498.75 104.13 499.05 104.30 499.35 C 104.65 499.35 105.00 499.35 105.35 499.35 C 105.69 499.35 106.04 499.35 106.39 499.35 C 106.73 499.35 107.08 499.35 107.43 499.35 C 107.78 499.35 108.12 499.35 108.47 499.35 C 108.82 499.35 109.17 499.35 109.51 499.35 C 109.69 499.05 109.86 498.75 110.03 498.45 C 110.21 498.15 110.38 497.85 110.55 497.55 C 110.73 497.25 110.90 496.95 111.07 496.65 C 111.25 496.35 111.42 496.04 111.60 495.74 C 111.77 495.44 111.94 495.14 112.12 494.84 C 112.29 495.14 112.46 495.44 112.64 495.74 C 112.81 496.04 112.99 496.35 113.16 496.65 C 113.33 496.95 113.51 497.25 113.68 497.55 C 113.85 497.85 114.03 498.15 114.20 498.45 C 114.37 498.75 114.55 499.05 114.72 499.35 C 115.07 499.35 115.42 499.35 115.76 499.35 C 116.11 499.35 116.46 499.35 116.81 499.35 C 117.15 499.35 117.50 499.35 117.85 499.35 C 118.19 499.35 118.54 499.35 118.89 499.35 C 119.24 499.35 119.58 499.35 119.93 499.35 C 120.10 499.05 120.28 498.75 120.45 498.45 C 120.62 498.15 120.80 497.85 120.97 497.55 C 121.14 497.25 121.32 496.95 121.49 496.65 C 121.67 496.35 121.84 496.04 122.01 495.74 C 122.19 495.44 122.36 495.14 122.53 494.84 C 122.36 494.54 122.19 494.24 122.01 493.94 C 121.84 493.64 121.67 493.34 121.49 493.04 C 121.32 492.74 121.14 492.44 120.97 492.14 C 120.80 491.84 120.62 491.53 120.45 491.23 C 120.28 490.93 120.10 490.63 119.93 490.33 C 120.28 490.33 120.62 490.33 120.97 490.33 C 121.32 490.33 121.67 490.33 122.01 490.33 C 122.36 490.33 122.71 490.33 123.06 490.33 C 123.40 490.33 123.75 490.33 124.10 490.33 C 124.44 490.33 124.79 490.33 125.14 490.33 C 125.31 490.03 125.49 489.73 125.66 489.43 C 125.83 489.13 126.01 488.83 126.18 488.53 C 126.35 488.23 126.53 487.92 126.70 487.62 C 126.87 487.32 127.05 487.02 127.22 486.72 C 127.40 486.42 127.57 486.12 127.74 485.82 C 127.92 486.12 128.09 486.42 128.26 486.72 C 128.44 487.02 128.61 487.32 128.79 487.62 C 128.96 487.92 129.13 488.23 129.31 488.53 C 129.48 488.83 129.65 489.13 129.83 489.43 C 130.00 489.73 130.17 490.03 130.35 490.33 C 130.69 490.33 131.04 490.33 131.39 490.33 C 131.74 490.33 132.08 490.33 132.43 490.33 C 132.78 490.33 133.13 490.33 133.47 490.33 C 133.82 490.33 134.17 490.33 134.51 490.33 C 134.86 490.33 135.21 490.33 135.56 490.33 C 135.38 490.63 135.21 490.93 135.04 491.23 C 134.86 491.53 134.69 491.84 134.52 492.14 C 134.34 492.44 134.17 492.74 133.99 493.04 C 133.82 493.34 133.65 493.64 133.47 493.94 C 133.30 494.24 133.13 494.54 132.95 494.84 C 133.13 495.14 133.30 495.44 133.47 495.74 C 133.65 496.04 133.82 496.35 133.99 496.65 C 134.17 496.95 134.34 497.25 134.52 497.55 C 134.69 497.85 134.86 498.15 135.04 498.45 C 135.21 498.75 135.38 499.05 135.56 499.35 C 135.90 499.35 136.25 499.35 136.60 499.35 C 136.95 499.35 137.29 499.35 137.64 499.35 C 137.99 499.35 138.33 499.35 138.68 499.35 C 139.03 499.35 139.38 499.35 139.72 499.35 C 140.07 499.35 140.42 499.35 140.77 499.35 C 140.94 499.05 141.11 498.75 141.29 498.45 C 141.46 498.15 141.63 497.85 141.81 497.55 C 141.98 497.25 142.15 496.95 142.33 496.65 C 142.50 496.35 142.67 496.04 142.85 495.74 C 143.02 495.44 143.20 495.14 143.37 494.84 C 143.54 495.14 143.72 495.44 143.89 495.74 C 144.06 496.04 144.24 496.35 144.41 496.65 C 144.59 496.95 144.76 497.25 144.93 497.55 C 145.11 497.85 145.28 498.15 145.45 498.45 C 145.63 498.75 145.80 499.05 145.97 499.35 C 146.32 499.35 146.67 499.35 147.02 499.35 C 147.36 499.35 147.71 499.35 148.06 499.35 C 148.40 499.35 148.75 499.35 149.10 499.35 C 149.45 499.35 149.79 499.35 150.14 499.35 C 150.49 499.35 150.84 499.35 151.18 499.35 C 151.36 499.05 151.53 498.75 151.70 498.45 C 151.88 498.15 152.05 497.85 152.22 497.55 C 152.40 497.25 152.57 496.95 152.74 496.65 C 152.92 496.35 153.09 496.04 153.27 495.74 C 153.44 495.44 153.61 495.14 153.79 494.84 C 153.61 494.54 153.44 494.24 153.27 493.94 C 153.09 493.64 152.92 493.34 152.74 493.04 C 152.57 492.74 152.40 492.44 152.22 492.14 C 152.05 491.84 151.88 491.53 151.70 491.23 C 151.53 490.93 151.36 490.63 151.18 490.33 C 151.53 490.33 151.88 490.33 152.22 490.33 C 152.57 490.33 152.92 490.33 153.27 490.33 C 153.61 490.33 153.96 490.33 154.31 490.33 C 154.66 490.33 155.00 490.33 155.35 490.33 C 155.70 490.33 156.04 490.33 156.39 490.33 C 156.56 490.03 156.74 489.73 156.91 489.43 C 157.09 489.13 157.26 488.83 157.43 488.53 C 157.61 488.23 157.78 487.92 157.95 487.62 C 158.13 487.32 158.30 487.02 158.47 486.72 C 158.65 486.42 158.82 486.12 159.00 485.82 C 158.82 485.52 158.65 485.22 158.47 484.92 C 158.30 484.62 158.13 484.32 157.95 484.02 C 157.78 483.72 157.61 483.42 157.43 483.11 C 157.26 482.81 157.09 482.51 156.91 482.21 C 156.74 481.91 156.56 481.61 156.39 481.31 C 156.04 481.31 155.70 481.31 155.35 481.31 C 155.00 481.31 154.66 481.31 154.31 481.31 C 153.96 481.31 153.61 481.31 153.27 481.31 C 152.92 481.31 152.57 481.31 152.22 481.31 C 151.88 481.31 151.53 481.31 151.18 481.31 C 151.36 481.01 151.53 480.71 151.70 480.41 C 151.88 480.11 152.05 479.81 152.22 479.50 C 152.40 479.20 152.57 478.90 152.74 478.60 C 152.92 478.30 153.09 478.00 153.27 477.70 C 153.44 477.40 153.61 477.10 153.79 476.80 C 153.61 476.50 153.44 476.20 153.27 475.90 C 153.09 475.60 152.92 475.30 152.74 474.99 C 152.57 474.69 152.40 474.39 152.22 474.09 C 152.05 473.79 151.88 473.49 151.70 473.19 C 151.53 472.89 151.36 472.59 151.18 472.29 C 151.53 472.29 151.88 472.29 152.22 472.29 C 152.57 472.29 152.92 472.29 153.27 472.29 C 153.61 472.29 153.96 472.29 154.31 472.29 C 154.66 472.29 155.00 472.29 155.35 472.29 C 155.70 472.29 156.04 472.29 156.39 472.29 C 156.56 471.99 156.74 471.69 156.91 471.39 C 157.09 471.08 157.26 470.78 157.43 470.48 C 157.61 470.18 157.78 469.88 157.95 469.58 C 158.13 469.28 158.30 468.98 158.47 468.68 C 158.65 468.38 158.82 468.08 159.00 467.78 C 159.17 468.08 159.34 468.38 159.52 468.68 C 159.69 468.98 159.86 469.28 160.04 469.58 C 160.21 469.88 160.39 470.18 160.56 470.48 C 160.73 470.78 160.91 471.08 161.08 471.39 C 161.25 471.69 161.43 471.99 161.60 472.29 C 161.95 472.29 162.29 472.29 162.64 472.29 C 162.99 472.29 163.34 472.29 163.68 472.29 C 164.03 472.29 164.38 472.29 164.73 472.29 C 165.07 472.29 165.42 472.29 165.77 472.29 C 166.11 472.29 166.46 472.29 166.81 472.29 C 166.98 471.99 167.16 471.69 167.33 471.39 C 167.50 471.08 167.68 470.78 167.85 470.48 C 168.02 470.18 168.20 469.88 168.37 469.58 C 168.54 469.28 168.72 468.98 168.89 468.68 C 169.07 468.38 169.24 468.08 169.41 467.78 C 169.24 467.48 169.07 467.18 168.89 466.88 C 168.72 466.57 168.54 466.27 168.37 465.97 C 168.20 465.67 168.02 465.37 167.85 465.07 C 167.68 464.77 167.50 464.47 167.33 464.17 C 167.16 463.87 166.98 463.57 166.81 463.27 C 167.16 463.27 167.50 463.27 167.85 463.27 C 168.20 463.27 168.54 463.27 168.89 463.27 C 169.24 463.27 169.59 463.27 169.93 463.27 C 170.28 463.27 170.63 463.27 170.98 463.27 C 171.32 463.27 171.67 463.27 172.02 463.27 C 172.19 462.97 172.36 462.66 172.54 462.36 C 172.71 462.06 172.88 461.76 173.06 461.46 C 173.23 461.16 173.41 460.86 173.58 460.56 C 173.75 460.26 173.93 459.96 174.10 459.66 C 174.27 459.36 174.45 459.06 174.62 458.76 C 174.45 458.45 174.27 458.15 174.10 457.85 C 173.93 457.55 173.75 457.25 173.58 456.95 C 173.41 456.65 173.23 456.35 173.06 456.05 C 172.88 455.75 172.71 455.45 172.54 455.15 C 172.36 454.85 172.19 454.55 172.02 454.24 C 171.67 454.24 171.32 454.24 170.98 454.24 C 170.63 454.25 170.28 454.25 169.93 454.25 C 169.59 454.25 169.24 454.25 168.89 454.25 C 168.54 454.25 168.20 454.25 167.85 454.24 C 167.50 454.24 167.16 454.24 166.81 454.24 C 166.98 453.94 167.16 453.64 167.33 453.34 C 167.50 453.04 167.68 452.74 167.85 452.44 C 168.02 452.14 168.20 451.84 168.37 451.54 C 168.54 451.24 168.72 450.94 168.89 450.64 C 169.07 450.33 169.24 450.03 169.41 449.73 C 169.24 449.43 169.07 449.13 168.89 448.83 C 168.72 448.53 168.54 448.23 168.37 447.93 C 168.20 447.63 168.02 447.33 167.85 447.03 C 167.68 446.73 167.50 446.43 167.33 446.13 C 167.16 445.82 166.98 445.52 166.81 445.22 C 166.46 445.22 166.11 445.22 165.77 445.22 C 165.42 445.22 165.07 445.22 164.73 445.22 C 164.38 445.22 164.03 445.22 163.68 445.22 C 163.34 445.22 162.99 445.22 162.64 445.22 C 162.29 445.22 161.95 445.22 161.60 445.22 C 161.43 445.52 161.25 445.82 161.08 446.13 C 160.91 446.43 160.73 446.73 160.56 447.03 C 160.39 447.33 160.21 447.63 160.04 447.93 C 159.86 448.23 159.69 448.53 159.52 448.83 C 159.34 449.13 159.17 449.43 159.00 449.73 C 158.82 449.43 158.65 449.13 158.47 448.83 C 158.30 448.53 158.13 448.23 157.95 447.93 C 157.78 447.63 157.61 447.33 157.43 447.03 C 157.26 446.73 157.09 446.43 156.91 446.13 C 156.74 445.82 156.56 445.52 156.39 445.22 C 156.04 445.22 155.70 445.22 155.35 445.22 C 155.00 445.22 154.66 445.22 154.31 445.22 C 153.96 445.22 153.61 445.22 153.27 445.22 C 152.92 445.22 152.57 445.22 152.22 445.22 C 151.88 445.22 151.53 445.22 151.18 445.22 C 151.36 444.92 151.53 444.62 151.70 444.32 C 151.88 444.02 152.05 443.72 152.22 443.42 C 152.40 443.12 152.57 442.82 152.74 442.52 C 152.92 442.21 153.09 441.91 153.27 441.61 C 153.44 441.31 153.61 441.01 153.79 440.71 C 153.61 440.41 153.44 440.11 153.27 439.81 C 153.09 439.51 152.92 439.21 152.74 438.91 C 152.57 438.61 152.40 438.31 152.22 438.01 C 152.05 437.70 151.88 437.40 151.70 437.10 C 151.53 436.80 151.36 436.50 151.18 436.20 C 151.53 436.20 151.88 436.20 152.22 436.20 C 152.57 436.20 152.92 436.20 153.27 436.20 C 153.61 436.20 153.96 436.20 154.31 436.20 C 154.66 436.20 155.00 436.20 155.35 436.20 C 155.70 436.20 156.04 436.20 156.39 436.20 C 156.56 435.90 156.74 435.60 156.91 435.30 C 157.09 435.00 157.26 434.70 157.43 434.40 C 157.61 434.10 157.78 433.79 157.95 433.49 C 158.13 433.19 158.30 432.89 158.47 432.59 C 158.65 432.29 158.82 431.99 159.00 431.69 C 158.82 431.39 158.65 431.09 158.47 430.79 C 158.30 430.49 158.13 430.19 157.95 429.89 C 157.78 429.59 157.61 429.28 157.43 428.98 C 157.26 428.68 157.09 428.38 156.91 428.08 C 156.74 427.78 156.56 427.48 156.39 427.18 C 156.04 427.18 155.70 427.18 155.35 427.18 C 155.00 427.18 154.66 427.18 154.31 427.18 C 153.96 427.18 153.61 427.18 153.27 427.18 C 152.92 427.18 152.57 427.18 152.22 427.18 C 151.88 427.18 151.53 427.18 151.18 427.18 C 151.36 426.88 151.53 426.58 151.70 426.28 C 151.88 425.98 152.05 425.68 152.22 425.37 C 152.40 425.07 152.57 424.77 152.74 424.47 C 152.92 424.17 153.09 423.87 153.27 423.57 C 153.44 423.27 153.61 422.97 153.79 422.67 C 153.61 422.37 153.44 422.07 153.27 421.77 C 153.09 421.47 152.92 421.17 152.74 420.86 C 152.57 420.56 152.40 420.26 152.22 419.96 C 152.05 419.66 151.88 419.36 151.70 419.06 C 151.53 418.76 151.36 418.46 151.18 418.16 C 151.53 418.16 151.88 418.16 152.22 418.16 C 152.57 418.16 152.92 418.16 153.27 418.16 C 153.61 418.16 153.96 418.16 154.31 418.16 C 154.66 418.16 155.00 418.16 155.35 418.16 C 155.70 418.16 156.04 418.16 156.39 418.16 C 156.56 417.86 156.74 417.56 156.91 417.25 C 157.09 416.95 157.26 416.65 157.43 416.35 C 157.61 416.05 157.78 415.75 157.95 415.45 C 158.13 415.15 158.30 414.85 158.47 414.55 C 158.65 414.25 158.82 413.95 159.00 413.65 C 159.17 413.95 159.34 414.25 159.52 414.55 C 159.69 414.85 159.86 415.15 160.04 415.45 C 160.21 415.75 160.39 416.05 160.56 416.35 C 160.73 416.65 160.91 416.95 161.08 417.25 C 161.25 417.56 161.43 417.86 161.60 418.16 C 161.95 418.16 162.29 418.16 162.64 418.16 C 162.99 418.16 163.34 418.16 163.68 418.16 C 164.03 418.16 164.38 418.16 164.73 418.16 C 165.07 418.16 165.42 418.16 165.77 418.16 C 166.11 418.16 166.46 418.16 166.81 418.16 C 166.98 417.86 167.16 417.56 167.33 417.25 C 167.50 416.95 167.68 416.65 167.85 416.35 C 168.02 416.05 168.20 415.75 168.37 415.45 C 168.54 415.15 168.72 414.85 168.89 414.55 C 169.07 414.25 169.24 413.95 169.41 413.65 C 169.24 413.35 169.07 413.05 168.89 412.74 C 168.72 412.44 168.54 412.14 168.37 411.84 C 168.20 411.54 168.02 411.24 167.85 410.94 C 167.68 410.64 167.50 410.34 167.33 410.04 C 167.16 409.74 166.98 409.44 166.81 409.14 C 167.16 409.14 167.50 409.14 167.85 409.13 C 168.20 409.13 168.54 409.13 168.89 409.13 C 169.24 409.13 169.59 409.13 169.93 409.13 C 170.28 409.13 170.63 409.13 170.98 409.13 C 171.32 409.14 171.67 409.14 172.02 409.14 C 172.19 408.83 172.36 408.53 172.54 408.23 C 172.71 407.93 172.88 407.63 173.06 407.33 C 173.23 407.03 173.41 406.73 173.58 406.43 C 173.75 406.13 173.93 405.83 174.10 405.53 C 174.27 405.23 174.45 404.93 174.62 404.62 C 174.80 404.93 174.97 405.23 175.14 405.53 C 175.32 405.83 175.49 406.13 175.66 406.43 C 175.84 406.73 176.01 407.03 176.19 407.33 C 176.36 407.63 176.53 407.93 176.71 408.23 C 176.88 408.53 177.05 408.83 177.23 409.14 C 177.57 409.14 177.92 409.14 178.27 409.13 C 178.62 409.13 178.96 409.13 179.31 409.13 C 179.66 409.13 180.00 409.13 180.35 409.13 C 180.70 409.13 181.05 409.13 181.39 409.13 C 181.74 409.14 182.09 409.14 182.43 409.14 C 182.26 409.44 182.09 409.74 181.91 410.04 C 181.74 410.34 181.57 410.64 181.39 410.94 C 181.22 411.24 181.05 411.54 180.87 411.84 C 180.70 412.14 180.53 412.44 180.35 412.74 C 180.18 413.05 180.00 413.35 179.83 413.65 C 180.00 413.95 180.18 414.25 180.35 414.55 C 180.53 414.85 180.70 415.15 180.87 415.45 C 181.05 415.75 181.22 416.05 181.39 416.35 C 181.57 416.65 181.74 416.95 181.91 417.25 C 182.09 417.56 182.26 417.86 182.43 418.16 C 182.78 418.16 183.13 418.16 183.48 418.16 C 183.82 418.16 184.17 418.16 184.52 418.16 C 184.87 418.16 185.21 418.16 185.56 418.16 C 185.91 418.16 186.25 418.16 186.60 418.16 C 186.95 418.16 187.30 418.16 187.64 418.16 C 187.82 417.86 187.99 417.56 188.16 417.25 C 188.34 416.95 188.51 416.65 188.68 416.35 C 188.86 416.05 189.03 415.75 189.21 415.45 C 189.38 415.15 189.55 414.85 189.73 414.55 C 189.90 414.25 190.07 413.95 190.25 413.65 C 190.42 413.95 190.60 414.25 190.77 414.55 C 190.94 414.85 191.12 415.15 191.29 415.45 C 191.46 415.75 191.64 416.05 191.81 416.35 C 191.98 416.65 192.16 416.95 192.33 417.25 C 192.51 417.56 192.68 417.86 192.85 418.16 C 193.20 418.16 193.55 418.16 193.89 418.16 C 194.24 418.16 194.59 418.16 194.94 418.16 C 195.28 418.16 195.63 418.16 195.98 418.16 C 196.32 418.16 196.67 418.16 197.02 418.16 C 197.37 418.16 197.71 418.16 198.06 418.16 C 198.23 417.86 198.41 417.56 198.58 417.25 C 198.75 416.95 198.93 416.65 199.10 416.35 C 199.28 416.05 199.45 415.75 199.62 415.45 C 199.80 415.15 199.97 414.85 200.14 414.55 C 200.32 414.25 200.49 413.95 200.67 413.65 C 200.49 413.35 200.32 413.05 200.14 412.74 C 199.97 412.44 199.80 412.14 199.62 411.84 C 199.45 411.54 199.28 411.24 199.10 410.94 C 198.93 410.64 198.75 410.34 198.58 410.04 C 198.41 409.74 198.23 409.44 198.06 409.14 C 198.41 409.14 198.76 409.14 199.10 409.13 C 199.45 409.13 199.80 409.13 200.14 409.13 C 200.49 409.13 200.84 409.13 201.19 409.13 C 201.53 409.13 201.88 409.13 202.23 409.13 C 202.58 409.14 202.92 409.14 203.27 409.14 C 203.44 408.83 203.62 408.53 203.79 408.23 C 203.96 407.93 204.14 407.63 204.31 407.33 C 204.48 407.03 204.66 406.73 204.83 406.43 C 205.00 406.13 205.18 405.83 205.35 405.53 C 205.53 405.23 205.70 404.93 205.87 404.62 C 205.70 404.32 205.53 404.02 205.35 403.72 C 205.18 403.42 205.00 403.12 204.83 402.82 C 204.66 402.52 204.48 402.22 204.31 401.92 C 204.14 401.62 203.96 401.32 203.79 401.02 C 203.62 400.72 203.44 400.41 203.27 400.11 C 202.92 400.11 202.58 400.11 202.23 400.11 C 201.88 400.11 201.53 400.11 201.19 400.11 C 200.84 400.11 200.49 400.11 200.14 400.11 C 199.80 400.11 199.45 400.11 199.10 400.11 C 198.76 400.11 198.41 400.11 198.06 400.11 C 198.23 399.81 198.41 399.51 198.58 399.21 C 198.75 398.91 198.93 398.61 199.10 398.31 C 199.28 398.01 199.45 397.71 199.62 397.41 C 199.80 397.11 199.97 396.81 200.14 396.50 C 200.32 396.20 200.49 395.90 200.67 395.60 C 200.49 395.30 200.32 395.00 200.14 394.70 C 199.97 394.40 199.80 394.10 199.62 393.80 C 199.45 393.50 199.28 393.20 199.10 392.90 C 198.93 392.60 198.75 392.30 198.58 391.99 C 198.41 391.69 198.23 391.39 198.06 391.09 C 198.41 391.09 198.76 391.09 199.10 391.09 C 199.45 391.09 199.80 391.09 200.14 391.09 C 200.49 391.09 200.84 391.09 201.19 391.09 C 201.53 391.09 201.88 391.09 202.23 391.09 C 202.58 391.09 202.92 391.09 203.27 391.09 C 203.44 390.79 203.62 390.49 203.79 390.19 C 203.96 389.89 204.14 389.59 204.31 389.29 C 204.48 388.99 204.66 388.69 204.83 388.39 C 205.00 388.08 205.18 387.78 205.35 387.48 C 205.53 387.18 205.70 386.88 205.87 386.58 C 206.05 386.88 206.22 387.18 206.40 387.48 C 206.57 387.78 206.74 388.08 206.92 388.39 C 207.09 388.69 207.26 388.99 207.44 389.29 C 207.61 389.59 207.78 389.89 207.96 390.19 C 208.13 390.49 208.30 390.79 208.48 391.09 C 208.83 391.09 209.17 391.09 209.52 391.09 C 209.87 391.09 210.21 391.09 210.56 391.09 C 210.91 391.09 211.26 391.09 211.60 391.09 C 211.95 391.09 212.30 391.09 212.65 391.09 C 212.99 391.09 213.34 391.09 213.69 391.09 C 213.86 390.79 214.03 390.49 214.21 390.19 C 214.38 389.89 214.55 389.59 214.73 389.29 C 214.90 388.99 215.08 388.69 215.25 388.39 C 215.42 388.08 215.60 387.78 215.77 387.48 C 215.94 387.18 216.12 386.88 216.29 386.58 C 216.12 386.28 215.94 385.98 215.77 385.68 C 215.60 385.38 215.42 385.08 215.25 384.78 C 215.08 384.48 214.90 384.18 214.73 383.88 C 214.55 383.57 214.38 383.27 214.21 382.97 C 214.03 382.67 213.86 382.37 213.69 382.07 C 214.03 382.07 214.38 382.07 214.73 382.07 C 215.08 382.07 215.42 382.07 215.77 382.07 C 216.12 382.07 216.46 382.07 216.81 382.07 C 217.16 382.07 217.51 382.07 217.85 382.07 C 218.20 382.07 218.55 382.07 218.90 382.07 C 219.07 381.77 219.24 381.47 219.42 381.17 C 219.59 380.87 219.76 380.57 219.94 380.27 C 220.11 379.96 220.28 379.66 220.46 379.36 C 220.63 379.06 220.80 378.76 220.98 378.46 C 221.15 378.16 221.33 377.86 221.50 377.56 C 221.67 377.86 221.85 378.16 222.02 378.46 C 222.20 378.76 222.37 379.06 222.54 379.36 C 222.72 379.66 222.89 379.96 223.06 380.27 C 223.24 380.57 223.41 380.87 223.58 381.17 C 223.76 381.47 223.93 381.77 224.10 382.07 C 224.45 382.07 224.80 382.07 225.15 382.07 C 225.49 382.07 225.84 382.07 226.19 382.07 C 226.54 382.07 226.88 382.07 227.23 382.07 C 227.58 382.07 227.92 382.07 228.27 382.07 C 228.62 382.07 228.97 382.07 229.31 382.07 C 229.14 382.37 228.97 382.67 228.79 382.97 C 228.62 383.27 228.45 383.57 228.27 383.88 C 228.10 384.18 227.92 384.48 227.75 384.78 C 227.58 385.08 227.40 385.38 227.23 385.68 C 227.06 385.98 226.88 386.28 226.71 386.58 C 226.88 386.88 227.06 387.18 227.23 387.48 C 227.40 387.78 227.58 388.08 227.75 388.39 C 227.92 388.69 228.10 388.99 228.27 389.29 C 228.45 389.59 228.62 389.89 228.79 390.19 C 228.97 390.49 229.14 390.79 229.31 391.09 C 229.66 391.09 230.01 391.09 230.35 391.09 C 230.70 391.09 231.05 391.09 231.40 391.09 C 231.74 391.09 232.09 391.09 232.44 391.09 C 232.79 391.09 233.13 391.09 233.48 391.09 C 233.83 391.09 234.17 391.09 234.52 391.09 C 234.70 390.79 234.87 390.49 235.04 390.19 C 235.22 389.89 235.39 389.59 235.56 389.29 C 235.74 388.99 235.91 388.69 236.08 388.39 C 236.26 388.08 236.43 387.78 236.60 387.48 C 236.78 387.18 236.95 386.88 237.13 386.58 C 237.30 386.88 237.47 387.18 237.65 387.48 C 237.82 387.78 238.00 388.08 238.17 388.39 C 238.34 388.69 238.52 388.99 238.69 389.29 C 238.86 389.59 239.04 389.89 239.21 390.19 C 239.38 390.49 239.56 390.79 239.73 391.09 C 240.08 391.09 240.42 391.09 240.77 391.09 C 241.12 391.09 241.47 391.09 241.81 391.09 C 242.16 391.09 242.51 391.09 242.86 391.09 C 243.20 391.09 243.55 391.09 243.90 391.09 C 244.24 391.09 244.59 391.09 244.94 391.09 C 244.77 391.39 244.59 391.69 244.42 391.99 C 244.25 392.30 244.07 392.60 243.90 392.90 C 243.72 393.20 243.55 393.50 243.38 393.80 C 243.20 394.10 243.03 394.40 242.86 394.70 C 242.68 395.00 242.51 395.30 242.33 395.60 C 242.51 395.90 242.68 396.20 242.86 396.50 C 243.03 396.81 243.20 397.11 243.38 397.41 C 243.55 397.71 243.72 398.01 243.90 398.31 C 244.07 398.61 244.25 398.91 244.42 399.21 C 244.59 399.51 244.77 399.81 244.94 400.11 C 244.59 400.11 244.24 400.11 243.90 400.11 C 243.55 400.11 243.20 400.11 242.86 400.11 C 242.51 400.11 242.16 400.11 241.81 400.11 C 241.47 400.11 241.12 400.11 240.77 400.11 C 240.42 400.11 240.08 400.11 239.73 400.11 C 239.56 400.41 239.38 400.72 239.21 401.02 C 239.04 401.32 238.86 401.62 238.69 401.92 C 238.52 402.22 238.34 402.52 238.17 402.82 C 238.00 403.12 237.82 403.42 237.65 403.72 C 237.47 404.02 237.30 404.32 237.13 404.62 C 237.30 404.93 237.47 405.23 237.65 405.53 C 237.82 405.83 238.00 406.13 238.17 406.43 C 238.34 406.73 238.52 407.03 238.69 407.33 C 238.86 407.63 239.04 407.93 239.21 408.23 C 239.38 408.53 239.56 408.83 239.73 409.14 C 240.08 409.14 240.42 409.14 240.77 409.13 C 241.12 409.13 241.47 409.13 241.81 409.13 C 242.16 409.13 242.51 409.13 242.86 409.13 C 243.20 409.13 243.55 409.13 243.90 409.13 C 244.24 409.14 244.59 409.14 244.94 409.14 C 244.77 409.44 244.59 409.74 244.42 410.04 C 244.25 410.34 244.07 410.64 243.90 410.94 C 243.72 411.24 243.55 411.54 243.38 411.84 C 243.20 412.14 243.03 412.44 242.86 412.74 C 242.68 413.05 242.51 413.35 242.33 413.65 C 242.51 413.95 242.68 414.25 242.86 414.55 C 243.03 414.85 243.20 415.15 243.38 415.45 C 243.55 415.75 243.72 416.05 243.90 416.35 C 244.07 416.65 244.25 416.95 244.42 417.25 C 244.59 417.56 244.77 417.86 244.94 418.16 C 245.29 418.16 245.63 418.16 245.98 418.16 C 246.33 418.16 246.68 418.16 247.02 418.16 C 247.37 418.16 247.72 418.16 248.06 418.16 C 248.41 418.16 248.76 418.16 249.11 418.16 C 249.45 418.16 249.80 418.16 250.15 418.16 C 250.32 417.86 250.49 417.56 250.67 417.25 C 250.84 416.95 251.02 416.65 251.19 416.35 C 251.36 416.05 251.54 415.75 251.71 415.45 C 251.88 415.15 252.06 414.85 252.23 414.55 C 252.40 414.25 252.58 413.95 252.75 413.65 C 252.93 413.95 253.10 414.25 253.27 414.55 C 253.45 414.85 253.62 415.15 253.79 415.45 C 253.97 415.75 254.14 416.05 254.32 416.35 C 254.49 416.65 254.66 416.95 254.84 417.25 C 255.01 417.56 255.18 417.86 255.36 418.16 C 255.70 418.16 256.05 418.16 256.40 418.16 C 256.75 418.16 257.09 418.16 257.44 418.16 C 257.79 418.16 258.13 418.16 258.48 418.16 C 258.83 418.16 259.18 418.16 259.52 418.16 C 259.87 418.16 260.22 418.16 260.57 418.16 C 260.74 417.86 260.91 417.56 261.09 417.25 C 261.26 416.95 261.43 416.65 261.61 416.35 C 261.78 416.05 261.95 415.75 262.13 415.45 C 262.30 415.15 262.47 414.85 262.65 414.55 C 262.82 414.25 263.00 413.95 263.17 413.65 C 263.00 413.35 262.82 413.05 262.65 412.74 C 262.47 412.44 262.30 412.14 262.13 411.84 C 261.95 411.54 261.78 411.24 261.61 410.94 C 261.43 410.64 261.26 410.34 261.09 410.04 C 260.91 409.74 260.74 409.44 260.57 409.14 C 260.91 409.14 261.26 409.14 261.61 409.13 C 261.95 409.13 262.30 409.13 262.65 409.13 C 263.00 409.13 263.34 409.13 263.69 409.13 C 264.04 409.13 264.38 409.13 264.73 409.13 C 265.08 409.14 265.43 409.14 265.77 409.14 C 265.95 408.83 266.12 408.53 266.29 408.23 C 266.47 407.93 266.64 407.63 266.81 407.33 C 266.99 407.03 267.16 406.73 267.34 406.43 C 267.51 406.13 267.68 405.83 267.86 405.53 C 268.03 405.23 268.20 404.93 268.38 404.62 C 268.55 404.93 268.73 405.23 268.90 405.53 C 269.07 405.83 269.25 406.13 269.42 406.43 C 269.59 406.73 269.77 407.03 269.94 407.33 C 270.12 407.63 270.29 407.93 270.46 408.23 C 270.64 408.53 270.81 408.83 270.98 409.14 C 271.33 409.14 271.68 409.14 272.02 409.13 C 272.37 409.13 272.72 409.13 273.07 409.13 C 273.41 409.13 273.76 409.13 274.11 409.13 C 274.46 409.13 274.80 409.13 275.15 409.13 C 275.50 409.14 275.84 409.14 276.19 409.14 C 276.02 409.44 275.84 409.74 275.67 410.04 C 275.50 410.34 275.32 410.64 275.15 410.94 C 274.98 411.24 274.80 411.54 274.63 411.84 C 274.46 412.14 274.28 412.44 274.11 412.74 C 273.93 413.05 273.76 413.35 273.59 413.65 C 273.76 413.95 273.93 414.25 274.11 414.55 C 274.28 414.85 274.46 415.15 274.63 415.45 C 274.80 415.75 274.98 416.05 275.15 416.35 C 275.32 416.65 275.50 416.95 275.67 417.25 C 275.84 417.56 276.02 417.86 276.19 418.16 C 276.54 418.16 276.89 418.16 277.23 418.16 C 277.58 418.16 277.93 418.16 278.27 418.16 C 278.62 418.16 278.97 418.16 279.32 418.16 C 279.66 418.16 280.01 418.16 280.36 418.16 C 280.71 418.16 281.05 418.16 281.40 418.16 C 281.57 417.86 281.75 417.56 281.92 417.25 C 282.09 416.95 282.27 416.65 282.44 416.35 C 282.61 416.05 282.79 415.75 282.96 415.45 C 283.14 415.15 283.31 414.85 283.48 414.55 C 283.66 414.25 283.83 413.95 284.00 413.65 C 284.18 413.95 284.35 414.25 284.53 414.55 C 284.70 414.85 284.87 415.15 285.05 415.45 C 285.22 415.75 285.39 416.05 285.57 416.35 C 285.74 416.65 285.91 416.95 286.09 417.25 C 286.26 417.56 286.44 417.86 286.61 418.16 C 286.96 418.16 287.30 418.16 287.65 418.16 C 288.00 418.16 288.34 418.16 288.69 418.16 C 289.04 418.16 289.39 418.16 289.73 418.16 C 290.08 418.16 290.43 418.16 290.78 418.16 C 291.12 418.16 291.47 418.16 291.82 418.16 C 291.64 418.46 291.47 418.76 291.30 419.06 C 291.12 419.36 290.95 419.66 290.78 419.96 C 290.60 420.26 290.43 420.56 290.26 420.86 C 290.08 421.17 289.91 421.47 289.73 421.77 C 289.56 422.07 289.39 422.37 289.21 422.67 C 289.39 422.97 289.56 423.27 289.73 423.57 C 289.91 423.87 290.08 424.17 290.26 424.47 C 290.43 424.77 290.60 425.07 290.78 425.37 C 290.95 425.68 291.12 425.98 291.30 426.28 C 291.47 426.58 291.64 426.88 291.82 427.18 C 291.47 427.18 291.12 427.18 290.78 427.18 C 290.43 427.18 290.08 427.18 289.73 427.18 C 289.39 427.18 289.04 427.18 288.69 427.18 C 288.34 427.18 288.00 427.18 287.65 427.18 C 287.30 427.18 286.96 427.18 286.61 427.18 C 286.44 427.48 286.26 427.78 286.09 428.08 C 285.91 428.38 285.74 428.68 285.57 428.98 C 285.39 429.28 285.22 429.59 285.05 429.89 C 284.87 430.19 284.70 430.49 284.53 430.79 C 284.35 431.09 284.18 431.39 284.00 431.69 C 284.18 431.99 284.35 432.29 284.53 432.59 C 284.70 432.89 284.87 433.19 285.05 433.49 C 285.22 433.79 285.39 434.10 285.57 434.40 C 285.74 434.70 285.91 435.00 286.09 435.30 C 286.26 435.60 286.44 435.90 286.61 436.20 C 286.96 436.20 287.30 436.20 287.65 436.20 C 288.00 436.20 288.34 436.20 288.69 436.20 C 289.04 436.20 289.39 436.20 289.73 436.20 C 290.08 436.20 290.43 436.20 290.78 436.20 C 291.12 436.20 291.47 436.20 291.82 436.20 C 291.64 436.50 291.47 436.80 291.30 437.10 C 291.12 437.40 290.95 437.70 290.78 438.01 C 290.60 438.31 290.43 438.61 290.26 438.91 C 290.08 439.21 289.91 439.51 289.73 439.81 C 289.56 440.11 289.39 440.41 289.21 440.71 C 289.39 441.01 289.56 441.31 289.73 441.61 C 289.91 441.91 290.08 442.21 290.26 442.52 C 290.43 442.82 290.60 443.12 290.78 443.42 C 290.95 443.72 291.12 444.02 291.30 444.32 C 291.47 444.62 291.64 444.92 291.82 445.22 C 291.47 445.22 291.12 445.22 290.78 445.22 C 290.43 445.22 290.08 445.22 289.73 445.22 C 289.39 445.22 289.04 445.22 288.69 445.22 C 288.34 445.22 288.00 445.22 287.65 445.22 C 287.30 445.22 286.96 445.22 286.61 445.22 C 286.44 445.52 286.26 445.82 286.09 446.13 C 285.91 446.43 285.74 446.73 285.57 447.03 C 285.39 447.33 285.22 447.63 285.05 447.93 C 284.87 448.23 284.70 448.53 284.53 448.83 C 284.35 449.13 284.18 449.43 284.00 449.73 C 283.83 449.43 283.66 449.13 283.48 448.83 C 283.31 448.53 283.14 448.23 282.96 447.93 C 282.79 447.63 282.61 447.33 282.44 447.03 C 282.27 446.73 282.09 446.43 281.92 446.13 C 281.75 445.82 281.57 445.52 281.40 445.22 C 281.05 445.22 280.71 445.22 280.36 445.22 C 280.01 445.22 279.66 445.22 279.32 445.22 C 278.97 445.22 278.62 445.22 278.27 445.22 C 277.93 445.22 277.58 445.22 277.23 445.22 C 276.89 445.22 276.54 445.22 276.19 445.22 C 276.02 445.52 275.84 445.82 275.67 446.13 C 275.50 446.43 275.32 446.73 275.15 447.03 C 274.98 447.33 274.80 447.63 274.63 447.93 C 274.46 448.23 274.28 448.53 274.11 448.83 C 273.93 449.13 273.76 449.43 273.59 449.73 C 273.76 450.03 273.93 450.33 274.11 450.64 C 274.28 450.94 274.46 451.24 274.63 451.54 C 274.80 451.84 274.98 452.14 275.15 452.44 C 275.32 452.74 275.50 453.04 275.67 453.34 C 275.84 453.64 276.02 453.94 276.19 454.24 C 275.84 454.24 275.50 454.24 275.15 454.24 C 274.80 454.25 274.46 454.25 274.11 454.25 C 273.76 454.25 273.41 454.25 273.07 454.25 C 272.72 454.25 272.37 454.25 272.02 454.24 C 271.68 454.24 271.33 454.24 270.98 454.24 C 270.81 454.55 270.64 454.85 270.46 455.15 C 270.29 455.45 270.12 455.75 269.94 456.05 C 269.77 456.35 269.59 456.65 269.42 456.95 C 269.25 457.25 269.07 457.55 268.90 457.85 C 268.73 458.15 268.55 458.45 268.38 458.76 C 268.55 459.06 268.73 459.36 268.90 459.66 C 269.07 459.96 269.25 460.26 269.42 460.56 C 269.59 460.86 269.77 461.16 269.94 461.46 C 270.12 461.76 270.29 462.06 270.46 462.36 C 270.64 462.66 270.81 462.97 270.98 463.27 C 271.33 463.27 271.68 463.27 272.02 463.27 C 272.37 463.27 272.72 463.27 273.07 463.27 C 273.41 463.27 273.76 463.27 274.11 463.27 C 274.46 463.27 274.80 463.27 275.15 463.27 C 275.50 463.27 275.84 463.27 276.19 463.27 C 276.02 463.57 275.84 463.87 275.67 464.17 C 275.50 464.47 275.32 464.77 275.15 465.07 C 274.98 465.37 274.80 465.67 274.63 465.97 C 274.46 466.27 274.28 466.57 274.11 466.88 C 273.93 467.18 273.76 467.48 273.59 467.78 C 273.76 468.08 273.93 468.38 274.11 468.68 C 274.28 468.98 274.46 469.28 274.63 469.58 C 274.80 469.88 274.98 470.18 275.15 470.48 C 275.32 470.78 275.50 471.08 275.67 471.39 C 275.84 471.69 276.02 471.99 276.19 472.29 C 276.54 472.29 276.89 472.29 277.23 472.29 C 277.58 472.29 277.93 472.29 278.27 472.29 C 278.62 472.29 278.97 472.29 279.32 472.29 C 279.66 472.29 280.01 472.29 280.36 472.29 C 280.71 472.29 281.05 472.29 281.40 472.29 C 281.57 471.99 281.75 471.69 281.92 471.39 C 282.09 471.08 282.27 470.78 282.44 470.48 C 282.61 470.18 282.79 469.88 282.96 469.58 C 283.14 469.28 283.31 468.98 283.48 468.68 C 283.66 468.38 283.83 468.08 284.00 467.78 C 284.18 468.08 284.35 468.38 284.53 468.68 C 284.70 468.98 284.87 469.28 285.05 469.58 C 285.22 469.88 285.39 470.18 285.57 470.48 C 285.74 470.78 285.91 471.08 286.09 471.39 C 286.26 471.69 286.44 471.99 286.61 472.29 C 286.96 472.29 287.30 472.29 287.65 472.29 C 288.00 472.29 288.34 472.29 288.69 472.29 C 289.04 472.29 289.39 472.29 289.73 472.29 C 290.08 472.29 290.43 472.29 290.78 472.29 C 291.12 472.29 291.47 472.29 291.82 472.29 C 291.64 472.59 291.47 472.89 291.30 473.19 C 291.12 473.49 290.95 473.79 290.78 474.09 C 290.60 474.39 290.43 474.69 290.26 474.99 C 290.08 475.30 289.91 475.60 289.73 475.90 C 289.56 476.20 289.39 476.50 289.21 476.80 C 289.39 477.10 289.56 477.40 289.73 477.70 C 289.91 478.00 290.08 478.30 290.26 478.60 C 290.43 478.90 290.60 479.20 290.78 479.50 C 290.95 479.81 291.12 480.11 291.30 480.41 C 291.47 480.71 291.64 481.01 291.82 481.31 C 291.47 481.31 291.12 481.31 290.78 481.31 C 290.43 481.31 290.08 481.31 289.73 481.31 C 289.39 481.31 289.04 481.31 288.69 481.31 C 288.34 481.31 288.00 481.31 287.65 481.31 C 287.30 481.31 286.96 481.31 286.61 481.31 C 286.44 481.61 286.26 481.91 286.09 482.21 C 285.91 482.51 285.74 482.81 285.57 483.11 C 285.39 483.42 285.22 483.72 285.05 484.02 C 284.87 484.32 284.70 484.62 284.53 484.92 C 284.35 485.22 284.18 485.52 284.00 485.82 C 284.18 486.12 284.35 486.42 284.53 486.72 C 284.70 487.02 284.87 487.32 285.05 487.62 C 285.22 487.92 285.39 488.23 285.57 488.53 C 285.74 488.83 285.91 489.13 286.09 489.43 C 286.26 489.73 286.44 490.03 286.61 490.33 C 286.96 490.33 287.30 490.33 287.65 490.33 C 288.00 490.33 288.34 490.33 288.69 490.33 C 289.04 490.33 289.39 490.33 289.73 490.33 C 290.08 490.33 290.43 490.33 290.78 490.33 C 291.12 490.33 291.47 490.33 291.82 490.33 C 291.64 490.63 291.47 490.93 291.30 491.23 C 291.12 491.53 290.95 491.84 290.78 492.14 C 290.60 492.44 290.43 492.74 290.26 493.04 C 290.08 493.34 289.91 493.64 289.73 493.94 C 289.56 494.24 289.39 494.54 289.21 494.84 C 289.39 495.14 289.56 495.44 289.73 495.74 C 289.91 496.04 290.08 496.35 290.26 496.65 C 290.43 496.95 290.60 497.25 290.78 497.55 C 290.95 497.85 291.12 498.15 291.30 498.45 C 291.47 498.75 291.64 499.05 291.82 499.35 C 292.16 499.35 292.51 499.35 292.86 499.35 C 293.21 499.35 293.55 499.35 293.90 499.35 C 294.25 499.35 294.60 499.35 294.94 499.35 C 295.29 499.35 295.64 499.35 295.98 499.35 C 296.33 499.35 296.68 499.35 297.03 499.35 C 297.20 499.05 297.37 498.75 297.55 498.45 C 297.72 498.15 297.89 497.85 298.07 497.55 C 298.24 497.25 298.41 496.95 298.59 496.65 C 298.76 496.35 298.94 496.04 299.11 495.74 C 299.28 495.44 299.46 495.14 299.63 494.84 C 299.80 495.14 299.98 495.44 300.15 495.74 C 300.33 496.04 300.50 496.35 300.67 496.65 C 300.85 496.95 301.02 497.25 301.19 497.55 C 301.37 497.85 301.54 498.15 301.71 498.45 C 301.89 498.75 302.06 499.05 302.23 499.35 C 302.58 499.35 302.93 499.35 303.28 499.35 C 303.62 499.35 303.97 499.35 304.32 499.35 C 304.67 499.35 305.01 499.35 305.36 499.35 C 305.71 499.35 306.05 499.35 306.40 499.35 C 306.75 499.35 307.10 499.35 307.44 499.35 C 307.62 499.05 307.79 498.75 307.96 498.45 C 308.14 498.15 308.31 497.85 308.48 497.55 C 308.66 497.25 308.83 496.95 309.01 496.65 C 309.18 496.35 309.35 496.04 309.53 495.74 C 309.70 495.44 309.87 495.14 310.05 494.84 C 309.87 494.54 309.70 494.24 309.53 493.94 C 309.35 493.64 309.18 493.34 309.01 493.04 C 308.83 492.74 308.66 492.44 308.48 492.14 C 308.31 491.84 308.14 491.53 307.96 491.23 C 307.79 490.93 307.62 490.63 307.44 490.33 C 307.79 490.33 308.14 490.33 308.49 490.33 C 308.83 490.33 309.18 490.33 309.53 490.33 C 309.87 490.33 310.22 490.33 310.57 490.33 C 310.92 490.33 311.26 490.33 311.61 490.33 C 311.96 490.33 312.31 490.33 312.65 490.33 C 312.83 490.03 313.00 489.73 313.17 489.43 C 313.35 489.13 313.52 488.83 313.69 488.53 C 313.87 488.23 314.04 487.92 314.21 487.62 C 314.39 487.32 314.56 487.02 314.74 486.72 C 314.91 486.42 315.08 486.12 315.26 485.82 C 315.43 486.12 315.60 486.42 315.78 486.72 C 315.95 487.02 316.13 487.32 316.30 487.62 C 316.47 487.92 316.65 488.23 316.82 488.53 C 316.99 488.83 317.17 489.13 317.34 489.43 C 317.51 489.73 317.69 490.03 317.86 490.33 C 318.21 490.33 318.56 490.33 318.90 490.33 C 319.25 490.33 319.60 490.33 319.94 490.33 C 320.29 490.33 320.64 490.33 320.99 490.33 C 321.33 490.33 321.68 490.33 322.03 490.33 C 322.38 490.33 322.72 490.33 323.07 490.33 C 322.90 490.63 322.72 490.93 322.55 491.23 C 322.38 491.53 322.20 491.84 322.03 492.14 C 321.86 492.44 321.68 492.74 321.51 493.04 C 321.33 493.34 321.16 493.64 320.99 493.94 C 320.81 494.24 320.64 494.54 320.47 494.84 C 320.64 495.14 320.81 495.44 320.99 495.74 C 321.16 496.04 321.33 496.35 321.51 496.65 C 321.68 496.95 321.86 497.25 322.03 497.55 C 322.20 497.85 322.38 498.15 322.55 498.45 C 322.72 498.75 322.90 499.05 323.07 499.35 C 323.42 499.35 323.76 499.35 324.11 499.35 C 324.46 499.35 324.81 499.35 325.15 499.35 C 325.50 499.35 325.85 499.35 326.19 499.35 C 326.54 499.35 326.89 499.35 327.24 499.35 C 327.58 499.35 327.93 499.35 328.28 499.35 C 328.45 499.05 328.63 498.75 328.80 498.45 C 328.97 498.15 329.15 497.85 329.32 497.55 C 329.49 497.25 329.67 496.95 329.84 496.65 C 330.01 496.35 330.19 496.04 330.36 495.74 C 330.54 495.44 330.71 495.14 330.88 494.84 C 331.06 495.14 331.23 495.44 331.40 495.74 C 331.58 496.04 331.75 496.35 331.93 496.65 C 332.10 496.95 332.27 497.25 332.45 497.55 C 332.62 497.85 332.79 498.15 332.97 498.45 C 333.14 498.75 333.31 499.05 333.49 499.35 C 333.83 499.35 334.18 499.35 334.53 499.35 C 334.88 499.35 335.22 499.35 335.57 499.35 C 335.92 499.35 336.27 499.35 336.61 499.35 C 336.96 499.35 337.31 499.35 337.65 499.35 C 338.00 499.35 338.35 499.35 338.70 499.35 C 338.87 499.05 339.04 498.75 339.22 498.45 C 339.39 498.15 339.56 497.85 339.74 497.55 C 339.91 497.25 340.08 496.95 340.26 496.65 C 340.43 496.35 340.60 496.04 340.78 495.74 C 340.95 495.44 341.13 495.14 341.30 494.84 C 341.13 494.54 340.95 494.24 340.78 493.94 C 340.60 493.64 340.43 493.34 340.26 493.04 C 340.08 492.74 339.91 492.44 339.74 492.14 C 339.56 491.84 339.39 491.53 339.22 491.23 C 339.04 490.93 338.87 490.63 338.70 490.33 C 339.04 490.33 339.39 490.33 339.74 490.33 C 340.08 490.33 340.43 490.33 340.78 490.33 C 341.13 490.33 341.47 490.33 341.82 490.33 C 342.17 490.33 342.52 490.33 342.86 490.33 C 343.21 490.33 343.56 490.33 343.90 490.33 C 344.08 490.03 344.25 489.73 344.42 489.43 C 344.60 489.13 344.77 488.83 344.95 488.53 C 345.12 488.23 345.29 487.92 345.47 487.62 C 345.64 487.32 345.81 487.02 345.99 486.72 C 346.16 486.42 346.33 486.12 346.51 485.82 C 346.33 485.52 346.16 485.22 345.99 484.92 C 345.81 484.62 345.64 484.32 345.47 484.02 C 345.29 483.72 345.12 483.42 344.95 483.11 C 344.77 482.81 344.60 482.51 344.42 482.21 C 344.25 481.91 344.08 481.61 343.90 481.31 C 343.56 481.31 343.21 481.31 342.86 481.31 C 342.52 481.31 342.17 481.31 341.82 481.31 C 341.47 481.31 341.13 481.31 340.78 481.31 C 340.43 481.31 340.08 481.31 339.74 481.31 C 339.39 481.31 339.04 481.31 338.70 481.31 C 338.87 481.01 339.04 480.71 339.22 480.41 C 339.39 480.11 339.56 479.81 339.74 479.50 C 339.91 479.20 340.08 478.90 340.26 478.60 C 340.43 478.30 340.60 478.00 340.78 477.70 C 340.95 477.40 341.13 477.10 341.30 476.80 C 341.13 476.50 340.95 476.20 340.78 475.90 C 340.60 475.60 340.43 475.30 340.26 474.99 C 340.08 474.69 339.91 474.39 339.74 474.09 C 339.56 473.79 339.39 473.49 339.22 473.19 C 339.04 472.89 338.87 472.59 338.70 472.29 C 339.04 472.29 339.39 472.29 339.74 472.29 C 340.08 472.29 340.43 472.29 340.78 472.29 C 341.13 472.29 341.47 472.29 341.82 472.29 C 342.17 472.29 342.52 472.29 342.86 472.29 C 343.21 472.29 343.56 472.29 343.90 472.29 C 344.08 471.99 344.25 471.69 344.42 471.39 C 344.60 471.08 344.77 470.78 344.95 470.48 C 345.12 470.18 345.29 469.88 345.47 469.58 C 345.64 469.28 345.81 468.98 345.99 468.68 C 346.16 468.38 346.33 468.08 346.51 467.78 C 346.68 468.08 346.86 468.38 347.03 468.68 C 347.20 468.98 347.38 469.28 347.55 469.58 C 347.73 469.88 347.90 470.18 348.07 470.48 C 348.25 470.78 348.42 471.08 348.59 471.39 C 348.77 471.69 348.94 471.99 349.11 472.29 C 349.46 472.29 349.81 472.29 350.15 472.29 C 350.50 472.29 350.85 472.29 351.20 472.29 C 351.54 472.29 351.89 472.29 352.24 472.29 C 352.59 472.29 352.93 472.29 353.28 472.29 C 353.63 472.29 353.97 472.29 354.32 472.29 C 354.50 471.99 354.67 471.69 354.84 471.39 C 355.02 471.08 355.19 470.78 355.36 470.48 C 355.54 470.18 355.71 469.88 355.88 469.58 C 356.06 469.28 356.23 468.98 356.40 468.68 C 356.58 468.38 356.75 468.08 356.93 467.78 C 356.75 467.48 356.58 467.18 356.40 466.88 C 356.23 466.57 356.06 466.27 355.88 465.97 C 355.71 465.67 355.54 465.37 355.36 465.07 C 355.19 464.77 355.02 464.47 354.84 464.17 C 354.67 463.87 354.50 463.57 354.32 463.27 C 354.67 463.27 355.02 463.27 355.36 463.27 C 355.71 463.27 356.06 463.27 356.41 463.27 C 356.75 463.27 357.10 463.27 357.45 463.27 C 357.79 463.27 358.14 463.27 358.49 463.27 C 358.84 463.27 359.18 463.27 359.53 463.27 C 359.70 462.97 359.88 462.66 360.05 462.36 C 360.22 462.06 360.40 461.76 360.57 461.46 C 360.75 461.16 360.92 460.86 361.09 460.56 C 361.27 460.26 361.44 459.96 361.61 459.66 C 361.79 459.36 361.96 459.06 362.13 458.76 C 362.31 459.06 362.48 459.36 362.66 459.66 C 362.83 459.96 363.00 460.26 363.18 460.56 C 363.35 460.86 363.52 461.16 363.70 461.46 C 363.87 461.76 364.05 462.06 364.22 462.36 C 364.39 462.66 364.57 462.97 364.74 463.27 C 365.09 463.27 365.43 463.27 365.78 463.27 C 366.13 463.27 366.48 463.27 366.82 463.27 C 367.17 463.27 367.52 463.27 367.86 463.27 C 368.21 463.27 368.56 463.27 368.91 463.27 C 369.25 463.27 369.60 463.27 369.95 463.27 C 369.77 463.57 369.60 463.87 369.43 464.17 C 369.25 464.47 369.08 464.77 368.91 465.07 C 368.73 465.37 368.56 465.67 368.39 465.97 C 368.21 466.27 368.04 466.57 367.87 466.88 C 367.69 467.18 367.52 467.48 367.34 467.78 C 367.52 468.08 367.69 468.38 367.87 468.68 C 368.04 468.98 368.21 469.28 368.39 469.58 C 368.56 469.88 368.73 470.18 368.91 470.48 C 369.08 470.78 369.25 471.08 369.43 471.39 C 369.60 471.69 369.77 471.99 369.95 472.29 C 370.30 472.29 370.64 472.29 370.99 472.29 C 371.34 472.29 371.68 472.29 372.03 472.29 C 372.38 472.29 372.73 472.29 373.07 472.29 C 373.42 472.29 373.77 472.29 374.11 472.29 C 374.46 472.29 374.81 472.29 375.16 472.29 C 375.33 471.99 375.50 471.69 375.68 471.39 C 375.85 471.08 376.02 470.78 376.20 470.48 C 376.37 470.18 376.54 469.88 376.72 469.58 C 376.89 469.28 377.07 468.98 377.24 468.68 C 377.41 468.38 377.59 468.08 377.76 467.78 C 377.93 468.08 378.11 468.38 378.28 468.68 C 378.46 468.98 378.63 469.28 378.80 469.58 C 378.98 469.88 379.15 470.18 379.32 470.48 C 379.50 470.78 379.67 471.08 379.85 471.39 C 380.02 471.69 380.19 471.99 380.37 472.29 C 380.71 472.29 381.06 472.29 381.41 472.29 C 381.75 472.29 382.10 472.29 382.45 472.29 C 382.80 472.29 383.14 472.29 383.49 472.29 C 383.84 472.29 384.19 472.29 384.53 472.29 C 384.88 472.29 385.23 472.29 385.57 472.29 C 385.40 472.59 385.23 472.89 385.05 473.19 C 384.88 473.49 384.71 473.79 384.53 474.09 C 384.36 474.39 384.19 474.69 384.01 474.99 C 383.84 475.30 383.66 475.60 383.49 475.90 C 383.32 476.20 383.14 476.50 382.97 476.80 C 383.14 477.10 383.32 477.40 383.49 477.70 C 383.66 478.00 383.84 478.30 384.01 478.60 C 384.19 478.90 384.36 479.20 384.53 479.50 C 384.71 479.81 384.88 480.11 385.05 480.41 C 385.23 480.71 385.40 481.01 385.57 481.31 C 385.23 481.31 384.88 481.31 384.53 481.31 C 384.19 481.31 383.84 481.31 383.49 481.31 C 383.14 481.31 382.80 481.31 382.45 481.31 C 382.10 481.31 381.75 481.31 381.41 481.31 C 381.06 481.31 380.71 481.31 380.37 481.31 C 380.19 481.61 380.02 481.91 379.85 482.21 C 379.67 482.51 379.50 482.81 379.32 483.11 C 379.15 483.42 378.98 483.72 378.80 484.02 C 378.63 484.32 378.46 484.62 378.28 484.92 C 378.11 485.22 377.93 485.52 377.76 485.82 C 377.93 486.12 378.11 486.42 378.28 486.72 C 378.46 487.02 378.63 487.32 378.80 487.62 C 378.98 487.92 379.15 488.23 379.32 488.53 C 379.50 488.83 379.67 489.13 379.85 489.43 C 380.02 489.73 380.19 490.03 380.37 490.33 C 380.71 490.33 381.06 490.33 381.41 490.33 C 381.75 490.33 382.10 490.33 382.45 490.33 C 382.80 490.33 383.14 490.33 383.49 490.33 C 383.84 490.33 384.19 490.33 384.53 490.33 C 384.88 490.33 385.23 490.33 385.57 490.33 C 385.40 490.63 385.23 490.93 385.05 491.23 C 384.88 491.53 384.71 491.84 384.53 492.14 C 384.36 492.44 384.19 492.74 384.01 493.04 C 383.84 493.34 383.66 493.64 383.49 493.94 C 383.32 494.24 383.14 494.54 382.97 494.84 C 383.14 495.14 383.32 495.44 383.49 495.74 C 383.66 496.04 383.84 496.35 384.01 496.65 C 384.19 496.95 384.36 497.25 384.53 497.55 C 384.71 497.85 384.88 498.15 385.05 498.45 C 385.23 498.75 385.40 499.05 385.57 499.35 C 385.92 499.35 386.27 499.35 386.62 499.35 C 386.96 499.35 387.31 499.35 387.66 499.35 C 388.00 499.35 388.35 499.35 388.70 499.35 C 389.05 499.35 389.39 499.35 389.74 499.35 C 390.09 499.35 390.44 499.35 390.78 499.35 C 390.96 499.05 391.13 498.75 391.30 498.45 C 391.48 498.15 391.65 497.85 391.82 497.55 C 392.00 497.25 392.17 496.95 392.34 496.65 C 392.52 496.35 392.69 496.04 392.87 495.74 C 393.04 495.44 393.21 495.14 393.39 494.84 C 393.56 495.14 393.73 495.44 393.91 495.74 C 394.08 496.04 394.26 496.35 394.43 496.65 C 394.60 496.95 394.78 497.25 394.95 497.55 C 395.12 497.85 395.30 498.15 395.47 498.45 C 395.64 498.75 395.82 499.05 395.99 499.35 C 396.34 499.35 396.69 499.35 397.03 499.35 C 397.38 499.35 397.73 499.35 398.07 499.35 C 398.42 499.35 398.77 499.35 399.12 499.35 C 399.46 499.35 399.81 499.35 400.16 499.35 C 400.51 499.35 400.85 499.35 401.20 499.35 C 401.37 499.05 401.55 498.75 401.72 498.45 C 401.89 498.15 402.07 497.85 402.24 497.55 C 402.41 497.25 402.59 496.95 402.76 496.65 C 402.94 496.35 403.11 496.04 403.28 495.74 C 403.46 495.44 403.63 495.14 403.80 494.84 C 403.63 494.54 403.46 494.24 403.28 493.94 C 403.11 493.64 402.94 493.34 402.76 493.04 C 402.59 492.74 402.41 492.44 402.24 492.14 C 402.07 491.84 401.89 491.53 401.72 491.23 C 401.55 490.93 401.37 490.63 401.20 490.33 C 401.55 490.33 401.89 490.33 402.24 490.33 C 402.59 490.33 402.94 490.33 403.28 490.33 C 403.63 490.33 403.98 490.33 404.33 490.33 C 404.67 490.33 405.02 490.33 405.37 490.33 C 405.71 490.33 406.06 490.33 406.41 490.33 C 406.58 490.03 406.76 489.73 406.93 489.43 C 407.10 489.13 407.28 488.83 407.45 488.53 C 407.62 488.23 407.80 487.92 407.97 487.62 C 408.14 487.32 408.32 487.02 408.49 486.72 C 408.67 486.42 408.84 486.12 409.01 485.82 C 409.19 486.12 409.36 486.42 409.53 486.72 C 409.71 487.02 409.88 487.32 410.06 487.62 C 410.23 487.92 410.40 488.23 410.58 488.53 C 410.75 488.83 410.92 489.13 411.10 489.43 C 411.27 489.73 411.44 490.03 411.62 490.33 C 411.96 490.33 412.31 490.33 412.66 490.33 C 413.01 490.33 413.35 490.33 413.70 490.33 C 414.05 490.33 414.40 490.33 414.74 490.33 C 415.09 490.33 415.44 490.33 415.78 490.33 C 416.13 490.33 416.48 490.33 416.83 490.33 C 416.65 490.63 416.48 490.93 416.31 491.23 C 416.13 491.53 415.96 491.84 415.79 492.14 C 415.61 492.44 415.44 492.74 415.26 493.04 C 415.09 493.34 414.92 493.64 414.74 493.94 C 414.57 494.24 414.40 494.54 414.22 494.84 C 414.40 495.14 414.57 495.44 414.74 495.74 C 414.92 496.04 415.09 496.35 415.26 496.65 C 415.44 496.95 415.61 497.25 415.79 497.55 C 415.96 497.85 416.13 498.15 416.31 498.45 C 416.48 498.75 416.65 499.05 416.83 499.35 C 417.17 499.35 417.52 499.35 417.87 499.35 C 418.22 499.35 418.56 499.35 418.91 499.35 C 419.26 499.35 419.60 499.35 419.95 499.35 C 420.30 499.35 420.65 499.35 420.99 499.35 C 421.34 499.35 421.69 499.35 422.03 499.35 C 422.21 499.05 422.38 498.75 422.56 498.45 C 422.73 498.15 422.90 497.85 423.08 497.55 C 423.25 497.25 423.42 496.95 423.60 496.65 C 423.77 496.35 423.94 496.04 424.12 495.74 C 424.29 495.44 424.47 495.14 424.64 494.84 C 424.81 495.14 424.99 495.44 425.16 495.74 C 425.33 496.04 425.51 496.35 425.68 496.65 C 425.86 496.95 426.03 497.25 426.20 497.55 C 426.38 497.85 426.55 498.15 426.72 498.45 C 426.90 498.75 427.07 499.05 427.24 499.35 C 427.59 499.35 427.94 499.35 428.29 499.35 C 428.63 499.35 428.98 499.35 429.33 499.35 C 429.67 499.35 430.02 499.35 430.37 499.35 C 430.72 499.35 431.06 499.35 431.41 499.35 C 431.76 499.35 432.11 499.35 432.45 499.35" />
            </g></svg>