<?xml version="1.0" encoding="utf-8" ?>
<svg baseProfile="full" height="300" version="1.1" width="99" xmlns="http://www.w3.org/2000/svg" xmlns:ev="http://www.w3.org/2001/xml-events" xmlns:xlink="http://www.w3.org/1999/xlink">
    
            <g style="fill:rgb(0.0 0.0 256.0);stroke:rgb(0.0 0.0 0.0);stroke-width:0.9;fill-opacity:1.0">
                <path d="M 36.34 18.49 C 36.34 17.30 36.15 16.12 35.79 14.99 C 35.42 13.86 34.88 12.80 34.18 11.83 C 33.48 10.87 32.63 10.03 31.67 9.33 C 30.71 8.63 29.64 8.09 28.51 7.72 C 27.38 7.35 26.20 7.16 25.01 7.16 C 23.82 7.16 22.64 7.35 21.51 7.72 C 20.38 8.09 19.32 8.63 18.35 9.33 C 17.39 10.03 16.55 10.87 15.85 11.83 C 15.15 12.80 14.61 13.86 14.24 14.99 C 13.87 16.12 13.69 17.30 13.69 18.49 C 13.69 19.68 13.87 20.86 14.24 21.99 C 14.61 23.12 15.15 24.19 15.85 25.15 C 16.55 26.11 17.39 26.96 18.35 27.66 C 19.32 28.36 20.38 28.90 21.51 29.27 C 22.64 29.63 23.82 29.82 25.01 29.82 C 26.20 29.82 27.38 29.63 28.51 29.27 C 29.64 28.90 30.71 28.36 31.67 27.66 C 32.63 26.96 33.48 26.11 34.18 25.15 C 34.88 24.19 35.42 23.12 35.79 21.99 C 36.15 20.86 36.34 19.68 36.34 18.49 Z" />
            </g>
            <g style="fill:rgb(0.0 0.0 256.0);stroke:rgb(256.0 0.0 0.0);stroke-width:0.9;fill-opacity:1.0">
                <path d="M 26.15 18.49 C 26.15 18.37 26.13 18.26 26.09 18.14 C 26.05 18.03 26.00 17.92 25.93 17.83 C 25.86 17.73 25.77 17.65 25.68 17.58 C 25.58 17.51 25.48 17.45 25.36 17.41 C 25.25 17.38 25.13 17.36 25.01 17.36 C 24.89 17.36 24.78 17.38 24.66 17.41 C 24.55 17.45 24.44 17.51 24.35 17.58 C 24.25 17.65 24.17 17.73 24.10 17.83 C 24.03 17.92 23.97 18.03 23.94 18.14 C 23.90 18.26 23.88 18.37 23.88 18.49 C 23.88 18.61 23.90 18.73 23.94 18.84 C 23.97 18.96 24.03 19.06 24.10 19.16 C 24.17 19.25 24.25 19.34 24.35 19.41 C 24.44 19.48 24.55 19.53 24.66 19.57 C 24.78 19.61 24.89 19.63 25.01 19.63 C 25.13 19.63 25.25 19.61 25.36 19.57 C 25.48 19.53 25.58 19.48 25.68 19.41 C 25.77 19.34 25.86 19.25 25.93 19.16 C 26.00 19.06 26.05 18.96 26.09 18.84 C 26.13 18.73 26.15 18.61 26.15 18.49 Z" />
            </g>
            <g style="fill:rgb(0.0 0.0 256.0);stroke:rgb(0.0 0.0 0.0);stroke-width:0.0;fill-opacity:0.0">
                <path d="M 25.01 41.16 C 25.01 40.40 25.01 39.65 25.01 38.89 C 25.01 38.14 25.01 37.38 25.01 36.63 C 25.01 35.87 25.01 35.12 25.01 34.36 C 25.01 33.61 25.01 32.85 25.01 32.10 C 25.01 31.34 25.01 30.59 25.01 29.83 C 25.01 29.83 25.01 29.83 25.01 29.82 C 25.01 29.82 25.01 29.82 25.01 29.82 C 25.01 29.82 25.01 29.82 25.01 29.82 C 25.01 29.82 25.01 29.82 25.01 29.82 C 25.01 29.83 25.01 29.83 25.01 29.83 C 25.01 30.59 25.01 31.34 25.01 32.10 C 25.01 32.85 25.01 33.61 25.01 34.36 C 25.01 35.12 25.01 35.87 25.01 36.63 C 25.01 37.38 25.01 38.14 25.01 38.89 C 25.01 39.65 25.01 40.40 25.01 41.16 C 25.01 41.16 25.01 41.16 25.01 41.17 C 25.01 41.17 25.01 41.17 25.01 41.17 C 25.01 41.17 25.01 41.17 25.01 41.17 C 25.01 41.17 25.01 41.17 25.01 41.17 C 25.01 41.16 25.01 41.16 25.01 41.16 Z" />
            </g>
            <g style="fill:rgb(0.0 0.0 256.0);stroke:rgb(0.0 0.0 0.0);stroke-width:0.9;fill-opacity:1.0">
                <path d="M 36.34 63.83 C 36.34 65.02 36.15 66.20 35.79 67.33 C 35.42 68.46 34.88 69.52 34.18 70.48 C 33.48 71.45 32.63 72.29 31.67 72.99 C 30.71 73.69 29.64 74.23 28.51 74.60 C 27.38 74.97 26.20 75.15 25.01 75.15 C 23.82 75.15 22.64 74.97 21.51 74.60 C 20.38 74.23 19.32 73.69 18.35 72.99 C 17.39 72.29 16.55 71.45 15.85 70.48 C 15.15 69.52 14.61 68.46 14.24 67.33 C 13.87 66.20 13.69 65.02 13.69 63.83 C 13.69 62.64 13.87 61.46 14.24 60.33 C 14.61 59.20 15.15 58.13 15.85 57.17 C 16.55 56.21 17.39 55.36 18.35 54.66 C 19.32 53.96 20.38 53.42 21.51 53.05 C 22.64 52.69 23.82 52.50 25.01 52.50 C 26.20 52.50 27.38 52.69 28.51 53.05 C 29.64 53.42 30.71 53.96 31.67 54.66 C 32.63 55.36 33.48 56.21 34.18 57.17 C 34.88 58.13 35.42 59.20 35.79 60.33 C 36.15 61.46 36.34 62.64 36.34 63.83 Z" />
            </g>
            <g style="fill:rgb(0.0 0.0 256.0);stroke:rgb(0.0 0.0 0.0);stroke-width:0.0;fill-opacity:0.0">
                <path d="M 25.01 97.82 C 25.01 97.07 25.01 96.31 25.01 95.56 C 25.01 94.80 25.01 94.05 25.01 93.29 C 25.01 92.54 25.01 91.78 25.01 91.02 C 25.01 90.27 25.01 89.51 25.01 88.76 C 25.01 88.00 25.01 87.25 25.01 86.49 C 25.01 86.49 25.01 86.49 25.01 86.49 C 25.01 86.48 25.01 86.48 25.01 86.48 C 25.01 86.48 25.01 86.48 25.01 86.48 C 25.01 86.48 25.01 86.48 25.01 86.49 C 25.01 86.49 25.01 86.49 25.01 86.49 C 25.01 87.25 25.01 88.00 25.01 88.76 C 25.01 89.51 25.01 90.27 25.01 91.02 C 25.01 91.78 25.01 92.54 25.01 93.29 C 25.01 94.05 25.01 94.80 25.01 95.56 C 25.01 96.31 25.01 97.07 25.01 97.82 C 25.01 97.82 25.01 97.83 25.01 97.83 C 25.01 97.83 25.01 97.83 25.01 97.83 C 25.01 97.83 25.01 97.83 25.01 97.83 C 25.01 97.83 25.01 97.83 25.01 97.83 C 25.01 97.83 25.01 97.82 25.01 97.82 Z" />
            </g>
            <g style="fill:rgb(0.0 0.0 256.0);stroke:rgb(0.0 0.0 0.0);stroke-width:0.9;fill-opacity:0">
                <path d="M 25.01 109.16 C 25.01 106.77 25.77 104.44 27.18 102.50 C 28.58 100.57 30.57 99.13 32.84 98.39 C 35.12 97.65 37.57 97.65 39.84 98.39 C 42.12 99.13 44.10 100.57 45.51 102.50 C 46.91 104.44 47.67 106.77 47.67 109.16" />
            </g>
            <g style="fill:rgb(0.0 0.0 256.0);stroke:rgb(256.0 0.0 0.0);stroke-width:0.9;fill-opacity:1.0">
                <path d="M 26.15 109.16 C 26.15 109.04 26.13 108.92 26.09 108.81 C 26.05 108.70 26.00 108.59 25.93 108.49 C 25.86 108.40 25.77 108.31 25.68 108.24 C 25.58 108.17 25.48 108.12 25.36 108.08 C 25.25 108.05 25.13 108.03 25.01 108.03 C 24.89 108.03 24.78 108.05 24.66 108.08 C 24.55 108.12 24.44 108.17 24.35 108.24 C 24.25 108.31 24.17 108.40 24.10 108.49 C 24.03 108.59 23.97 108.70 23.94 108.81 C 23.90 108.92 23.88 109.04 23.88 109.16 C 23.88 109.28 23.90 109.40 23.94 109.51 C 23.97 109.62 24.03 109.73 24.10 109.83 C 24.17 109.92 24.25 110.01 24.35 110.08 C 24.44 110.15 24.55 110.20 24.66 110.24 C 24.78 110.27 24.89 110.29 25.01 110.29 C 25.13 110.29 25.25 110.27 25.36 110.24 C 25.48 110.20 25.58 110.15 25.68 110.08 C 25.77 110.01 25.86 109.92 25.93 109.83 C 26.00 109.73 26.05 109.62 26.09 109.51 C 26.13 109.40 26.15 109.28 26.15 109.16 Z" />
            </g>
            <g style="fill:rgb(0.0 0.0 256.0);stroke:rgb(0.0 0.0 0.0);stroke-width:0.0;fill-opacity:0.0">
                <path d="M 25.01 121.63 C 25.01 120.88 25.01 120.12 25.01 119.37 C 25.01 118.61 25.01 117.86 25.01 117.10 C 25.01 116.35 25.01 115.59 25.01 114.84 C 25.01 114.08 25.01 113.33 25.01 112.57 C 25.01 111.82 25.01 111.06 25.01 110.30 C 25.01 110.30 25.01 110.30 25.01 110.30 C 25.01 110.30 25.01 110.29 25.01 110.29 C 25.01 110.29 25.01 110.29 25.01 110.29 C 25.01 110.29 25.01 110.30 25.01 110.30 C 25.01 110.30 25.01 110.30 25.01 110.30 C 25.01 111.06 25.01 111.82 25.01 112.57 C 25.01 113.33 25.01 114.08 25.01 114.84 C 25.01 115.59 25.01 116.35 25.01 117.10 C 25.01 117.86 25.01 118.61 25.01 119.37 C 25.01 120.12 25.01 120.88 25.01 121.63 C 25.01 121.64 25.01 121.64 25.01 121.64 C 25.01 121.64 25.01 121.64 25.01 121.64 C 25.01 121.64 25.01 121.64 25.01 121.64 C 25.01 121.64 25.01 121.64 25.01 121.64 C 25.01 121.64 25.01 121.64 25.01 121.63 Z" />
            </g>
            <g style="fill:rgb(0.0 0.0 256.0);stroke:rgb(0.0 0.0 0.0);stroke-width:0.9;fill-opacity:0">
                <path d="M 25.01 122.78 C 25.01 125.17 25.77 127.50 27.18 129.44 C 28.58 131.37 30.57 132.81 32.84 133.55 C 35.12 134.29 37.57 134.29 39.84 133.55 C 42.12 132.81 44.10 131.37 45.51 129.44 C 46.91 127.50 47.67 125.17 47.67 122.78" />
            </g>
            <g style="fill:rgb(0.0 0.0 256.0);stroke:rgb(256.0 0.0 0.0);stroke-width:0.9;fill-opacity:1.0">
                <path d="M 26.15 122.78 C 26.15 122.66 26.13 122.54 26.09 122.43 C 26.05 122.31 26.00 122.21 25.93 122.11 C 25.86 122.01 25.77 121.93 25.68 121.86 C 25.58 121.79 25.48 121.74 25.36 121.70 C 25.25 121.66 25.13 121.64 25.01 121.64 C 24.89 121.64 24.78 121.66 24.66 121.70 C 24.55 121.74 24.44 121.79 24.35 121.86 C 24.25 121.93 24.17 122.01 24.10 122.11 C 24.03 122.21 23.97 122.31 23.94 122.43 C 23.90 122.54 23.88 122.66 23.88 122.78 C 23.88 122.90 23.90 123.01 23.94 123.13 C 23.97 123.24 24.03 123.35 24.10 123.44 C 24.17 123.54 24.25 123.62 24.35 123.69 C 24.44 123.76 24.55 123.82 24.66 123.85 C 24.78 123.89 24.89 123.91 25.01 123.91 C 25.13 123.91 25.25 123.89 25.36 123.85 C 25.48 123.82 25.58 123.76 25.68 123.69 C 25.77 123.62 25.86 123.54 25.93 123.44 C 26.00 123.35 26.05 123.24 26.09 123.13 C 26.13 123.01 26.15 122.90 26.15 122.78 Z" />
            </g>
            <g style="fill:rgb(0.0 0.0 256.0);stroke:rgb(0.0 0.0 0.0);stroke-width:0.0;fill-opacity:0.0">
                <path d="M 25.01 145.44 C 25.01 144.69 25.01 143.93 25.01 143.18 C 25.01 142.42 25.01 141.67 25.01 140.91 C 25.01 140.16 25.01 139.40 25.01 138.65 C 25.01 137.89 25.01 137.14 25.01 136.38 C 25.01 135.63 25.01 134.87 25.01 134.12 C 25.01 134.11 25.01 134.11 25.01 134.11 C 25.01 134.11 25.01 134.11 25.01 134.11 C 25.01 134.10 25.01 134.10 25.01 134.11 C 25.01 134.11 25.01 134.11 25.01 134.11 C 25.01 134.11 25.01 134.11 25.01 134.12 C 25.01 134.87 25.01 135.63 25.01 136.38 C 25.01 137.14 25.01 137.89 25.01 138.65 C 25.01 139.40 25.01 140.16 25.01 140.91 C 25.01 141.67 25.01 142.42 25.01 143.18 C 25.01 143.93 25.01 144.69 25.01 145.44 C 25.01 145.45 25.01 145.45 25.01 145.45 C 25.01 145.45 25.01 145.45 25.01 145.45 C 25.01 145.46 25.01 145.46 25.01 145.45 C 25.01 145.45 25.01 145.45 25.01 145.45 C 25.01 145.45 25.01 145.45 25.01 145.44 Z" />
            </g>
            <g style="fill:rgb(0.0 0.0 256.0);stroke:rgb(0.0 0.0 0.0);stroke-width:0.9;fill-opacity:0">
                <path d="M 25.01 150.29 C 25.96 148.31 27.63 146.78 29.68 146.00 C 31.73 145.23 34.00 145.28 36.01 146.14 C 38.03 147.00 39.63 148.60 40.49 150.62 C 41.35 152.63 41.40 154.90 40.63 156.95 C 39.85 159.00 38.32 160.67 36.34 161.62" />
            </g>
            <g style="fill:rgb(0.0 0.0 256.0);stroke:rgb(256.0 0.0 0.0);stroke-width:0.9;fill-opacity:1.0">
                <path d="M 26.15 150.29 C 26.15 150.17 26.13 150.05 26.09 149.94 C 26.05 149.83 26.00 149.72 25.93 149.62 C 25.86 149.53 25.77 149.44 25.68 149.37 C 25.58 149.30 25.48 149.25 25.36 149.21 C 25.25 149.18 25.13 149.16 25.01 149.16 C 24.89 149.16 24.78 149.18 24.66 149.21 C 24.55 149.25 24.44 149.30 24.35 149.37 C 24.25 149.44 24.17 149.53 24.10 149.62 C 24.03 149.72 23.97 149.83 23.94 149.94 C 23.90 150.05 23.88 150.17 23.88 150.29 C 23.88 150.41 23.90 150.53 23.94 150.64 C 23.97 150.75 24.03 150.86 24.10 150.96 C 24.17 151.05 24.25 151.14 24.35 151.21 C 24.44 151.28 24.55 151.33 24.66 151.37 C 24.78 151.40 24.89 151.42 25.01 151.42 C 25.13 151.42 25.25 151.40 25.36 151.37 C 25.48 151.33 25.58 151.28 25.68 151.21 C 25.77 151.14 25.86 151.05 25.93 150.96 C 26.00 150.86 26.05 150.75 26.09 150.64 C 26.13 150.53 26.15 150.41 26.15 150.29 Z" />
            </g>
            <g style="fill:rgb(0.0 0.0 256.0);stroke:rgb(0.0 0.0 0.0);stroke-width:0.0;fill-opacity:0.0">
                <path d="M 25.01 172.96 C 25.01 172.20 25.01 171.45 25.01 170.69 C 25.01 169.94 25.01 169.18 25.01 168.43 C 25.01 167.67 25.01 166.92 25.01 166.16 C 25.01 165.40 25.01 164.65 25.01 163.89 C 25.01 163.14 25.01 162.38 25.01 161.63 C 25.01 161.63 25.01 161.62 25.01 161.62 C 25.01 161.62 25.01 161.62 25.01 161.62 C 25.01 161.62 25.01 161.62 25.01 161.62 C 25.01 161.62 25.01 161.62 25.01 161.62 C 25.01 161.62 25.01 161.63 25.01 161.63 C 25.01 162.38 25.01 163.14 25.01 163.89 C 25.01 164.65 25.01 165.40 25.01 166.16 C 25.01 166.92 25.01 167.67 25.01 168.43 C 25.01 169.18 25.01 169.94 25.01 170.69 C 25.01 171.45 25.01 172.20 25.01 172.96 C 25.01 172.96 25.01 172.96 25.01 172.96 C 25.01 172.97 25.01 172.97 25.01 172.97 C 25.01 172.97 25.01 172.97 25.01 172.97 C 25.01 172.97 25.01 172.97 25.01 172.96 C 25.01 172.96 25.01 172.96 25.01 172.96 Z" />
            </g>
            <g style="fill:rgb(0.0 0.0 256.0);stroke:rgb(0.0 0.0 0.0);stroke-width:0.9;fill-opacity:0">
                <path d="M 25.01 184.30 C 24.07 186.27 22.40 187.81 20.35 188.58 C 18.30 189.36 16.03 189.31 14.01 188.45 C 12.00 187.59 10.39 185.98 9.53 183.97 C 8.67 181.95 8.62 179.68 9.40 177.63 C 10.17 175.58 11.71 173.91 13.69 172.97" />
            </g>
            <g style="fill:rgb(0.0 0.0 256.0);stroke:rgb(256.0 0.0 0.0);stroke-width:0.9;fill-opacity:1.0">
                <path d="M 26.15 184.30 C 26.15 184.18 26.13 184.06 26.09 183.95 C 26.05 183.83 26.00 183.73 25.93 183.63 C 25.86 183.53 25.77 183.45 25.68 183.38 C 25.58 183.31 25.48 183.26 25.36 183.22 C 25.25 183.18 25.13 183.16 25.01 183.16 C 24.89 183.16 24.78 183.18 24.66 183.22 C 24.55 183.26 24.44 183.31 24.35 183.38 C 24.25 183.45 24.17 183.53 24.10 183.63 C 24.03 183.73 23.97 183.83 23.94 183.95 C 23.90 184.06 23.88 184.18 23.88 184.30 C 23.88 184.41 23.90 184.53 23.94 184.65 C 23.97 184.76 24.03 184.87 24.10 184.96 C 24.17 185.06 24.25 185.14 24.35 185.21 C 24.44 185.28 24.55 185.34 24.66 185.37 C 24.78 185.41 24.89 185.43 25.01 185.43 C 25.13 185.43 25.25 185.41 25.36 185.37 C 25.48 185.34 25.58 185.28 25.68 185.21 C 25.77 185.14 25.86 185.06 25.93 184.96 C 26.00 184.87 26.05 184.76 26.09 184.65 C 26.13 184.53 26.15 184.41 26.15 184.30 Z" />
            </g>
            <g style="fill:rgb(0.0 0.0 256.0);stroke:rgb(0.0 0.0 0.0);stroke-width:0.0;fill-opacity:0.0">
                <path d="M 25.01 200.47 C 25.01 199.71 25.01 198.96 25.01 198.20 C 25.01 197.45 25.01 196.69 25.01 195.94 C 25.01 195.18 25.01 194.43 25.01 193.67 C 25.01 192.92 25.01 192.16 25.01 191.41 C 25.01 190.65 25.01 189.90 25.01 189.14 C 25.01 189.14 25.01 189.14 25.01 189.13 C 25.01 189.13 25.01 189.13 25.01 189.13 C 25.01 189.13 25.01 189.13 25.01 189.13 C 25.01 189.13 25.01 189.13 25.01 189.13 C 25.01 189.14 25.01 189.14 25.01 189.14 C 25.01 189.90 25.01 190.65 25.01 191.41 C 25.01 192.16 25.01 192.92 25.01 193.67 C 25.01 194.43 25.01 195.18 25.01 195.94 C 25.01 196.69 25.01 197.45 25.01 198.20 C 25.01 198.96 25.01 199.71 25.01 200.47 C 25.01 200.47 25.01 200.48 25.01 200.48 C 25.01 200.48 25.01 200.48 25.01 200.48 C 25.01 200.48 25.01 200.48 25.01 200.48 C 25.01 200.48 25.01 200.48 25.01 200.48 C 25.01 200.48 25.01 200.47 25.01 200.47 Z" />
            </g>
            <g style="fill:rgb(0.0 0.0 256.0);stroke:rgb(0.0 0.0 0.0);stroke-width:0.9;fill-opacity:0">
                <path d="M 25.01 201.61 C 23.04 202.56 21.50 204.23 20.73 206.28 C 19.95 208.33 20.00 210.60 20.86 212.61 C 21.72 214.63 23.33 216.24 25.34 217.09 C 27.35 217.95 29.63 218.00 31.68 217.23 C 33.72 216.46 35.40 214.92 36.34 212.94" />
            </g>
            <g style="fill:rgb(0.0 0.0 256.0);stroke:rgb(256.0 0.0 0.0);stroke-width:0.9;fill-opacity:1.0">
                <path d="M 26.15 201.61 C 26.15 201.50 26.13 201.38 26.09 201.26 C 26.05 201.15 26.00 201.04 25.93 200.95 C 25.86 200.85 25.77 200.77 25.68 200.70 C 25.58 200.63 25.48 200.57 25.36 200.54 C 25.25 200.50 25.13 200.48 25.01 200.48 C 24.89 200.48 24.78 200.50 24.66 200.54 C 24.55 200.57 24.44 200.63 24.35 200.70 C 24.25 200.77 24.17 200.85 24.10 200.95 C 24.03 201.04 23.97 201.15 23.94 201.26 C 23.90 201.38 23.88 201.50 23.88 201.61 C 23.88 201.73 23.90 201.85 23.94 201.96 C 23.97 202.08 24.03 202.18 24.10 202.28 C 24.17 202.38 24.25 202.46 24.35 202.53 C 24.44 202.60 24.55 202.65 24.66 202.69 C 24.78 202.73 24.89 202.75 25.01 202.75 C 25.13 202.75 25.25 202.73 25.36 202.69 C 25.48 202.65 25.58 202.60 25.68 202.53 C 25.77 202.46 25.86 202.38 25.93 202.28 C 26.00 202.18 26.05 202.08 26.09 201.96 C 26.13 201.85 26.15 201.73 26.15 201.61 Z" />
            </g>
            <g style="fill:rgb(0.0 0.0 256.0);stroke:rgb(0.0 0.0 0.0);stroke-width:0.0;fill-opacity:0.0">
                <path d="M 25.01 229.12 C 25.01 228.36 25.01 227.61 25.01 226.85 C 25.01 226.09 25.01 225.34 25.01 224.58 C 25.01 223.83 25.01 223.07 25.01 222.32 C 25.01 221.56 25.01 220.81 25.01 220.05 C 25.01 219.30 25.01 218.54 25.01 217.79 C 25.01 217.78 25.01 217.78 25.01 217.78 C 25.01 217.78 25.01 217.78 25.01 217.78 C 25.01 217.78 25.01 217.78 25.01 217.78 C 25.01 217.78 25.01 217.78 25.01 217.78 C 25.01 217.78 25.01 217.78 25.01 217.79 C 25.01 218.54 25.01 219.30 25.01 220.05 C 25.01 220.81 25.01 221.56 25.01 222.32 C 25.01 223.07 25.01 223.83 25.01 224.58 C 25.01 225.34 25.01 226.09 25.01 226.85 C 25.01 227.61 25.01 228.36 25.01 229.12 C 25.01 229.12 25.01 229.12 25.01 229.12 C 25.01 229.12 25.01 229.13 25.01 229.13 C 25.01 229.13 25.01 229.13 25.01 229.13 C 25.01 229.13 25.01 229.12 25.01 229.12 C 25.01 229.12 25.01 229.12 25.01 229.12 Z" />
            </g>
            <g style="fill:rgb(0.0 0.0 256.0);stroke:rgb(0.0 0.0 0.0);stroke-width:0.9;fill-opacity:0">
                <path d="M 25.01 246.09 C 24.17 245.25 23.88 243.89 24.19 242.21 C 24.50 240.53 25.39 238.62 26.74 236.75 C 28.09 234.88 29.82 233.15 31.69 231.80 C 33.56 230.45 35.47 229.56 37.15 229.25 C 38.83 228.94 40.19 229.23 41.03 230.07" />
            </g>
            <g style="fill:rgb(0.0 0.0 256.0);stroke:rgb(256.0 0.0 0.0);stroke-width:0.9;fill-opacity:1.0">
                <path d="M 26.15 246.09 C 26.15 245.97 26.13 245.86 26.09 245.74 C 26.05 245.63 26.00 245.52 25.93 245.43 C 25.86 245.33 25.77 245.25 25.68 245.18 C 25.58 245.11 25.48 245.05 25.36 245.02 C 25.25 244.98 25.13 244.96 25.01 244.96 C 24.89 244.96 24.78 244.98 24.66 245.02 C 24.55 245.05 24.44 245.11 24.35 245.18 C 24.25 245.25 24.17 245.33 24.10 245.43 C 24.03 245.52 23.97 245.63 23.94 245.74 C 23.90 245.86 23.88 245.97 23.88 246.09 C 23.88 246.21 23.90 246.33 23.94 246.44 C 23.97 246.56 24.03 246.66 24.10 246.76 C 24.17 246.85 24.25 246.94 24.35 247.01 C 24.44 247.08 24.55 247.13 24.66 247.17 C 24.78 247.21 24.89 247.23 25.01 247.23 C 25.13 247.23 25.25 247.21 25.36 247.17 C 25.48 247.13 25.58 247.08 25.68 247.01 C 25.77 246.94 25.86 246.85 25.93 246.76 C 26.00 246.66 26.05 246.56 26.09 246.44 C 26.13 246.33 26.15 246.21 26.15 246.09 Z" />
            </g>
            <g style="fill:rgb(0.0 0.0 256.0);stroke:rgb(0.0 0.0 0.0);stroke-width:0.0;fill-opacity:0.0">
                <path d="M 25.01 258.56 C 25.01 257.81 25.01 257.05 25.01 256.30 C 25.01 255.54 25.01 254.79 25.01 254.03 C 25.01 253.28 25.01 252.52 25.01 251.77 C 25.01 251.01 25.01 250.26 25.01 249.50 C 25.01 248.75 25.01 247.99 25.01 247.24 C 25.01 247.23 25.01 247.23 25.01 247.23 C 25.01 247.23 25.01 247.23 25.01 247.23 C 25.01 247.23 25.01 247.23 25.01 247.23 C 25.01 247.23 25.01 247.23 25.01 247.23 C 25.01 247.23 25.01 247.23 25.01 247.24 C 25.01 247.99 25.01 248.75 25.01 249.50 C 25.01 250.26 25.01 251.01 25.01 251.77 C 25.01 252.52 25.01 253.28 25.01 254.03 C 25.01 254.79 25.01 255.54 25.01 256.30 C 25.01 257.05 25.01 257.81 25.01 258.56 C 25.01 258.57 25.01 258.57 25.01 258.57 C 25.01 258.57 25.01 258.57 25.01 258.58 C 25.01 258.58 25.01 258.58 25.01 258.58 C 25.01 258.57 25.01 258.57 25.01 258.57 C 25.01 258.57 25.01 258.57 25.01 258.56 Z" />
            </g>
            <g style="fill:rgb(0.0 0.0 256.0);stroke:rgb(0.0 0.0 0.0);stroke-width:0.9;fill-opacity:1.0">
                <path d="M 19.35 258.59 C 20.10 258.58 20.86 258.58 21.61 258.58 C 22.37 258.58 23.12 258.58 23.88 258.58 C 24.64 258.58 25.39 258.58 26.15 258.58 C 26.90 258.58 27.66 258.58 28.41 258.58 C 29.17 258.58 29.92 258.58 30.68 258.59 C 30.68 259.34 30.68 260.10 30.68 260.85 C 30.69 261.61 30.69 262.36 30.69 263.12 C 30.69 263.87 30.69 264.63 30.69 265.38 C 30.69 266.14 30.69 266.89 30.68 267.65 C 30.68 268.40 30.68 269.16 30.68 269.91 C 29.92 269.92 29.17 269.92 28.41 269.92 C 27.66 269.92 26.90 269.93 26.15 269.93 C 25.39 269.93 24.64 269.93 23.88 269.93 C 23.12 269.93 22.37 269.92 21.61 269.92 C 20.86 269.92 20.10 269.92 19.35 269.91 C 19.35 269.16 19.34 268.40 19.34 267.65 C 19.34 266.89 19.34 266.14 19.34 265.38 C 19.34 264.63 19.34 263.87 19.34 263.12 C 19.34 262.36 19.34 261.61 19.34 260.85 C 19.34 260.10 19.35 259.34 19.35 258.59 Z" />
            </g>
            <g style="fill:rgb(0.0 0.0 256.0);stroke:rgb(256.0 0.0 0.0);stroke-width:0.9;fill-opacity:1.0">
                <path d="M 26.15 264.25 C 26.15 264.13 26.13 264.01 26.09 263.90 C 26.05 263.79 26.00 263.68 25.93 263.59 C 25.86 263.49 25.77 263.40 25.68 263.33 C 25.58 263.26 25.48 263.21 25.36 263.17 C 25.25 263.14 25.13 263.12 25.01 263.12 C 24.89 263.12 24.78 263.14 24.66 263.17 C 24.55 263.21 24.44 263.26 24.35 263.33 C 24.25 263.40 24.17 263.49 24.10 263.59 C 24.03 263.68 23.97 263.79 23.94 263.90 C 23.90 264.01 23.88 264.13 23.88 264.25 C 23.88 264.37 23.90 264.49 23.94 264.60 C 23.97 264.71 24.03 264.82 24.10 264.92 C 24.17 265.01 24.25 265.10 24.35 265.17 C 24.44 265.24 24.55 265.29 24.66 265.33 C 24.78 265.37 24.89 265.38 25.01 265.38 C 25.13 265.38 25.25 265.37 25.36 265.33 C 25.48 265.29 25.58 265.24 25.68 265.17 C 25.77 265.10 25.86 265.01 25.93 264.92 C 26.00 264.82 26.05 264.71 26.09 264.60 C 26.13 264.49 26.15 264.37 26.15 264.25 Z" />
            </g>
            <g style="fill:rgb(0.0 0.0 256.0);stroke:rgb(0.0 0.0 0.0);stroke-width:0.0;fill-opacity:0.0">
                <path d="M 25.01 281.27 C 25.01 280.51 25.01 279.76 25.01 279.00 C 25.01 278.24 25.01 277.49 25.01 276.73 C 25.01 275.98 25.01 275.22 25.01 274.47 C 25.01 273.71 25.01 272.96 25.01 272.20 C 25.01 271.45 25.01 270.69 25.01 269.94 C 25.01 269.93 25.01 269.93 25.01 269.93 C 25.01 269.93 25.01 269.93 25.01 269.93 C 25.01 269.93 25.01 269.93 25.01 269.93 C 25.01 269.93 25.01 269.93 25.01 269.93 C 25.01 269.93 25.01 269.93 25.01 269.94 C 25.01 270.69 25.01 271.45 25.01 272.20 C 25.01 272.96 25.01 273.71 25.01 274.47 C 25.01 275.22 25.01 275.98 25.01 276.73 C 25.01 277.49 25.01 278.24 25.01 279.00 C 25.01 279.76 25.01 280.51 25.01 281.27 C 25.01 281.27 25.01 281.27 25.01 281.27 C 25.01 281.27 25.01 281.28 25.01 281.28 C 25.01 281.28 25.01 281.28 25.01 281.28 C 25.01 281.28 25.01 281.27 25.01 281.27 C 25.01 281.27 25.01 281.27 25.01 281.27 Z" />
            </g>
            <g style="fill:rgb(0.0 0.0 256.0);stroke:rgb(0.0 0.0 0.0);stroke-width:0.9;fill-opacity:0">
                <path d="M 25.01 292.60 C 25.01 290.82 25.44 289.05 26.25 287.46 C 27.06 285.87 28.24 284.49 29.68 283.44 C 31.13 282.39 32.80 281.70 34.57 281.42 C 36.33 281.14 38.14 281.28 39.84 281.83 C 41.54 282.38 43.09 283.33 44.35 284.59" />
            </g>
            <g style="fill:rgb(0.0 0.0 256.0);stroke:rgb(256.0 0.0 0.0);stroke-width:0.9;fill-opacity:1.0">
                <path d="M 26.15 292.60 C 26.15 292.49 26.13 292.37 26.09 292.25 C 26.05 292.14 26.00 292.04 25.93 291.94 C 25.86 291.84 25.77 291.76 25.68 291.69 C 25.58 291.62 25.48 291.56 25.36 291.53 C 25.25 291.49 25.13 291.47 25.01 291.47 C 24.89 291.47 24.78 291.49 24.66 291.53 C 24.55 291.56 24.44 291.62 24.35 291.69 C 24.25 291.76 24.17 291.84 24.10 291.94 C 24.03 292.04 23.97 292.14 23.94 292.25 C 23.90 292.37 23.88 292.49 23.88 292.60 C 23.88 292.72 23.90 292.84 23.94 292.95 C 23.97 293.07 24.03 293.17 24.10 293.27 C 24.17 293.37 24.25 293.45 24.35 293.52 C 24.44 293.59 24.55 293.65 24.66 293.68 C 24.78 293.72 24.89 293.74 25.01 293.74 C 25.13 293.74 25.25 293.72 25.36 293.68 C 25.48 293.65 25.58 293.59 25.68 293.52 C 25.77 293.45 25.86 293.37 25.93 293.27 C 26.00 293.17 26.05 293.07 26.09 292.95 C 26.13 292.84 26.15 292.72 26.15 292.60 Z" />
            </g>
            <g style="fill:rgb(0.0 0.0 256.0);stroke:rgb(0.0 0.0 0.0);stroke-width:0.0;fill-opacity:0.0">
                <path d="M 44.36 292.60 C 44.73 292.60 45.11 292.60 45.49 292.60 C 45.87 292.60 46.24 292.60 46.62 292.60 C 47.00 292.60 47.38 292.60 47.75 292.60 C 48.13 292.60 48.51 292.60 48.89 292.60 C 49.27 292.60 49.64 292.60 50.02 292.60 C 50.02 292.60 50.02 292.60 50.02 292.60 C 50.03 292.60 50.03 292.60 50.03 292.60 C 50.03 292.60 50.03 292.60 50.03 292.60 C 50.03 292.60 50.03 292.60 50.02 292.60 C 50.02 292.60 50.02 292.60 50.02 292.60 C 49.64 292.60 49.27 292.60 48.89 292.60 C 48.51 292.60 48.13 292.60 47.75 292.60 C 47.38 292.60 47.00 292.60 46.62 292.60 C 46.24 292.60 45.87 292.60 45.49 292.60 C 45.11 292.60 44.73 292.60 44.36 292.60 C 44.36 292.60 44.35 292.60 44.35 292.60 C 44.35 292.60 44.35 292.60 44.35 292.60 C 44.35 292.60 44.35 292.60 44.35 292.60 C 44.35 292.60 44.35 292.60 44.35 292.60 C 44.35 292.60 44.36 292.60 44.36 292.60 Z" />
            </g>
            <g style="fill:rgb(0.0 0.0 256.0);stroke:rgb(0.0 0.0 0.0);stroke-width:0.9;fill-opacity:0">
                <path d="M 69.36 292.60 C 69.36 290.82 68.94 289.05 68.13 287.46 C 67.32 285.87 66.14 284.49 64.69 283.44 C 63.25 282.39 61.57 281.70 59.81 281.42 C 58.04 281.14 56.24 281.28 54.54 281.83 C 52.84 282.38 51.29 283.33 50.03 284.59" />
            </g>
            <g style="fill:rgb(0.0 0.0 256.0);stroke:rgb(256.0 0.0 0.0);stroke-width:0.9;fill-opacity:1.0">
                <path d="M 70.50 292.60 C 70.50 292.49 70.48 292.37 70.44 292.25 C 70.40 292.14 70.35 292.04 70.28 291.94 C 70.21 291.84 70.13 291.76 70.03 291.69 C 69.93 291.62 69.83 291.56 69.71 291.53 C 69.60 291.49 69.48 291.47 69.36 291.47 C 69.25 291.47 69.13 291.49 69.01 291.53 C 68.90 291.56 68.79 291.62 68.70 291.69 C 68.60 291.76 68.52 291.84 68.45 291.94 C 68.38 292.04 68.32 292.14 68.29 292.25 C 68.25 292.37 68.23 292.49 68.23 292.60 C 68.23 292.72 68.25 292.84 68.29 292.95 C 68.32 293.07 68.38 293.17 68.45 293.27 C 68.52 293.37 68.60 293.45 68.70 293.52 C 68.79 293.59 68.90 293.65 69.01 293.68 C 69.13 293.72 69.25 293.74 69.36 293.74 C 69.48 293.74 69.60 293.72 69.71 293.68 C 69.83 293.65 69.93 293.59 70.03 293.52 C 70.13 293.45 70.21 293.37 70.28 293.27 C 70.35 293.17 70.40 293.07 70.44 292.95 C 70.48 292.84 70.50 292.72 70.50 292.60 Z" />
            </g>
            <g style="fill:rgb(0.0 0.0 256.0);stroke:rgb(0.0 0.0 0.0);stroke-width:0.0;fill-opacity:0.0">
                <path d="M 70.50 292.60 C 70.88 292.60 71.26 292.60 71.64 292.60 C 72.01 292.60 72.39 292.60 72.77 292.60 C 73.15 292.60 73.52 292.60 73.90 292.60 C 74.28 292.60 74.66 292.60 75.03 292.60 C 75.41 292.60 75.79 292.60 76.17 292.60 C 76.17 292.60 76.17 292.60 76.17 292.60 C 76.17 292.60 76.17 292.60 76.17 292.60 C 76.17 292.60 76.17 292.60 76.17 292.60 C 76.17 292.60 76.17 292.60 76.17 292.60 C 76.17 292.60 76.17 292.60 76.17 292.60 C 75.79 292.60 75.41 292.60 75.03 292.60 C 74.66 292.60 74.28 292.60 73.90 292.60 C 73.52 292.60 73.15 292.60 72.77 292.60 C 72.39 292.60 72.01 292.60 71.64 292.60 C 71.26 292.60 70.88 292.60 70.50 292.60 C 70.50 292.60 70.50 292.60 70.50 292.60 C 70.50 292.60 70.50 292.60 70.50 292.60 C 70.50 292.60 70.50 292.60 70.50 292.60 C 70.50 292.60 70.50 292.60 70.50 292.60 C 70.50 292.60 70.50 292.60 70.50 292.60 Z" />
            </g>
            <g style="fill:rgb(0.0 0.0 256.0);stroke:rgb(0.0 0.0 0.0);stroke-width:0.9;fill-opacity:0">
                <path d="M 95.51 292.60 C 95.51 290.82 95.09 289.05 94.28 287.46 C 93.46 285.87 92.29 284.49 90.84 283.44 C 89.39 282.39 87.72 281.70 85.95 281.42 C 84.19 281.14 82.38 281.28 80.68 281.83 C 78.98 282.38 77.44 283.33 76.17 284.59" />
            </g>
            <g style="fill:rgb(0.0 0.0 256.0);stroke:rgb(256.0 0.0 0.0);stroke-width:0.9;fill-opacity:1.0">
                <path d="M 96.64 292.60 C 96.64 292.49 96.62 292.37 96.59 292.25 C 96.55 292.14 96.50 292.04 96.43 291.94 C 96.36 291.84 96.27 291.76 96.18 291.69 C 96.08 291.62 95.97 291.56 95.86 291.53 C 95.75 291.49 95.63 291.47 95.51 291.47 C 95.39 291.47 95.27 291.49 95.16 291.53 C 95.05 291.56 94.94 291.62 94.84 291.69 C 94.75 291.76 94.66 291.84 94.59 291.94 C 94.52 292.04 94.47 292.14 94.43 292.25 C 94.40 292.37 94.38 292.49 94.38 292.60 C 94.38 292.72 94.40 292.84 94.43 292.95 C 94.47 293.07 94.52 293.17 94.59 293.27 C 94.66 293.37 94.75 293.45 94.84 293.52 C 94.94 293.59 95.05 293.65 95.16 293.68 C 95.27 293.72 95.39 293.74 95.51 293.74 C 95.63 293.74 95.75 293.72 95.86 293.68 C 95.97 293.65 96.08 293.59 96.18 293.52 C 96.27 293.45 96.36 293.37 96.43 293.27 C 96.50 293.17 96.55 293.07 96.59 292.95 C 96.62 292.84 96.64 292.72 96.64 292.60 Z" />
            </g></svg>