<?xml version="1.0" encoding="utf-8" ?>
<svg baseProfile="full" height="256" version="1.1" width="256" xmlns="http://www.w3.org/2000/svg" xmlns:ev="http://www.w3.org/2001/xml-events" xmlns:xlink="http://www.w3.org/1999/xlink">
    
            <g style="fill:rgb(256.0 256.0 256.0);stroke:rgb(256.0 151.59215686274507 0.0);stroke-width:0.1536;fill-opacity:1.0">
                <path d="M 11.67 6.35 C 14.83 6.67 17.99 7.00 21.14 7.33 C 24.30 7.66 27.46 8.00 30.62 8.33 C 33.77 8.67 36.93 9.01 40.09 9.35 C 43.24 9.69 46.40 10.04 49.56 10.38 C 52.71 10.73 55.87 11.08 59.02 11.43 C 58.70 14.59 58.37 17.74 58.04 20.90 C 57.71 24.06 57.37 27.22 57.04 30.37 C 56.70 33.53 56.36 36.69 56.02 39.84 C 55.68 43.00 55.34 46.16 54.99 49.31 C 54.64 52.47 54.30 55.63 53.94 58.78 C 50.79 58.46 47.63 58.13 44.47 57.80 C 41.31 57.47 38.15 57.13 35.00 56.80 C 31.84 56.46 28.68 56.12 25.53 55.78 C 22.37 55.44 19.21 55.09 16.06 54.75 C 12.90 54.40 9.75 54.05 6.59 53.70 C 6.92 50.54 7.24 47.39 7.58 44.23 C 7.91 41.07 8.24 37.91 8.58 34.76 C 8.91 31.60 9.25 28.44 9.59 25.29 C 9.93 22.13 10.28 18.97 10.62 15.82 C 10.97 12.66 11.32 9.50 11.67 6.35 Z" />
            </g>
            <g style="fill:rgb(256.0 256.0 256.0);stroke:rgb(0.0 95.37254901960779 219.85882352941175);stroke-width:0.1536;fill-opacity:1.0">
                <path d="M 7.67 10.15 C 10.84 9.96 14.01 9.76 17.18 9.58 C 20.35 9.39 23.52 9.20 26.69 9.02 C 29.86 8.83 33.03 8.65 36.20 8.47 C 39.37 8.29 42.54 8.12 45.71 7.94 C 48.88 7.77 52.05 7.60 55.22 7.43 C 55.42 10.60 55.61 13.77 55.80 16.94 C 55.98 20.11 56.17 23.28 56.35 26.45 C 56.54 29.62 56.72 32.79 56.90 35.96 C 57.08 39.13 57.25 42.30 57.43 45.47 C 57.60 48.64 57.77 51.81 57.94 54.98 C 54.77 55.17 51.60 55.37 48.43 55.55 C 45.26 55.74 42.09 55.93 38.92 56.11 C 35.75 56.30 32.58 56.48 29.41 56.66 C 26.24 56.84 23.07 57.01 19.90 57.19 C 16.73 57.36 13.56 57.53 10.39 57.70 C 10.20 54.53 10.01 51.36 9.82 48.19 C 9.63 45.02 9.44 41.85 9.26 38.68 C 9.07 35.51 8.89 32.34 8.71 29.17 C 8.54 26.00 8.36 22.83 8.19 19.66 C 8.01 16.49 7.84 13.32 7.67 10.15 Z" />
            </g>
            <g style="fill:rgb(256.0 256.0 256.0);stroke:rgb(256.0 151.59215686274507 0.0);stroke-width:0.1536;fill-opacity:1.0">
                <path d="M 9.74 8.03 C 12.92 8.11 16.09 8.20 19.26 8.29 C 22.44 8.38 25.61 8.47 28.79 8.57 C 31.96 8.67 35.13 8.76 38.31 8.87 C 41.48 8.97 44.65 9.07 47.83 9.18 C 51.00 9.28 54.17 9.39 57.35 9.50 C 57.26 12.68 57.17 15.85 57.08 19.02 C 56.99 22.20 56.90 25.37 56.80 28.54 C 56.71 31.72 56.61 34.89 56.51 38.06 C 56.41 41.24 56.30 44.41 56.20 47.58 C 56.09 50.76 55.98 53.93 55.87 57.10 C 52.70 57.02 49.52 56.93 46.35 56.84 C 43.17 56.75 40.00 56.66 36.83 56.56 C 33.65 56.46 30.48 56.37 27.31 56.26 C 24.13 56.16 20.96 56.06 17.79 55.95 C 14.61 55.85 11.44 55.74 8.27 55.63 C 8.35 52.45 8.44 49.28 8.53 46.11 C 8.62 42.93 8.72 39.76 8.81 36.59 C 8.91 33.41 9.01 30.24 9.11 27.07 C 9.21 23.89 9.31 20.72 9.42 17.55 C 9.52 14.37 9.63 11.20 9.74 8.03 Z" />
            </g>
            <g style="fill:rgb(256.0 256.0 256.0);stroke:rgb(0.0 95.37254901960779 219.85882352941175);stroke-width:0.1536;fill-opacity:1.0">
                <path d="M 11.68 6.34 C 14.84 6.67 18.00 7.00 21.15 7.33 C 24.31 7.66 27.47 8.00 30.63 8.33 C 33.78 8.67 36.94 9.01 40.10 9.35 C 43.25 9.70 46.41 10.04 49.57 10.39 C 52.72 10.74 55.88 11.09 59.03 11.44 C 58.70 14.60 58.38 17.75 58.04 20.91 C 57.71 24.07 57.38 27.23 57.04 30.38 C 56.70 33.54 56.36 36.70 56.02 39.85 C 55.68 43.01 55.33 46.17 54.98 49.32 C 54.64 52.48 54.29 55.64 53.93 58.79 C 50.77 58.46 47.62 58.13 44.46 57.80 C 41.30 57.47 38.14 57.13 34.99 56.80 C 31.83 56.46 28.67 56.12 25.52 55.78 C 22.36 55.43 19.20 55.09 16.05 54.74 C 12.89 54.39 9.74 54.04 6.58 53.69 C 6.91 50.53 7.24 47.38 7.57 44.22 C 7.90 41.06 8.24 37.90 8.58 34.75 C 8.91 31.59 9.25 28.43 9.59 25.28 C 9.94 22.12 10.28 18.96 10.63 15.81 C 10.98 12.65 11.33 9.49 11.68 6.34 Z" />
            </g>
            <g style="fill:rgb(256.0 256.0 256.0);stroke:rgb(0.0 95.37254901960779 219.85882352941175);stroke-width:0.1536;fill-opacity:1.0">
                <path d="M 11.00 70.40 C 14.17 70.64 17.33 70.89 20.50 71.14 C 23.67 71.39 26.83 71.64 30.00 71.90 C 33.16 72.15 36.32 72.41 39.49 72.67 C 42.65 72.93 45.82 73.20 48.98 73.46 C 52.15 73.73 55.31 73.99 58.47 74.26 C 58.23 77.43 57.98 80.59 57.73 83.76 C 57.48 86.92 57.23 90.09 56.97 93.25 C 56.72 96.42 56.46 99.58 56.20 102.75 C 55.94 105.91 55.68 109.08 55.41 112.24 C 55.15 115.41 54.88 118.57 54.61 121.73 C 51.44 121.49 48.28 121.24 45.11 120.99 C 41.95 120.74 38.78 120.49 35.62 120.23 C 32.45 119.98 29.29 119.72 26.12 119.46 C 22.96 119.20 19.80 118.94 16.63 118.67 C 13.47 118.41 10.30 118.14 7.14 117.87 C 7.39 114.70 7.63 111.54 7.88 108.37 C 8.13 105.21 8.39 102.04 8.64 98.88 C 8.90 95.71 9.15 92.55 9.41 89.38 C 9.67 86.22 9.94 83.06 10.20 79.89 C 10.47 76.73 10.73 73.56 11.00 70.40 Z" />
            </g>
            <g style="fill:rgb(256.0 256.0 256.0);stroke:rgb(256.0 151.59215686274507 0.0);stroke-width:0.1536;fill-opacity:1.0">
                <path d="M 7.84 73.47 C 11.01 73.30 14.18 73.13 17.35 72.96 C 20.52 72.80 23.69 72.63 26.86 72.47 C 30.04 72.31 33.21 72.16 36.38 72.00 C 39.55 71.85 42.72 71.69 45.89 71.54 C 49.06 71.39 52.24 71.24 55.41 71.10 C 55.58 74.27 55.75 77.44 55.91 80.61 C 56.08 83.78 56.24 86.95 56.40 90.12 C 56.56 93.30 56.72 96.47 56.87 99.64 C 57.03 102.81 57.18 105.98 57.33 109.15 C 57.48 112.32 57.63 115.49 57.77 118.67 C 54.60 118.84 51.43 119.00 48.26 119.17 C 45.09 119.34 41.92 119.50 38.75 119.66 C 35.58 119.82 32.41 119.98 29.24 120.13 C 26.06 120.29 22.89 120.44 19.72 120.59 C 16.55 120.74 13.38 120.89 10.21 121.03 C 10.04 117.86 9.87 114.69 9.70 111.52 C 9.54 108.35 9.37 105.18 9.21 102.01 C 9.05 98.84 8.90 95.67 8.74 92.49 C 8.59 89.32 8.43 86.15 8.28 82.98 C 8.13 79.81 7.98 76.64 7.84 73.47 Z" />
            </g>
            <g style="fill:rgb(256.0 256.0 256.0);stroke:rgb(256.0 151.59215686274507 0.0);stroke-width:0.1536;fill-opacity:1.0">
                <path d="M 11.61 69.90 C 14.76 70.22 17.92 70.54 21.08 70.86 C 24.24 71.19 27.40 71.51 30.56 71.84 C 33.71 72.17 36.87 72.50 40.03 72.83 C 43.19 73.17 46.34 73.50 49.50 73.84 C 52.66 74.18 55.82 74.52 58.97 74.86 C 58.65 78.02 58.33 81.18 58.01 84.34 C 57.69 87.50 57.36 90.66 57.03 93.82 C 56.70 96.97 56.37 100.13 56.04 103.29 C 55.71 106.45 55.37 109.60 55.03 112.76 C 54.69 115.92 54.35 119.07 54.01 122.23 C 50.85 121.91 47.69 121.59 44.53 121.27 C 41.37 120.95 38.21 120.62 35.06 120.29 C 31.90 119.96 28.74 119.63 25.58 119.30 C 22.43 118.97 19.27 118.63 16.11 118.29 C 12.95 117.95 9.80 117.61 6.64 117.27 C 6.96 114.11 7.28 110.95 7.60 107.79 C 7.93 104.63 8.25 101.47 8.58 98.32 C 8.91 95.16 9.24 92.00 9.57 88.84 C 9.91 85.69 10.24 82.53 10.58 79.37 C 10.92 76.21 11.26 73.06 11.61 69.90 Z" />
            </g>
            <g style="fill:rgb(256.0 256.0 256.0);stroke:rgb(256.0 151.59215686274507 0.0);stroke-width:0.1536;fill-opacity:1.0">
                <path d="M 8.82 72.43 C 12.00 72.39 15.17 72.36 18.35 72.33 C 21.52 72.30 24.70 72.27 27.87 72.24 C 31.05 72.22 34.22 72.19 37.40 72.17 C 40.57 72.15 43.75 72.13 46.92 72.12 C 50.10 72.10 53.27 72.09 56.45 72.08 C 56.48 75.26 56.51 78.43 56.55 81.60 C 56.58 84.78 56.60 87.95 56.63 91.13 C 56.66 94.30 56.68 97.48 56.70 100.65 C 56.72 103.83 56.74 107.00 56.75 110.18 C 56.77 113.35 56.78 116.53 56.79 119.70 C 53.62 119.74 50.44 119.77 47.27 119.80 C 44.09 119.84 40.92 119.86 37.74 119.89 C 34.57 119.92 31.39 119.94 28.22 119.96 C 25.04 119.98 21.87 120.00 18.69 120.01 C 15.52 120.03 12.34 120.04 9.17 120.05 C 9.13 116.88 9.10 113.70 9.07 110.53 C 9.04 107.35 9.01 104.18 8.98 101.00 C 8.96 97.83 8.93 94.65 8.91 91.48 C 8.89 88.30 8.88 85.13 8.86 81.95 C 8.84 78.78 8.83 75.60 8.82 72.43 Z" />
            </g>
            <g style="fill:rgb(256.0 256.0 256.0);stroke:rgb(256.0 151.59215686274507 0.0);stroke-width:0.1536;fill-opacity:1.0">
                <path d="M 8.59 136.17 C 11.76 136.10 14.94 136.04 18.11 135.97 C 21.28 135.91 24.46 135.85 27.63 135.79 C 30.81 135.74 33.98 135.68 37.16 135.63 C 40.33 135.58 43.51 135.53 46.68 135.48 C 49.86 135.43 53.03 135.39 56.21 135.35 C 56.27 138.52 56.34 141.70 56.40 144.87 C 56.46 148.05 56.52 151.22 56.58 154.39 C 56.64 157.57 56.69 160.74 56.74 163.92 C 56.80 167.09 56.85 170.27 56.89 173.44 C 56.94 176.62 56.98 179.79 57.03 182.97 C 53.85 183.03 50.68 183.10 47.50 183.16 C 44.33 183.22 41.15 183.28 37.98 183.34 C 34.81 183.40 31.63 183.45 28.46 183.50 C 25.28 183.56 22.11 183.61 18.93 183.65 C 15.76 183.70 12.58 183.75 9.41 183.79 C 9.34 180.61 9.28 177.44 9.21 174.26 C 9.15 171.09 9.09 167.91 9.03 164.74 C 8.98 161.57 8.92 158.39 8.87 155.22 C 8.82 152.04 8.77 148.87 8.72 145.69 C 8.67 142.52 8.63 139.34 8.59 136.17 Z" />
            </g>
            <g style="fill:rgb(256.0 256.0 256.0);stroke:rgb(0.0 95.37254901960779 219.85882352941175);stroke-width:0.1536;fill-opacity:1.0">
                <path d="M 11.70 133.32 C 14.86 133.65 18.02 133.99 21.18 134.32 C 24.33 134.66 27.49 134.99 30.65 135.33 C 33.80 135.67 36.96 136.02 40.12 136.36 C 43.27 136.71 46.43 137.05 49.58 137.41 C 52.74 137.76 55.90 138.11 59.05 138.46 C 58.72 141.62 58.39 144.78 58.05 147.94 C 57.72 151.09 57.38 154.25 57.04 157.41 C 56.70 160.56 56.36 163.72 56.01 166.88 C 55.67 170.03 55.32 173.19 54.97 176.34 C 54.62 179.50 54.27 182.66 53.91 185.81 C 50.75 185.48 47.60 185.15 44.44 184.81 C 41.28 184.48 38.12 184.14 34.97 183.80 C 31.81 183.46 28.65 183.12 25.50 182.77 C 22.34 182.43 19.18 182.08 16.03 181.73 C 12.87 181.38 9.72 181.03 6.56 180.67 C 6.89 177.51 7.23 174.36 7.56 171.20 C 7.90 168.04 8.23 164.88 8.57 161.73 C 8.91 158.57 9.26 155.41 9.60 152.26 C 9.95 149.10 10.29 145.95 10.64 142.79 C 10.99 139.63 11.35 136.48 11.70 133.32 Z" />
            </g>
            <g style="fill:rgb(256.0 256.0 256.0);stroke:rgb(0.0 95.37254901960779 219.85882352941175);stroke-width:0.1536;fill-opacity:1.0">
                <path d="M 8.85 135.90 C 12.03 135.87 15.20 135.84 18.38 135.81 C 21.55 135.78 24.73 135.76 27.90 135.74 C 31.08 135.72 34.25 135.70 37.43 135.68 C 40.60 135.66 43.78 135.65 46.95 135.64 C 50.13 135.63 53.30 135.62 56.48 135.61 C 56.51 138.79 56.54 141.96 56.56 145.14 C 56.59 148.31 56.61 151.49 56.64 154.66 C 56.66 157.84 56.68 161.01 56.69 164.19 C 56.71 167.36 56.72 170.54 56.74 173.71 C 56.75 176.89 56.76 180.06 56.76 183.24 C 53.59 183.27 50.41 183.30 47.24 183.32 C 44.06 183.35 40.89 183.38 37.71 183.40 C 34.54 183.42 31.36 183.44 28.19 183.45 C 25.01 183.47 21.84 183.48 18.66 183.50 C 15.49 183.51 12.31 183.52 9.14 183.52 C 9.11 180.35 9.08 177.17 9.05 174.00 C 9.02 170.82 9.00 167.65 8.98 164.47 C 8.96 161.30 8.94 158.12 8.92 154.95 C 8.90 151.77 8.89 148.60 8.88 145.42 C 8.87 142.25 8.86 139.07 8.85 135.90 Z" />
            </g>
            <g style="fill:rgb(256.0 256.0 256.0);stroke:rgb(0.0 95.37254901960779 219.85882352941175);stroke-width:0.1536;fill-opacity:1.0">
                <path d="M 7.55 137.29 C 10.72 137.08 13.88 136.87 17.05 136.67 C 20.22 136.46 23.39 136.26 26.56 136.05 C 29.73 135.85 32.90 135.65 36.06 135.46 C 39.23 135.26 42.40 135.07 45.57 134.88 C 48.74 134.68 51.91 134.50 55.08 134.31 C 55.29 137.48 55.50 140.65 55.71 143.81 C 55.91 146.98 56.12 150.15 56.32 153.32 C 56.52 156.49 56.72 159.66 56.92 162.83 C 57.11 165.99 57.31 169.16 57.50 172.33 C 57.69 175.50 57.88 178.67 58.06 181.84 C 54.90 182.05 51.73 182.26 48.56 182.47 C 45.39 182.68 42.22 182.88 39.05 183.08 C 35.89 183.28 32.72 183.48 29.55 183.68 C 26.38 183.87 23.21 184.07 20.04 184.26 C 16.87 184.45 13.70 184.64 10.53 184.83 C 10.32 181.66 10.11 178.49 9.91 175.32 C 9.70 172.15 9.49 168.98 9.29 165.82 C 9.09 162.65 8.89 159.48 8.70 156.31 C 8.50 153.14 8.31 149.97 8.11 146.80 C 7.92 143.63 7.73 140.46 7.55 137.29 Z" />
            </g>
            <g style="fill:rgb(256.0 256.0 256.0);stroke:rgb(256.0 151.59215686274507 0.0);stroke-width:0.1536;fill-opacity:1.0">
                <path d="M 9.30 198.95 C 12.47 198.98 15.65 199.01 18.82 199.04 C 22.00 199.08 25.17 199.11 28.35 199.15 C 31.52 199.19 34.70 199.23 37.87 199.27 C 41.05 199.32 44.22 199.36 47.40 199.41 C 50.57 199.46 53.75 199.51 56.92 199.56 C 56.89 202.74 56.86 205.91 56.83 209.09 C 56.80 212.26 56.76 215.44 56.72 218.61 C 56.69 221.79 56.65 224.96 56.60 228.13 C 56.56 231.31 56.51 234.48 56.47 237.66 C 56.42 240.83 56.37 244.01 56.31 247.18 C 53.14 247.16 49.96 247.13 46.79 247.09 C 43.61 247.06 40.44 247.02 37.26 246.99 C 34.09 246.95 30.91 246.91 27.74 246.86 C 24.57 246.82 21.39 246.78 18.22 246.73 C 15.04 246.68 11.87 246.63 8.69 246.58 C 8.72 243.40 8.75 240.23 8.78 237.05 C 8.82 233.88 8.85 230.70 8.89 227.53 C 8.93 224.35 8.97 221.18 9.01 218.00 C 9.05 214.83 9.10 211.65 9.15 208.48 C 9.20 205.30 9.25 202.13 9.30 198.95 Z" />
            </g>
            <g style="fill:rgb(256.0 256.0 256.0);stroke:rgb(256.0 151.59215686274507 0.0);stroke-width:0.1536;fill-opacity:1.0">
                <path d="M 10.40 197.93 C 13.57 198.10 16.74 198.27 19.91 198.44 C 23.08 198.62 26.25 198.80 29.42 198.98 C 32.59 199.16 35.76 199.34 38.93 199.52 C 42.10 199.71 45.27 199.90 48.44 200.09 C 51.61 200.28 54.78 200.47 57.95 200.66 C 57.78 203.83 57.61 207.00 57.43 210.18 C 57.26 213.35 57.08 216.52 56.90 219.69 C 56.72 222.86 56.54 226.03 56.35 229.19 C 56.17 232.36 55.98 235.53 55.79 238.70 C 55.60 241.87 55.41 245.04 55.21 248.21 C 52.04 248.04 48.87 247.87 45.70 247.69 C 42.53 247.52 39.36 247.34 36.19 247.16 C 33.02 246.98 29.85 246.80 26.68 246.61 C 23.51 246.43 20.34 246.24 17.17 246.05 C 14.00 245.86 10.83 245.67 7.66 245.47 C 7.83 242.30 8.01 239.13 8.18 235.96 C 8.36 232.79 8.53 229.62 8.71 226.45 C 8.89 223.28 9.08 220.11 9.26 216.94 C 9.45 213.77 9.63 210.60 9.82 207.43 C 10.01 204.26 10.21 201.10 10.40 197.93 Z" />
            </g>
            <g style="fill:rgb(256.0 256.0 256.0);stroke:rgb(256.0 151.59215686274507 0.0);stroke-width:0.1536;fill-opacity:1.0">
                <path d="M 11.10 197.32 C 14.27 197.58 17.43 197.84 20.60 198.10 C 23.76 198.36 26.92 198.62 30.09 198.89 C 33.25 199.16 36.42 199.43 39.58 199.70 C 42.74 199.97 45.91 200.25 49.07 200.52 C 52.23 200.80 55.39 201.08 58.56 201.36 C 58.30 204.53 58.04 207.69 57.78 210.86 C 57.52 214.02 57.25 217.19 56.98 220.35 C 56.72 223.51 56.45 226.68 56.17 229.84 C 55.90 233.00 55.63 236.17 55.35 239.33 C 55.07 242.49 54.79 245.66 54.51 248.82 C 51.35 248.56 48.18 248.30 45.02 248.04 C 41.85 247.78 38.69 247.51 35.53 247.25 C 32.36 246.98 29.20 246.71 26.03 246.44 C 22.87 246.16 19.71 245.89 16.55 245.61 C 13.38 245.33 10.22 245.06 7.06 244.77 C 7.31 241.61 7.57 238.44 7.84 235.28 C 8.10 232.12 8.36 228.95 8.63 225.79 C 8.90 222.62 9.17 219.46 9.44 216.30 C 9.71 213.13 9.99 209.97 10.26 206.81 C 10.54 203.64 10.82 200.48 11.10 197.32 Z" />
            </g>
            <g style="fill:rgb(256.0 256.0 256.0);stroke:rgb(256.0 151.59215686274507 0.0);stroke-width:0.1536;fill-opacity:1.0">
                <path d="M 6.10 202.56 C 9.24 202.13 12.39 201.71 15.54 201.29 C 18.68 200.87 21.83 200.45 24.98 200.03 C 28.13 199.62 31.27 199.20 34.42 198.79 C 37.57 198.38 40.72 197.97 43.87 197.57 C 47.02 197.16 50.17 196.76 53.32 196.36 C 53.74 199.50 54.17 202.65 54.59 205.80 C 55.01 208.94 55.43 212.09 55.84 215.24 C 56.26 218.39 56.67 221.54 57.08 224.68 C 57.49 227.83 57.90 230.98 58.31 234.13 C 58.71 237.28 59.12 240.43 59.52 243.58 C 56.37 244.00 53.22 244.43 50.08 244.85 C 46.93 245.27 43.78 245.69 40.64 246.10 C 37.49 246.52 34.34 246.93 31.19 247.34 C 28.04 247.76 24.89 248.16 21.75 248.57 C 18.60 248.98 15.45 249.38 12.30 249.78 C 11.87 246.63 11.45 243.49 11.03 240.34 C 10.61 237.19 10.19 234.05 9.77 230.90 C 9.36 227.75 8.94 224.60 8.53 221.45 C 8.12 218.31 7.71 215.16 7.31 212.01 C 6.90 208.86 6.50 205.71 6.10 202.56 Z" />
            </g>
            <g style="fill:rgb(256.0 256.0 256.0);stroke:rgb(256.0 151.59215686274507 0.0);stroke-width:0.1536;fill-opacity:1.0">
                <path d="M 74.89 6.57 C 78.05 6.87 81.22 7.16 84.38 7.46 C 87.54 7.76 90.70 8.06 93.86 8.36 C 97.02 8.66 100.18 8.97 103.34 9.27 C 106.50 9.58 109.66 9.89 112.82 10.20 C 115.98 10.52 119.14 10.83 122.30 11.15 C 122.01 14.31 121.71 17.47 121.41 20.63 C 121.12 23.80 120.82 26.96 120.51 30.12 C 120.21 33.28 119.91 36.44 119.60 39.60 C 119.29 42.76 118.98 45.92 118.67 49.08 C 118.36 52.24 118.04 55.40 117.72 58.56 C 114.56 58.26 111.40 57.97 108.24 57.67 C 105.08 57.37 101.92 57.07 98.76 56.77 C 95.60 56.47 92.43 56.16 89.27 55.86 C 86.11 55.55 82.95 55.24 79.79 54.93 C 76.64 54.61 73.48 54.30 70.32 53.98 C 70.61 50.82 70.90 47.66 71.20 44.50 C 71.50 41.33 71.80 38.17 72.10 35.01 C 72.40 31.85 72.71 28.69 73.02 25.53 C 73.32 22.37 73.63 19.21 73.95 16.05 C 74.26 12.89 74.58 9.73 74.89 6.57 Z" />
            </g>
            <g style="fill:rgb(256.0 256.0 256.0);stroke:rgb(0.0 95.37254901960779 219.85882352941175);stroke-width:0.1536;fill-opacity:1.0">
                <path d="M 71.43 9.87 C 74.60 9.71 77.77 9.55 80.94 9.40 C 84.12 9.25 87.29 9.10 90.46 8.95 C 93.63 8.80 96.80 8.66 99.97 8.51 C 103.15 8.37 106.32 8.23 109.49 8.09 C 112.66 7.96 115.83 7.82 119.01 7.69 C 119.16 10.86 119.32 14.03 119.47 17.20 C 119.63 20.37 119.78 23.54 119.92 26.72 C 120.07 29.89 120.22 33.06 120.36 36.23 C 120.50 39.40 120.64 42.57 120.78 45.75 C 120.92 48.92 121.05 52.09 121.19 55.26 C 118.01 55.42 114.84 55.58 111.67 55.73 C 108.50 55.88 105.33 56.03 102.16 56.18 C 98.99 56.33 95.81 56.47 92.64 56.62 C 89.47 56.76 86.30 56.90 83.13 57.04 C 79.95 57.17 76.78 57.31 73.61 57.44 C 73.45 54.27 73.30 51.10 73.14 47.93 C 72.99 44.76 72.84 41.59 72.69 38.41 C 72.54 35.24 72.40 32.07 72.26 28.90 C 72.11 25.73 71.97 22.55 71.84 19.38 C 71.70 16.21 71.56 13.04 71.43 9.87 Z" />
            </g>
            <g style="fill:rgb(256.0 256.0 256.0);stroke:rgb(256.0 151.59215686274507 0.0);stroke-width:0.1536;fill-opacity:1.0">
                <path d="M 70.65 10.75 C 73.81 10.48 76.98 10.22 80.14 9.95 C 83.30 9.69 86.47 9.43 89.63 9.17 C 92.80 8.91 95.96 8.65 99.13 8.40 C 102.29 8.15 105.46 7.89 108.62 7.65 C 111.79 7.40 114.95 7.15 118.12 6.91 C 118.39 10.07 118.65 13.23 118.92 16.40 C 119.18 19.56 119.44 22.73 119.70 25.89 C 119.96 29.05 120.22 32.22 120.47 35.38 C 120.73 38.55 120.98 41.71 121.23 44.88 C 121.48 48.05 121.72 51.21 121.97 54.38 C 118.80 54.65 115.64 54.91 112.48 55.18 C 109.31 55.44 106.15 55.70 102.98 55.96 C 99.82 56.22 96.65 56.48 93.49 56.73 C 90.32 56.98 87.16 57.24 83.99 57.48 C 80.83 57.73 77.66 57.98 74.50 58.22 C 74.23 55.06 73.96 51.90 73.70 48.73 C 73.43 45.57 73.17 42.40 72.91 39.24 C 72.65 36.08 72.40 32.91 72.14 29.75 C 71.89 26.58 71.64 23.42 71.39 20.25 C 71.14 17.08 70.89 13.92 70.65 10.75 Z" />
            </g>
            <g style="fill:rgb(256.0 256.0 256.0);stroke:rgb(0.0 95.37254901960779 219.85882352941175);stroke-width:0.1536;fill-opacity:1.0">
                <path d="M 70.92 10.44 C 74.09 10.21 77.26 9.98 80.42 9.75 C 83.59 9.53 86.76 9.31 89.92 9.09 C 93.09 8.87 96.26 8.65 99.43 8.44 C 102.60 8.22 105.76 8.01 108.93 7.80 C 112.10 7.59 115.27 7.38 118.44 7.18 C 118.67 10.35 118.89 13.51 119.12 16.68 C 119.34 19.85 119.57 23.01 119.78 26.18 C 120.00 29.35 120.22 32.52 120.44 35.69 C 120.65 38.85 120.86 42.02 121.07 45.19 C 121.28 48.36 121.49 51.53 121.69 54.69 C 118.53 54.92 115.36 55.15 112.19 55.38 C 109.03 55.60 105.86 55.82 102.69 56.04 C 99.52 56.26 96.36 56.48 93.19 56.69 C 90.02 56.91 86.85 57.12 83.68 57.33 C 80.52 57.54 77.35 57.75 74.18 57.95 C 73.95 54.78 73.72 51.62 73.50 48.45 C 73.27 45.28 73.05 42.12 72.83 38.95 C 72.61 35.78 72.39 32.61 72.18 29.44 C 71.96 26.28 71.75 23.11 71.54 19.94 C 71.33 16.77 71.13 13.60 70.92 10.44 Z" />
            </g>
            <g style="fill:rgb(256.0 256.0 256.0);stroke:rgb(256.0 151.59215686274507 0.0);stroke-width:0.1536;fill-opacity:1.0">
                <path d="M 74.46 70.44 C 77.62 70.68 80.79 70.92 83.96 71.16 C 87.12 71.41 90.29 71.66 93.45 71.90 C 96.62 72.15 99.78 72.41 102.95 72.66 C 106.11 72.91 109.28 73.17 112.44 73.43 C 115.61 73.69 118.77 73.95 121.93 74.22 C 121.69 77.38 121.45 80.55 121.21 83.71 C 120.96 86.88 120.72 90.05 120.47 93.21 C 120.22 96.38 119.97 99.54 119.71 102.71 C 119.46 105.87 119.20 109.04 118.94 112.20 C 118.68 115.36 118.42 118.53 118.16 121.69 C 114.99 121.45 111.83 121.21 108.66 120.97 C 105.49 120.72 102.33 120.48 99.16 120.23 C 96.00 119.98 92.83 119.73 89.67 119.47 C 86.50 119.22 83.34 118.96 80.17 118.70 C 77.01 118.44 73.85 118.18 70.68 117.92 C 70.92 114.75 71.16 111.58 71.41 108.42 C 71.65 105.25 71.90 102.09 72.15 98.92 C 72.40 95.76 72.65 92.59 72.90 89.43 C 73.16 86.26 73.41 83.10 73.67 79.93 C 73.93 76.77 74.19 73.60 74.46 70.44 Z" />
            </g>
            <g style="fill:rgb(256.0 256.0 256.0);stroke:rgb(256.0 151.59215686274507 0.0);stroke-width:0.1536;fill-opacity:1.0">
                <path d="M 70.03 75.01 C 73.18 74.65 76.34 74.29 79.49 73.93 C 82.65 73.58 85.80 73.22 88.96 72.87 C 92.11 72.52 95.27 72.17 98.43 71.83 C 101.58 71.48 104.74 71.14 107.90 70.80 C 111.05 70.46 114.21 70.12 117.37 69.79 C 117.73 72.94 118.09 76.10 118.44 79.25 C 118.80 82.41 119.15 85.56 119.50 88.72 C 119.85 91.87 120.20 95.03 120.54 98.18 C 120.89 101.34 121.23 104.50 121.57 107.65 C 121.91 110.81 122.25 113.97 122.59 117.13 C 119.43 117.49 116.28 117.84 113.12 118.20 C 109.97 118.56 106.81 118.91 103.66 119.26 C 100.50 119.61 97.35 119.96 94.19 120.30 C 91.03 120.65 87.88 120.99 84.72 121.33 C 81.56 121.67 78.41 122.01 75.25 122.35 C 74.89 119.19 74.53 116.04 74.17 112.88 C 73.82 109.73 73.47 106.57 73.11 103.42 C 72.76 100.26 72.42 97.10 72.07 93.95 C 71.73 90.79 71.38 87.63 71.04 84.48 C 70.70 81.32 70.36 78.16 70.03 75.01 Z" />
            </g>
            <g style="fill:rgb(256.0 256.0 256.0);stroke:rgb(0.0 95.37254901960779 219.85882352941175);stroke-width:0.1536;fill-opacity:1.0">
                <path d="M 72.54 72.20 C 75.72 72.20 78.89 72.19 82.07 72.19 C 85.24 72.19 88.42 72.19 91.59 72.20 C 94.77 72.20 97.94 72.21 101.12 72.22 C 104.29 72.23 107.47 72.24 110.65 72.25 C 113.82 72.27 117.00 72.28 120.17 72.30 C 120.18 75.48 120.18 78.65 120.18 81.83 C 120.18 85.00 120.18 88.18 120.18 91.35 C 120.17 94.53 120.17 97.70 120.16 100.88 C 120.15 104.05 120.14 107.23 120.12 110.40 C 120.11 113.58 120.09 116.75 120.07 119.93 C 116.90 119.93 113.72 119.94 110.55 119.94 C 107.37 119.94 104.20 119.94 101.02 119.93 C 97.85 119.93 94.67 119.92 91.50 119.91 C 88.32 119.91 85.15 119.89 81.97 119.88 C 78.80 119.87 75.62 119.85 72.45 119.83 C 72.44 116.65 72.44 113.48 72.43 110.30 C 72.43 107.13 72.44 103.95 72.44 100.78 C 72.44 97.60 72.45 94.43 72.46 91.25 C 72.47 88.08 72.48 84.90 72.49 81.73 C 72.51 78.55 72.53 75.38 72.54 72.20 Z" />
            </g>
            <g style="fill:rgb(256.0 256.0 256.0);stroke:rgb(256.0 151.59215686274507 0.0);stroke-width:0.1536;fill-opacity:1.0">
                <path d="M 70.19 74.81 C 73.34 74.47 76.50 74.14 79.66 73.81 C 82.82 73.48 85.97 73.15 89.13 72.82 C 92.29 72.49 95.45 72.17 98.61 71.85 C 101.77 71.52 104.93 71.20 108.08 70.89 C 111.24 70.57 114.40 70.26 117.56 69.94 C 117.90 73.10 118.23 76.26 118.57 79.42 C 118.90 82.57 119.23 85.73 119.55 88.89 C 119.88 92.05 120.21 95.21 120.53 98.37 C 120.85 101.52 121.17 104.68 121.49 107.84 C 121.80 111.00 122.12 114.16 122.43 117.32 C 119.27 117.66 116.11 117.99 112.96 118.33 C 109.80 118.66 106.64 118.99 103.48 119.31 C 100.32 119.64 97.17 119.96 94.01 120.29 C 90.85 120.61 87.69 120.93 84.53 121.24 C 81.37 121.56 78.21 121.88 75.05 122.19 C 74.72 119.03 74.38 115.87 74.05 112.72 C 73.72 109.56 73.39 106.40 73.06 103.24 C 72.73 100.08 72.41 96.92 72.09 93.77 C 71.77 90.61 71.45 87.45 71.13 84.29 C 70.81 81.13 70.50 77.97 70.19 74.81 Z" />
            </g>
            <g style="fill:rgb(256.0 256.0 256.0);stroke:rgb(256.0 151.59215686274507 0.0);stroke-width:0.1536;fill-opacity:1.0">
                <path d="M 73.82 134.50 C 76.99 134.66 80.16 134.82 83.33 134.99 C 86.50 135.15 89.67 135.32 92.84 135.49 C 96.01 135.66 99.18 135.83 102.35 136.00 C 105.52 136.18 108.69 136.35 111.86 136.53 C 115.03 136.71 118.20 136.89 121.37 137.08 C 121.21 140.25 121.05 143.42 120.89 146.59 C 120.72 149.76 120.56 152.93 120.39 156.10 C 120.22 159.27 120.05 162.44 119.87 165.61 C 119.70 168.78 119.52 171.95 119.34 175.12 C 119.16 178.29 118.98 181.46 118.80 184.63 C 115.63 184.47 112.46 184.31 109.29 184.15 C 106.12 183.98 102.94 183.82 99.77 183.65 C 96.60 183.48 93.43 183.31 90.26 183.13 C 87.09 182.96 83.92 182.78 80.75 182.60 C 77.58 182.42 74.41 182.24 71.24 182.06 C 71.40 178.89 71.56 175.72 71.73 172.55 C 71.89 169.37 72.06 166.20 72.23 163.03 C 72.40 159.86 72.57 156.69 72.74 153.52 C 72.92 150.35 73.09 147.18 73.27 144.01 C 73.45 140.84 73.63 137.67 73.82 134.50 Z" />
            </g>
            <g style="fill:rgb(256.0 256.0 256.0);stroke:rgb(256.0 151.59215686274507 0.0);stroke-width:0.1536;fill-opacity:1.0">
                <path d="M 74.53 133.88 C 77.70 134.13 80.86 134.38 84.03 134.63 C 87.19 134.88 90.36 135.14 93.52 135.40 C 96.69 135.66 99.85 135.92 103.02 136.18 C 106.18 136.44 109.34 136.71 112.51 136.98 C 115.67 137.25 118.84 137.52 122.00 137.79 C 121.75 140.96 121.50 144.12 121.25 147.29 C 120.99 150.45 120.74 153.62 120.48 156.78 C 120.22 159.95 119.96 163.11 119.69 166.28 C 119.43 169.44 119.16 172.60 118.90 175.77 C 118.63 178.93 118.36 182.09 118.08 185.26 C 114.92 185.01 111.75 184.76 108.59 184.50 C 105.42 184.25 102.26 184.00 99.09 183.74 C 95.93 183.48 92.76 183.22 89.60 182.95 C 86.44 182.69 83.27 182.42 80.11 182.16 C 76.94 181.89 73.78 181.62 70.62 181.34 C 70.87 178.18 71.12 175.01 71.37 171.85 C 71.62 168.68 71.88 165.52 72.14 162.35 C 72.40 159.19 72.66 156.02 72.92 152.86 C 73.19 149.69 73.45 146.53 73.72 143.37 C 73.99 140.20 74.26 137.04 74.53 133.88 Z" />
            </g>
            <g style="fill:rgb(256.0 256.0 256.0);stroke:rgb(256.0 151.59215686274507 0.0);stroke-width:0.1536;fill-opacity:1.0">
                <path d="M 75.55 133.05 C 78.71 133.42 81.86 133.79 85.01 134.17 C 88.17 134.55 91.32 134.93 94.47 135.31 C 97.62 135.69 100.77 136.07 103.93 136.46 C 107.08 136.85 110.23 137.24 113.38 137.63 C 116.53 138.02 119.68 138.42 122.83 138.81 C 122.46 141.97 122.08 145.12 121.71 148.27 C 121.33 151.43 120.95 154.58 120.57 157.73 C 120.19 160.88 119.80 164.03 119.41 167.18 C 119.03 170.34 118.64 173.49 118.24 176.64 C 117.85 179.79 117.46 182.94 117.06 186.09 C 113.91 185.72 110.75 185.34 107.60 184.97 C 104.45 184.59 101.30 184.21 98.15 183.83 C 94.99 183.45 91.84 183.06 88.69 182.67 C 85.54 182.29 82.39 181.90 79.24 181.50 C 76.09 181.11 72.94 180.72 69.79 180.32 C 70.16 177.17 70.53 174.01 70.91 170.86 C 71.29 167.71 71.67 164.56 72.05 161.40 C 72.43 158.25 72.81 155.10 73.20 151.95 C 73.59 148.80 73.98 145.65 74.37 142.50 C 74.76 139.35 75.16 136.20 75.55 133.05 Z" />
            </g>
            <g style="fill:rgb(256.0 256.0 256.0);stroke:rgb(256.0 151.59215686274507 0.0);stroke-width:0.1536;fill-opacity:1.0">
                <path d="M 73.05 135.21 C 76.22 135.27 79.40 135.34 82.57 135.40 C 85.74 135.47 88.92 135.54 92.09 135.61 C 95.27 135.68 98.44 135.75 101.62 135.82 C 104.79 135.90 107.96 135.98 111.14 136.06 C 114.31 136.14 117.49 136.22 120.66 136.31 C 120.60 139.48 120.54 142.66 120.47 145.83 C 120.41 149.00 120.34 152.18 120.27 155.35 C 120.20 158.53 120.13 161.70 120.05 164.88 C 119.98 168.05 119.90 171.22 119.82 174.40 C 119.74 177.57 119.65 180.75 119.57 183.92 C 116.39 183.86 113.22 183.80 110.04 183.73 C 106.87 183.67 103.70 183.60 100.52 183.53 C 97.35 183.46 94.17 183.39 91.00 183.31 C 87.82 183.24 84.65 183.16 81.48 183.08 C 78.30 183.00 75.13 182.91 71.95 182.83 C 72.01 179.65 72.08 176.48 72.14 173.30 C 72.21 170.13 72.28 166.96 72.35 163.78 C 72.42 160.61 72.49 157.43 72.56 154.26 C 72.64 151.08 72.72 147.91 72.80 144.74 C 72.88 141.56 72.96 138.39 73.05 135.21 Z" />
            </g>
            <g style="fill:rgb(256.0 256.0 256.0);stroke:rgb(256.0 151.59215686274507 0.0);stroke-width:0.1536;fill-opacity:1.0">
                <path d="M 73.10 198.66 C 76.28 198.73 79.45 198.80 82.63 198.87 C 85.80 198.94 88.97 199.02 92.15 199.10 C 95.32 199.17 98.50 199.25 101.67 199.34 C 104.84 199.42 108.02 199.51 111.19 199.59 C 114.37 199.68 117.54 199.77 120.71 199.86 C 120.65 203.04 120.58 206.21 120.50 209.39 C 120.43 212.56 120.36 215.73 120.28 218.91 C 120.20 222.08 120.12 225.26 120.04 228.43 C 119.96 231.60 119.87 234.78 119.78 237.95 C 119.70 241.13 119.61 244.30 119.51 247.47 C 116.34 247.41 113.16 247.34 109.99 247.26 C 106.82 247.19 103.64 247.12 100.47 247.04 C 97.29 246.96 94.12 246.88 90.95 246.80 C 87.77 246.72 84.60 246.63 81.42 246.54 C 78.25 246.46 75.08 246.37 71.90 246.27 C 71.97 243.10 72.04 239.93 72.11 236.75 C 72.18 233.58 72.26 230.40 72.34 227.23 C 72.41 224.05 72.49 220.88 72.58 217.71 C 72.66 214.53 72.74 211.36 72.83 208.18 C 72.92 205.01 73.01 201.84 73.10 198.66 Z" />
            </g>
            <g style="fill:rgb(256.0 256.0 256.0);stroke:rgb(256.0 151.59215686274507 0.0);stroke-width:0.1536;fill-opacity:1.0">
                <path d="M 72.97 198.79 C 76.15 198.84 79.32 198.89 82.49 198.95 C 85.67 199.00 88.84 199.06 92.02 199.12 C 95.19 199.18 98.37 199.24 101.54 199.31 C 104.72 199.37 107.89 199.44 111.06 199.51 C 114.24 199.58 117.41 199.66 120.59 199.73 C 120.54 202.91 120.48 206.08 120.43 209.26 C 120.37 212.43 120.32 215.60 120.26 218.78 C 120.20 221.95 120.13 225.13 120.07 228.30 C 120.00 231.48 119.93 234.65 119.86 237.83 C 119.79 241.00 119.72 244.17 119.64 247.35 C 116.47 247.30 113.30 247.25 110.12 247.19 C 106.95 247.13 103.77 247.08 100.60 247.02 C 97.42 246.96 94.25 246.89 91.07 246.83 C 87.90 246.76 84.72 246.69 81.55 246.62 C 78.38 246.55 75.20 246.48 72.03 246.41 C 72.08 243.23 72.13 240.06 72.19 236.88 C 72.24 233.71 72.30 230.53 72.36 227.36 C 72.42 224.18 72.48 221.01 72.55 217.83 C 72.61 214.66 72.68 211.49 72.75 208.31 C 72.82 205.14 72.90 201.96 72.97 198.79 Z" />
            </g>
            <g style="fill:rgb(256.0 256.0 256.0);stroke:rgb(256.0 151.59215686274507 0.0);stroke-width:0.1536;fill-opacity:1.0">
                <path d="M 70.64 201.27 C 73.80 201.00 76.97 200.73 80.13 200.46 C 83.29 200.20 86.46 199.94 89.62 199.68 C 92.79 199.42 95.95 199.16 99.12 198.90 C 102.28 198.65 105.45 198.39 108.61 198.14 C 111.78 197.89 114.94 197.65 118.11 197.40 C 118.38 200.56 118.65 203.73 118.91 206.89 C 119.18 210.06 119.44 213.22 119.70 216.38 C 119.96 219.55 120.22 222.71 120.47 225.88 C 120.73 229.04 120.98 232.21 121.23 235.37 C 121.48 238.54 121.73 241.70 121.98 244.87 C 118.81 245.14 115.65 245.41 112.49 245.67 C 109.32 245.94 106.16 246.20 102.99 246.46 C 99.83 246.72 96.66 246.98 93.50 247.24 C 90.33 247.49 87.17 247.74 84.00 247.99 C 80.84 248.24 77.67 248.49 74.51 248.74 C 74.24 245.57 73.97 242.41 73.70 239.25 C 73.44 236.08 73.18 232.92 72.91 229.75 C 72.65 226.59 72.40 223.42 72.14 220.26 C 71.89 217.09 71.63 213.93 71.38 210.76 C 71.13 207.60 70.88 204.43 70.64 201.27 Z" />
            </g>
            <g style="fill:rgb(256.0 256.0 256.0);stroke:rgb(256.0 151.59215686274507 0.0);stroke-width:0.1536;fill-opacity:1.0">
                <path d="M 73.21 198.56 C 76.38 198.64 79.56 198.73 82.73 198.81 C 85.90 198.90 89.08 198.99 92.25 199.08 C 95.43 199.17 98.60 199.26 101.77 199.36 C 104.95 199.46 108.12 199.56 111.29 199.66 C 114.47 199.76 117.64 199.86 120.81 199.97 C 120.73 203.14 120.65 206.32 120.56 209.49 C 120.48 212.66 120.39 215.84 120.30 219.01 C 120.21 222.19 120.11 225.36 120.02 228.53 C 119.92 231.71 119.82 234.88 119.72 238.05 C 119.62 241.23 119.51 244.40 119.41 247.57 C 116.23 247.49 113.06 247.41 109.89 247.32 C 106.71 247.24 103.54 247.15 100.36 247.06 C 97.19 246.97 94.02 246.87 90.84 246.78 C 87.67 246.68 84.50 246.58 81.32 246.48 C 78.15 246.38 74.98 246.27 71.80 246.17 C 71.88 242.99 71.97 239.82 72.05 236.65 C 72.14 233.47 72.23 230.30 72.32 227.12 C 72.41 223.95 72.50 220.78 72.60 217.60 C 72.70 214.43 72.80 211.26 72.90 208.08 C 73.00 204.91 73.10 201.74 73.21 198.56 Z" />
            </g>
            <g style="fill:rgb(256.0 256.0 256.0);stroke:rgb(256.0 151.59215686274507 0.0);stroke-width:0.1536;fill-opacity:1.0">
                <path d="M 135.85 8.90 C 139.03 8.87 142.20 8.84 145.37 8.81 C 148.55 8.78 151.72 8.76 154.90 8.74 C 158.07 8.71 161.25 8.69 164.42 8.68 C 167.60 8.66 170.77 8.65 173.95 8.63 C 177.12 8.62 180.30 8.61 183.48 8.61 C 183.51 11.78 183.54 14.96 183.56 18.13 C 183.59 21.31 183.62 24.48 183.64 27.66 C 183.66 30.83 183.68 34.01 183.70 37.18 C 183.71 40.36 183.73 43.53 183.74 46.71 C 183.75 49.88 183.76 53.06 183.77 56.23 C 180.59 56.26 177.42 56.29 174.24 56.32 C 171.07 56.35 167.89 56.37 164.72 56.39 C 161.54 56.42 158.37 56.44 155.19 56.45 C 152.02 56.47 148.84 56.48 145.67 56.50 C 142.49 56.51 139.32 56.52 136.14 56.52 C 136.11 53.35 136.08 50.17 136.05 47.00 C 136.03 43.82 136.00 40.65 135.98 37.47 C 135.96 34.30 135.94 31.12 135.92 27.95 C 135.90 24.77 135.89 21.60 135.88 18.42 C 135.87 15.25 135.86 12.07 135.85 8.90 Z" />
            </g>
            <g style="fill:rgb(256.0 256.0 256.0);stroke:rgb(0.0 95.37254901960779 219.85882352941175);stroke-width:0.1536;fill-opacity:1.0">
                <path d="M 137.65 7.20 C 140.82 7.40 143.99 7.61 147.16 7.81 C 150.33 8.02 153.50 8.23 156.66 8.44 C 159.83 8.65 163.00 8.86 166.17 9.08 C 169.34 9.30 172.50 9.52 175.67 9.74 C 178.84 9.96 182.01 10.18 185.17 10.41 C 184.97 13.58 184.77 16.75 184.56 19.92 C 184.35 23.08 184.15 26.25 183.93 29.42 C 183.72 32.59 183.51 35.76 183.29 38.92 C 183.08 42.09 182.86 45.26 182.64 48.43 C 182.41 51.59 182.19 54.76 181.96 57.93 C 178.79 57.73 175.63 57.52 172.46 57.32 C 169.29 57.11 166.12 56.90 162.95 56.69 C 159.78 56.48 156.62 56.26 153.45 56.05 C 150.28 55.83 147.11 55.61 143.95 55.39 C 140.78 55.17 137.61 54.95 134.45 54.72 C 134.65 51.55 134.85 48.38 135.06 45.21 C 135.26 42.05 135.47 38.88 135.68 35.71 C 135.89 32.54 136.11 29.37 136.33 26.21 C 136.54 23.04 136.76 19.87 136.98 16.70 C 137.20 13.54 137.43 10.37 137.65 7.20 Z" />
            </g>
            <g style="fill:rgb(256.0 256.0 256.0);stroke:rgb(0.0 95.37254901960779 219.85882352941175);stroke-width:0.1536;fill-opacity:1.0">
                <path d="M 138.78 6.26 C 141.93 6.60 145.09 6.94 148.25 7.29 C 151.40 7.63 154.56 7.98 157.71 8.33 C 160.87 8.67 164.03 9.03 167.18 9.38 C 170.34 9.73 173.49 10.09 176.65 10.45 C 179.80 10.81 182.96 11.17 186.11 11.53 C 185.77 14.69 185.43 17.85 185.09 21.00 C 184.74 24.16 184.40 27.31 184.05 30.47 C 183.70 33.63 183.35 36.78 182.99 39.94 C 182.64 43.09 182.28 46.25 181.93 49.40 C 181.57 52.56 181.21 55.71 180.84 58.87 C 177.68 58.53 174.53 58.19 171.37 57.84 C 168.22 57.50 165.06 57.15 161.90 56.80 C 158.75 56.46 155.59 56.10 152.44 55.75 C 149.28 55.40 146.13 55.04 142.97 54.68 C 139.82 54.32 136.66 53.96 133.51 53.60 C 133.85 50.44 134.19 47.28 134.53 44.13 C 134.87 40.97 135.22 37.82 135.57 34.66 C 135.92 31.50 136.27 28.35 136.62 25.19 C 136.98 22.04 137.33 18.88 137.69 15.73 C 138.05 12.57 138.41 9.42 138.78 6.26 Z" />
            </g>
            <g style="fill:rgb(256.0 256.0 256.0);stroke:rgb(0.0 95.37254901960779 219.85882352941175);stroke-width:0.1536;fill-opacity:1.0">
                <path d="M 138.60 6.40 C 141.76 6.72 144.92 7.04 148.08 7.36 C 151.24 7.69 154.40 8.01 157.55 8.34 C 160.71 8.67 163.87 9.00 167.03 9.33 C 170.19 9.66 173.34 10.00 176.50 10.34 C 179.66 10.68 182.81 11.02 185.97 11.36 C 185.65 14.52 185.33 17.68 185.01 20.84 C 184.69 23.99 184.36 27.15 184.03 30.31 C 183.71 33.47 183.38 36.63 183.04 39.78 C 182.71 42.94 182.37 46.10 182.04 49.26 C 181.70 52.41 181.36 55.57 181.01 58.73 C 177.86 58.41 174.70 58.09 171.54 57.77 C 168.38 57.44 165.22 57.12 162.06 56.79 C 158.90 56.46 155.75 56.13 152.59 55.80 C 149.43 55.47 146.27 55.13 143.12 54.79 C 139.96 54.45 136.80 54.11 133.65 53.77 C 133.97 50.61 134.29 47.45 134.61 44.29 C 134.93 41.14 135.26 37.98 135.58 34.82 C 135.91 31.66 136.24 28.50 136.58 25.35 C 136.91 22.19 137.24 19.03 137.58 15.87 C 137.92 12.72 138.26 9.56 138.60 6.40 Z" />
            </g>
            <g style="fill:rgb(256.0 256.0 256.0);stroke:rgb(256.0 151.59215686274507 0.0);stroke-width:0.1536;fill-opacity:1.0">
                <path d="M 136.25 72.00 C 139.43 72.02 142.60 72.05 145.78 72.07 C 148.95 72.10 152.13 72.13 155.30 72.16 C 158.48 72.19 161.65 72.22 164.82 72.26 C 168.00 72.30 171.17 72.33 174.35 72.38 C 177.52 72.42 180.70 72.46 183.87 72.51 C 183.85 75.68 183.83 78.86 183.80 82.03 C 183.78 85.21 183.75 88.38 183.72 91.56 C 183.69 94.73 183.65 97.91 183.62 101.08 C 183.58 104.26 183.54 107.43 183.50 110.61 C 183.46 113.78 183.41 116.96 183.37 120.13 C 180.19 120.11 177.02 120.09 173.84 120.06 C 170.67 120.03 167.49 120.01 164.32 119.97 C 161.14 119.94 157.97 119.91 154.79 119.87 C 151.62 119.84 148.44 119.80 145.27 119.76 C 142.09 119.72 138.92 119.67 135.74 119.62 C 135.77 116.45 135.79 113.27 135.81 110.10 C 135.84 106.92 135.87 103.75 135.90 100.57 C 135.93 97.40 135.97 94.23 136.00 91.05 C 136.04 87.88 136.08 84.70 136.12 81.53 C 136.16 78.35 136.20 75.18 136.25 72.00 Z" />
            </g>
            <g style="fill:rgb(256.0 256.0 256.0);stroke:rgb(256.0 151.59215686274507 0.0);stroke-width:0.1536;fill-opacity:1.0">
                <path d="M 137.31 71.01 C 140.48 71.17 143.65 71.33 146.82 71.49 C 149.99 71.65 153.16 71.82 156.33 71.99 C 159.51 72.15 162.68 72.32 165.85 72.50 C 169.02 72.67 172.19 72.85 175.36 73.02 C 178.53 73.20 181.70 73.38 184.87 73.57 C 184.71 76.74 184.55 79.91 184.39 83.08 C 184.22 86.25 184.06 89.42 183.89 92.59 C 183.72 95.76 183.55 98.93 183.38 102.10 C 183.20 105.27 183.03 108.44 182.85 111.61 C 182.67 114.78 182.49 117.95 182.31 121.12 C 179.14 120.97 175.97 120.81 172.80 120.64 C 169.62 120.48 166.45 120.31 163.28 120.15 C 160.11 119.98 156.94 119.81 153.77 119.63 C 150.60 119.46 147.43 119.29 144.26 119.11 C 141.09 118.93 137.92 118.75 134.75 118.57 C 134.91 115.39 135.07 112.22 135.23 109.05 C 135.40 105.88 135.56 102.71 135.73 99.54 C 135.90 96.37 136.07 93.20 136.24 90.03 C 136.41 86.86 136.59 83.69 136.77 80.52 C 136.95 77.35 137.13 74.18 137.31 71.01 Z" />
            </g>
            <g style="fill:rgb(256.0 256.0 256.0);stroke:rgb(0.0 95.37254901960779 219.85882352941175);stroke-width:0.1536;fill-opacity:1.0">
                <path d="M 138.02 70.39 C 141.18 70.64 144.35 70.89 147.51 71.14 C 150.68 71.39 153.84 71.64 157.01 71.90 C 160.17 72.15 163.34 72.41 166.50 72.67 C 169.66 72.94 172.83 73.20 175.99 73.47 C 179.16 73.73 182.32 74.00 185.48 74.27 C 185.24 77.44 184.99 80.60 184.74 83.77 C 184.49 86.93 184.23 90.10 183.98 93.26 C 183.72 96.43 183.46 99.59 183.20 102.76 C 182.94 105.92 182.67 109.09 182.41 112.25 C 182.14 115.41 181.87 118.58 181.60 121.74 C 178.44 121.49 175.27 121.25 172.11 120.99 C 168.94 120.74 165.78 120.49 162.61 120.23 C 159.45 119.98 156.28 119.72 153.12 119.46 C 149.95 119.20 146.79 118.93 143.63 118.67 C 140.46 118.40 137.30 118.13 134.13 117.86 C 134.38 114.69 134.63 111.53 134.88 108.36 C 135.13 105.20 135.39 102.03 135.64 98.87 C 135.90 95.70 136.16 92.54 136.42 89.38 C 136.68 86.21 136.94 83.05 137.21 79.88 C 137.48 76.72 137.74 73.56 138.02 70.39 Z" />
            </g>
            <g style="fill:rgb(256.0 256.0 256.0);stroke:rgb(256.0 151.59215686274507 0.0);stroke-width:0.1536;fill-opacity:1.0">
                <path d="M 138.58 69.92 C 141.74 70.24 144.90 70.55 148.06 70.88 C 151.22 71.20 154.38 71.52 157.53 71.84 C 160.69 72.17 163.85 72.50 167.01 72.83 C 170.17 73.16 173.32 73.49 176.48 73.83 C 179.64 74.16 182.80 74.50 185.95 74.84 C 185.64 78.00 185.32 81.16 185.00 84.32 C 184.68 87.48 184.36 90.63 184.03 93.79 C 183.71 96.95 183.38 100.11 183.05 103.27 C 182.72 106.42 182.39 109.58 182.05 112.74 C 181.71 115.90 181.38 119.05 181.04 122.21 C 177.88 121.90 174.72 121.58 171.56 121.26 C 168.40 120.94 165.24 120.61 162.08 120.29 C 158.92 119.96 155.77 119.64 152.61 119.31 C 149.45 118.98 146.29 118.64 143.14 118.31 C 139.98 117.97 136.82 117.63 133.66 117.29 C 133.98 114.13 134.30 110.97 134.62 107.82 C 134.94 104.66 135.26 101.50 135.59 98.34 C 135.91 95.18 136.24 92.02 136.57 88.87 C 136.90 85.71 137.23 82.55 137.57 79.39 C 137.90 76.24 138.24 73.08 138.58 69.92 Z" />
            </g>
            <g style="fill:rgb(256.0 256.0 256.0);stroke:rgb(256.0 151.59215686274507 0.0);stroke-width:0.1536;fill-opacity:1.0">
                <path d="M 138.96 133.12 C 142.11 133.48 145.27 133.85 148.42 134.21 C 151.58 134.58 154.73 134.94 157.88 135.31 C 161.04 135.68 164.19 136.06 167.34 136.43 C 170.49 136.81 173.65 137.19 176.80 137.57 C 179.95 137.95 183.10 138.33 186.25 138.72 C 185.89 141.87 185.53 145.03 185.17 148.18 C 184.80 151.33 184.43 154.49 184.06 157.64 C 183.69 160.79 183.32 163.95 182.94 167.10 C 182.57 170.25 182.19 173.41 181.81 176.56 C 181.43 179.71 181.05 182.86 180.66 186.01 C 177.50 185.65 174.35 185.29 171.20 184.92 C 168.04 184.56 164.89 184.19 161.74 183.82 C 158.58 183.45 155.43 183.08 152.28 182.70 C 149.12 182.33 145.97 181.95 142.82 181.57 C 139.67 181.19 136.51 180.80 133.36 180.42 C 133.72 177.26 134.09 174.11 134.45 170.96 C 134.82 167.80 135.19 164.65 135.56 161.49 C 135.93 158.34 136.30 155.19 136.67 152.03 C 137.05 148.88 137.43 145.73 137.81 142.58 C 138.19 139.43 138.57 136.27 138.96 133.12 Z" />
            </g>
            <g style="fill:rgb(256.0 256.0 256.0);stroke:rgb(256.0 151.59215686274507 0.0);stroke-width:0.1536;fill-opacity:1.0">
                <path d="M 135.69 136.06 C 138.86 136.01 142.04 135.96 145.21 135.91 C 148.39 135.86 151.56 135.82 154.74 135.77 C 157.91 135.73 161.09 135.69 164.26 135.65 C 167.44 135.61 170.61 135.57 173.79 135.54 C 176.96 135.51 180.14 135.48 183.31 135.45 C 183.37 138.62 183.42 141.80 183.47 144.97 C 183.51 148.15 183.56 151.32 183.60 154.50 C 183.65 157.67 183.69 160.85 183.73 164.02 C 183.77 167.20 183.80 170.37 183.84 173.55 C 183.87 176.72 183.90 179.90 183.93 183.07 C 180.75 183.12 177.58 183.18 174.40 183.22 C 171.23 183.27 168.05 183.32 164.88 183.36 C 161.71 183.41 158.53 183.45 155.36 183.49 C 152.18 183.52 149.01 183.56 145.83 183.59 C 142.66 183.63 139.48 183.66 136.31 183.69 C 136.25 180.51 136.20 177.34 136.15 174.16 C 136.10 170.99 136.06 167.81 136.01 164.64 C 135.97 161.46 135.93 158.29 135.89 155.11 C 135.85 151.94 135.82 148.76 135.78 145.59 C 135.75 142.41 135.72 139.24 135.69 136.06 Z" />
            </g>
            <g style="fill:rgb(256.0 256.0 256.0);stroke:rgb(0.0 95.37254901960779 219.85882352941175);stroke-width:0.1536;fill-opacity:1.0">
                <path d="M 139.28 132.87 C 142.43 133.27 145.58 133.67 148.73 134.07 C 151.88 134.48 155.03 134.88 158.18 135.29 C 161.33 135.70 164.47 136.11 167.62 136.53 C 170.77 136.94 173.92 137.36 177.07 137.78 C 180.21 138.19 183.36 138.62 186.51 139.04 C 186.11 142.19 185.71 145.34 185.30 148.49 C 184.90 151.64 184.49 154.79 184.08 157.94 C 183.67 161.08 183.26 164.23 182.85 167.38 C 182.44 170.53 182.02 173.68 181.60 176.82 C 181.18 179.97 180.76 183.12 180.34 186.26 C 177.19 185.87 174.04 185.46 170.89 185.06 C 167.74 184.66 164.59 184.25 161.44 183.84 C 158.29 183.43 155.14 183.02 152.00 182.61 C 148.85 182.19 145.70 181.78 142.55 181.36 C 139.41 180.94 136.26 180.52 133.11 180.09 C 133.51 176.94 133.91 173.79 134.32 170.65 C 134.72 167.50 135.13 164.35 135.53 161.20 C 135.94 158.05 136.35 154.90 136.77 151.75 C 137.18 148.61 137.60 145.46 138.02 142.31 C 138.44 139.16 138.86 136.02 139.28 132.87 Z" />
            </g>
            <g style="fill:rgb(256.0 256.0 256.0);stroke:rgb(256.0 151.59215686274507 0.0);stroke-width:0.1536;fill-opacity:1.0">
                <path d="M 137.89 134.00 C 141.06 134.23 144.23 134.46 147.39 134.70 C 150.56 134.93 153.72 135.17 156.89 135.41 C 160.06 135.65 163.22 135.90 166.39 136.14 C 169.55 136.39 172.72 136.64 175.88 136.89 C 179.05 137.14 182.21 137.40 185.38 137.65 C 185.15 140.82 184.91 143.98 184.68 147.15 C 184.44 150.32 184.20 153.48 183.96 156.65 C 183.72 159.82 183.48 162.98 183.23 166.15 C 182.99 169.31 182.74 172.48 182.49 175.64 C 182.23 178.81 181.98 181.97 181.72 185.14 C 178.56 184.91 175.39 184.67 172.23 184.44 C 169.06 184.20 165.89 183.96 162.73 183.72 C 159.56 183.48 156.40 183.24 153.23 182.99 C 150.06 182.74 146.90 182.50 143.73 182.24 C 140.57 181.99 137.40 181.74 134.24 181.48 C 134.47 178.32 134.70 175.15 134.94 171.98 C 135.18 168.82 135.41 165.65 135.66 162.49 C 135.90 159.32 136.14 156.15 136.39 152.99 C 136.63 149.82 136.88 146.66 137.13 143.49 C 137.38 140.33 137.64 137.16 137.89 134.00 Z" />
            </g>
            <g style="fill:rgb(256.0 256.0 256.0);stroke:rgb(256.0 151.59215686274507 0.0);stroke-width:0.1536;fill-opacity:1.0">
                <path d="M 136.71 198.56 C 139.88 198.64 143.06 198.73 146.23 198.81 C 149.41 198.90 152.58 198.99 155.75 199.08 C 158.93 199.17 162.10 199.26 165.27 199.36 C 168.45 199.46 171.62 199.56 174.79 199.66 C 177.97 199.76 181.14 199.86 184.31 199.97 C 184.23 203.14 184.15 206.32 184.06 209.49 C 183.98 212.66 183.89 215.84 183.80 219.01 C 183.71 222.19 183.61 225.36 183.52 228.53 C 183.42 231.71 183.32 234.88 183.22 238.05 C 183.12 241.23 183.01 244.40 182.91 247.57 C 179.73 247.49 176.56 247.41 173.39 247.32 C 170.21 247.24 167.04 247.15 163.87 247.06 C 160.69 246.97 157.52 246.87 154.34 246.78 C 151.17 246.68 148.00 246.58 144.82 246.48 C 141.65 246.38 138.48 246.27 135.30 246.17 C 135.38 242.99 135.47 239.82 135.55 236.65 C 135.64 233.47 135.73 230.30 135.82 227.12 C 135.91 223.95 136.00 220.78 136.10 217.60 C 136.20 214.43 136.30 211.26 136.40 208.08 C 136.50 204.91 136.60 201.74 136.71 198.56 Z" />
            </g>
            <g style="fill:rgb(256.0 256.0 256.0);stroke:rgb(0.0 95.37254901960779 219.85882352941175);stroke-width:0.1536;fill-opacity:1.0">
                <path d="M 136.82 198.46 C 139.99 198.55 143.17 198.65 146.34 198.75 C 149.52 198.85 152.69 198.96 155.86 199.06 C 159.04 199.17 162.21 199.28 165.38 199.39 C 168.55 199.50 171.73 199.61 174.90 199.73 C 178.07 199.84 181.25 199.96 184.42 200.08 C 184.32 203.25 184.23 206.43 184.13 209.60 C 184.02 212.77 183.92 215.95 183.82 219.12 C 183.71 222.29 183.60 225.47 183.49 228.64 C 183.38 231.81 183.27 234.99 183.15 238.16 C 183.04 241.33 182.92 244.51 182.80 247.68 C 179.62 247.58 176.45 247.49 173.28 247.38 C 170.10 247.28 166.93 247.18 163.76 247.08 C 160.58 246.97 157.41 246.86 154.24 246.75 C 151.06 246.64 147.89 246.53 144.72 246.41 C 141.54 246.30 138.37 246.18 135.20 246.06 C 135.29 242.88 135.39 239.71 135.49 236.54 C 135.59 233.36 135.70 230.19 135.80 227.02 C 135.91 223.84 136.02 220.67 136.13 217.50 C 136.24 214.32 136.35 211.15 136.47 207.98 C 136.58 204.80 136.70 201.63 136.82 198.46 Z" />
            </g>
            <g style="fill:rgb(256.0 256.0 256.0);stroke:rgb(256.0 151.59215686274507 0.0);stroke-width:0.1536;fill-opacity:1.0">
                <path d="M 134.45 200.91 C 137.62 200.68 140.78 200.46 143.95 200.24 C 147.12 200.02 150.29 199.80 153.45 199.58 C 156.62 199.37 159.79 199.15 162.96 198.94 C 166.12 198.73 169.29 198.52 172.46 198.32 C 175.63 198.11 178.80 197.91 181.97 197.71 C 182.19 200.88 182.42 204.04 182.64 207.21 C 182.86 210.38 183.08 213.55 183.29 216.71 C 183.51 219.88 183.72 223.05 183.93 226.22 C 184.14 229.38 184.35 232.55 184.56 235.72 C 184.76 238.89 184.97 242.06 185.17 245.23 C 182.00 245.45 178.83 245.68 175.67 245.90 C 172.50 246.12 169.33 246.34 166.16 246.55 C 163.00 246.77 159.83 246.98 156.66 247.19 C 153.49 247.40 150.32 247.61 147.16 247.82 C 143.99 248.02 140.82 248.23 137.65 248.43 C 137.42 245.26 137.20 242.09 136.98 238.93 C 136.76 235.76 136.54 232.59 136.32 229.42 C 136.11 226.26 135.89 223.09 135.68 219.92 C 135.47 216.75 135.26 213.58 135.06 210.42 C 134.85 207.25 134.65 204.08 134.45 200.91 Z" />
            </g>
            <g style="fill:rgb(256.0 256.0 256.0);stroke:rgb(256.0 151.59215686274507 0.0);stroke-width:0.1536;fill-opacity:1.0">
                <path d="M 133.73 201.76 C 136.89 201.43 140.05 201.10 143.21 200.77 C 146.37 200.45 149.52 200.13 152.68 199.81 C 155.84 199.49 159.00 199.17 162.16 198.85 C 165.32 198.54 168.48 198.23 171.64 197.92 C 174.80 197.60 177.96 197.30 181.12 196.99 C 181.45 200.15 181.78 203.31 182.10 206.47 C 182.43 209.62 182.75 212.78 183.07 215.94 C 183.39 219.10 183.71 222.26 184.02 225.42 C 184.34 228.58 184.65 231.74 184.96 234.90 C 185.27 238.06 185.58 241.22 185.89 244.38 C 182.73 244.71 179.57 245.04 176.41 245.36 C 173.25 245.69 170.09 246.01 166.94 246.33 C 163.78 246.65 160.62 246.97 157.46 247.28 C 154.30 247.60 151.14 247.91 147.98 248.22 C 144.82 248.53 141.66 248.84 138.50 249.14 C 138.17 245.99 137.84 242.83 137.51 239.67 C 137.19 236.51 136.87 233.35 136.55 230.19 C 136.23 227.04 135.91 223.88 135.59 220.72 C 135.28 217.56 134.97 214.40 134.66 211.24 C 134.35 208.08 134.04 204.92 133.73 201.76 Z" />
            </g>
            <g style="fill:rgb(256.0 256.0 256.0);stroke:rgb(256.0 151.59215686274507 0.0);stroke-width:0.1536;fill-opacity:1.0">
                <path d="M 201.40 6.99 C 204.57 7.22 207.74 7.45 210.90 7.69 C 214.07 7.93 217.23 8.17 220.40 8.41 C 223.57 8.65 226.73 8.90 229.90 9.14 C 233.06 9.39 236.23 9.64 239.39 9.89 C 242.56 10.15 245.72 10.40 248.89 10.66 C 248.65 13.82 248.42 16.99 248.18 20.16 C 247.95 23.32 247.71 26.49 247.46 29.65 C 247.22 32.82 246.98 35.99 246.73 39.15 C 246.48 42.32 246.23 45.48 245.98 48.65 C 245.73 51.81 245.47 54.98 245.22 58.14 C 242.05 57.91 238.88 57.68 235.72 57.44 C 232.55 57.20 229.39 56.96 226.22 56.72 C 223.05 56.48 219.89 56.23 216.72 55.99 C 213.56 55.74 210.39 55.49 207.23 55.24 C 204.06 54.98 200.90 54.73 197.73 54.47 C 197.97 51.31 198.20 48.14 198.44 44.97 C 198.67 41.81 198.91 38.64 199.16 35.48 C 199.40 32.31 199.64 29.14 199.89 25.98 C 200.14 22.81 200.39 19.65 200.64 16.48 C 200.89 13.32 201.15 10.15 201.40 6.99 Z" />
            </g>
            <g style="fill:rgb(256.0 256.0 256.0);stroke:rgb(256.0 151.59215686274507 0.0);stroke-width:0.1536;fill-opacity:1.0">
                <path d="M 201.55 6.87 C 204.71 7.12 207.88 7.37 211.04 7.62 C 214.21 7.88 217.37 8.13 220.53 8.39 C 223.70 8.65 226.86 8.92 230.03 9.18 C 233.19 9.45 236.36 9.71 239.52 9.98 C 242.68 10.25 245.85 10.53 249.01 10.80 C 248.76 13.97 248.51 17.13 248.25 20.30 C 248.00 23.46 247.74 26.63 247.48 29.79 C 247.22 32.95 246.96 36.12 246.69 39.28 C 246.43 42.45 246.16 45.61 245.89 48.77 C 245.62 51.94 245.35 55.10 245.07 58.26 C 241.91 58.01 238.74 57.76 235.58 57.51 C 232.41 57.25 229.25 57.00 226.09 56.74 C 222.92 56.48 219.76 56.21 216.59 55.95 C 213.43 55.68 210.26 55.42 207.10 55.15 C 203.94 54.88 200.77 54.60 197.61 54.33 C 197.86 51.16 198.11 48.00 198.37 44.83 C 198.62 41.67 198.88 38.50 199.14 35.34 C 199.40 32.18 199.66 29.01 199.93 25.85 C 200.19 22.68 200.46 19.52 200.73 16.36 C 201.00 13.19 201.27 10.03 201.55 6.87 Z" />
            </g>
            <g style="fill:rgb(256.0 256.0 256.0);stroke:rgb(256.0 151.59215686274507 0.0);stroke-width:0.1536;fill-opacity:1.0">
                <path d="M 197.40 11.06 C 200.56 10.75 203.72 10.45 206.88 10.14 C 210.04 9.84 213.20 9.54 216.36 9.25 C 219.52 8.95 222.68 8.66 225.85 8.37 C 229.01 8.08 232.17 7.79 235.33 7.50 C 238.49 7.22 241.66 6.93 244.82 6.65 C 245.13 9.81 245.43 12.97 245.73 16.13 C 246.03 19.29 246.33 22.46 246.63 25.62 C 246.92 28.78 247.22 31.94 247.51 35.10 C 247.80 38.26 248.09 41.43 248.37 44.59 C 248.66 47.75 248.94 50.91 249.22 54.07 C 246.06 54.38 242.90 54.68 239.74 54.99 C 236.58 55.29 233.42 55.59 230.26 55.88 C 227.10 56.18 223.94 56.47 220.77 56.76 C 217.61 57.05 214.45 57.34 211.29 57.63 C 208.13 57.91 204.96 58.20 201.80 58.48 C 201.49 55.32 201.19 52.16 200.89 49.00 C 200.59 45.84 200.29 42.67 199.99 39.51 C 199.70 36.35 199.40 33.19 199.11 30.03 C 198.82 26.87 198.53 23.70 198.25 20.54 C 197.96 17.38 197.68 14.22 197.40 11.06 Z" />
            </g>
            <g style="fill:rgb(256.0 256.0 256.0);stroke:rgb(256.0 151.59215686274507 0.0);stroke-width:0.1536;fill-opacity:1.0">
                <path d="M 196.84 11.75 C 199.99 11.36 203.14 10.97 206.29 10.59 C 209.44 10.20 212.60 9.82 215.75 9.44 C 218.90 9.06 222.05 8.68 225.21 8.31 C 228.36 7.93 231.51 7.56 234.66 7.19 C 237.82 6.82 240.97 6.46 244.13 6.09 C 244.52 9.24 244.90 12.39 245.29 15.55 C 245.67 18.70 246.05 21.85 246.43 25.00 C 246.81 28.15 247.19 31.31 247.57 34.46 C 247.94 37.61 248.31 40.77 248.68 43.92 C 249.05 47.07 249.42 50.23 249.78 53.38 C 246.63 53.77 243.48 54.16 240.33 54.54 C 237.18 54.93 234.03 55.31 230.87 55.69 C 227.72 56.07 224.57 56.45 221.42 56.82 C 218.26 57.20 215.11 57.57 211.96 57.94 C 208.80 58.31 205.65 58.67 202.49 59.04 C 202.10 55.89 201.72 52.74 201.33 49.58 C 200.95 46.43 200.57 43.28 200.19 40.13 C 199.81 36.98 199.43 33.82 199.05 30.67 C 198.68 27.52 198.31 24.36 197.94 21.21 C 197.57 18.06 197.20 14.90 196.84 11.75 Z" />
            </g>
            <g style="fill:rgb(256.0 256.0 256.0);stroke:rgb(256.0 151.59215686274507 0.0);stroke-width:0.1536;fill-opacity:1.0">
                <path d="M 202.19 69.84 C 205.34 70.17 208.50 70.50 211.66 70.83 C 214.82 71.16 217.97 71.50 221.13 71.83 C 224.29 72.17 227.44 72.51 230.60 72.86 C 233.76 73.20 236.91 73.54 240.07 73.89 C 243.23 74.24 246.38 74.59 249.54 74.94 C 249.21 78.10 248.88 81.26 248.55 84.42 C 248.21 87.57 247.88 90.73 247.54 93.89 C 247.20 97.04 246.86 100.20 246.52 103.36 C 246.18 106.51 245.83 109.67 245.49 112.83 C 245.14 115.98 244.79 119.14 244.43 122.29 C 241.28 121.97 238.12 121.64 234.96 121.30 C 231.80 120.97 228.65 120.64 225.49 120.30 C 222.33 119.96 219.18 119.62 216.02 119.28 C 212.86 118.93 209.71 118.59 206.55 118.24 C 203.39 117.89 200.24 117.54 197.08 117.19 C 197.41 114.03 197.74 110.87 198.07 107.72 C 198.41 104.56 198.74 101.40 199.08 98.25 C 199.42 95.09 199.76 91.93 200.10 88.77 C 200.44 85.62 200.79 82.46 201.13 79.31 C 201.48 76.15 201.83 72.99 202.19 69.84 Z" />
            </g>
            <g style="fill:rgb(256.0 256.0 256.0);stroke:rgb(256.0 151.59215686274507 0.0);stroke-width:0.1536;fill-opacity:1.0">
                <path d="M 200.65 71.15 C 203.82 71.29 206.99 71.43 210.17 71.57 C 213.34 71.72 216.51 71.86 219.68 72.01 C 222.85 72.16 226.02 72.31 229.19 72.46 C 232.37 72.61 235.54 72.77 238.71 72.92 C 241.88 73.08 245.05 73.24 248.22 73.41 C 248.08 76.58 247.94 79.75 247.80 82.92 C 247.66 86.09 247.51 89.26 247.37 92.44 C 247.22 95.61 247.07 98.78 246.92 101.95 C 246.76 105.12 246.61 108.29 246.45 111.46 C 246.29 114.64 246.13 117.81 245.97 120.98 C 242.80 120.84 239.63 120.70 236.46 120.56 C 233.28 120.42 230.11 120.27 226.94 120.12 C 223.77 119.98 220.60 119.83 217.43 119.67 C 214.25 119.52 211.08 119.37 207.91 119.21 C 204.74 119.05 201.57 118.89 198.40 118.73 C 198.54 115.55 198.68 112.38 198.82 109.21 C 198.96 106.04 199.11 102.87 199.25 99.70 C 199.40 96.52 199.55 93.35 199.70 90.18 C 199.86 87.01 200.01 83.84 200.17 80.67 C 200.33 77.50 200.49 74.33 200.65 71.15 Z" />
            </g>
            <g style="fill:rgb(256.0 256.0 256.0);stroke:rgb(256.0 151.59215686274507 0.0);stroke-width:0.1536;fill-opacity:1.0">
                <path d="M 200.35 71.43 C 203.53 71.53 206.70 71.63 209.87 71.73 C 213.05 71.84 216.22 71.94 219.39 72.05 C 222.57 72.16 225.74 72.28 228.91 72.39 C 232.09 72.51 235.26 72.62 238.43 72.74 C 241.60 72.86 244.78 72.98 247.95 73.11 C 247.85 76.28 247.75 79.46 247.64 82.63 C 247.54 85.80 247.43 88.98 247.32 92.15 C 247.21 95.32 247.10 98.50 246.99 101.67 C 246.87 104.84 246.75 108.01 246.63 111.19 C 246.51 114.36 246.39 117.53 246.27 120.71 C 243.09 120.61 239.92 120.50 236.75 120.40 C 233.57 120.29 230.40 120.19 227.23 120.08 C 224.05 119.97 220.88 119.86 217.71 119.74 C 214.53 119.63 211.36 119.51 208.19 119.39 C 205.02 119.27 201.84 119.15 198.67 119.02 C 198.77 115.85 198.87 112.68 198.98 109.50 C 199.08 106.33 199.19 103.16 199.30 99.98 C 199.41 96.81 199.52 93.64 199.63 90.46 C 199.75 87.29 199.87 84.12 199.99 80.94 C 200.11 77.77 200.23 74.60 200.35 71.43 Z" />
            </g>
            <g style="fill:rgb(256.0 256.0 256.0);stroke:rgb(256.0 151.59215686274507 0.0);stroke-width:0.1536;fill-opacity:1.0">
                <path d="M 199.98 71.78 C 203.15 71.83 206.32 71.89 209.50 71.94 C 212.67 72.00 215.85 72.06 219.02 72.12 C 222.20 72.18 225.37 72.24 228.55 72.31 C 231.72 72.37 234.89 72.44 238.07 72.51 C 241.24 72.58 244.42 72.66 247.59 72.73 C 247.54 75.91 247.49 79.08 247.43 82.26 C 247.38 85.43 247.32 88.60 247.26 91.78 C 247.20 94.95 247.14 98.13 247.07 101.30 C 247.00 104.48 246.94 107.65 246.86 110.83 C 246.79 114.00 246.72 117.17 246.64 120.35 C 243.47 120.30 240.30 120.24 237.12 120.19 C 233.95 120.13 230.77 120.08 227.60 120.01 C 224.42 119.95 221.25 119.89 218.07 119.83 C 214.90 119.76 211.73 119.69 208.55 119.62 C 205.38 119.55 202.20 119.48 199.03 119.40 C 199.08 116.23 199.13 113.05 199.19 109.88 C 199.24 106.70 199.30 103.53 199.36 100.35 C 199.42 97.18 199.49 94.00 199.55 90.83 C 199.62 87.66 199.68 84.48 199.76 81.31 C 199.83 78.13 199.90 74.96 199.98 71.78 Z" />
            </g>
            <g style="fill:rgb(256.0 256.0 256.0);stroke:rgb(0.0 95.37254901960779 219.85882352941175);stroke-width:0.1536;fill-opacity:1.0">
                <path d="M 198.70 136.58 C 201.87 136.46 205.05 136.34 208.22 136.22 C 211.39 136.11 214.57 135.99 217.74 135.88 C 220.91 135.77 224.09 135.67 227.26 135.56 C 230.43 135.46 233.61 135.35 236.78 135.25 C 239.95 135.15 243.13 135.05 246.30 134.96 C 246.42 138.13 246.54 141.30 246.65 144.48 C 246.77 147.65 246.88 150.82 246.99 154.00 C 247.10 157.17 247.21 160.34 247.32 163.52 C 247.42 166.69 247.53 169.86 247.63 173.04 C 247.73 176.21 247.82 179.38 247.92 182.56 C 244.75 182.68 241.57 182.80 238.40 182.91 C 235.23 183.03 232.05 183.14 228.88 183.25 C 225.71 183.36 222.53 183.47 219.36 183.57 C 216.19 183.68 213.01 183.78 209.84 183.88 C 206.67 183.98 203.49 184.08 200.32 184.18 C 200.20 181.00 200.08 177.83 199.97 174.66 C 199.85 171.48 199.74 168.31 199.63 165.14 C 199.52 161.97 199.41 158.79 199.30 155.62 C 199.20 152.45 199.10 149.27 198.99 146.10 C 198.89 142.92 198.80 139.75 198.70 136.58 Z" />
            </g>
            <g style="fill:rgb(256.0 256.0 256.0);stroke:rgb(256.0 151.59215686274507 0.0);stroke-width:0.1536;fill-opacity:1.0">
                <path d="M 196.79 138.81 C 199.94 138.42 203.09 138.02 206.24 137.63 C 209.39 137.24 212.54 136.85 215.69 136.46 C 218.85 136.07 222.00 135.69 225.15 135.31 C 228.30 134.93 231.45 134.55 234.61 134.17 C 237.76 133.79 240.91 133.42 244.06 133.05 C 244.46 136.20 244.86 139.35 245.25 142.50 C 245.64 145.65 246.03 148.80 246.42 151.95 C 246.80 155.10 247.19 158.25 247.57 161.41 C 247.95 164.56 248.33 167.71 248.71 170.86 C 249.08 174.02 249.46 177.17 249.83 180.32 C 246.68 180.72 243.53 181.11 240.38 181.51 C 237.23 181.90 234.08 182.29 230.93 182.67 C 227.77 183.06 224.62 183.45 221.47 183.83 C 218.32 184.21 215.17 184.59 212.01 184.97 C 208.86 185.34 205.71 185.72 202.56 186.09 C 202.16 182.94 201.76 179.79 201.37 176.64 C 200.98 173.49 200.59 170.33 200.20 167.18 C 199.82 164.03 199.43 160.88 199.05 157.73 C 198.67 154.58 198.29 151.42 197.91 148.27 C 197.54 145.12 197.16 141.97 196.79 138.81 Z" />
            </g>
            <g style="fill:rgb(256.0 256.0 256.0);stroke:rgb(256.0 151.59215686274507 0.0);stroke-width:0.1536;fill-opacity:1.0">
                <path d="M 202.54 133.06 C 205.69 133.43 208.84 133.80 212.00 134.18 C 215.15 134.55 218.30 134.93 221.45 135.31 C 224.61 135.69 227.76 136.07 230.91 136.46 C 234.06 136.84 237.21 137.23 240.36 137.62 C 243.52 138.01 246.67 138.40 249.82 138.79 C 249.45 141.95 249.08 145.10 248.70 148.25 C 248.33 151.41 247.95 154.56 247.57 157.71 C 247.19 160.86 246.81 164.02 246.42 167.17 C 246.04 170.32 245.65 173.47 245.26 176.62 C 244.87 179.77 244.48 182.92 244.08 186.07 C 240.93 185.70 237.78 185.33 234.62 184.96 C 231.47 184.58 228.32 184.21 225.17 183.83 C 222.01 183.45 218.86 183.06 215.71 182.68 C 212.56 182.29 209.41 181.91 206.26 181.52 C 203.10 181.13 199.95 180.73 196.80 180.34 C 197.17 177.19 197.55 174.03 197.92 170.88 C 198.29 167.73 198.67 164.57 199.05 161.42 C 199.43 158.27 199.81 155.12 200.20 151.97 C 200.58 148.82 200.97 145.66 201.36 142.51 C 201.75 139.36 202.14 136.21 202.54 133.06 Z" />
            </g>
            <g style="fill:rgb(256.0 256.0 256.0);stroke:rgb(256.0 151.59215686274507 0.0);stroke-width:0.1536;fill-opacity:1.0">
                <path d="M 197.27 138.21 C 200.43 137.89 203.59 137.56 206.75 137.24 C 209.91 136.92 213.07 136.61 216.23 136.29 C 219.38 135.98 222.54 135.67 225.70 135.36 C 228.86 135.05 232.02 134.74 235.18 134.43 C 238.35 134.13 241.51 133.83 244.67 133.53 C 244.99 136.69 245.31 139.85 245.63 143.00 C 245.95 146.16 246.27 149.32 246.58 152.48 C 246.90 155.64 247.21 158.80 247.52 161.96 C 247.83 165.12 248.14 168.28 248.44 171.44 C 248.75 174.60 249.05 177.76 249.35 180.92 C 246.19 181.25 243.03 181.57 239.87 181.89 C 236.71 182.21 233.55 182.53 230.40 182.84 C 227.24 183.16 224.08 183.47 220.92 183.78 C 217.76 184.09 214.60 184.40 211.44 184.70 C 208.27 185.00 205.11 185.31 201.95 185.61 C 201.63 182.45 201.31 179.29 200.99 176.13 C 200.67 172.97 200.35 169.81 200.04 166.65 C 199.72 163.49 199.41 160.33 199.10 157.17 C 198.79 154.01 198.48 150.85 198.18 147.69 C 197.87 144.53 197.57 141.37 197.27 138.21 Z" />
            </g>
            <g style="fill:rgb(256.0 256.0 256.0);stroke:rgb(0.0 95.37254901960779 219.85882352941175);stroke-width:0.1536;fill-opacity:1.0">
                <path d="M 201.44 197.46 C 204.61 197.69 207.78 197.93 210.94 198.18 C 214.11 198.42 217.27 198.66 220.44 198.91 C 223.60 199.16 226.77 199.41 229.93 199.66 C 233.10 199.91 236.26 200.17 239.43 200.42 C 242.59 200.68 245.76 200.94 248.92 201.20 C 248.69 204.37 248.45 207.53 248.20 210.70 C 247.96 213.87 247.72 217.03 247.47 220.20 C 247.22 223.36 246.97 226.53 246.72 229.69 C 246.47 232.86 246.21 236.02 245.96 239.19 C 245.70 242.35 245.44 245.52 245.18 248.68 C 242.01 248.44 238.84 248.20 235.68 247.96 C 232.51 247.72 229.35 247.48 226.18 247.23 C 223.02 246.98 219.85 246.73 216.69 246.48 C 213.52 246.23 210.36 245.97 207.19 245.71 C 204.03 245.46 200.86 245.20 197.70 244.93 C 197.93 241.77 198.17 238.60 198.42 235.44 C 198.66 232.27 198.90 229.11 199.15 225.94 C 199.40 222.77 199.65 219.61 199.90 216.44 C 200.15 213.28 200.41 210.11 200.66 206.95 C 200.92 203.78 201.18 200.62 201.44 197.46 Z" />
            </g>
            <g style="fill:rgb(256.0 256.0 256.0);stroke:rgb(256.0 151.59215686274507 0.0);stroke-width:0.1536;fill-opacity:1.0">
                <path d="M 196.72 202.41 C 199.86 202.00 203.01 201.59 206.16 201.19 C 209.31 200.79 212.46 200.39 215.61 199.99 C 218.76 199.59 221.91 199.20 225.06 198.80 C 228.21 198.41 231.36 198.02 234.52 197.63 C 237.67 197.24 240.82 196.86 243.97 196.47 C 244.38 199.62 244.78 202.77 245.19 205.92 C 245.59 209.07 245.99 212.22 246.39 215.37 C 246.79 218.52 247.18 221.67 247.58 224.82 C 247.97 227.97 248.36 231.12 248.75 234.27 C 249.14 237.43 249.52 240.58 249.90 243.73 C 246.76 244.14 243.61 244.54 240.46 244.95 C 237.31 245.35 234.16 245.75 231.01 246.15 C 227.86 246.55 224.71 246.94 221.56 247.33 C 218.41 247.73 215.26 248.12 212.10 248.51 C 208.95 248.89 205.80 249.28 202.65 249.66 C 202.24 246.51 201.84 243.37 201.43 240.22 C 201.03 237.07 200.63 233.92 200.23 230.77 C 199.83 227.62 199.44 224.47 199.04 221.32 C 198.65 218.17 198.26 215.01 197.87 211.86 C 197.48 208.71 197.10 205.56 196.72 202.41 Z" />
            </g>
            <g style="fill:rgb(256.0 256.0 256.0);stroke:rgb(256.0 151.59215686274507 0.0);stroke-width:0.1536;fill-opacity:1.0">
                <path d="M 197.15 201.86 C 200.30 201.52 203.46 201.18 206.62 200.84 C 209.77 200.50 212.93 200.17 216.09 199.84 C 219.25 199.50 222.40 199.17 225.56 198.84 C 228.72 198.52 231.88 198.19 235.04 197.87 C 238.20 197.54 241.35 197.22 244.51 196.91 C 244.86 200.06 245.20 203.22 245.54 206.38 C 245.87 209.53 246.21 212.69 246.54 215.85 C 246.88 219.00 247.21 222.16 247.53 225.32 C 247.86 228.48 248.19 231.64 248.51 234.80 C 248.83 237.95 249.16 241.11 249.47 244.27 C 246.32 244.62 243.16 244.96 240.00 245.29 C 236.85 245.63 233.69 245.97 230.53 246.30 C 227.37 246.63 224.22 246.97 221.06 247.29 C 217.90 247.62 214.74 247.95 211.58 248.27 C 208.42 248.59 205.27 248.91 202.11 249.23 C 201.76 246.08 201.42 242.92 201.08 239.76 C 200.75 236.60 200.41 233.45 200.08 230.29 C 199.74 227.13 199.41 223.97 199.09 220.82 C 198.76 217.66 198.43 214.50 198.11 211.34 C 197.79 208.18 197.46 205.02 197.15 201.86 Z" />
            </g>
            <g style="fill:rgb(256.0 256.0 256.0);stroke:rgb(256.0 151.59215686274507 0.0);stroke-width:0.1536;fill-opacity:1.0">
                <path d="M 197.82 201.06 C 200.99 200.81 204.15 200.57 207.32 200.33 C 210.49 200.09 213.65 199.86 216.82 199.62 C 219.98 199.39 223.15 199.16 226.32 198.93 C 229.48 198.70 232.65 198.47 235.82 198.25 C 238.99 198.02 242.15 197.80 245.32 197.58 C 245.57 200.75 245.81 203.91 246.05 207.08 C 246.29 210.24 246.52 213.41 246.76 216.58 C 246.99 219.74 247.22 222.91 247.45 226.08 C 247.68 229.24 247.91 232.41 248.13 235.58 C 248.36 238.74 248.58 241.91 248.80 245.08 C 245.63 245.32 242.47 245.57 239.30 245.80 C 236.13 246.04 232.97 246.28 229.80 246.52 C 226.64 246.75 223.47 246.98 220.30 247.21 C 217.14 247.44 213.97 247.67 210.80 247.89 C 207.63 248.12 204.47 248.34 201.30 248.56 C 201.06 245.39 200.81 242.23 200.57 239.06 C 200.33 235.89 200.10 232.73 199.86 229.56 C 199.63 226.39 199.40 223.23 199.17 220.06 C 198.94 216.89 198.71 213.73 198.49 210.56 C 198.26 207.39 198.04 204.23 197.82 201.06 Z" />
            </g></svg>