<?xml version="1.0" encoding="utf-8" ?>
<svg baseProfile="full" height="256" version="1.1" width="256" xmlns="http://www.w3.org/2000/svg" xmlns:ev="http://www.w3.org/2001/xml-events" xmlns:xlink="http://www.w3.org/1999/xlink"><defs /><g style="fill-opacity: 1.0;stroke: rgb(256.0 151.59215686274507 0.0);fill: rgb(256.0 256.0 256.0);stroke-width: 0.512;"><path d="M 5.573569965180191 0.2562088669915532 C 21.36504737831055 1.8860130810140925 37.14994240861171 3.5789766854651437 52.92787622125513 5.335059049502654 C 51.29807200723223 21.12653646263297 49.60510840278118 36.91143149293413 47.849026038743666 52.68936530557755 C 32.057548625613705 51.059561091554684 16.272653595312562 49.36659748710363 0.49471978266913563 47.61051512306612 C 2.1245239966916323 31.819037709936133 3.817487601142683 16.034142679634975 5.573569965180191 0.2562088669915497" style="vector-effect: non-scaling-stroke;" /></g><g style="fill-opacity: 1.0;stroke: rgb(0.0 95.37254901960779 219.85882352941175);fill: rgb(256.0 256.0 256.0);stroke-width: 0.512;"><path d="M 1.5778540945685826 4.0580036289506936 C 17.423574937844695 3.0883894673292946 33.273110854820146 2.182162067540948 49.12608145929599 1.3393431788909804 C 50.09569562091702 17.185064022167115 51.00192302070536 33.034599939142566 51.844741909355335 48.88757054361841 C 35.999021066079564 49.85718470523942 20.149485149104123 50.76341210502776 4.2965145446282795 51.60623099367773 C 3.3269003830068993 35.760510150401984 2.4206729832185507 19.910974233426533 1.5778540945685824 4.05800362895069" style="vector-effect: non-scaling-stroke;" /></g><g style="fill-opacity: 1.0;stroke: rgb(256.0 151.59215686274507 0.0);fill: rgb(256.0 256.0 256.0);stroke-width: 0.512;"><path d="M 3.647607461289656 1.9334574554784112 C 19.517184899812563 2.361864491107517 35.384985231819385 2.8537481228602486 51.25062763276827 3.4090965456120883 C 50.82222059713881 19.278673984134986 50.33033696538608 35.146474316141806 49.774988542634226 51.01211671709069 C 33.9054111041117 50.58370968146124 18.037610772104888 50.09182604970851 2.1719683711559954 49.53647762695666 C 2.6003754067850866 33.66690018843412 3.092259038537817 17.7990998564273 3.647607461289656 1.9334574554784076" style="vector-effect: non-scaling-stroke;" /></g><g style="fill-opacity: 1.0;stroke: rgb(0.0 95.37254901960779 219.85882352941175);fill: rgb(256.0 256.0 256.0);stroke-width: 0.512;"><path d="M 5.5847825117829935 0.24717244470777544 C 21.375561551667026 1.883729189526281 37.15973120139217 3.583442504270163 52.9369126435389 5.346271596105455 C 51.30035589872004 21.137050635989446 49.60064258397616 36.92122028571459 47.83781349214087 52.69840172786133 C 32.04703445225723 51.0618449830425 16.262864802532096 49.362131668298616 0.48568336038535875 47.59930257646332 C 2.1222401052038222 31.808523536579653 3.821953419947704 16.02435388685451 5.5847825117829935 0.24717244470777194" style="vector-effect: non-scaling-stroke;" /></g><g style="fill-opacity: 1.0;stroke: rgb(0.0 95.37254901960779 219.85882352941175);fill: rgb(256.0 256.0 256.0);stroke-width: 0.512;"><path d="M 4.90868002841524 64.3076801577676 C 20.736737149204327 65.5322733336794 36.55983258499766 66.82017383969612 52.3775865841634 68.17135076642201 C 51.15299340825125 83.99940788721108 49.86509290223453 99.82250332300441 48.51391597550863 115.64025732217014 C 32.685858854719946 114.41566414625802 16.86276341892661 113.1277636402413 1.0450094197608668 111.7765867135154 C 2.269602595672626 95.94852959272669 3.5575031016893446 80.12543415693335 4.90868002841524 64.3076801577676" style="vector-effect: non-scaling-stroke;" /></g><g style="fill-opacity: 1.0;stroke: rgb(256.0 151.59215686274507 0.0);fill: rgb(256.0 256.0 256.0);stroke-width: 0.512;"><path d="M 1.7446693238533761 67.37352687405168 C 17.597141166621896 66.52137833084862 33.452958193612055 65.73264308361362 49.31173986787934 65.0073400618601 C 50.16388841108203 80.85981190462866 50.95262365831702 96.71562893161881 51.67792668007054 112.57441060588607 C 35.82545483730237 113.42655914908876 19.969637810312207 114.21529439632376 4.110856136044932 114.94059741807726 C 3.25870759284188 99.0881255753091 2.4699723456068865 83.23230854831895 1.744669323853376 67.37352687405168" style="vector-effect: non-scaling-stroke;" /></g><g style="fill-opacity: 1.0;stroke: rgb(256.0 151.59215686274507 0.0);fill: rgb(256.0 256.0 256.0);stroke-width: 0.512;"><path d="M 5.509976286537324 63.80879192794788 C 21.30536444708704 65.40024834363057 37.09432360035792 67.0548799461228 52.87647481398314 68.77264702454411 C 51.28501839830008 84.56803518509379 49.63038679580786 100.35699433836467 47.91261971738655 116.13914555198988 C 32.117231556837226 114.54768913630687 16.32827240356636 112.89305753381464 0.546121189941136 111.17529045539332 C 2.137577605623784 95.37990229484397 3.7922092081160095 79.59094314157309 5.509976286537324 63.80879192794788" style="vector-effect: non-scaling-stroke;" /></g><g style="fill-opacity: 1.0;stroke: rgb(256.0 151.59215686274507 0.0);fill: rgb(256.0 256.0 256.0);stroke-width: 0.512;"><path d="M 2.7253214302346542 66.33532563200251 C 18.599668045958094 66.15604878095489 34.4746682716354 66.04027003347768 50.349941109928494 65.98799216824139 C 50.52921796097575 81.86233878396483 50.64499670845295 97.73733900964214 50.697274573689256 113.61261184793523 C 34.82292795796617 113.79188869898249 18.947927732288868 113.9076674464597 3.072654893995773 113.95994531169598 C 2.8933780429481537 98.08559869597292 2.7775992954709525 82.21059847029561 2.7253214302346542 66.33532563200251" style="vector-effect: non-scaling-stroke;" /></g><g style="fill-opacity: 1.0;stroke: rgb(256.0 151.59215686274507 0.0);fill: rgb(256.0 256.0 256.0);stroke-width: 0.512;"><path d="M 2.491524504954537 130.07610998942053 C 18.363304669429155 129.73904163427304 34.23636962013985 129.46546174805763 50.11033840619481 129.25537689664563 C 50.44740676134193 145.12715706112024 50.72098664755733 161.00022201183094 50.93107149896937 176.87419079788592 C 35.0592913344951 177.21125915303298 19.18622638378441 177.4848390392484 3.312257597729444 177.69492389066045 C 2.97518924258197 161.8231437261862 2.701609356366566 145.9500787754755 2.491524504954537 130.07610998942053" style="vector-effect: non-scaling-stroke;" /></g><g style="fill-opacity: 1.0;stroke: rgb(0.0 95.37254901960779 219.85882352941175);fill: rgb(256.0 256.0 256.0);stroke-width: 0.512;"><path d="M 5.6072058339063595 127.23148803781056 C 21.396580305053895 128.88154090827453 37.17929140715824 130.59474467640436 52.95496035780478 132.37105822559747 C 51.30490748734046 148.16043269674495 49.59170371921063 163.9431437988493 47.81539017001751 179.71881274949587 C 32.026015698870374 178.06875987903157 16.243304596766038 176.35555611090174 0.4676356461194988 174.5792425617086 C 2.117688516583412 158.78986809056144 3.83089228471324 143.0071569884571 5.6072058339063595 127.23148803781056" style="vector-effect: non-scaling-stroke;" /></g><g style="fill-opacity: 1.0;stroke: rgb(0.0 95.37254901960779 219.85882352941175);fill: rgb(256.0 256.0 256.0);stroke-width: 0.512;"><path d="M 2.7554611016777315 129.80596370521295 C 18.630023264208784 129.64691398534785 34.50515812730679 129.5513631503318 50.3804846904024 129.5193134933688 C 50.539534410267116 145.39387565589988 50.63508524528316 161.26901051899787 50.66713490224617 177.14433708209347 C 34.792572739715474 177.3033868019582 18.917437876617473 177.3989376369742 3.0421113135218723 177.43098729393722 C 2.883061593656788 161.55642513140654 2.787510758640746 145.68129026830854 2.7554611016777315 129.80596370521295" style="vector-effect: non-scaling-stroke;" /></g><g style="fill-opacity: 1.0;stroke: rgb(0.0 95.37254901960779 219.85882352941175);fill: rgb(256.0 256.0 256.0);stroke-width: 0.512;"><path d="M 1.4529878226304511 131.20116810556797 C 17.29304283146137 130.14301973097102 33.13726707350689 129.14823580900654 48.98528029004737 128.2168402143215 C 50.04342866464397 144.05689522315245 51.03821258660845 159.90111946519798 51.969608181293474 175.74913268173844 C 36.129553172462884 176.80728105633503 20.28532893041738 177.8020649782995 4.437315713876903 178.7334605729845 C 3.3791673392799604 162.89340556415397 2.3843834173154757 147.04918132210844 1.452987822630451 131.20116810556797" style="vector-effect: non-scaling-stroke;" /></g><g style="fill-opacity: 1.0;stroke: rgb(256.0 151.59215686274507 0.0);fill: rgb(256.0 256.0 256.0);stroke-width: 0.512;"><path d="M 3.2038838872299245 192.86173062571427 C 19.078635153006953 193.00062956437952 34.952767323960416 193.20302695251098 50.82589942358538 193.46891793260534 C 50.687000484919764 209.34366919838237 50.48460309678831 225.2178013693358 50.218712116693965 241.09093346896077 C 34.3439608509173 240.95203453029518 18.469828679963854 240.74963714216372 2.5966965803388806 240.48374616206937 C 2.735595519004133 224.6089948962927 2.9379929071355866 208.73486272533927 3.2038838872299245 192.86173062571427" style="vector-effect: non-scaling-stroke;" /></g><g style="fill-opacity: 1.0;stroke: rgb(256.0 151.59215686274507 0.0);fill: rgb(256.0 256.0 256.0);stroke-width: 0.512;"><path d="M 4.306666101709347 191.8338383464446 C 20.159295054928112 192.68305912870434 36.0084637144383 193.59568702988983 51.85379170285506 194.57170014708475 C 51.004570920594944 210.42432910030348 50.09194301940946 226.27349775981367 49.11592990221454 242.11882574823045 C 33.26330094899615 241.26960496597036 17.414132289485977 240.35697706478487 1.5688043010692092 239.38096394758995 C 2.418025083328939 223.52833499437153 3.3306529845144226 207.67916633486135 4.306666101709347 191.8338383464446" style="vector-effect: non-scaling-stroke;" /></g><g style="fill-opacity: 1.0;stroke: rgb(256.0 151.59215686274507 0.0);fill: rgb(256.0 256.0 256.0);stroke-width: 0.512;"><path d="M 5.007129575776439 191.2267380114497 C 20.830381025534177 192.51193613749538 36.64842838971834 193.86042212854187 52.460892037849945 195.27216362115183 C 51.17569391180389 211.09541507090955 49.82720792075744 226.91346243509372 48.41546642814744 242.72592608322532 C 32.59221497839009 241.44072795717926 16.774167614205936 240.09224196613286 0.961703966074329 238.68050047352284 C 2.2469020921199885 222.85724902376546 3.5953880831664407 207.0392016595813 5.007129575776439 191.2267380114497" style="vector-effect: non-scaling-stroke;" /></g><g style="fill-opacity: 1.0;stroke: rgb(256.0 151.59215686274507 0.0);fill: rgb(256.0 256.0 256.0);stroke-width: 0.512;"><path d="M 1.1191048088221578e-11 196.46733209277522 C 15.73176662765917 194.33694728277652 31.471991867417277 192.26949806083564 47.22029795652444 190.26503404538653 C 49.35068276652276 205.99680067303456 51.41813198846364 221.73702591279266 53.42259600391276 237.48533200189985 C 37.69082937626509 239.6157168118981 21.950604136506996 241.68316603383897 6.202298047399829 243.6876300492881 C 4.071913237401191 227.9558634216405 2.0044640154603126 212.21563818188238 1.119058902594839e-11 196.46733209277522" style="vector-effect: non-scaling-stroke;" /></g><g style="fill-opacity: 1.0;stroke: rgb(256.0 151.59215686274507 0.0);fill: rgb(256.0 256.0 256.0);stroke-width: 0.512;"><path d="M 68.79790508004808 0.4818556710504964 C 84.60577901204073 1.9440945077933547 100.40774075712714 3.4695589913023572 116.20341107088052 5.058212510686208 C 114.7411722341373 20.86608644267882 113.2157077506283 36.66804818776524 111.62705423124444 52.46371850151861 C 95.8191802992522 51.001479664775424 80.01721855416578 49.47601518126642 64.2215482404124 47.887361661882565 C 65.68378707715524 32.07948772989029 67.20925156066424 16.277525984803866 68.79790508004808 0.48185567105049293" style="vector-effect: non-scaling-stroke;" /></g><g style="fill-opacity: 1.0;stroke: rgb(0.0 95.37254901960779 219.85882352941175);fill: rgb(256.0 256.0 256.0);stroke-width: 0.512;"><path d="M 65.33513247748505 3.7741061232310074 C 81.19084020150254 2.984452252231869 97.04964311810933 2.2582243707468606 112.91116061870002 1.595439908123115 C 113.70081448969877 17.451147632140625 114.42704237118379 33.30995054874741 115.08982683380755 49.1714680493381 C 99.2341191097904 49.96112192033685 83.37531619318362 50.68734980182186 67.51379869259293 51.3501342644456 C 66.72414482159381 35.49442654042848 65.9979169401088 19.635623623821697 65.33513247748505 3.774106123231004" style="vector-effect: non-scaling-stroke;" /></g><g style="fill-opacity: 1.0;stroke: rgb(256.0 151.59215686274507 0.0);fill: rgb(256.0 256.0 256.0);stroke-width: 0.512;"><path d="M 64.55352335254699 4.661540411211217 C 80.37173077210025 3.315682061516813 96.19525835215892 2.033101924938837 112.0237263307198 0.813830783185063 C 113.36958468041382 16.63203820273835 114.6521648169918 32.455565782797024 115.87143595874558 48.28403376135789 C 100.05322853919266 49.629892111051895 84.22970095913398 50.91247224762987 68.40123298057311 52.131743389383644 C 67.05537463087875 36.31353596983075 65.77279449430077 20.49000838977208 64.55352335254699 4.661540411211213" style="vector-effect: non-scaling-stroke;" /></g><g style="fill-opacity: 1.0;stroke: rgb(0.0 95.37254901960779 219.85882352941175);fill: rgb(256.0 256.0 256.0);stroke-width: 0.512;"><path d="M 64.8270163509955 4.343829295790091 C 80.66075135606724 3.194979238290003 96.49901842636521 2.1094687162144536 112.34143744614092 1.087323781633584 C 113.49028750364064 16.92105878670534 114.5757980257162 32.75932585700332 115.59794296029708 48.601744876779016 C 99.76420795522567 49.750594934278716 83.9259408849277 50.83610545635427 68.083521865152 51.858250390935126 C 66.93467180765192 36.024515385863765 65.84916128557637 20.18624831556579 64.8270163509955 4.343829295790087" style="vector-effect: non-scaling-stroke;" /></g><g style="fill-opacity: 1.0;stroke: rgb(256.0 151.59215686274507 0.0);fill: rgb(256.0 256.0 256.0);stroke-width: 0.512;"><path d="M 68.36260901514936 64.34789465362456 C 84.19289556070154 65.54332284099551 100.01833707229444 66.80206739283051 115.83855374199078 68.12409809947182 C 114.64312555461947 83.95438464502399 113.38438100278448 99.77982615661688 112.06235029614315 115.60004282631323 C 96.23206375059137 114.40461463894192 80.40662223899847 113.14587008710694 64.58640556930213 111.82383938046561 C 65.78183375667305 95.9935528349138 67.04057830850805 80.1681113233209 68.36260901514936 64.34789465362456" style="vector-effect: non-scaling-stroke;" /></g><g style="fill-opacity: 1.0;stroke: rgb(256.0 151.59215686274507 0.0);fill: rgb(256.0 256.0 256.0);stroke-width: 0.512;"><path d="M 63.93270478650546 68.91486256443213 C 79.7053077912357 67.11152811940359 95.48506104327052 65.3712912997384 111.27158583118322 63.69419387082785 C 113.07492027621139 79.46679687555813 114.81515709587657 95.24655012759295 116.49225452478713 111.03307491550564 C 100.71965152005721 112.83640936053379 84.93989826802239 114.57664618019896 69.15337348010969 116.2537436091095 C 67.3500390350812 100.48114060437963 65.60980221541601 84.70138735234481 63.93270478650546 68.91486256443213" style="vector-effect: non-scaling-stroke;" /></g><g style="fill-opacity: 1.0;stroke: rgb(0.0 95.37254901960779 219.85882352941175);fill: rgb(256.0 256.0 256.0);stroke-width: 0.512;"><path d="M 66.44909161953782 66.11157344673407 C 82.32442123788744 66.0810746893278 98.19980934988435 66.11407737238947 114.07487494888126 66.21058070386026 C 114.10537370628715 82.08591032220987 114.07237102322549 97.96129843420678 113.97586769175471 113.8363640332037 C 98.10053807340546 113.86686279060959 82.22514996140856 113.83386010754793 66.35008436241164 113.73735677607714 C 66.31958560500537 97.8620271577279 66.35258828806704 81.98663904573098 66.44909161953782 66.11157344673407" style="vector-effect: non-scaling-stroke;" /></g><g style="fill-opacity: 1.0;stroke: rgb(256.0 151.59215686274507 0.0);fill: rgb(256.0 256.0 256.0);stroke-width: 0.512;"><path d="M 64.09118615488069 68.7186036306108 C 79.87685461812575 67.03346510990632 95.6692004927162 65.41147600361505 111.46784476500454 63.85267523920306 C 113.15298328570866 79.63834370244817 114.77497239199992 95.43068957703862 116.33377315641192 111.22933384932695 C 100.54810469316719 112.91447237003104 84.75575881857674 114.5364614763223 68.9571145462884 116.09526224073429 C 67.27197602558394 100.3095937774896 65.64998691929269 84.51724790289913 64.09118615488069 68.7186036306108" style="vector-effect: non-scaling-stroke;" /></g><g style="fill-opacity: 1.0;stroke: rgb(256.0 151.59215686274507 0.0);fill: rgb(256.0 256.0 256.0);stroke-width: 0.512;"><path d="M 67.72146770861154 128.40989751873494 C 83.57692489541681 129.2045660426094 99.42913998623409 130.0626532165532 115.27773253056472 130.9841384466183 C 114.48306400668989 146.83959563342356 113.6249768327461 162.69181072424084 112.70349160268098 178.54040326857148 C 96.8480344158761 177.74573474469665 80.99581932505882 176.88764757075288 65.1472267807282 175.96616234068773 C 65.94189530460264 160.11070515388283 66.79998247854643 144.25849006306555 67.72146770861154 128.40989751873494" style="vector-effect: non-scaling-stroke;" /></g><g style="fill-opacity: 1.0;stroke: rgb(256.0 151.59215686274507 0.0);fill: rgb(256.0 256.0 256.0);stroke-width: 0.512;"><path d="M 68.4384301943376 127.78462120210597 C 84.26511509876198 129.0268231186707 100.08676788871688 130.33232680603987 115.90300884719369 131.70110093234436 C 114.66080693062858 147.52778583676871 113.3553032432594 163.3494386267236 111.98652911695494 179.16567958520042 C 96.15984421253094 177.92347766863534 80.33819142257606 176.61797398126618 64.52195046409923 175.2491998549617 C 65.76415238066394 159.42251495053767 67.06965606803313 143.60086216058278 68.4384301943376 127.78462120210597" style="vector-effect: non-scaling-stroke;" /></g><g style="fill-opacity: 1.0;stroke: rgb(256.0 151.59215686274507 0.0);fill: rgb(256.0 256.0 256.0);stroke-width: 0.512;"><path d="M 69.45945964830364 126.95299586842481 C 85.22548030488898 128.81299944949015 100.9839978830041 130.73605967315945 116.73463418087486 132.72213038631043 C 114.87463059980915 148.48815104289574 112.95157037613986 164.24666862101083 110.96549966298889 179.99730491888164 C 95.19947900640395 178.13730133781596 79.44096142828883 176.21424111414666 63.69032513041805 174.22817040099568 C 65.55032871148336 158.46214974441068 67.47338893515266 142.70363216629556 69.45945964830364 126.95299586842481" style="vector-effect: non-scaling-stroke;" /></g><g style="fill-opacity: 1.0;stroke: rgb(256.0 151.59215686274507 0.0);fill: rgb(256.0 256.0 256.0);stroke-width: 0.512;"><path d="M 66.95197654750432 129.12229603853962 C 82.82448868571231 129.42292718777657 98.69573480921098 129.78704718303996 114.56533401076005 130.21464728551106 C 114.26470286152272 146.08715942371907 113.90058286625933 161.95840554721772 113.47298276378822 177.8280047487668 C 97.60047062558061 177.52737359952948 81.72922450208195 177.1632536042661 65.85962530053287 176.73565350179499 C 66.16025644976982 160.86314136358735 66.52437644503321 144.9918952400887 66.95197654750432 129.12229603853962" style="vector-effect: non-scaling-stroke;" /></g><g style="fill-opacity: 1.0;stroke: rgb(256.0 151.59215686274507 0.0);fill: rgb(256.0 256.0 256.0);stroke-width: 0.512;"><path d="M 67.00731125025067 192.57074499513806 C 82.87910014657429 192.90740193623665 98.74947892791411 193.30754468629078 114.61806670784593 193.77116364194174 C 114.28140976674699 209.64295253826535 113.88126701669283 225.51333131960516 113.41764806104189 241.38191909953696 C 97.54585916471864 241.04526215843805 81.67548038337883 240.6451194083839 65.806892603447 240.18150045273296 C 66.14354954454556 224.3097115564097 66.54369229459971 208.4393327750699 67.00731125025067 192.57074499513806" style="vector-effect: non-scaling-stroke;" /></g><g style="fill-opacity: 1.0;stroke: rgb(256.0 151.59215686274507 0.0);fill: rgb(256.0 256.0 256.0);stroke-width: 0.512;"><path d="M 66.87580051153685 192.69646535474334 C 82.74917655171173 192.94737121887187 98.62148547486208 193.26176958353605 114.49234634824066 193.63965290322793 C 114.24144048411175 209.51302894340282 113.92704211944758 225.38533786655316 113.5491587997557 241.25619873993173 C 97.67578275958121 241.00529287580284 81.80347383643085 240.69089451113865 65.93261296305228 240.31301119144678 C 66.1835188271808 224.43963515127226 66.49791719184498 208.5673262281219 66.87580051153685 192.69646535474334" style="vector-effect: non-scaling-stroke;" /></g><g style="fill-opacity: 1.0;stroke: rgb(256.0 151.59215686274507 0.0);fill: rgb(256.0 256.0 256.0);stroke-width: 0.512;"><path d="M 64.54395692910657 195.17634440691967 C 80.36157237990082 193.82354652244223 96.18453575170751 192.53402451096434 112.0124672960643 191.30780932079762 C 113.36526518054139 207.1254247715919 114.65478719201927 222.9483881433986 115.88100238218598 238.77631968775538 C 100.06338693139207 240.12911757223242 84.24042355958538 241.41863958371033 68.4124920152286 242.64485477387703 C 67.05969413075118 226.82723932308315 65.7701721192733 211.00427595127644 64.54395692910657 195.17634440691967" style="vector-effect: non-scaling-stroke;" /></g><g style="fill-opacity: 1.0;stroke: rgb(256.0 151.59215686274507 0.0);fill: rgb(256.0 256.0 256.0);stroke-width: 0.512;"><path d="M 67.11286421530825 192.47081661521992 C 82.98305223254481 192.87597456344852 98.85155613717257 193.34461164311205 114.71799508776405 193.8767166069993 C 114.31283713953509 209.7469046242359 113.84420005987157 225.61540852886364 113.31209509598429 241.48184747945513 C 97.4419070787481 241.07668953122618 81.57340317412036 240.60805245156263 65.70696422352886 240.07594748767536 C 66.11212217175745 224.20575947043915 66.58075925142097 208.3372555658114 67.11286421530825 192.47081661521992" style="vector-effect: non-scaling-stroke;" /></g><g style="fill-opacity: 1.0;stroke: rgb(256.0 151.59215686274507 0.0);fill: rgb(256.0 256.0 256.0);stroke-width: 0.512;"><path d="M 129.7548577711972 2.8066033401377375 C 145.62939987285503 2.645563816590487 161.5045226343748 2.548023105608009 177.3798450554776 2.513983548150977 C 177.5408845790245 18.388525649808827 177.63842529000698 34.26364841132859 177.672464847464 50.13897083243136 C 161.7979227458065 50.300010355978245 145.92279998428674 50.39755106696073 130.04747756318397 50.43159062441775 C 129.88643803963672 34.557048522760276 129.78889732865423 18.681925761240507 129.7548577711972 2.806603340137734" style="vector-effect: non-scaling-stroke;" /></g><g style="fill-opacity: 1.0;stroke: rgb(0.0 95.37254901960779 219.85882352941175);fill: rgb(256.0 256.0 256.0);stroke-width: 0.512;"><path d="M 131.55959186906193 1.1092359287472675 C 147.40301468706303 2.115702061060388 163.24234826677994 3.185537858776335 179.07721246686808 4.318717646015719 C 178.07074633455457 20.16214046401681 177.00091053683863 36.001474043733715 175.86773074959925 51.836338243821835 C 160.0243079315985 50.82987211150837 144.18497435188164 49.760036313792426 128.3501101517935 48.626856526553034 C 129.3565762841066 32.78343370855229 130.42641208182255 16.944100128835384 131.55959186906193 1.109235928747264" style="vector-effect: non-scaling-stroke;" /></g><g style="fill-opacity: 1.0;stroke: rgb(0.0 95.37254901960779 219.85882352941175);fill: rgb(256.0 256.0 256.0);stroke-width: 0.512;"><path d="M 132.68089443043374 0.17192707176723232 C 148.46573107418723 1.8648395903188653 164.2437329284565 3.6208846837880317 180.01452132384813 5.44002020738754 C 178.3216088052961 21.22485685114099 176.56556371182697 37.00285870541027 174.74642818822744 52.77364710080188 C 158.96159154447437 51.08073458224992 143.18358969020508 49.324689488780756 127.41280129481348 47.50555396518125 C 129.10571381336507 31.720717321428122 130.86175890683424 15.942715467158838 132.68089443043374 0.17192707176722882" style="vector-effect: non-scaling-stroke;" /></g><g style="fill-opacity: 1.0;stroke: rgb(0.0 95.37254901960779 219.85882352941175);fill: rgb(256.0 256.0 256.0);stroke-width: 0.512;"><path d="M 132.507783505973 0.3113026736155682 C 148.30344856358175 1.9000084529498107 164.09269561534947 3.551890537684383 179.8751457219998 5.266909282926801 C 178.2864399426652 21.062574340535505 176.63455785793062 36.85182139230321 174.91953911268823 52.634271498953545 C 159.12387405507985 51.04556571961898 143.33462700331216 49.39368363488441 127.55217689666182 47.678664889641986 C 129.14088267599604 31.882999832033608 130.7927647607306 16.093752780265905 132.507783505973 0.3113026736155647" style="vector-effect: non-scaling-stroke;" /></g><g style="fill-opacity: 1.0;stroke: rgb(256.0 151.59215686274507 0.0);fill: rgb(256.0 256.0 256.0);stroke-width: 0.512;"><path d="M 130.15516717860973 65.90926690557984 C 146.03017727959343 66.01450453723868 161.90470292994624 66.18324178834992 177.77836314371982 66.41547460924785 C 177.6731255120606 82.29048471023155 177.50438826094938 98.16501036058436 177.27215544005145 114.03867057435794 C 161.3971453390681 113.93343294269872 145.52261968871528 113.76469569158749 129.64895947494173 113.53246287068956 C 129.75419710660057 97.65745276970623 129.9229343577118 81.78292711935342 130.15516717860973 65.90926690557984" style="vector-effect: non-scaling-stroke;" /></g><g style="fill-opacity: 1.0;stroke: rgb(256.0 151.59215686274507 0.0);fill: rgb(256.0 256.0 256.0);stroke-width: 0.512;"><path d="M 131.21426423290887 64.91624236101019 C 147.06998641421131 65.70560588614006 162.9224877184608 66.5583891425373 178.77138768828948 67.47457166354698 C 177.98202416315922 83.33029384484941 177.12924090676202 99.18279514909885 176.21305838575233 115.03169511892756 C 160.3573362044503 114.24233159379733 144.50483490020085 113.38954833740013 128.6559349303721 112.47336581639044 C 129.44529845550196 96.61764363508834 130.2980817118992 80.7651423308389 131.21426423290887 64.91624236101019" style="vector-effect: non-scaling-stroke;" /></g><g style="fill-opacity: 1.0;stroke: rgb(0.0 95.37254901960779 219.85882352941175);fill: rgb(256.0 256.0 256.0);stroke-width: 0.512;"><path d="M 131.9205290988081 64.2996253493397 C 147.7481326240683 65.5300672669542 163.5707510711803 66.82381467689653 179.38800469995994 68.18083652944622 C 178.15756278234508 84.0084400547064 176.86381537240277 99.83105850181842 175.5067935198531 115.64831213059806 C 159.67918999459326 114.41787021298322 143.85657154748125 113.12412280304089 128.0393179187016 111.7671009504912 C 129.2697598363161 95.93949742523137 130.5635072462584 80.11687897811935 131.9205290988081 64.2996253493397" style="vector-effect: non-scaling-stroke;" /></g><g style="fill-opacity: 1.0;stroke: rgb(256.0 151.59215686274507 0.0);fill: rgb(256.0 256.0 256.0);stroke-width: 0.512;"><path d="M 132.4863246366207 63.82989296994627 C 148.28328794104846 65.40563756346874 164.0738850791854 67.04456370722363 179.8577370793534 68.74663206725884 C 178.28199248583056 84.54359537168655 176.64306634207568 100.33419250982348 174.94099798204047 116.11804450999148 C 159.14403467761312 114.54229991646866 143.35343753947618 112.90337377271379 127.56958553930818 111.20130541267858 C 129.14533013283062 95.40434210825121 130.7842562765855 79.61374497011427 132.4863246366207 63.82989296994627" style="vector-effect: non-scaling-stroke;" /></g><g style="fill-opacity: 1.0;stroke: rgb(256.0 151.59215686274507 0.0);fill: rgb(256.0 256.0 256.0);stroke-width: 0.512;"><path d="M 132.86306206910422 127.02963978393481 C 148.63582883936917 128.8315413007435 164.40132491243645 130.69652667701936 180.1591719190492 132.6245511534267 C 178.35727040224012 148.3973179236916 176.49228502596426 164.16281399675887 174.56426054955693 179.9206610033716 C 158.7914937792924 178.11875948656257 143.02599770622516 176.25377411028674 127.26815069961239 174.3257496338794 C 129.07005221642106 158.55298286361483 130.9350375926969 142.78748679054755 132.86306206910422 127.02963978393481" style="vector-effect: non-scaling-stroke;" /></g><g style="fill-opacity: 1.0;stroke: rgb(256.0 151.59215686274507 0.0);fill: rgb(256.0 256.0 256.0);stroke-width: 0.512;"><path d="M 129.5945210441828 129.97239325847048 C 145.4676015041933 129.70343717379387 161.34169429615682 129.49797448678214 177.21641844451352 129.35601012850523 C 177.48537452918976 145.22909058851573 177.6908372162015 161.10318338047924 177.8328015744784 176.97790752883594 C 161.95972111446827 177.24686361351218 146.08562832250476 177.4523263005239 130.21090417414806 177.59429065880082 C 129.94194808947145 161.7212101987907 129.73648540245972 145.84711740682718 129.5945210441828 129.97239325847048" style="vector-effect: non-scaling-stroke;" /></g><g style="fill-opacity: 1.0;stroke: rgb(0.0 95.37254901960779 219.85882352941175);fill: rgb(256.0 256.0 256.0);stroke-width: 0.512;"><path d="M 133.18648890717026 126.7778150723661 C 148.93615539947186 128.77156180821888 164.6777839061008 130.8282992350453 180.4109966306179 132.94797799149273 C 178.41724989476475 148.6976444837943 176.36051246793832 164.43927299042326 174.24083371149092 180.1724857149403 C 158.49116721918972 178.1787389790872 142.74953871256076 176.12200155226077 127.01632598804368 174.00232279581337 C 129.0100727238964 158.2526563035121 131.06681015072283 142.51102779688316 133.18648890717026 126.7778150723661" style="vector-effect: non-scaling-stroke;" /></g><g style="fill-opacity: 1.0;stroke: rgb(256.0 151.59215686274507 0.0);fill: rgb(256.0 256.0 256.0);stroke-width: 0.512;"><path d="M 131.79775146466687 127.90553139442231 C 147.63106937740298 129.06011553586967 163.459705620238 130.27802833062617 179.28328030856167 131.55924054898932 C 178.12869616711393 147.3925584617254 176.91078337235746 163.22119470456042 175.62957115399428 179.0447693928841 C 159.79625324125854 177.8901852514364 143.96761699842355 176.6722724566799 128.14404231009988 175.39106023831673 C 129.29862645154722 159.557742325581 130.5165392463037 143.72910608274597 131.79775146466687 127.90553139442231" style="vector-effect: non-scaling-stroke;" /></g><g style="fill-opacity: 1.0;stroke: rgb(256.0 151.59215686274507 0.0);fill: rgb(256.0 256.0 256.0);stroke-width: 0.512;"><path d="M 130.61410954429942 192.47075659316994 C 146.4842965087184 192.8759557785569 162.3527991955841 193.34463409100255 178.2192367634984 193.87678028230616 C 177.81403757811105 209.74696724672515 177.3453592656654 225.61546993359087 176.8132130743618 241.48190750150513 C 160.9430261099432 241.07670831611782 145.07452342307747 240.60803000367216 129.2080858551632 240.07588381236855 C 129.61328504055012 224.20569684794995 130.08196335299579 208.33719416108423 130.61410954429942 192.47075659316994" style="vector-effect: non-scaling-stroke;" /></g><g style="fill-opacity: 1.0;stroke: rgb(0.0 95.37254901960779 219.85882352941175);fill: rgb(256.0 256.0 256.0);stroke-width: 0.512;"><path d="M 130.7257488709124 192.36600084662277 C 146.5939298445851 192.84334061264283 162.46013798640598 193.38415119319598 178.32399251004557 193.98841960891914 C 177.84665274402514 209.85660058259182 177.305842163472 225.72280872441272 176.70157374774882 241.5866632480523 C 160.8333927740765 241.1093234820319 144.9671846322556 240.56851290147873 129.10333010861603 239.96424448575556 C 129.58066987463607 224.09606351208322 130.12148045518924 208.22985537026233 130.7257488709124 192.36600084662277" style="vector-effect: non-scaling-stroke;" /></g><g style="fill-opacity: 1.0;stroke: rgb(256.0 151.59215686274507 0.0);fill: rgb(256.0 256.0 256.0);stroke-width: 0.512;"><path d="M 128.35381981265385 194.81801624155733 C 144.1888735216122 193.68748773689424 160.02838600431065 192.62030396918493 175.87197711511098 191.61649055066056 C 177.0025056197737 207.45154425961894 178.069689387483 223.29105674231738 179.07350280600738 239.1346478531177 C 163.23844909704934 240.2651763577804 147.39893661435093 241.3323601254897 131.5553455035506 242.3361735440141 C 130.42481699888754 226.5011198350561 129.35763323117823 210.66160735235763 128.35381981265385 194.81801624155733" style="vector-effect: non-scaling-stroke;" /></g><g style="fill-opacity: 1.0;stroke: rgb(256.0 151.59215686274507 0.0);fill: rgb(256.0 256.0 256.0);stroke-width: 0.512;"><path d="M 127.63736869990112 195.66578339572675 C 143.42656494578625 194.01402597577123 159.22230506450268 192.42543194783502 175.02420996094153 190.9000394379078 C 176.67596738089668 206.689235683793 178.2645614088329 222.4849758025094 179.78995391876012 238.28688069894824 C 164.0007576728753 239.93863811890336 148.20501755415887 241.5272321468396 132.40311265772002 243.0526246567668 C 130.75135523776456 227.26342841088203 129.16276120982832 211.4676882921656 127.63736869990112 195.66578339572675" style="vector-effect: non-scaling-stroke;" /></g><g style="fill-opacity: 1.0;stroke: rgb(256.0 151.59215686274507 0.0);fill: rgb(256.0 256.0 256.0);stroke-width: 0.512;"><path d="M 195.30735474515112 0.895952253385154 C 211.14029157839843 2.0557504685295203 226.9685258869742 3.2788757918087508 242.7916777959145 4.565298868420598 C 241.63187958076978 20.398235701667893 240.40875425749053 36.22647001024366 239.1223311808787 52.049621919183956 C 223.28939434763174 50.889823704039244 207.46116003905598 49.66669838076002 191.6380081301157 48.380275304148164 C 192.79780634526003 32.54733847090121 194.02093166853928 16.71910416232544 195.30735474515112 0.8959522533851505" style="vector-effect: non-scaling-stroke;" /></g><g style="fill-opacity: 1.0;stroke: rgb(256.0 151.59215686274507 0.0);fill: rgb(256.0 256.0 256.0);stroke-width: 0.512;"><path d="M 195.45052208684206 0.7740155809334972 C 211.27673553066938 2.022209754878677 227.09789289288358 3.3337037898168522 242.91361446836615 4.70846621011154 C 241.6654202944206 20.534679653938845 240.35392625948245 36.35583701615301 238.97916383918775 52.17155859163561 C 223.15295039536082 50.923364417690095 207.33179303314665 49.61187038275192 191.51607145766405 48.23710796245723 C 192.7642656316092 32.41089451863026 194.07575966654736 16.589737156416092 195.45052208684206 0.7740155809334937" style="vector-effect: non-scaling-stroke;" /></g><g style="fill-opacity: 1.0;stroke: rgb(256.0 151.59215686274507 0.0);fill: rgb(256.0 256.0 256.0);stroke-width: 0.512;"><path d="M 191.3023563358141 4.9633575987227125 C 207.1037277352644 3.432448534772595 222.91115956542134 1.9647510800620955 238.72427245057693 0.56030045908352 C 240.25518151452667 16.361671858533896 241.72287896923717 32.16910368869082 243.12732959021577 47.98221657384639 C 227.32595819076576 49.51312563779611 211.51852636060883 50.980823092506604 195.70541347545327 52.38527371348518 C 194.17450441150316 36.58390231403521 192.70680695679266 20.77647048387828 191.3023563358141 4.963357598722709" style="vector-effect: non-scaling-stroke;" /></g><g style="fill-opacity: 1.0;stroke: rgb(256.0 151.59215686274507 0.0);fill: rgb(256.0 256.0 256.0);stroke-width: 0.512;"><path d="M 190.74205587674032 5.656830130861412 C 206.49736506541035 3.708175970970206 222.26040584941975 1.8225508424575616 238.03079991843822 9.737659636978432e-12 C 239.97945407832907 15.75530918867982 241.86507920684173 31.518349972689215 243.68763004928957 47.28874404170769 C 227.93232086061982 49.23739820159849 212.16928007661045 51.12302333011114 196.39888600759195 52.94557417255895 C 194.4502318477008 37.19026498388928 192.56460671918816 21.42722419987988 190.74205587674032 5.656830130861408" style="vector-effect: non-scaling-stroke;" /></g><g style="fill-opacity: 1.0;stroke: rgb(256.0 151.59215686274507 0.0);fill: rgb(256.0 256.0 256.0);stroke-width: 0.512;"><path d="M 196.09017964846282 63.74686215285038 C 211.88084307096034 65.38453408057303 227.66489264302984 67.08536211129078 243.4419495501336 68.84930542541665 C 241.80427762241058 84.63996884791413 240.10344959169282 100.42401841998361 238.33950627756698 116.2010753270874 C 222.54884285506986 114.5634033993644 206.7647932830004 112.86257536864667 190.9877363758966 111.09863205452079 C 192.6254083036192 95.30796863202364 194.32623633433693 79.52391905995415 196.09017964846282 63.74686215285038" style="vector-effect: non-scaling-stroke;" /></g><g style="fill-opacity: 1.0;stroke: rgb(256.0 151.59215686274507 0.0);fill: rgb(256.0 256.0 256.0);stroke-width: 0.512;"><path d="M 194.55392040091215 65.06222233953282 C 210.4144143899211 65.7490637259263 226.27209757134474 66.4993443409069 242.12658936345116 67.31304617786594 C 241.43974797705732 83.17354016687486 240.6894673620767 99.03122334829851 239.87576552511769 114.88571514040493 C 224.0152715361091 114.1988737540111 208.15758835468546 113.44859313903049 192.30309656257904 112.63489130207145 C 192.9899379489725 96.77439731306289 193.7402185639531 80.91671413163924 194.55392040091215 65.06222233953282" style="vector-effect: non-scaling-stroke;" /></g><g style="fill-opacity: 1.0;stroke: rgb(256.0 151.59215686274507 0.0);fill: rgb(256.0 256.0 256.0);stroke-width: 0.512;"><path d="M 194.25821402443154 65.33445356897874 C 210.1257757810106 65.83195187711824 225.99128407404626 66.3929184422882 241.85435813400522 67.01733980138535 C 241.3568598258654 82.88490155796438 240.7958932606954 98.75040985100004 240.1714719015983 114.61348391095903 C 224.3039101450196 114.1159856028192 208.43840185198394 113.55501903764923 192.57532779202495 112.93059767855206 C 193.07282610016443 97.06303592197338 193.6337926653344 81.19752762893772 194.25821402443154 65.33445356897874" style="vector-effect: non-scaling-stroke;" /></g><g style="fill-opacity: 1.0;stroke: rgb(256.0 151.59215686274507 0.0);fill: rgb(256.0 256.0 256.0);stroke-width: 0.512;"><path d="M 193.88008312061626 65.69225744972337 C 209.75343927807006 65.94441804155949 225.62572329966807 66.26007104938144 241.4965542532606 66.63920889757007 C 241.2443936614241 82.51256505502387 240.92874065360215 98.38484907662186 240.54960280541354 114.25568003021439 C 224.6762466479601 114.00351943837794 208.80396262636214 113.68786643055597 192.93313167276958 113.30872858236734 C 193.1852922646057 97.43537242491391 193.50094527242763 81.56308840331592 193.88008312061626 65.69225744972337" style="vector-effect: non-scaling-stroke;" /></g><g style="fill-opacity: 1.0;stroke: rgb(0.0 95.37254901960779 219.85882352941175);fill: rgb(256.0 256.0 256.0);stroke-width: 0.512;"><path d="M 192.60624075104155 130.4853870791231 C 208.4701406767956 129.88231178439455 224.33638944806506 129.34269450167204 240.20460627754522 128.86654818167966 C 240.80768157227342 144.73044810743374 241.34729885499593 160.59669687870317 241.8234451749883 176.46491370818336 C 225.9595452492346 177.0679890029115 210.09329647796517 177.60760628563403 194.22507964848498 178.0837526056264 C 193.62200435375647 162.2198526798727 193.08238707103393 146.35360390860325 192.60624075104155 130.4853870791231" style="vector-effect: non-scaling-stroke;" /></g><g style="fill-opacity: 1.0;stroke: rgb(256.0 151.59215686274507 0.0);fill: rgb(256.0 256.0 256.0);stroke-width: 0.512;"><path d="M 190.69394127622914 132.72052937073164 C 206.44469743782017 130.73540947421301 222.20333107590918 128.81330054282773 237.9694639859367 126.9542487068672 C 239.95458388245495 142.70500486845827 241.87669281384024 158.4636385065473 243.73574464980075 174.2297714165748 C 227.98498848821006 176.214891313093 212.22635485012103 178.13700024447826 196.46022194009353 179.99605208043883 C 194.47510204357494 164.24529591884817 192.55299311218965 148.48666228075913 190.69394127622914 132.72052937073164" style="vector-effect: non-scaling-stroke;" /></g><g style="fill-opacity: 1.0;stroke: rgb(256.0 151.59215686274507 0.0);fill: rgb(256.0 256.0 256.0);stroke-width: 0.512;"><path d="M 196.44233635797093 126.9682552637316 C 212.20971974839415 128.81667125718576 227.96964640524666 130.72814939052958 243.7217380929367 132.70264378860907 C 241.87332209948218 148.4700271790323 239.96184396613836 164.22995383588477 237.98734956805887 179.98204552357478 C 222.21996617763602 178.13362953012032 206.46003952078354 176.2221513967765 190.70794783309353 174.247656998697 C 192.55636382654762 158.48027360827413 194.46784195989144 142.72034695142162 196.44233635797093 126.9682552637316" style="vector-effect: non-scaling-stroke;" /></g><g style="fill-opacity: 1.0;stroke: rgb(256.0 151.59215686274507 0.0);fill: rgb(256.0 256.0 256.0);stroke-width: 0.512;"><path d="M 191.1763106801801 132.118480319856 C 206.96840578911278 130.49467222285764 222.7669329619894 128.93403900153334 238.57151303681232 127.43661811081816 C 240.1953211338103 143.22871321975086 241.7559543551346 159.02724039262748 243.25337524584978 174.8318204674504 C 227.46128013691745 176.45562856444835 211.66275296404083 178.01626178577266 195.8581728892179 179.5136826764878 C 194.2343647922196 163.72158756755553 192.67373157089528 147.9230603946789 191.1763106801801 132.118480319856" style="vector-effect: non-scaling-stroke;" /></g><g style="fill-opacity: 1.0;stroke: rgb(0.0 95.37254901960779 219.85882352941175);fill: rgb(256.0 256.0 256.0);stroke-width: 0.512;"><path d="M 195.34865483726412 191.3641799133498 C 211.1796995713379 192.54952513445934 227.00593960028465 193.79818979311895 242.82699509700282 195.11014392158657 C 241.6416498758929 210.94118865566028 240.3929852172333 226.76742868460704 239.08103108876568 242.58848418132524 C 223.24998635469234 241.40313896021536 207.42374632574558 240.15447430155575 191.60269082902738 238.84252017308813 C 192.7880360501369 223.01147543901473 194.0367007087965 207.18523541006797 195.34865483726412 191.3641799133498" style="vector-effect: non-scaling-stroke;" /></g><g style="fill-opacity: 1.0;stroke: rgb(256.0 151.59215686274507 0.0);fill: rgb(256.0 256.0 256.0);stroke-width: 0.512;"><path d="M 190.62016211651184 196.3163351751718 C 206.36374543780272 194.27510885968815 222.11543068995886 192.29686504240254 237.8748398351808 190.3816512008342 C 239.9160661506641 206.12523452212514 241.8943099679497 221.87691977428128 243.80952380951805 237.63632891950323 C 228.06594048822745 239.67755523498647 212.31425523607132 241.65579905227207 196.55484609084937 243.57101289384042 C 194.51361977536578 227.82742957254987 192.53537595808018 212.07574432039374 190.62016211651184 196.3163351751718" style="vector-effect: non-scaling-stroke;" /></g><g style="fill-opacity: 1.0;stroke: rgb(256.0 151.59215686274507 0.0);fill: rgb(256.0 256.0 256.0);stroke-width: 0.512;"><path d="M 191.05154513638672 195.77269163064472 C 206.83384851830002 194.05632318922548 222.62295424470193 192.40309082681398 238.41848337970788 190.8130342207091 C 240.13485182112677 206.59533760262244 241.78808418353827 222.38444332902435 243.37814078964314 238.1799724640303 C 227.59583740773016 239.89634090544914 211.80673168132827 241.54957326786067 196.0112025463223 243.1396298739655 C 194.29483410490312 227.35732649205258 192.6416017424916 211.56822076565066 191.05154513638672 195.77269163064472" style="vector-effect: non-scaling-stroke;" /></g><g style="fill-opacity: 1.0;stroke: rgb(256.0 151.59215686274507 0.0);fill: rgb(256.0 256.0 256.0);stroke-width: 0.512;"><path d="M 191.72661096250005 194.96582206748505 C 207.55482466154265 193.74325437492493 223.38786531843698 192.58400442743607 239.22535294286757 191.48810004682244 C 240.44792063542732 207.31631374586507 241.60717058291618 223.1493544027594 242.70307496352984 238.98684202719 C 226.87486126448755 240.20940971974971 211.04182060759322 241.36865966723857 195.20433298316263 242.4645640478522 C 193.98176529060254 226.63635034880997 192.82251534311368 210.80330969191564 191.72661096250005 194.96582206748505" style="vector-effect: non-scaling-stroke;" /></g></svg>