<?xml version="1.0" encoding="utf-8" ?>
<svg baseProfile="full" height="256" version="1.1" width="256" xmlns="http://www.w3.org/2000/svg" xmlns:ev="http://www.w3.org/2001/xml-events" xmlns:xlink="http://www.w3.org/1999/xlink"><defs /><g style="fill-opacity: 1.0;stroke: rgb(256.0 151.59215686274507 0.0);fill: rgb(256.0 256.0 256.0);stroke-width: 0.1536;"><path d="M 11.668808060419256 6.348399618228669 C 27.460285473549625 7.9782038322505295 43.24518050385072 9.671167436701573 59.02311431649407 11.427249800739075 C 57.39331010247254 27.218727213869478 55.70034649802149 43.00362224417057 53.94426413398399 58.78155605681393 C 38.15278672085327 57.15175184279235 22.367891690552177 55.458788238341306 6.5899578779088115 53.70270587430381 C 8.219762091930711 37.911228461173124 9.912725696381754 22.12633343087203 11.668808060419256 6.3483996182286635" style="vector-effect: non-scaling-stroke;" /></g><g style="fill-opacity: 1.0;stroke: rgb(0.0 95.37254901960779 219.85882352941175);fill: rgb(256.0 256.0 256.0);stroke-width: 0.1536;"><path d="M 7.673092189807662 10.150194380187795 C 23.518813033083678 9.180580218565725 39.368348950059065 8.27435281877738 55.221319554534844 7.431533930127415 C 56.19093371615723 23.277254773403413 57.097161115945575 39.126790690378805 57.93998000459554 54.97976129485458 C 42.09425916131923 55.949375456476986 26.244723244343838 56.85560285626532 10.391752639868054 57.698421744915294 C 9.422138478245971 41.85270090163896 8.515911078457627 26.00316498466357 7.673092189807662 10.15019438018779" style="vector-effect: non-scaling-stroke;" /></g><g style="fill-opacity: 1.0;stroke: rgb(256.0 151.59215686274507 0.0);fill: rgb(256.0 256.0 256.0);stroke-width: 0.1536;"><path d="M 9.742845556528728 8.025648206715516 C 25.612422995051595 8.454055242343944 41.480223327058354 8.945938874096672 57.34586572800718 9.50128729684851 C 56.91745869237907 25.370864735371388 56.42557506062634 41.23866506737814 55.8702266378745 57.10430746832698 C 40.000649199351315 56.675900432698846 24.132848867344553 56.18401680094612 8.26720646639572 55.628668378194284 C 8.695613502024162 39.7590909396711 9.18749713377689 23.89129060766434 9.742845556528728 8.02564820671551" style="vector-effect: non-scaling-stroke;" /></g><g style="fill-opacity: 1.0;stroke: rgb(0.0 95.37254901960779 219.85882352941175);fill: rgb(256.0 256.0 256.0);stroke-width: 0.1536;"><path d="M 11.680020607022055 6.3393631959448875 C 27.4707996469061 7.975919940762715 43.25496929663118 9.67563325550659 59.03215073877786 11.438462347341872 C 57.39559399396035 27.22924138722595 55.69588067921647 43.01341103695104 53.933051587381186 58.79059247909771 C 38.142272547496795 57.15403573428017 22.358102897771712 55.4543224195363 6.58092145562503 53.69149332770101 C 8.217478200442898 37.90071428781664 9.917191515186772 22.11654463809156 11.680020607022055 6.339363195944882" style="vector-effect: non-scaling-stroke;" /></g><g style="fill-opacity: 1.0;stroke: rgb(0.0 95.37254901960779 219.85882352941175);fill: rgb(256.0 256.0 256.0);stroke-width: 0.1536;"><path d="M 11.003918123654305 70.39987090900448 C 26.831975244443385 71.62446408491559 42.655070680236655 72.9123645909323 58.472824679402336 74.2635415176582 C 57.24823150349154 90.0915986384473 55.96033099747483 105.91469407424057 54.60915407074893 121.73244807340626 C 38.78109694995951 120.50785489749543 22.95800151416624 119.21995439147872 7.140247515000556 117.86877746475282 C 8.3648406909117 102.04072034396341 9.652741196928416 86.21762490817015 11.003918123654305 70.39987090900448" style="vector-effect: non-scaling-stroke;" /></g><g style="fill-opacity: 1.0;stroke: rgb(256.0 151.59215686274507 0.0);fill: rgb(256.0 256.0 256.0);stroke-width: 0.1536;"><path d="M 7.839907419092455 73.46571762528853 C 23.692379261860882 72.6135690820848 39.54819628885098 71.8248338348498 55.406977963118194 71.0995308130963 C 56.25912650632225 86.9520026558647 57.04786175355724 102.80781968285481 57.77316477531075 118.66660135712203 C 41.920692932542025 119.5187499003261 26.06487590555192 120.30748514756108 10.206094231284702 121.03278816931459 C 9.353945688080952 105.18031632654584 8.565210440845963 89.32449929955574 7.839907419092455 73.46571762528853" style="vector-effect: non-scaling-stroke;" /></g><g style="fill-opacity: 1.0;stroke: rgb(256.0 151.59215686274507 0.0);fill: rgb(256.0 256.0 256.0);stroke-width: 0.1536;"><path d="M 11.605214381776385 69.90098267918475 C 27.400602542326112 71.49243909486677 43.18956169559692 73.14707069735898 58.97171290922208 74.86483777578029 C 57.38025649354039 90.66022593633005 55.72562489104816 106.44918508960086 54.00785781262686 122.23133630322602 C 38.212469652076784 120.63987988754428 22.423510498805975 118.98524828505207 6.641359285180809 117.26748120663076 C 8.232815700862858 101.47209304608072 9.887447303355078 85.6831338928099 11.605214381776385 69.90098267918475" style="vector-effect: non-scaling-stroke;" /></g><g style="fill-opacity: 1.0;stroke: rgb(256.0 151.59215686274507 0.0);fill: rgb(256.0 256.0 256.0);stroke-width: 0.1536;"><path d="M 8.82055952547373 72.42751638323938 C 24.6949061411971 72.24823953219108 40.56990636687435 72.13246078471389 56.44517920516738 72.08018291947758 C 56.62445605621599 87.95452953520096 56.7402348036932 103.8295297608782 56.79251266892949 119.70480259917124 C 40.91816605320581 119.88407945021984 25.043165827528558 119.99985819769705 9.16789298923552 120.05213606293334 C 8.98861613818723 104.17778944720965 8.872837390710028 88.30278922153241 8.82055952547373 72.42751638323938" style="vector-effect: non-scaling-stroke;" /></g><g style="fill-opacity: 1.0;stroke: rgb(256.0 151.59215686274507 0.0);fill: rgb(256.0 256.0 256.0);stroke-width: 0.1536;"><path d="M 8.586762600193612 136.16830074065714 C 24.45854276466816 135.831232385509 40.331607715378794 135.5576524992936 56.2055765014337 135.34756764788156 C 56.54264485658217 151.2193478123561 56.81622474279757 167.09241276306673 57.02630959420961 182.96638154912165 C 41.15452942973474 183.3034499042701 25.281464479024105 183.57702979048554 9.407495692969196 183.78711464189755 C 9.070427337821043 167.91533447742268 8.79684745160564 152.04226952671206 8.586762600193612 136.16830074065714" style="vector-effect: non-scaling-stroke;" /></g><g style="fill-opacity: 1.0;stroke: rgb(0.0 95.37254901960779 219.85882352941175);fill: rgb(256.0 256.0 256.0);stroke-width: 0.1536;"><path d="M 11.70244392914542 133.3236787890472 C 27.491818400292967 134.97373165951046 43.27452950239724 136.6869354276403 59.05019845304372 138.4632489768334 C 57.40014558258076 154.252623447981 55.68694181445093 170.03533455008528 53.91062826525783 185.81100350073174 C 38.12125379410993 184.16095063026876 22.338542692005646 182.44774686213893 6.56287374135917 180.6714333129458 C 8.212926611822486 164.88205884179794 9.926130379952308 149.09934773969366 11.70244392914542 133.3236787890472" style="vector-effect: non-scaling-stroke;" /></g><g style="fill-opacity: 1.0;stroke: rgb(0.0 95.37254901960779 219.85882352941175);fill: rgb(256.0 256.0 256.0);stroke-width: 0.1536;"><path d="M 8.850699196916807 135.89815445644956 C 24.7252613594478 135.7391047365838 40.60039622254574 135.64355390156777 56.475722785641274 135.61150424460476 C 56.63477250550735 151.48606640713572 56.73032334052339 167.36120127023366 56.76237299748641 183.2365278333292 C 40.887810834955104 183.3955775531953 25.01267597185716 183.49112838821134 9.137349408761619 183.52317804517435 C 8.978299688895863 167.64861588264304 8.882748853879821 151.7734810195451 8.850699196916807 135.89815445644956" style="vector-effect: non-scaling-stroke;" /></g><g style="fill-opacity: 1.0;stroke: rgb(0.0 95.37254901960779 219.85882352941175);fill: rgb(256.0 256.0 256.0);stroke-width: 0.1536;"><path d="M 7.54822591786953 137.2933588568046 C 23.38828092670035 136.23521048220695 39.2325051687458 135.24042656024247 55.08051838528622 134.30903096555744 C 56.13866675988417 150.14908597438824 57.13345068184864 165.9933102164337 58.06484627653367 181.84132343297412 C 42.22479126770256 182.89947180757207 26.380567025657097 183.89425572953655 10.532553809116681 184.82565132422158 C 9.474405434519031 168.98559631539047 8.479621512554552 153.141372073345 7.54822591786953 137.2933588568046" style="vector-effect: non-scaling-stroke;" /></g><g style="fill-opacity: 1.0;stroke: rgb(256.0 151.59215686274507 0.0);fill: rgb(256.0 256.0 256.0);stroke-width: 0.1536;"><path d="M 9.299121982469 198.95392137695066 C 25.173873248245975 199.09282031561526 41.04800541919937 199.2952177037467 56.92113751882428 199.56110868384104 C 56.78223858016001 215.43585994961802 56.57984119202855 231.3099921205714 56.31395021193423 247.1831242201963 C 40.43919894615692 247.04422528153205 24.56506677520353 246.8418278934006 8.691934675578617 246.57593691330624 C 8.830833614243211 230.70118564752897 9.033231002374663 214.82705347657557 9.299121982469 198.95392137695066" style="vector-effect: non-scaling-stroke;" /></g><g style="fill-opacity: 1.0;stroke: rgb(256.0 151.59215686274507 0.0);fill: rgb(256.0 256.0 256.0);stroke-width: 0.1536;"><path d="M 10.401904196948415 197.92602909768098 C 26.254533150167163 198.77524987994005 42.103701809677275 199.68787778112554 57.94902979809398 200.66389089832046 C 57.09980901583522 216.51651985153921 56.187181114649746 232.36568851104934 55.21116799745482 248.21101649946604 C 39.35853904423574 247.36179571720726 23.50937038472562 246.44916781602177 7.664042396308915 245.47315469882687 C 8.513263178568014 229.6205257456078 9.425891079753494 213.77135708609768 10.401904196948415 197.92602909768098" style="vector-effect: non-scaling-stroke;" /></g><g style="fill-opacity: 1.0;stroke: rgb(256.0 151.59215686274507 0.0);fill: rgb(256.0 256.0 256.0);stroke-width: 0.1536;"><path d="M 11.102367671015504 197.3189287626861 C 26.92561912077324 198.60412688873112 42.74366648495733 199.95261287977758 58.556130133088885 201.36435437238757 C 57.27093200704418 217.18760582214534 55.922446015997735 233.00565318632943 54.510704523387744 248.81811683446097 C 38.68745307362966 247.53291870841625 22.869405709445566 246.1844327173698 7.0569420613140155 244.7726912247598 C 8.342140187359064 228.94943977500174 9.69062617840551 213.13139241081765 11.102367671015504 197.3189287626861" style="vector-effect: non-scaling-stroke;" /></g><g style="fill-opacity: 1.0;stroke: rgb(256.0 151.59215686274507 0.0);fill: rgb(256.0 256.0 256.0);stroke-width: 0.1536;"><path d="M 6.095238095250277 202.55952284401158 C 21.82700472289811 200.42913803401223 37.56722996265614 198.36168881207138 53.315536051763246 196.35722479662226 C 55.445920861762914 212.08899142427003 57.51337008370378 227.82921666402808 59.51783409915289 243.57752275313518 C 43.78606747150479 245.70790756313488 28.04584223174675 247.77535678507576 12.297536142639643 249.77982080052487 C 10.16715133264026 234.04805417287673 8.099702110699392 218.30782893311869 6.095238095250276 202.55952284401158" style="vector-effect: non-scaling-stroke;" /></g><g style="fill-opacity: 1.0;stroke: rgb(256.0 151.59215686274507 0.0);fill: rgb(256.0 256.0 256.0);stroke-width: 0.1536;"><path d="M 74.8931431752869 6.5740464222876085 C 90.70101710727955 8.036285259029789 106.50297885236591 9.561749742538783 122.29864916611922 11.150403261922627 C 120.83641032937734 26.95827719391531 119.31094584586836 42.76023893900167 117.7222923264845 58.55590925275498 C 101.91441839449152 57.09367041601309 86.11245664940516 55.56820593250409 70.31678633565184 53.979552413120246 C 71.77902517239406 38.17167848112727 73.30448965590305 22.369716736040914 74.8931431752869 6.574046422287603" style="vector-effect: non-scaling-stroke;" /></g><g style="fill-opacity: 1.0;stroke: rgb(0.0 95.37254901960779 219.85882352941175);fill: rgb(256.0 256.0 256.0);stroke-width: 0.1536;"><path d="M 71.43037057272387 9.866296874468109 C 87.28607829674127 9.076643003468298 103.14488121334799 8.350415121983291 119.00639871393861 7.687630659359547 C 119.79605258493874 23.54333838337693 120.52228046642375 39.402141299983654 121.1850649290475 55.26365880057428 C 105.3293572050298 56.05331267157442 89.47055428842307 56.77954055305942 73.60903678783245 57.44232501568317 C 72.81938291683262 41.58661729166545 72.09315503534762 25.727814375058735 71.43037057272387 9.866296874468103" style="vector-effect: non-scaling-stroke;" /></g><g style="fill-opacity: 1.0;stroke: rgb(256.0 151.59215686274507 0.0);fill: rgb(256.0 256.0 256.0);stroke-width: 0.1536;"><path d="M 70.64876144778583 10.753731162448311 C 86.46696886733898 9.407872812753238 102.29049644739759 8.125292676175267 118.11896442595838 6.906021534421496 C 119.46482277565377 22.72422895397461 120.74740291223175 38.547756534033226 121.96667405398551 54.37622451259403 C 106.14846663443208 55.72208286228945 90.32493905437347 57.00466299886742 74.49647107581266 58.22393414062118 C 73.15061272611757 42.40572672106772 71.8680325895396 26.58219914100911 70.64876144778583 10.753731162448306" style="vector-effect: non-scaling-stroke;" /></g><g style="fill-opacity: 1.0;stroke: rgb(0.0 95.37254901960779 219.85882352941175);fill: rgb(256.0 256.0 256.0);stroke-width: 0.1536;"><path d="M 70.92225444623435 10.436020047027188 C 86.75598945130596 9.28716998952643 102.59425652160388 8.201659467450884 118.43667554137951 7.179514532870018 C 119.5855255988806 23.01324953794162 120.67103612095613 38.851516608239535 121.69318105553701 54.69393562801517 C 105.8594460504651 55.84278568551626 90.02117898016718 56.92829620759181 74.17875996039153 57.95044114217268 C 73.02990990289076 42.116706137100735 71.94439938081521 26.278439066802825 70.92225444623435 10.436020047027183" style="vector-effect: non-scaling-stroke;" /></g><g style="fill-opacity: 1.0;stroke: rgb(256.0 151.59215686274507 0.0);fill: rgb(256.0 256.0 256.0);stroke-width: 0.1536;"><path d="M 74.45784711038819 70.44008540486142 C 90.28813365594037 71.63551359223169 106.1135751675332 72.89425814406668 121.93379183722948 74.21628885070798 C 120.73836364985951 90.0465753962602 119.47961909802453 105.87201690785304 118.15758839138323 121.6922335775493 C 102.3273018458307 120.49680539017932 86.50186033423786 119.23806083834432 70.68164366454158 117.91603013170302 C 71.8770718519119 102.08574358615051 73.13581640374689 86.26030207455769 74.45784711038819 70.44008540486142" style="vector-effect: non-scaling-stroke;" /></g><g style="fill-opacity: 1.0;stroke: rgb(256.0 151.59215686274507 0.0);fill: rgb(256.0 256.0 256.0);stroke-width: 0.1536;"><path d="M 70.02794288174431 75.00705331566897 C 85.80054588647442 73.20371887063976 101.58029913850918 71.46348205097459 117.3668239264218 69.78638462206405 C 119.17015837145132 85.5589876267941 120.9103951911165 101.33874087882887 122.58749262002705 117.12526566674151 C 106.81488961529666 118.92860011177106 91.0351363632619 120.66883693143623 75.24861157534927 122.34593436034679 C 73.44527713032004 106.57333135561636 71.70504031065485 90.7935781035816 70.02794288174431 75.00705331566897" style="vector-effect: non-scaling-stroke;" /></g><g style="fill-opacity: 1.0;stroke: rgb(0.0 95.37254901960779 219.85882352941175);fill: rgb(256.0 256.0 256.0);stroke-width: 0.1536;"><path d="M 72.54432971477667 72.20376419797093 C 88.41965933312622 72.17326544056398 104.29504744512306 72.20626812362566 120.17011304411992 72.30277145509643 C 120.20061180152719 88.17810107344599 120.1676091184655 104.05348918544283 120.07110578699474 119.9285547844397 C 104.19577616864485 119.95905354184696 88.32038805664801 119.92605085878527 72.44532245765114 119.8295475273145 C 72.41482370024421 103.95421790896462 72.44782638330588 88.07882979696778 72.54432971477667 72.20376419797093" style="vector-effect: non-scaling-stroke;" /></g><g style="fill-opacity: 1.0;stroke: rgb(256.0 151.59215686274507 0.0);fill: rgb(256.0 256.0 256.0);stroke-width: 0.1536;"><path d="M 70.18642425011953 74.81079438184766 C 85.97209271336446 73.12565586114249 101.76443858795486 71.50366675485124 117.56308286024313 69.94486599043927 C 119.2482213809486 85.73053445368416 120.87021048723986 101.52288032827457 122.42901125165184 117.32152460056282 C 106.64334278840663 119.00666312126833 90.85099691381622 120.62865222755958 75.05235264152795 122.18745299197157 C 73.36721412082277 106.40178452872632 71.74522501453151 90.60943865413591 70.18642425011953 74.81079438184766" style="vector-effect: non-scaling-stroke;" /></g><g style="fill-opacity: 1.0;stroke: rgb(256.0 151.59215686274507 0.0);fill: rgb(256.0 256.0 256.0);stroke-width: 0.1536;"><path d="M 73.81670580385037 134.50208826997158 C 89.67216299065562 135.29675679384536 105.52437808147283 136.15484396778913 121.37297062580339 137.07632919785425 C 120.57830210192992 152.93178638465952 119.72021492798615 168.78400147547674 118.79872969792103 184.6325940198073 C 102.94327251111545 183.8379254959338 87.09105742029823 182.97983832199003 71.24246487596767 182.05835309192491 C 72.03713339984147 166.20289590511936 72.89522057378525 150.35068081430214 73.81670580385037 134.50208826997158" style="vector-effect: non-scaling-stroke;" /></g><g style="fill-opacity: 1.0;stroke: rgb(256.0 151.59215686274507 0.0);fill: rgb(256.0 256.0 256.0);stroke-width: 0.1536;"><path d="M 74.53366828957641 133.8768119533426 C 90.3603531940008 135.11901386990667 106.18200598395562 136.42451755727586 121.99824694243237 137.79329168358032 C 120.75604502586862 153.61997658800473 119.45054133849945 169.44162937795954 118.08176721219499 185.25787033643633 C 102.25508230777027 184.01566841987253 86.43342951781543 182.71016473250336 70.61718855933867 181.3413906061989 C 71.85939047590277 165.5147057017742 73.16489416327195 149.69305291181936 74.53366828957641 133.8768119533426" style="vector-effect: non-scaling-stroke;" /></g><g style="fill-opacity: 1.0;stroke: rgb(256.0 151.59215686274507 0.0);fill: rgb(256.0 256.0 256.0);stroke-width: 0.1536;"><path d="M 75.55469774354245 133.04518661966142 C 91.32071840012782 134.9051902007261 107.07923597824286 136.82825042439538 122.82987227611358 138.81432113754636 C 120.96986869504921 154.58034179413175 119.04680847137993 170.33885937224682 117.06073775822895 186.08949567011751 C 101.29471710164324 184.2294920890531 85.53619952352818 182.30643186538384 69.78556322565747 180.32036115223286 C 71.6455668067222 164.55434049564718 73.56862703039148 148.79582291753212 75.55469774354245 133.04518661966142" style="vector-effect: non-scaling-stroke;" /></g><g style="fill-opacity: 1.0;stroke: rgb(256.0 151.59215686274507 0.0);fill: rgb(256.0 256.0 256.0);stroke-width: 0.1536;"><path d="M 73.04721464274314 135.21448678977623 C 88.9197267809511 135.51511793901253 104.79097290444969 135.8792379342759 120.66057210599871 136.30683803674702 C 120.35994095676273 152.17935017495498 119.99582096149935 168.05059629845357 119.56822085902823 183.9201955000026 C 103.69570872081997 183.6195643507666 87.82446259732136 183.25544435550322 71.95486339577235 182.8278442530321 C 72.25549454500864 166.95533211482385 72.61961454027204 151.08408599132522 73.04721464274314 135.21448678977623" style="vector-effect: non-scaling-stroke;" /></g><g style="fill-opacity: 1.0;stroke: rgb(256.0 151.59215686274507 0.0);fill: rgb(256.0 256.0 256.0);stroke-width: 0.1536;"><path d="M 73.10254934548949 198.66293574637444 C 88.97433824181307 198.99959268747233 104.84471702315282 199.3997354375265 120.71330480308458 199.86335439317745 C 120.37664786198701 215.73514328950102 119.97650511193285 231.60552207084078 119.51288615628191 247.47410985077255 C 103.641097259958 247.13745290967495 87.77071847861825 246.7373101596208 71.90213069868649 246.27369120396986 C 72.23878763978439 230.40190230764594 72.63893038983854 214.5315235263062 73.10254934548949 198.66293574637444" style="vector-effect: non-scaling-stroke;" /></g><g style="fill-opacity: 1.0;stroke: rgb(256.0 151.59215686274507 0.0);fill: rgb(256.0 256.0 256.0);stroke-width: 0.1536;"><path d="M 72.97103860677568 198.78865610597973 C 88.84441464695051 199.0395619701076 104.7167235701008 199.35396033477176 120.5875844434793 199.73184365446363 C 120.33667857935177 215.60521969463846 120.0222802146876 231.47752861778875 119.64439689499572 247.34838949116727 C 103.77102085482058 247.0974836270397 87.89871193167028 246.78308526237555 72.02785105829176 246.40520194268368 C 72.27875692241963 230.53182590250853 72.5931552870838 214.65951697935824 72.97103860677568 198.78865610597973" style="vector-effect: non-scaling-stroke;" /></g><g style="fill-opacity: 1.0;stroke: rgb(256.0 151.59215686274507 0.0);fill: rgb(256.0 256.0 256.0);stroke-width: 0.1536;"><path d="M 70.63919502434543 201.26853515815606 C 86.45681047513956 199.91573727367793 102.27977384694618 198.62621526220005 118.10770539130291 197.40000007203335 C 119.46050327578135 213.21761552282746 120.75002528725923 229.04057889463408 121.97624047742595 244.8685104389908 C 106.15862502663151 246.22130832346926 90.33566165482489 247.51083033494714 74.50773011046816 248.73704552511384 C 73.15493222599002 232.9194300743194 71.86541021451214 217.09646670251277 70.63919502434543 201.26853515815606" style="vector-effect: non-scaling-stroke;" /></g><g style="fill-opacity: 1.0;stroke: rgb(256.0 151.59215686274507 0.0);fill: rgb(256.0 256.0 256.0);stroke-width: 0.1536;"><path d="M 73.20810231054708 198.5630073664563 C 89.0782903277836 198.96816531468423 104.94679423241129 199.43680239434775 120.81323318300272 199.96890735823501 C 120.40807523477511 215.83909537547157 119.93943815511159 231.70759928009926 119.40733319122432 247.5740382306907 C 103.53714517398747 247.16888028246305 87.66864126935977 246.70024320279953 71.80220231876834 246.16813823891226 C 72.20736026699628 230.29795022167542 72.6759973466598 214.42944631704773 73.20810231054708 198.5630073664563" style="vector-effect: non-scaling-stroke;" /></g><g style="fill-opacity: 1.0;stroke: rgb(256.0 151.59215686274507 0.0);fill: rgb(256.0 256.0 256.0);stroke-width: 0.1536;"><path d="M 135.8500958664358 8.898794091374842 C 151.7246379680936 8.737754567826917 167.59976072961328 8.640213856844438 183.475083150716 8.606174299387405 C 183.63612267426424 24.480716401045186 183.7336633852467 40.35583916256489 183.76770294270375 56.2311615836676 C 167.89316084104564 56.39220110721584 152.01803807952595 56.489741818198326 136.14271565842324 56.523781375655346 C 135.9816761348753 40.64923927399725 135.88413542389281 24.774116512477548 135.8500958664358 8.898794091374837" style="vector-effect: non-scaling-stroke;" /></g><g style="fill-opacity: 1.0;stroke: rgb(0.0 95.37254901960779 219.85882352941175);fill: rgb(256.0 256.0 256.0);stroke-width: 0.1536;"><path d="M 137.65482996430052 7.201426679984383 C 153.49825278230162 8.207892812296825 169.33758636201847 9.277728610012767 185.17245056210652 10.410908397252145 C 184.16598442979438 26.25433121525327 183.09614863207844 42.09366479497011 181.96296884483908 57.92852899505817 C 166.11954602683764 56.92206286274602 150.2802124471208 55.85222706503008 134.44534824703274 54.71904727779069 C 135.4518143793452 38.87562445978928 136.52165017706113 23.036290880072436 137.65482996430052 7.201426679984378" style="vector-effect: non-scaling-stroke;" /></g><g style="fill-opacity: 1.0;stroke: rgb(0.0 95.37254901960779 219.85882352941175);fill: rgb(256.0 256.0 256.0);stroke-width: 0.1536;"><path d="M 138.77613252567232 6.264117823004344 C 154.56096916942582 7.957030341555299 170.33897102369505 9.713075435024457 186.1097594190866 11.532210958623956 C 184.41684690053594 27.3170476023775 182.6608018070668 43.09504945664672 180.8416662834673 58.86583785203827 C 165.05682963971344 57.17292533348758 149.2788277854442 55.41688024001843 133.50803939005266 53.59774471641893 C 135.20095190860366 37.81290807266511 136.95699700207282 22.034906218395886 138.77613252567232 6.264117823004339" style="vector-effect: non-scaling-stroke;" /></g><g style="fill-opacity: 1.0;stroke: rgb(0.0 95.37254901960779 219.85882352941175);fill: rgb(256.0 256.0 256.0);stroke-width: 0.1536;"><path d="M 138.60302160121157 6.40349342485268 C 154.3986866588203 7.992199204186244 170.18793371058794 9.644081288920809 185.97038381723823 11.35910003416322 C 184.38167803790498 27.154765091772006 182.72979595317042 42.94401214353964 181.014777207928 58.726462250189925 C 165.21911215031892 57.137756470856644 149.42986509855126 55.48587438612208 133.647414991901 53.77085564087966 C 135.2361207712346 37.97519058327059 136.88800285596915 22.185943531502957 138.60302160121157 6.403493424852675" style="vector-effect: non-scaling-stroke;" /></g><g style="fill-opacity: 1.0;stroke: rgb(256.0 151.59215686274507 0.0);fill: rgb(256.0 256.0 256.0);stroke-width: 0.1536;"><path d="M 136.25040527384834 72.0014576568167 C 152.125415374832 72.10669528847487 167.99994102518474 72.27543253958609 183.87360123895826 72.50766536048403 C 183.76836360730042 88.38267546146768 183.59962635618916 104.25720111182044 183.36739353529123 120.13086132559394 C 167.49238343430727 120.0256236939361 151.61785778395452 119.85688644282486 135.744197570181 119.62465362192692 C 135.84943520183919 103.74964352094295 136.0181724529504 87.8751178705902 136.25040527384834 72.0014576568167" style="vector-effect: non-scaling-stroke;" /></g><g style="fill-opacity: 1.0;stroke: rgb(256.0 151.59215686274507 0.0);fill: rgb(256.0 256.0 256.0);stroke-width: 0.1536;"><path d="M 137.30950232814746 71.00843311224706 C 153.16522450944987 71.79779663737627 169.01772581369926 72.65057989377348 184.86662578352792 73.56676241478316 C 184.07726225839903 89.4224845960856 183.22447900200183 105.274985900335 182.30829648099214 121.12388587016363 C 166.4525742996894 120.33452234503474 150.60007299544 119.48173908863751 134.75117302561134 118.56555656762784 C 135.54053655074057 102.7098343863251 136.39331980713777 86.85733308207571 137.30950232814746 71.00843311224706" style="vector-effect: non-scaling-stroke;" /></g><g style="fill-opacity: 1.0;stroke: rgb(0.0 95.37254901960779 219.85882352941175);fill: rgb(256.0 256.0 256.0);stroke-width: 0.1536;"><path d="M 138.01576719404667 70.39181610057658 C 153.84337071930688 71.62225801819041 169.66598916641883 72.91600542813272 185.4832427951984 74.2730272806824 C 184.2528008775849 90.10063080594261 182.95905346764258 105.92324925305456 181.6020316150929 121.74050288183416 C 165.77442808983236 120.51006096422063 149.9518096427204 119.2163135542783 134.13455601394082 117.85929170172862 C 135.36499793155468 102.03168817646811 136.658745341497 86.20906972935616 138.01576719404667 70.39181610057658" style="vector-effect: non-scaling-stroke;" /></g><g style="fill-opacity: 1.0;stroke: rgb(256.0 151.59215686274507 0.0);fill: rgb(256.0 256.0 256.0);stroke-width: 0.1536;"><path d="M 138.5815627318593 69.92208372118314 C 154.37852603628704 71.49782831470495 170.16912317442393 73.13675445845982 185.95297517459187 74.83882281849502 C 184.37723058107036 90.6357861229228 182.7383044373155 106.42638326105967 181.0362360772803 122.21023526122761 C 165.23927277285222 120.6344906677061 149.44867563471533 118.99556452395122 133.6648236345474 117.29349616391602 C 135.2405682280692 101.49653285948796 136.8794943718241 85.70593572135107 138.5815627318593 69.92208372118314" style="vector-effect: non-scaling-stroke;" /></g><g style="fill-opacity: 1.0;stroke: rgb(256.0 151.59215686274507 0.0);fill: rgb(256.0 256.0 256.0);stroke-width: 0.1536;"><path d="M 138.9583001643428 133.12183053517143 C 154.73106693460778 134.92373205197944 170.49656300767498 136.7887174282553 186.25441001428766 138.7167419046626 C 184.45250849747995 154.4895086749276 182.58752312120413 170.2550047479948 180.6594986447968 186.0128517546075 C 164.88673187453148 184.21095023779975 149.12123580146428 182.34596486152392 133.36338879485157 180.4179403851166 C 135.16529031165965 164.6451736148513 137.0302756879355 148.8796775417841 138.9583001643428 133.12183053517143" style="vector-effect: non-scaling-stroke;" /></g><g style="fill-opacity: 1.0;stroke: rgb(256.0 151.59215686274507 0.0);fill: rgb(256.0 256.0 256.0);stroke-width: 0.1536;"><path d="M 135.6897591394214 136.0645840097071 C 151.56283959943184 135.7956279250298 167.4369323913953 135.59016523801807 183.3116565397519 135.44820087974117 C 183.5806126244295 151.3212813397516 183.78607531144124 167.19537413171506 183.92803966971815 183.07009828007168 C 168.0549592097074 183.33905436474927 152.18086641774394 183.544517051761 136.30614226938732 183.6864814100379 C 136.03718618471004 167.81340095002716 135.8317234976983 151.9393081580637 135.6897591394214 136.0645840097071" style="vector-effect: non-scaling-stroke;" /></g><g style="fill-opacity: 1.0;stroke: rgb(0.0 95.37254901960779 219.85882352941175);fill: rgb(256.0 256.0 256.0);stroke-width: 0.1536;"><path d="M 139.28172700240884 132.87000582360272 C 155.03139349471047 134.86375255945484 170.77302200133937 136.92048998628127 186.5062347258564 139.04016874272867 C 184.5124879900046 154.78983523503035 182.45575056317819 170.53146374165922 180.33607180673079 186.26467646617624 C 164.58640531442876 184.2709297303244 148.8447768077999 182.21419230349798 133.11156408328287 180.09451354705058 C 135.105310819135 164.3448470547486 137.16204824596144 148.60321854811974 139.28172700240884 132.87000582360272" style="vector-effect: non-scaling-stroke;" /></g><g style="fill-opacity: 1.0;stroke: rgb(256.0 151.59215686274507 0.0);fill: rgb(256.0 256.0 256.0);stroke-width: 0.1536;"><path d="M 137.89298955990546 133.99772214565894 C 153.72630747264157 135.1523062871056 169.55494371547653 136.3702190818621 185.37851840380011 137.65143130022528 C 184.22393426235377 153.4847492129614 183.00602146759726 169.31338545579635 181.72480924923408 185.13696014411994 C 165.89149133649767 183.98237600267356 150.0628550936627 182.7644632079171 134.2392804053391 181.4832509895539 C 135.3938645467858 165.6499330768175 136.61177734154228 149.82129683398253 137.89298955990546 133.99772214565894" style="vector-effect: non-scaling-stroke;" /></g><g style="fill-opacity: 1.0;stroke: rgb(256.0 151.59215686274507 0.0);fill: rgb(256.0 256.0 256.0);stroke-width: 0.1536;"><path d="M 136.709347639538 198.56294734440633 C 152.57953460395694 198.96814652979262 168.4480372908226 199.43682484223825 184.31447485873682 199.96897103354186 C 183.90927567335086 215.8391579979608 183.4405973609052 231.70766068482646 182.90845116960156 247.5740982527407 C 167.03826420518232 247.16889906735472 151.16976151831665 246.70022075490905 135.30332395040244 246.16807456360544 C 135.70852313578874 230.2978875991862 136.1772014482344 214.42938491232053 136.709347639538 198.56294734440633" style="vector-effect: non-scaling-stroke;" /></g><g style="fill-opacity: 1.0;stroke: rgb(0.0 95.37254901960779 219.85882352941175);fill: rgb(256.0 256.0 256.0);stroke-width: 0.1536;"><path d="M 136.820986966151 198.45819159785916 C 152.68916793982365 198.9355313638785 168.55537608164448 199.47634194443168 184.41923060528399 200.08061036015485 C 183.94189083926494 215.9487913338275 183.40108025871177 231.81499947564834 182.7968118429886 247.67885399928787 C 166.92863086931564 247.2015142332688 151.06242272749478 246.66070365271565 135.19856820385527 246.05643523699246 C 135.67590796987466 230.1882542633195 136.2167185504278 214.32204612149866 136.820986966151 198.45819159785916" style="vector-effect: non-scaling-stroke;" /></g><g style="fill-opacity: 1.0;stroke: rgb(256.0 151.59215686274507 0.0);fill: rgb(256.0 256.0 256.0);stroke-width: 0.1536;"><path d="M 134.44905790789244 200.91020699279372 C 150.2841116168507 199.77967848812995 166.1236240995491 198.71249472042066 181.9672152103493 197.7086813018963 C 183.0977437150134 213.54373501085453 184.1649274827227 229.38324749355291 185.16874090124708 245.22683860435316 C 169.33368719228852 246.35736710901725 153.49417470959014 247.42455087672653 137.6505835987899 248.42836429525093 C 136.5200550941261 232.59331058629235 135.4528713264168 216.75379810359397 134.44905790789244 200.91020699279372" style="vector-effect: non-scaling-stroke;" /></g><g style="fill-opacity: 1.0;stroke: rgb(256.0 151.59215686274507 0.0);fill: rgb(256.0 256.0 256.0);stroke-width: 0.1536;"><path d="M 133.73260679513973 201.75797414696314 C 149.52180304102475 200.10621672700697 165.3175431597411 198.51762269907073 181.1194480561799 196.99223018914353 C 182.77120547613637 212.78142643502852 184.3597995040726 228.5771665537449 185.8851920139998 244.3790714501837 C 170.0959957681145 246.03082887014017 154.30025564939817 247.6194228980764 138.49835075295937 249.14481540800364 C 136.84659333300317 233.35561916211827 135.25799930506693 217.55987904340193 133.73260679513973 201.75797414696314" style="vector-effect: non-scaling-stroke;" /></g><g style="fill-opacity: 1.0;stroke: rgb(256.0 151.59215686274507 0.0);fill: rgb(256.0 256.0 256.0);stroke-width: 0.1536;"><path d="M 201.40259284038947 6.988143004622263 C 217.2355296736368 8.14794121976595 233.0637639822125 9.371066543045176 248.88691589115274 10.657489619657015 C 247.72711767600936 26.490426452904355 246.50399235273014 42.31866076148006 245.2175692761183 58.14181267042029 C 229.38463244287064 56.9820144552769 213.55639813429494 55.75888913199766 197.7332462253547 54.47246605538582 C 198.89304444049841 38.639529222138194 200.11616976377763 22.811294913562488 201.40259284038947 6.988143004622257" style="vector-effect: non-scaling-stroke;" /></g><g style="fill-opacity: 1.0;stroke: rgb(256.0 151.59215686274507 0.0);fill: rgb(256.0 256.0 256.0);stroke-width: 0.1536;"><path d="M 201.54576018208041 6.866206332170606 C 217.37197362590774 8.114400506115107 233.19313098812185 9.425894541053275 249.00885256360436 10.800656961347956 C 247.7606583896602 26.626870405175314 246.44916435472203 42.44802776738941 245.07440193442733 58.263749342871954 C 229.2481884905997 57.01555516892774 213.42703112838558 55.70406113398957 197.61130955290304 54.32929871369489 C 198.85950372684758 38.50308526986724 200.17099776178574 22.681927907653137 201.54576018208041 6.8662063321706" style="vector-effect: non-scaling-stroke;" /></g><g style="fill-opacity: 1.0;stroke: rgb(256.0 151.59215686274507 0.0);fill: rgb(256.0 256.0 256.0);stroke-width: 0.1536;"><path d="M 197.39759443105248 11.055548349959807 C 213.19896583050271 9.524639286009021 229.00639766065956 8.056941831298527 244.8195105458151 6.6524912103199565 C 246.35041960976616 22.453862609770148 247.81811706447667 38.26129443992701 249.22256768545523 54.074407325082525 C 233.42119628600474 55.605316389033646 217.61376445584787 57.07301384374414 201.80065157069237 58.477464464722715 C 200.26974250674155 42.67609306527218 198.80204505203105 26.86866123511531 197.39759443105248 11.055548349959802" style="vector-effect: non-scaling-stroke;" /></g><g style="fill-opacity: 1.0;stroke: rgb(256.0 151.59215686274507 0.0);fill: rgb(256.0 256.0 256.0);stroke-width: 0.1536;"><path d="M 196.8372939719787 11.749020882098506 C 212.5926031606486 9.800366722206636 228.35564394465794 7.914741593693998 244.12603801367635 6.09219075124618 C 246.07469217356854 21.84749993991604 247.96031730208117 37.610540723925375 249.782868144529 53.38093479294378 C 234.0275589558588 55.329588952836005 218.2645181718495 57.21521408134864 202.49412410283108 59.037764923796466 C 200.54546994293918 43.28245573512625 198.65984481442652 27.51941495111691 196.8372939719787 11.7490208820985" style="vector-effect: non-scaling-stroke;" /></g><g style="fill-opacity: 1.0;stroke: rgb(256.0 151.59215686274507 0.0);fill: rgb(256.0 256.0 256.0);stroke-width: 0.1536;"><path d="M 202.18541774370118 69.83905290408725 C 217.9760811661987 71.47672483180922 233.76013073826812 73.17755286252697 249.53718764537183 74.94149617665283 C 247.89951571765016 90.73215959915039 246.19868768693243 106.5162091712198 244.43474437280656 122.29326607832351 C 228.6440809503087 120.65559415060183 212.86003137823928 118.95476611988408 197.08297447113557 117.19082280575822 C 198.72064639885758 101.40015938326037 200.4214744295753 85.61610981119097 202.18541774370118 69.83905290408725" style="vector-effect: non-scaling-stroke;" /></g><g style="fill-opacity: 1.0;stroke: rgb(256.0 151.59215686274507 0.0);fill: rgb(256.0 256.0 256.0);stroke-width: 0.1536;"><path d="M 200.6491584961505 71.1544130907697 C 216.50965248515942 71.8412544771625 232.36733566658302 72.59153509214309 248.22182745868935 73.40523692910212 C 247.53498607229687 89.26573091811106 246.78470545731628 105.12341409953464 245.97100362035724 120.977905891641 C 230.110509631348 120.2910645052485 214.2528264499244 119.5407838902679 198.39833465781805 118.72708205330886 C 199.08517604421087 102.86658806429963 199.83545665919146 87.00890488287604 200.6491584961505 71.1544130907697" style="vector-effect: non-scaling-stroke;" /></g><g style="fill-opacity: 1.0;stroke: rgb(256.0 151.59215686274507 0.0);fill: rgb(256.0 256.0 256.0);stroke-width: 0.1536;"><path d="M 200.3534521196699 71.4266443202156 C 216.22101387624892 71.92414262835442 232.0865221692845 72.48510919352438 247.94959622924344 73.10953055262152 C 247.45209792110495 88.97709230920054 246.891131355935 104.84260060223615 246.26670999683785 120.70567466219507 C 230.39914824025848 120.20817635405656 214.5336399472229 119.64720978888658 198.67056588726396 119.02278842978944 C 199.1680641954028 103.15522667321012 199.72903076057275 87.28971838017452 200.3534521196699 71.4266443202156" style="vector-effect: non-scaling-stroke;" /></g><g style="fill-opacity: 1.0;stroke: rgb(256.0 151.59215686274507 0.0);fill: rgb(256.0 256.0 256.0);stroke-width: 0.1536;"><path d="M 199.97532121585465 71.78444820096023 C 215.84867737330842 72.03660879279568 231.72096139490634 72.35226180061761 247.5917923484988 72.73139964880625 C 247.3396317566637 88.60475580626002 247.02397874884173 104.47703982785794 246.64484090065312 120.34787078145042 C 230.77148474319904 120.09571018961529 214.8992007216011 119.78005718179334 199.02836976800862 119.40091933360472 C 199.28053035984408 103.52756317615064 199.59618336766601 87.6552791545527 199.97532121585465 71.78444820096023" style="vector-effect: non-scaling-stroke;" /></g><g style="fill-opacity: 1.0;stroke: rgb(0.0 95.37254901960779 219.85882352941175);fill: rgb(256.0 256.0 256.0);stroke-width: 0.1536;"><path d="M 198.7014788462799 136.5775778303597 C 214.56537877203388 135.97450253563048 230.43162754330328 135.43488525290797 246.29984437278338 134.9587389329156 C 246.90291966751292 150.82263885866956 247.44253695023542 166.68888762993896 247.9186832702278 182.55710445941907 C 232.05478334447352 183.1601797541486 216.18853457320415 183.6997970368711 200.32031774372402 184.17594335686348 C 199.7172424489948 168.3120434311092 199.1776251662723 152.4457946598398 198.7014788462799 136.5775778303597" style="vector-effect: non-scaling-stroke;" /></g><g style="fill-opacity: 1.0;stroke: rgb(256.0 151.59215686274507 0.0);fill: rgb(256.0 256.0 256.0);stroke-width: 0.1536;"><path d="M 196.7891793714675 138.81272012196823 C 212.53993553305838 136.82760022544895 228.29856917114734 134.90549129406367 244.06470208117477 133.04643945810315 C 246.04982197769436 148.79719561969398 247.97193090907965 164.55582925778296 249.83098274504016 180.3219621678104 C 234.08022658344902 182.30708206433002 218.32159294536004 184.22919099571527 202.5554600353326 186.0882428316758 C 200.5703401388133 170.33748667008462 198.64823120742804 154.57885303199566 196.7891793714675 138.81272012196823" style="vector-effect: non-scaling-stroke;" /></g><g style="fill-opacity: 1.0;stroke: rgb(256.0 151.59215686274507 0.0);fill: rgb(256.0 256.0 256.0);stroke-width: 0.1536;"><path d="M 202.5375744532093 133.06044601496825 C 218.30495784363256 134.90886200842172 234.064884500485 136.82034014176554 249.81697618817495 138.79483453984503 C 247.96856019472182 154.56221793026833 246.05708206137797 170.32214458712076 244.0825876632985 186.07423627481072 C 228.3152042728749 184.22582028135753 212.55527761602244 182.3143421480137 196.80318592833248 180.33984774993422 C 198.65160192178598 164.57246435951066 200.5630800551298 148.8125377026582 202.5375744532093 133.06044601496825" style="vector-effect: non-scaling-stroke;" /></g><g style="fill-opacity: 1.0;stroke: rgb(256.0 151.59215686274507 0.0);fill: rgb(256.0 256.0 256.0);stroke-width: 0.1536;"><path d="M 197.27154877541847 138.2106710710926 C 213.063643884351 136.58686297409358 228.86217105722756 135.02622975276927 244.66675113205042 133.52880886205412 C 246.29055922904976 149.32090397098662 247.85119245037407 165.11943114386318 249.34861334108922 180.92401121868605 C 233.5565182321564 182.54781931568542 217.75799105927985 184.10845253700973 201.95341098445698 185.60587342772487 C 200.32960288745792 169.81377831879203 198.76896966613361 154.01525114591547 197.27154877541847 138.2106710710926" style="vector-effect: non-scaling-stroke;" /></g><g style="fill-opacity: 1.0;stroke: rgb(0.0 95.37254901960779 219.85882352941175);fill: rgb(256.0 256.0 256.0);stroke-width: 0.1536;"><path d="M 201.44389293250248 197.4563706645862 C 217.27493766657625 198.64171588569505 233.10117769552292 199.89038054435463 248.92223319224107 201.20233467282227 C 247.7368879711325 217.03337940689605 246.4882233124729 232.85961943584275 245.1762691840053 248.68067493256086 C 229.3452244499312 247.49532971145229 213.5189844209845 246.2466650527927 197.69792892426636 244.9347109243251 C 198.88327414537528 229.103666190251 200.13193880403486 213.27742616130433 201.44389293250248 197.4563706645862" style="vector-effect: non-scaling-stroke;" /></g><g style="fill-opacity: 1.0;stroke: rgb(256.0 151.59215686274507 0.0);fill: rgb(256.0 256.0 256.0);stroke-width: 0.1536;"><path d="M 196.71540021175022 202.40852592640817 C 212.45898353304096 200.36729961092388 228.21066878519704 198.38905579363828 243.97007793041894 196.47384195206993 C 246.01130424590355 212.21742527336065 247.98954806318915 227.96911052551673 249.9047619047575 243.72851967073862 C 234.16117858346647 245.76974598622326 218.4094933313104 247.74798980350886 202.6500841860885 249.6632036450772 C 200.60885787060414 233.91962032378615 198.63061405331854 218.16793507163007 196.71540021175022 202.40852592640817" style="vector-effect: non-scaling-stroke;" /></g><g style="fill-opacity: 1.0;stroke: rgb(256.0 151.59215686274507 0.0);fill: rgb(256.0 256.0 256.0);stroke-width: 0.1536;"><path d="M 197.1467832316251 201.8648823818811 C 212.9290866135383 200.1485139404612 228.71819233994012 198.49528157804968 244.513721474946 196.90522497194485 C 246.23008991636624 212.68752835385797 247.88332227877774 228.4766340802598 249.4733788848826 244.27216321526572 C 233.69107550296917 245.98853165668595 217.9019697765673 247.64176401909748 202.1064406415614 249.23182062520232 C 200.39007220014147 233.44951724328885 198.73683983772997 217.660411516887 197.1467832316251 201.8648823818811" style="vector-effect: non-scaling-stroke;" /></g><g style="fill-opacity: 1.0;stroke: rgb(256.0 151.59215686274507 0.0);fill: rgb(256.0 256.0 256.0);stroke-width: 0.1536;"><path d="M 197.8218490577384 201.05801281872144 C 213.6500627567809 199.83544512616066 229.48310341367517 198.6761951786718 245.3205910381057 197.58029079805817 C 246.5431587306668 213.40850449710064 247.70240867815565 229.2415451539949 248.79831305876928 245.07903277842544 C 232.9700993597265 246.30160047098656 217.13705870283223 247.46085041847542 201.2995710784017 248.55675479908905 C 200.0770033858409 232.72854110004624 198.91775343835204 216.89550044315195 197.8218490577384 201.05801281872144" style="vector-effect: non-scaling-stroke;" /></g></svg>