<?xml version="1.0" encoding="utf-8" ?>
<svg baseProfile="full" height="128" version="1.1" width="144" xmlns="http://www.w3.org/2000/svg" xmlns:ev="http://www.w3.org/2001/xml-events" xmlns:xlink="http://www.w3.org/1999/xlink"><defs /><g style="fill-opacity: 1.0;stroke: rgb(0.0 0.0 0.0);fill: rgb(0.0 128.50196078431372 4.279975067166721e-14);stroke-width: 1.2800000000000002;"><path d="M 51.45950805899919 110.46931566942891 C 51.45950805899919 104.19601545795962 46.297362035135514 99.03386943409595 40.02406182366622 99.03386943409595 C 33.75076161219693 99.03386943409595 28.588615588333255 104.19601545795962 28.588615588333255 110.46931566942891 C 28.588615588333255 116.7426158808982 33.75076161219693 121.90476190476187 40.02406182366622 121.90476190476187 C 46.297362035135514 121.90476190476187 51.45950805899919 116.7426158808982 51.45950805899919 110.46931566942891" style="vector-effect: non-scaling-stroke;" /></g><g style="fill-opacity: 1.0;stroke: rgb(256.0 256.0 256.0);fill: rgb(256.0 256.0 256.0);stroke-width: 0.0;"><path d="M 42.47883772007409 110.59481363947731 C 42.47883772007409 109.95219282830745 42.4681570417721 108.75595685848432 42.001767422585104 107.83207818536201 C 41.53359769034778 106.94202166019599 40.78238998310766 106.70526662450183 40.24657595495773 106.70526662450183 C 39.47222677806329 106.70526662450183 38.81180483639011 107.15741533928616 38.470023130726354 107.87836112467063 C 38.10509995540829 108.63312905801142 38.00185339848903 109.41103846100651 38.00185339848903 110.59481363947731 C 38.00185339848903 111.40476507737839 38.03567554644534 112.39806815946366 38.44688166107204 113.26676332802569 C 38.91327128025903 114.22446414910432 39.70008124850579 114.46121918479848 40.23589527665573 114.46121918479848 C 40.94082004458722 114.46121918479848 41.62438345591472 114.08917555727909 42.0124481008871 113.311266154284 C 42.411193424161475 112.49953460333259 42.47883772007409 111.60947807816657 42.47883772007409 110.59481363947731 Z M 40.23589527665573 113.76875520821933 C 39.368980221144035 113.76875520821933 39.107303602745226 112.78969303053671 39.02719851548028 112.46215222927562 C 38.89012981060472 111.90141661842102 38.86876845400073 111.36026225112009 38.86876845400073 110.47020572595407 C 38.86876845400073 109.77240141022392 38.86876845400073 108.98559144197716 39.084162133090906 108.36433198741128 C 39.345838751489715 107.64516631507713 39.80154769237472 107.39773060108098 40.23589527665573 107.39773060108098 C 41.07788874946278 107.39773060108098 41.352026159213914 108.23082350863638 41.44281192478085 108.52276204889083 C 41.61370277761272 109.11909992075206 41.61370277761272 109.81690423648222 41.61370277761272 110.47020572595407 C 41.61370277761272 111.51691219954931 41.61370277761272 113.76875520821933 40.23589527665573 113.76875520821933" style="vector-effect: non-scaling-stroke;" /></g><g style="fill-opacity: 1.0;stroke: rgb(0.0 0.0 0.0);fill: rgb(0.0 128.50196078431372 4.279975067166721e-14);stroke-width: 1.2800000000000002;"><path d="M 108.63673923566446 110.4693156694281 C 108.63673923566446 104.19601545795881 103.47459321180078 99.03386943409512 97.20129300033149 99.03386943409512 C 90.92799278886221 99.03386943409512 85.76584676499853 104.19601545795881 85.76584676499853 110.4693156694281 C 85.76584676499853 116.74261588089739 90.92799278886221 121.90476190476106 97.2012930003315 121.90476190476106 C 103.47459321180078 121.90476190476107 108.63673923566446 116.74261588089739 108.63673923566446 110.4693156694281" style="vector-effect: non-scaling-stroke;" /></g><g style="fill-opacity: 1.0;stroke: rgb(256.0 256.0 256.0);fill: rgb(256.0 256.0 256.0);stroke-width: 0.0;"><path d="M 98.14742308658298 106.65275328951623 L 97.93024929444246 106.65275328951623 97.31433017902758 107.27223263103177 C 96.59694461974378 107.36123828354837 95.86887838215797 107.36123828354837 95.86887838215797 108.01988011217122 C 96.1981992964694 108.01988011217122 96.73401332461934 108.01988011217122 97.26982735276928 107.75820349377241 L 97.26982735276928 113.62901633376745 95.9258419997686 113.62901633376745 L 95.9258419997686 114.28587804933997 99.49140843958365 114.28587804933997 L 99.49140843958365 113.62901633376745 98.14742308658298 113.62901633376745 L 98.14742308658298 106.65275328951623 94.91117756107934 114.28587804933997" style="vector-effect: non-scaling-stroke;" /></g><g style="fill-opacity: 1.0;stroke: rgb(0.0 0.0 0.0);fill: rgb(0.0 128.50196078431372 4.279975067166721e-14);stroke-width: 1.2800000000000002;"><path d="M 137.22535482399607 60.95238095238019 C 137.22535482399607 54.6790807409109 132.0632088001324 49.51693471704722 125.7899085886631 49.51693471704722 C 119.51660837719382 49.51693471704722 114.35446235333013 54.6790807409109 114.35446235333013 60.95238095238019 C 114.35446235333013 67.22568116384947 119.51660837719382 72.38782718771316 125.78990858866311 72.38782718771316 C 132.0632088001324 72.38782718771316 137.22535482399607 67.22568116384949 137.22535482399607 60.95238095238019" style="vector-effect: non-scaling-stroke;" /></g><g style="fill-opacity: 1.0;stroke: rgb(256.0 256.0 256.0);fill: rgb(256.0 256.0 256.0);stroke-width: 0.0;"><path d="M 126.32483256028789 62.3533299229915 C 126.64347279629733 62.025789121730405 127.12232320683664 61.628823911506366 127.4534242341984 61.23185870128232 C 127.77206447020784 60.84557416936027 128.1939512631365 60.29907946290834 128.1939512631365 59.50514904246025 C 128.1939512631365 58.259069907227826 127.35017767727913 57.13581857246832 125.91540655871152 57.13581857246832 C 124.78681488480102 57.13581857246832 124.13707362142982 57.83896322734947 123.83089417677272 58.940853205505 L 124.2741423263054 59.554992207869546 124.52513826640221 58.520746525626635 C 124.87760065036795 57.86210469700379 125.76765717553397 57.86210469700379 126.74671935321658 57.86210469700379 C 127.29321405966851 58.6578152305022 127.29321405966851 59.53185073821523 127.29321405966851 60.57677709876013 C 126.49572341311976 61.38494842361088 125.8922650890572 61.9866266346231 125.2193823560317 62.65594914154795 C 124.55896041435852 63.33773243982512 123.92167994233965 64.0426572077566 123.92167994233965 64.76894333229207 L 128.1939512631365 64.76894333229207 128.1939512631365 63.998154381498296 L 126.25718826437527 63.998154381498296 126.12011955949971 63.998154381498296 C 125.98305085462414 63.998154381498296 125.84598214974858 63.998154381498296 124.70670979753608 63.998154381498296 L 124.70670979753608 63.98747370319631 126.32483256028789 62.3533299229915" style="vector-effect: non-scaling-stroke;" /></g><g style="fill-opacity: 1.0;stroke: rgb(0.0 0.0 0.0);fill: rgb(0.0 128.50196078431372 4.279975067166721e-14);stroke-width: 1.2800000000000002;"><path d="M 108.63673923566284 11.435446235332961 C 108.63673923566284 5.16214602386367 103.47459321179916 -7.105427357601002e-15 97.20129300032987 -7.105427357601002e-15 C 90.92799278886059 -7.105427357601002e-15 85.76584676499691 5.162146023863672 85.76584676499691 11.435446235332963 C 85.76584676499691 17.708746446802248 90.92799278886059 22.87089247066593 97.20129300032988 22.87089247066593 C 103.47459321179916 22.87089247066593 108.63673923566284 17.70874644680225 108.63673923566284 11.435446235332961" style="vector-effect: non-scaling-stroke;" /></g><g style="fill-opacity: 1.0;stroke: rgb(256.0 256.0 256.0);fill: rgb(256.0 256.0 256.0);stroke-width: 0.0;"><path d="M 96.5408710586567 11.594766353337679 L 97.31522023555114 11.594766353337679 98.38684829185101 11.594766353337679 C 98.69302773650813 12.51686491340967 98.69302773650813 13.159485724579534 98.69302773650813 14.037081458393224 C 98.19281596936483 14.72420509582139 97.37218385316176 14.72420509582139 96.73490338114289 14.72420509582139 C 95.83416617767489 14.40912508591262 95.32149361917925 13.576032178357229 95.24138853191431 13.969437162480608 C 95.24138853191431 13.992578632134924 95.19688570565602 14.263155815785392 95.73091962075563 15.042845331830822 C 96.59783467626733 15.427349750702541 97.39532532281608 15.427349750702541 98.69302773650813 15.427349750702541 C 99.65072855758676 14.35750180745299 99.65072855758676 13.173726628982191 99.65072855758676 12.283670103816174 C 99.02412876386988 11.537802735727052 98.16967449971051 11.256544873774592 98.85323791103801 10.884501246255198 C 99.35522979123164 10.186696930525041 99.35522979123164 9.373185266523302 99.35522979123164 8.426165123746662 C 98.47763405741794 7.671397190405882 97.40600600111807 7.671397190405882 96.42694382343545 7.671397190405882 C 95.66327532484301 8.271295288367774 95.34463508883357 8.91569621258797 95.42474017609851 9.026063221708558 C 95.6294531768867 9.353604022969652 95.73091962075563 9.522714762751193 95.98191556085244 8.858732594977345 C 96.63165682422363 8.363861166985043 97.39532532281608 8.363861166985043 98.03260579483494 8.363861166985043 C 98.45449258776364 8.778627507712404 98.45449258776364 9.376745492623968 98.45449258776364 9.996224834139515 C 98.05574726448926 10.672667793265685 97.38286453146375 10.829317741694904 97.33836170520544 10.829317741694904 C 96.63165682422363 10.896962037607523 96.5408710586567 10.907642715909514 96.5408710586567 11.594766353337679" style="vector-effect: non-scaling-stroke;" /></g><g style="fill-opacity: 1.0;stroke: rgb(0.0 0.0 0.0);fill: rgb(0.0 128.50196078431372 4.279975067166721e-14);stroke-width: 1.2800000000000002;"><path d="M 51.45950805899757 11.435446235333771 C 51.45950805899757 5.16214602386448 46.297362035133894 8.029132914089132e-13 40.0240618236646 8.029132914089132e-13 C 33.75076161219531 8.029132914089132e-13 28.588615588331635 5.162146023864482 28.588615588331635 11.435446235333773 C 28.588615588331635 17.708746446803058 33.75076161219531 22.87089247066674 40.0240618236646 22.87089247066674 C 46.297362035133894 22.87089247066674 51.45950805899757 17.70874644680306 51.45950805899757 11.435446235333771" style="vector-effect: non-scaling-stroke;" /></g><g style="fill-opacity: 1.0;stroke: rgb(256.0 256.0 256.0);fill: rgb(256.0 256.0 256.0);stroke-width: 0.0;"><path d="M 41.511346277217015 13.22980019006846 L 42.54737207251026 13.22980019006846 42.54737207251026 12.537336213489299 L 41.511346277217015 12.537336213489299 41.511346277217015 7.704329281837833 L 40.50914262988008 7.704329281837833 37.796250341174066 12.537336213489299 L 37.796250341174066 13.22980019006846 40.61060907374901 13.22980019006846 L 40.61060907374901 15.16656318882971 41.511346277217015 15.16656318882971 L 41.511346277217015 13.22980019006846 37.50075157481895 15.16656318882971 M 38.67384607498776 12.537336213489299 C 39.33426801666094 11.380262730773477 40.64443122170532 9.044754408737854 40.64443122170532 8.250823988289767 L 40.64443122170532 12.537336213489299 38.67384607498776 12.537336213489299" style="vector-effect: non-scaling-stroke;" /></g><g style="fill-opacity: 1.0;stroke: rgb(0.0 0.0 0.0);fill: rgb(0.0 128.50196078431372 4.279975067166721e-14);stroke-width: 1.2800000000000002;"><path d="M 22.870892470665943 60.9523809523818 C 22.870892470665943 54.67908074091251 17.708746446802262 49.516934717048834 11.435446235332973 49.516934717048834 C 5.162146023863684 49.516934717048834 7.105427357601002e-15 54.67908074091251 7.105427357601002e-15 60.9523809523818 C 7.105427357601002e-15 67.22568116385109 5.162146023863684 72.38782718771476 11.435446235332977 72.38782718771476 C 17.708746446802262 72.38782718771478 22.870892470665943 67.22568116385109 22.870892470665943 60.9523809523818" style="vector-effect: non-scaling-stroke;" /></g><g style="fill-opacity: 1.0;stroke: rgb(256.0 256.0 256.0);fill: rgb(256.0 256.0 256.0);stroke-width: 0.0;"><path d="M 10.694029149869687 57.976031932226654 L 13.485246412790312 57.976031932226654 13.485246412790312 57.249745807691184 L 9.862716355364627 57.249745807691184 9.862716355364627 61.484634754431085 L 10.62638485395707 61.484634754431085 10.831097854745254 61.012904796093096 C 11.252984647673944 60.66756286432868 11.799479354125879 60.66756286432868 12.312151912621504 60.66756286432868 C 12.881788088727752 61.114371239962026 12.881788088727752 62.40139297535208 12.881788088727752 63.77742036325874 C 12.07361676387701 64.17972591263378 11.480839118116444 64.17972591263378 10.750992767480312 64.17972591263378 C 10.079890147505136 63.743598215302434 9.782611268099688 63.140139891239876 9.419468205831953 63.76673968495675 C 9.942821442629569 64.56779055760616 10.797275706788945 64.88287056751493 11.480839118116444 64.88287056751493 C 12.801683001462813 64.88287056751493 13.839488909806386 63.770299911057414 13.839488909806386 62.4245344450064 C 13.839488909806386 61.041386604898406 12.915610236684062 59.975098887749525 11.811940145478202 59.975098887749525 C 11.413194822203828 59.975098887749525 11.025130177231445 60.110387479574754 10.694029149869687 60.38452488932589 L 10.694029149869687 57.976031932226654 9.03140356085957 64.65501609707243" style="vector-effect: non-scaling-stroke;" /></g><g style="fill-opacity: 1.0;stroke: rgb(0.0 0.0 0.0);fill: rgb(256.0 256.0 256.0);stroke-width: 1.2800000000000002;"><path d="M 57.17723117666567 110.46931566942867 C 64.80067140825946 110.39307936120468 72.4246834157384 110.39307936120458 80.04812364733212 110.46931566942834" style="vector-effect: non-scaling-stroke;" /></g><g style="fill-opacity: 1.0;stroke: rgb(0.0 0.0 0.0);fill: rgb(0.0 0.0 0.0);stroke-width: 0.0;"><path d="M 51.460937454035964 110.18343666051956 C 47.58928158175764 119.6888587248857 43.682336808732515 129.17986904297587 39.74018396781375 138.6562712502447 C 53.15430125738441 129.2293940680661 66.59031746402658 119.83371681413311 80.04812364732516 110.46931566942744 C 66.7802828675683 100.83765137351344 53.53485318196263 91.17515299012841 40.31194198563112 81.48189886366856 C 44.06379260526829 91.03524302909241 47.78015005796765 100.60248827531305 51.460937454038884 110.1834366605202" style="vector-effect: non-scaling-stroke;" /></g><g style="fill-opacity: 1.0;stroke: rgb(0.0 0.0 0.0);fill: rgb(256.0 256.0 256.0);stroke-width: 1.2800000000000002;"><path d="M 54.87914223878029 101.89273099292899 C 73.5261944083248 91.03882029708633 92.21153969577064 80.25083116547802 110.93482817354867 69.52896562887842" style="vector-effect: non-scaling-stroke;" /></g><g style="fill-opacity: 1.0;stroke: rgb(0.0 0.0 0.0);fill: rgb(0.0 0.0 0.0);stroke-width: 0.0;"><path d="M 86.12600787217377 83.73570264031189 C 87.5914867939628 93.89420348171943 89.01923293738895 104.05811194586325 90.409216763056 114.2272177462509 C 97.21643754567948 99.31191348241313 104.05832650739082 84.4124558412492 110.9348281735426 69.52896562888284 C 94.61800929176653 67.92709870386103 78.3049367247044 66.2872981101887 61.99574274020042 64.60957714351434 C 70.06281426384659 70.95505780674914 78.106291446427 77.3304769404904 86.12600787217661 83.73570264031096" style="vector-effect: non-scaling-stroke;" /></g><g style="fill-opacity: 1.0;stroke: rgb(0.0 0.0 0.0);fill: rgb(256.0 256.0 256.0);stroke-width: 1.2800000000000002;"><path d="M 48.60064650016572 95.61423525431461 C 61.87595063449735 72.46826139124938 75.21735903025255 49.36026420527462 88.62470832382938 26.29052665044577" style="vector-effect: non-scaling-stroke;" /></g><g style="fill-opacity: 1.0;stroke: rgb(0.0 0.0 0.0);fill: rgb(0.0 0.0 0.0);stroke-width: 0.0;"><path d="M 74.25972053985194 51.008052158152644 C 80.61356541796434 59.068537446270895 86.93745249541854 67.15259252705616 93.2312509339619 75.2600501452052 C 91.65778819575755 58.94046770331286 90.12226984234076 42.61724908835994 88.62470832382618 26.290526650452883 C 73.69757771280668 33.07177489747405 58.75470119166221 39.81830910690867 43.7961999185651 46.53007457725641 C 53.95621537383258 47.98501573202376 64.1107922787377 49.47768521986522 74.25972053985394 51.00805215815042" style="vector-effect: non-scaling-stroke;" /></g><g style="fill-opacity: 1.0;stroke: rgb(0.0 0.0 0.0);fill: rgb(256.0 256.0 256.0);stroke-width: 1.2800000000000002;"><path d="M 40.024061823665946 93.31614631642945 C 39.94782551543076 71.74037008398884 39.94782551543041 50.164391820772735 40.02406182366327 28.588615588332672" style="vector-effect: non-scaling-stroke;" /></g><g style="fill-opacity: 1.0;stroke: rgb(0.0 0.0 0.0);fill: rgb(0.0 0.0 0.0);stroke-width: 0.0;"><path d="M 39.92304682976187 57.17705271296317 C 49.453306083680936 60.98716115868699 58.96938208708223 64.83265096039656 68.47107795682314 68.71344255671322 C 58.957655950477 55.36056429787305 49.4752916114745 41.98558582657676 40.02406182366405 28.588615588340133 C 30.478394932225083 41.918461786396946 20.901749677433028 55.226096746415614 11.294203707579287 68.51141256890726 C 20.82308692298663 64.697864026901 30.366100443870117 60.919718018896496 39.92304682976249 57.17705271296025" style="vector-effect: non-scaling-stroke;" /></g><g style="fill-opacity: 1.0;stroke: rgb(0.0 0.0 0.0);fill: rgb(256.0 256.0 256.0);stroke-width: 1.2800000000000002;"><path d="M 31.44747714716628 95.61423525431482 C 27.56973445175672 89.05026050363433 23.757728448017193 82.4476724264001 20.01203091183288 75.80746136749582" style="vector-effect: non-scaling-stroke;" /></g><g style="fill-opacity: 1.0;stroke: rgb(0.0 0.0 0.0);fill: rgb(0.0 0.0 0.0);stroke-width: 0.0;"><path d="M 34.05804552435726 100.70763033806043 C 44.225810441930626 99.30787164598158 54.39873887148949 97.94587991155908 64.57662033992261 96.6216833137613 C 49.705646577014754 89.71815556273835 34.85074328602806 82.78006282909331 20.0120309118356 75.8074613675023 C 18.304685340728938 92.11358068409587 16.559431119494274 108.41570846756342 14.776282398807489 124.71371253880211 C 21.173795827341795 116.68784250828 27.601094528455093 108.68575992158841 34.05804552435636 100.70763033805757" style="vector-effect: non-scaling-stroke;" /></g><g style="fill-opacity: 1.0;stroke: rgb(0.0 0.0 0.0);fill: rgb(256.0 256.0 256.0);stroke-width: 1.2800000000000002;"><path d="M 105.77787767683097 95.61423525431374 C 109.52357521301508 88.97402419540931 113.33558121675438 82.371436118175 117.21332391216367 75.80746136749448" style="vector-effect: non-scaling-stroke;" /></g><g style="fill-opacity: 1.0;stroke: rgb(0.0 0.0 0.0);fill: rgb(0.0 0.0 0.0);stroke-width: 0.0;"><path d="M 102.67215233139197 100.42175132915035 C 108.96826137668702 108.52741470143765 115.23424503322079 116.6564332851053 121.46997366073518 124.80863889457635 C 120.01311718739794 108.4782339613748 118.59423010305336 92.14446397379675 117.21332391215944 75.80746136750007 C 102.23813756129593 82.48191638817967 87.24745365445561 89.12154578826224 72.24139373743732 95.72629573304113 C 82.39075778560881 97.25376986794285 92.53441393942147 98.81893252747186 102.67215233139397 100.42175132914815" style="vector-effect: non-scaling-stroke;" /></g><g style="fill-opacity: 1.0;stroke: rgb(0.0 0.0 0.0);fill: rgb(256.0 256.0 256.0);stroke-width: 1.2800000000000002;"><path d="M 97.2012930003312 93.31614631642864 C 97.12505669209601 71.74037008398803 97.12505669209565 50.164391820771925 97.20129300032852 28.588615588331862" style="vector-effect: non-scaling-stroke;" /></g><g style="fill-opacity: 1.0;stroke: rgb(0.0 0.0 0.0);fill: rgb(0.0 0.0 0.0);stroke-width: 0.0;"><path d="M 97.10027800642715 57.17705271296236 C 106.6305372603462 60.98716115868618 116.14661326374751 64.83265096039575 125.64830913348843 68.71344255671241 C 116.13488712714226 55.36056429787224 106.65252278813979 41.98558582657595 97.20129300032931 28.588615588339323 C 87.65562610889036 41.918461786396136 78.0789808540983 55.226096746414804 68.47143488424457 68.51141256890645 C 78.0003180996519 64.69786402690019 87.54333162053538 60.919718018895686 97.10027800642777 57.17705271295944" style="vector-effect: non-scaling-stroke;" /></g><g style="fill-opacity: 1.0;stroke: rgb(0.0 0.0 0.0);fill: rgb(256.0 256.0 256.0);stroke-width: 1.2800000000000002;"><path d="M 88.62470832383153 95.61423525431405 C 75.21735903025208 72.54449769948565 61.875950634496114 49.43650051351123 48.60064650016273 26.2905266504479" style="vector-effect: non-scaling-stroke;" /></g><g style="fill-opacity: 1.0;stroke: rgb(0.0 0.0 0.0);fill: rgb(0.0 0.0 0.0);stroke-width: 0.0;"><path d="M 62.824157616538095 51.08973375027888 C 72.98166508193542 49.617385318187004 83.14460568621521 48.18276599884012 93.31276916290963 46.78590547383722 C 78.39286481997419 39.98877295608431 63.48878365118952 33.156961550644084 48.60064650016729 26.290526650454222 C 47.00981444594661 42.60842508871605 45.38104619824558 58.9226028663585 43.71435496326143 75.23292770657633 C 50.054378691935135 67.16156679685584 56.424356840312285 59.113779976445954 62.824157616537164 51.08973375027604" style="vector-effect: non-scaling-stroke;" /></g><g style="fill-opacity: 1.0;stroke: rgb(0.0 0.0 0.0);fill: rgb(256.0 256.0 256.0);stroke-width: 1.2800000000000002;"><path d="M 82.34621258521715 101.89273099292859 C 63.622924107437456 91.17086545633067 44.93757881999125 80.38287632472287 26.29052665044607 69.52896562888243" style="vector-effect: non-scaling-stroke;" /></g><g style="fill-opacity: 1.0;stroke: rgb(0.0 0.0 0.0);fill: rgb(0.0 0.0 0.0);stroke-width: 0.0;"><path d="M 50.99833195791952 83.91066574207944 C 59.063112290049524 77.56227334639571 67.15144215002466 71.2438546839615 75.2631541940985 64.95554047989052 C 58.94251140512892 66.51796648488812 42.61825810441512 68.04244565475575 26.290526650452914 69.52896562888549 C 33.061678640790035 84.46067875196408 39.79810595306007 99.40811430565503 46.49975396771031 114.37115109482102 C 47.96156565947147 104.21212188957998 49.461101997774556 94.05855674783425 50.998331957917294 83.91066574207744" style="vector-effect: non-scaling-stroke;" /></g><g style="fill-opacity: 1.0;stroke: rgb(0.0 0.0 0.0);fill: rgb(256.0 256.0 256.0);stroke-width: 1.2800000000000002;"><path d="M 117.21332391216318 46.097300537266094 C 113.33558121675361 39.53332578658557 109.52357521301407 32.9307377093513 105.77787767682976 26.290526650446967" style="vector-effect: non-scaling-stroke;" /></g><g style="fill-opacity: 1.0;stroke: rgb(0.0 0.0 0.0);fill: rgb(0.0 0.0 0.0);stroke-width: 0.0;"><path d="M 119.8238922893541 51.190695621011585 C 129.99165720692747 49.790936928932766 140.16458563648635 48.42894519451027 150.34246710491948 47.10474859671251 C 135.47149334201163 40.20122084568955 120.61659005102493 33.263128112044484 105.77787767683249 26.29052665045344 C 104.07053210572579 42.59664596704701 102.3252778844911 58.89877375051456 100.5421291638043 75.19677782175324 C 106.93964259233861 67.17090779123114 113.36694129345193 59.16882520453957 119.8238922893532 51.19069562100874" style="vector-effect: non-scaling-stroke;" /></g><g style="fill-opacity: 1.0;stroke: rgb(0.0 0.0 0.0);fill: rgb(256.0 256.0 256.0);stroke-width: 1.2800000000000002;"><path d="M 110.9348281735488 52.37579627588069 C 92.21153969576909 41.65393073928273 73.52619440832288 30.865941607674923 54.879142238777675 20.012030911834437" style="vector-effect: non-scaling-stroke;" /></g><g style="fill-opacity: 1.0;stroke: rgb(0.0 0.0 0.0);fill: rgb(0.0 0.0 0.0);stroke-width: 0.0;"><path d="M 79.58694754625111 34.39373102503146 C 87.65172787838112 28.04533862934774 95.74005773835626 21.726919966913528 103.85176978243011 15.43860576284256 C 87.53112699346052 17.00103176784014 71.20687369274673 18.525510937707754 54.87914223878452 20.012030911837485 C 61.65029422912162 34.94374403491608 68.38672154139165 49.891179588607045 75.08836955604187 64.85421637777301 C 76.55018124780304 54.695187172531995 78.04971758610613 44.54162203078626 79.5869475462489 34.39373102502946" style="vector-effect: non-scaling-stroke;" /></g><g style="fill-opacity: 1.0;stroke: rgb(0.0 0.0 0.0);fill: rgb(256.0 256.0 256.0);stroke-width: 1.2800000000000002;"><path d="M 108.63673923566364 60.95238095238044 C 81.95408580775272 61.02861726061728 55.27126901624167 61.028617260617665 28.588615588331606 60.9523809523832" style="vector-effect: non-scaling-stroke;" /></g><g style="fill-opacity: 1.0;stroke: rgb(0.0 0.0 0.0);fill: rgb(0.0 0.0 0.0);stroke-width: 0.0;"><path d="M 57.17711448868434 61.03406254450735 C 60.980777075969286 51.50122882429725 64.81983060279487 41.982554424165144 68.69419564094594 32.478236281013245 C 55.34775403621487 42.00068620515261 41.979191220847 51.492093414665256 28.588615588339366 60.95238095238241 C 41.924914145138146 70.48903114362305 55.239022418581534 80.05667471183088 68.53083245669444 89.65523408170098 C 64.7108407301007 80.12893201721316 60.92624197357274 70.58847570896182 57.17711448868141 61.03406254450673" style="vector-effect: non-scaling-stroke;" /></g><g style="fill-opacity: 1.0;stroke: rgb(0.0 0.0 0.0);fill: rgb(256.0 256.0 256.0);stroke-width: 1.2800000000000002;"><path d="M 80.04812364733043 11.435446235333197 C 72.42468341573664 11.511682543557168 64.8006714082577 11.511682543557272 57.17723117666398 11.435446235333515" style="vector-effect: non-scaling-stroke;" /></g><g style="fill-opacity: 1.0;stroke: rgb(0.0 0.0 0.0);fill: rgb(0.0 0.0 0.0);stroke-width: 0.0;"><path d="M 85.76441736996013 11.721325244242292 C 89.63607324223847 2.2159031798761513 93.54301801526358 -7.275107138214012 97.48517085618236 -16.75150934548285 C 84.0710535666117 -7.3246321633042575 70.63503735996952 2.0710450906287434 57.17723117667095 11.4354462353344 C 70.4450719564278 21.067110531248414 83.69050164203347 30.729608914633456 96.91341283836496 40.422863041093294 C 93.16156221872781 30.869518875669442 89.44520476602844 21.302273629448806 85.76441736995721 11.721325244241653" style="vector-effect: non-scaling-stroke;" /></g><g style="fill-opacity: 1.0;stroke: rgb(0.0 0.0 0.0);fill: rgb(256.0 256.0 256.0);stroke-width: 1.2800000000000002;"><path d="M 82.34621258521578 20.0120309118329 C 63.69916041567128 30.865941607675587 45.01381512822544 41.653930739283915 26.290526650447397 52.375796275883516" style="vector-effect: non-scaling-stroke;" /></g><g style="fill-opacity: 1.0;stroke: rgb(0.0 0.0 0.0);fill: rgb(0.0 0.0 0.0);stroke-width: 0.0;"><path d="M 51.099346951822284 38.16905926445005 C 49.63386803003324 28.010558423042493 48.206121886607086 17.846649958898688 46.81613806094004 7.677544158511043 C 40.00891727831657 22.592848422348816 33.16702831660524 37.492306063512736 26.290526650453465 52.37579627587911 C 42.60734553222956 53.977663200900906 58.920418099291666 55.617463794573226 75.22961208379566 57.295184761247576 C 67.16254056014948 50.94970409801278 59.11906337756908 44.574284964271534 51.09934695181944 38.16905926445097" style="vector-effect: non-scaling-stroke;" /></g><g style="fill-opacity: 1.0;stroke: rgb(0.0 0.0 0.0);fill: rgb(256.0 256.0 256.0);stroke-width: 1.2800000000000002;"><path d="M 31.44747714716513 26.290526650448143 C 27.701779610981006 32.93073770935262 23.8897736072417 39.53332578658696 20.012030911832397 46.09730053726751" style="vector-effect: non-scaling-stroke;" /></g><g style="fill-opacity: 1.0;stroke: rgb(0.0 0.0 0.0);fill: rgb(0.0 0.0 0.0);stroke-width: 0.0;"><path d="M 34.55320249260409 21.48301057561161 C 28.257093447309025 13.377347203324328 21.991109790775248 5.248328619656685 15.755381163260859 -2.903876989814356 C 17.212237636598122 13.426527943387189 18.631124720942694 29.760297930965237 20.01203091183665 46.097300537261916 C 34.98721726270014 39.4228455165823 49.97790116954046 32.78321611649972 64.98396108655874 26.17846617172081 C 54.83459703838725 24.6509920368191 44.69094088457459 23.085829377290086 34.553202492602075 21.483010575613818" style="vector-effect: non-scaling-stroke;" /></g></svg>