<?xml version="1.0" encoding="utf-8" ?>
<svg baseProfile="full" height="128" version="1.1" width="144" xmlns="http://www.w3.org/2000/svg" xmlns:ev="http://www.w3.org/2001/xml-events" xmlns:xlink="http://www.w3.org/1999/xlink">
    
            <g style="fill:rgb(0.0 128.50196078431372 4.279975067166721e-14);stroke:rgb(0.0 0.0 0.0);stroke-width:0.384;fill-opacity:1.0">
                <path d="M 54.89 113.52 C 54.89 112.32 54.70 111.12 54.33 109.98 C 53.96 108.84 53.41 107.77 52.71 106.80 C 52.00 105.82 51.15 104.97 50.18 104.27 C 49.21 103.56 48.13 103.01 46.99 102.64 C 45.85 102.27 44.65 102.08 43.45 102.08 C 42.25 102.08 41.06 102.27 39.92 102.64 C 38.78 103.01 37.70 103.56 36.73 104.27 C 35.76 104.97 34.91 105.82 34.20 106.80 C 33.50 107.77 32.95 108.84 32.58 109.98 C 32.21 111.12 32.02 112.32 32.02 113.52 C 32.02 114.72 32.21 115.91 32.58 117.05 C 32.95 118.19 33.50 119.27 34.20 120.24 C 34.91 121.21 35.76 122.06 36.73 122.77 C 37.70 123.47 38.78 124.02 39.92 124.39 C 41.06 124.76 42.25 124.95 43.45 124.95 C 44.65 124.95 45.85 124.76 46.99 124.39 C 48.13 124.02 49.21 123.47 50.18 122.77 C 51.15 122.06 52.00 121.21 52.71 120.24 C 53.41 119.27 53.96 118.19 54.33 117.05 C 54.70 115.91 54.89 114.72 54.89 113.52 Z" />
            </g>
            <g style="fill:rgb(256.0 256.0 256.0);stroke:rgb(256.0 256.0 256.0);stroke-width:0.0;fill-opacity:1.0">
                <path d="M 45.91 113.64 C 45.91 113.00 45.90 111.80 45.43 110.88 C 44.96 109.99 44.21 109.75 43.68 109.75 C 42.90 109.75 42.24 110.21 41.90 110.93 C 41.54 111.68 41.43 112.46 41.43 113.64 C 41.43 114.45 41.47 115.45 41.88 116.31 C 42.34 117.27 43.13 117.51 43.67 117.51 C 44.37 117.51 45.06 117.14 45.44 116.36 C 45.84 115.55 45.91 114.66 45.91 113.64 Z M 43.67 116.82 C 42.80 116.82 42.54 115.84 42.46 115.51 C 42.32 114.95 42.30 114.41 42.30 113.52 C 42.30 112.82 42.30 112.03 42.51 111.41 C 42.78 110.69 43.23 110.45 43.67 110.45 C 44.51 110.45 44.78 111.28 44.87 111.57 C 45.04 112.17 45.04 112.86 45.04 113.52 C 45.04 114.56 45.04 116.82 43.67 116.82 Z" />
            </g>
            <g style="fill:rgb(0.0 128.50196078431372 4.279975067166721e-14);stroke:rgb(0.0 0.0 0.0);stroke-width:0.384;fill-opacity:1.0">
                <path d="M 112.07 113.52 C 112.07 112.32 111.88 111.12 111.51 109.98 C 111.14 108.84 110.59 107.77 109.88 106.80 C 109.18 105.82 108.32 104.97 107.35 104.27 C 106.38 103.56 105.31 103.01 104.17 102.64 C 103.02 102.27 101.83 102.08 100.63 102.08 C 99.43 102.08 98.24 102.27 97.10 102.64 C 95.96 103.01 94.88 103.56 93.91 104.27 C 92.94 104.97 92.09 105.82 91.38 106.80 C 90.68 107.77 90.13 108.84 89.76 109.98 C 89.39 111.12 89.20 112.32 89.20 113.52 C 89.20 114.72 89.39 115.91 89.76 117.05 C 90.13 118.19 90.68 119.27 91.38 120.24 C 92.09 121.21 92.94 122.06 93.91 122.77 C 94.88 123.47 95.96 124.02 97.10 124.39 C 98.24 124.76 99.43 124.95 100.63 124.95 C 101.83 124.95 103.02 124.76 104.17 124.39 C 105.31 124.02 106.38 123.47 107.35 122.77 C 108.32 122.06 109.18 121.21 109.88 120.24 C 110.59 119.27 111.14 118.19 111.51 117.05 C 111.88 115.91 112.07 114.72 112.07 113.52 Z" />
            </g>
            <g style="fill:rgb(256.0 256.0 256.0);stroke:rgb(256.0 256.0 256.0);stroke-width:0.0;fill-opacity:1.0">
                <path d="M 101.58 109.70 L 101.36088316503978 109.70037233713532 C 100.74 110.32 100.03 110.41 99.30 110.41 L 99.29951225275529 111.06749915979033 C 99.63 111.07 100.16 111.07 100.70 110.81 L 100.7004612233666 116.67663538138655 L 99.35647587036591 116.67663538138655 L 99.35647587036591 117.33349709695906 L 102.92204231018097 117.33349709695906 L 102.92204231018097 116.67663538138655 L 101.57805695718028 116.67663538138655 L 101.57805695718028 109.70037233713532 Z" />
            </g>
            <g style="fill:rgb(0.0 128.50196078431372 4.279975067166721e-14);stroke:rgb(0.0 0.0 0.0);stroke-width:0.384;fill-opacity:1.0">
                <path d="M 140.66 64.00 C 140.66 62.80 140.47 61.61 140.10 60.47 C 139.73 59.33 139.18 58.25 138.47 57.28 C 137.77 56.31 136.91 55.45 135.94 54.75 C 134.97 54.04 133.90 53.50 132.75 53.12 C 131.61 52.75 130.42 52.56 129.22 52.56 C 128.02 52.56 126.83 52.75 125.69 53.12 C 124.55 53.50 123.47 54.04 122.50 54.75 C 121.53 55.45 120.67 56.31 119.97 57.28 C 119.26 58.25 118.72 59.33 118.34 60.47 C 117.97 61.61 117.79 62.80 117.79 64.00 C 117.79 65.20 117.97 66.39 118.34 67.53 C 118.72 68.67 119.26 69.75 119.97 70.72 C 120.67 71.69 121.53 72.55 122.50 73.25 C 123.47 73.96 124.55 74.50 125.69 74.88 C 126.83 75.25 128.02 75.44 129.22 75.44 C 130.42 75.44 131.61 75.25 132.75 74.88 C 133.90 74.50 134.97 73.96 135.94 73.25 C 136.91 72.55 137.77 71.69 138.47 70.72 C 139.18 69.75 139.73 68.67 140.10 67.53 C 140.47 66.39 140.66 65.20 140.66 64.00 Z" />
            </g>
            <g style="fill:rgb(256.0 256.0 256.0);stroke:rgb(256.0 256.0 256.0);stroke-width:0.0;fill-opacity:1.0">
                <path d="M 129.76 65.40 C 130.07 65.07 130.55 64.68 130.88 64.28 C 131.20 63.89 131.62 63.35 131.62 62.55 C 131.62 61.31 130.78 60.18 129.35 60.18 C 128.22 60.18 127.57 60.89 127.26 61.99 L 127.70477619690345 62.60261125548874 C 127.96 61.57 128.31 60.91 129.20 60.91 C 130.18 60.91 130.72 61.71 130.72 62.58 C 130.72 63.62 129.93 64.43 129.32 65.03 C 128.65 65.70 127.99 66.39 127.35 67.09 L 127.35231381293771 67.81656237991125 L 131.62458513373457 67.81656237991125 L 131.62458513373457 67.04577342911747 L 129.68782213497332 67.04577342911747 C 129.55 67.05 129.41 67.05 129.28 67.05 L 128.13734366813412 67.04577342911747 L 128.13734366813412 67.03509275081548 L 129.75546643088595 65.40094897061068 Z" />
            </g>
            <g style="fill:rgb(0.0 128.50196078431372 4.279975067166721e-14);stroke:rgb(0.0 0.0 0.0);stroke-width:0.384;fill-opacity:1.0">
                <path d="M 112.07 14.48 C 112.07 13.28 111.88 12.09 111.51 10.95 C 111.14 9.81 110.59 8.73 109.88 7.76 C 109.18 6.79 108.32 5.94 107.35 5.23 C 106.38 4.53 105.31 3.98 104.17 3.61 C 103.02 3.24 101.83 3.05 100.63 3.05 C 99.43 3.05 98.24 3.24 97.10 3.61 C 95.96 3.98 94.88 4.53 93.91 5.23 C 92.94 5.94 92.09 6.79 91.38 7.76 C 90.68 8.73 90.13 9.81 89.76 10.95 C 89.39 12.09 89.20 13.28 89.20 14.48 C 89.20 15.68 89.39 16.88 89.76 18.02 C 90.13 19.16 90.68 20.23 91.38 21.20 C 92.09 22.18 92.94 23.03 93.91 23.73 C 94.88 24.44 95.96 24.99 97.10 25.36 C 98.24 25.73 99.43 25.92 100.63 25.92 C 101.83 25.92 103.02 25.73 104.17 25.36 C 105.31 24.99 106.38 24.44 107.35 23.73 C 108.32 23.03 109.18 22.18 109.88 21.20 C 110.59 20.23 111.14 19.16 111.51 18.02 C 111.88 16.88 112.07 15.68 112.07 14.48 Z" />
            </g>
            <g style="fill:rgb(256.0 256.0 256.0);stroke:rgb(256.0 256.0 256.0);stroke-width:0.0;fill-opacity:1.0">
                <path d="M 99.97 14.64 L 100.74585410614924 14.6423854009567 C 101.82 14.64 102.12 15.56 102.12 16.21 C 102.12 17.08 101.62 17.77 100.80 17.77 C 100.17 17.77 99.26 17.46 98.75 16.62 C 98.67 17.02 98.67 17.04 98.63 17.31 C 99.16 18.09 100.03 18.47 100.83 18.47 C 102.12 18.47 103.08 17.41 103.08 16.22 C 103.08 15.33 102.45 14.59 101.60 14.30 C 102.28 13.93 102.79 13.23 102.79 12.42 C 102.79 11.47 101.91 10.72 100.84 10.72 C 99.86 10.72 99.09 11.32 98.78 11.96 C 98.86 12.07 99.06 12.40 99.16 12.57 C 99.41 11.91 100.06 11.41 100.83 11.41 C 101.46 11.41 101.89 11.83 101.89 12.42 C 101.89 13.04 101.49 13.72 100.81 13.88 C 100.77 13.88 100.06 13.94 99.97 13.96 L 99.9715049292548 14.6423854009567 Z" />
            </g>
            <g style="fill:rgb(0.0 128.50196078431372 4.279975067166721e-14);stroke:rgb(0.0 0.0 0.0);stroke-width:0.384;fill-opacity:1.0">
                <path d="M 54.89 14.48 C 54.89 13.28 54.70 12.09 54.33 10.95 C 53.96 9.81 53.41 8.73 52.71 7.76 C 52.00 6.79 51.15 5.94 50.18 5.23 C 49.21 4.53 48.13 3.98 46.99 3.61 C 45.85 3.24 44.65 3.05 43.45 3.05 C 42.25 3.05 41.06 3.24 39.92 3.61 C 38.78 3.98 37.70 4.53 36.73 5.23 C 35.76 5.94 34.91 6.79 34.20 7.76 C 33.50 8.73 32.95 9.81 32.58 10.95 C 32.21 12.09 32.02 13.28 32.02 14.48 C 32.02 15.68 32.21 16.88 32.58 18.02 C 32.95 19.16 33.50 20.23 34.20 21.20 C 34.91 22.18 35.76 23.03 36.73 23.73 C 37.70 24.44 38.78 24.99 39.92 25.36 C 41.06 25.73 42.25 25.92 43.45 25.92 C 44.65 25.92 45.85 25.73 46.99 25.36 C 48.13 24.99 49.21 24.44 50.18 23.73 C 51.15 23.03 52.00 22.18 52.71 21.20 C 53.41 20.23 53.96 19.16 54.33 18.02 C 54.70 16.88 54.89 15.68 54.89 14.48 Z" />
            </g>
            <g style="fill:rgb(256.0 256.0 256.0);stroke:rgb(256.0 256.0 256.0);stroke-width:0.0;fill-opacity:1.0">
                <path d="M 44.94 16.28 L 45.97800594310849 16.27741923768748 L 45.97800594310849 15.58495526110832 L 44.94198014781525 15.58495526110832 L 44.94198014781525 10.751948329456862 L 43.93977650047832 10.751948329456862 L 41.22688421177231 15.58495526110832 L 41.22688421177231 16.27741923768748 L 44.041242944347246 16.27741923768748 L 44.041242944347246 18.214182236448725 L 44.94198014781525 18.214182236448725 L 44.94198014781525 16.27741923768748 Z M 42.10 15.58 C 42.76 14.43 44.08 12.09 44.08 11.30 L 44.075065092303554 15.58495526110832 L 42.104479945586 15.58495526110832 Z" />
            </g>
            <g style="fill:rgb(0.0 128.50196078431372 4.279975067166721e-14);stroke:rgb(0.0 0.0 0.0);stroke-width:0.384;fill-opacity:1.0">
                <path d="M 26.30 64.00 C 26.30 62.80 26.11 61.61 25.74 60.47 C 25.37 59.33 24.82 58.25 24.12 57.28 C 23.41 56.31 22.56 55.45 21.59 54.75 C 20.62 54.04 19.54 53.50 18.40 53.12 C 17.26 52.75 16.07 52.56 14.87 52.56 C 13.67 52.56 12.47 52.75 11.33 53.12 C 10.19 53.50 9.12 54.04 8.14 54.75 C 7.17 55.45 6.32 56.31 5.61 57.28 C 4.91 58.25 4.36 59.33 3.99 60.47 C 3.62 61.61 3.43 62.80 3.43 64.00 C 3.43 65.20 3.62 66.39 3.99 67.53 C 4.36 68.67 4.91 69.75 5.61 70.72 C 6.32 71.69 7.17 72.55 8.14 73.25 C 9.12 73.96 10.19 74.50 11.33 74.88 C 12.47 75.25 13.67 75.44 14.87 75.44 C 16.07 75.44 17.26 75.25 18.40 74.88 C 19.54 74.50 20.62 73.96 21.59 73.25 C 22.56 72.55 23.41 71.69 24.12 70.72 C 24.82 69.75 25.37 68.67 25.74 67.53 C 26.11 66.39 26.30 65.20 26.30 64.00 Z" />
            </g>
            <g style="fill:rgb(256.0 256.0 256.0);stroke:rgb(256.0 256.0 256.0);stroke-width:0.0;fill-opacity:1.0">
                <path d="M 14.12 61.02 L 16.9158802833878 61.023650979845854 L 16.9158802833878 60.29736485531039 L 13.293350225962126 60.29736485531039 L 13.293350225962126 64.53225380205028 L 14.057018724554565 64.53225380205028 C 14.26 64.06 14.68 63.72 15.23 63.72 C 15.74 63.72 16.31 64.16 16.31 65.45 C 16.31 66.83 15.50 67.23 14.91 67.23 C 14.18 67.23 13.51 66.79 13.21 66.19 L 12.850102076429451 66.81435873257594 C 13.37 67.62 14.23 67.93 14.91 67.93 C 16.23 67.93 17.27 66.82 17.27 65.47 C 17.27 64.09 16.35 63.02 15.24 63.02 C 14.84 63.02 14.46 63.16 14.12 63.43 L 14.124663020467182 61.023650979845854 Z" />
            </g>
            <g style="fill:rgb(256.0 256.0 256.0);stroke:rgb(0.0 0.0 0.0);stroke-width:0.384;fill-opacity:0">
                <path d="M 60.61 113.52 C 62.13 113.50 63.66 113.49 65.18 113.48 C 66.71 113.47 68.23 113.47 69.76 113.46 C 71.28 113.46 72.81 113.46 74.33 113.46 C 75.86 113.47 77.38 113.47 78.90 113.48 C 80.43 113.49 81.95 113.50 83.48 113.52" />
            </g>
            <g style="fill:rgb(0.0 0.0 0.0);stroke:rgb(0.0 0.0 0.0);stroke-width:0.0;fill-opacity:1.0">
                <path d="M 74.50 115.35 C 74.33 115.77 74.15 116.20 73.98 116.62 C 73.81 117.05 73.63 117.47 73.46 117.90 C 73.28 118.32 73.11 118.75 72.93 119.17 C 72.76 119.60 72.58 120.02 72.40 120.45 C 72.23 120.87 72.05 121.30 71.88 121.72 C 72.48 121.30 73.08 120.88 73.68 120.46 C 74.28 120.03 74.88 119.61 75.48 119.19 C 76.08 118.77 76.68 118.35 77.29 117.93 C 77.89 117.51 78.49 117.09 79.09 116.67 C 79.69 116.25 80.30 115.83 80.90 115.41 C 80.31 114.98 79.71 114.55 79.12 114.12 C 78.52 113.68 77.93 113.25 77.34 112.82 C 76.74 112.39 76.15 111.96 75.56 111.52 C 74.97 111.09 74.37 110.66 73.78 110.22 C 73.19 109.79 72.60 109.36 72.00 108.92 C 72.17 109.35 72.34 109.78 72.51 110.21 C 72.67 110.63 72.84 111.06 73.01 111.49 C 73.17 111.92 73.34 112.35 73.51 112.77 C 73.67 113.20 73.84 113.63 74.00 114.06 C 74.17 114.49 74.34 114.92 74.50 115.35 Z" />
            </g>
            <g style="fill:rgb(256.0 256.0 256.0);stroke:rgb(0.0 0.0 0.0);stroke-width:0.384;fill-opacity:0">
                <path d="M 58.31 104.94 C 62.04 102.77 65.77 100.60 69.50 98.44 C 73.24 96.27 76.97 94.11 80.70 91.95 C 84.44 89.79 88.18 87.63 91.92 85.47 C 95.65 83.32 99.39 81.17 103.14 79.02 C 106.88 76.87 110.62 74.72 114.37 72.58" />
            </g>
            <g style="fill:rgb(0.0 0.0 0.0);stroke:rgb(0.0 0.0 0.0);stroke-width:0.0;fill-opacity:1.0">
                <path d="M 107.54 78.70 C 107.61 79.15 107.68 79.60 107.74 80.06 C 107.80 80.51 107.87 80.97 107.93 81.42 C 108.00 81.88 108.06 82.33 108.13 82.79 C 108.19 83.25 108.25 83.70 108.32 84.16 C 108.38 84.61 108.44 85.07 108.50 85.52 C 108.81 84.85 109.11 84.19 109.42 83.52 C 109.72 82.85 110.03 82.18 110.34 81.52 C 110.64 80.85 110.95 80.18 111.25 79.51 C 111.56 78.85 111.87 78.18 112.18 77.51 C 112.48 76.85 112.79 76.18 113.10 75.51 C 112.37 75.44 111.64 75.37 110.91 75.30 C 110.18 75.23 109.45 75.15 108.72 75.08 C 107.98 75.01 107.25 74.93 106.52 74.86 C 105.79 74.79 105.06 74.71 104.33 74.64 C 103.60 74.56 102.87 74.49 102.14 74.41 C 102.50 74.70 102.86 74.98 103.23 75.27 C 103.59 75.55 103.95 75.84 104.31 76.12 C 104.67 76.41 105.03 76.69 105.39 76.98 C 105.75 77.26 106.11 77.55 106.47 77.84 C 106.83 78.12 107.19 78.41 107.54 78.70 Z" />
            </g>
            <g style="fill:rgb(256.0 256.0 256.0);stroke:rgb(0.0 0.0 0.0);stroke-width:0.384;fill-opacity:0">
                <path d="M 52.03 98.66 C 54.69 94.03 57.34 89.40 60.00 84.78 C 62.66 80.15 65.33 75.53 67.99 70.90 C 70.66 66.28 73.33 61.66 76.00 57.04 C 78.67 52.42 81.34 47.80 84.02 43.18 C 86.70 38.57 89.37 33.95 92.06 29.34" />
            </g>
            <g style="fill:rgb(0.0 0.0 0.0);stroke:rgb(0.0 0.0 0.0);stroke-width:0.0;fill-opacity:1.0">
                <path d="M 89.21 38.05 C 89.50 38.41 89.78 38.77 90.07 39.13 C 90.35 39.49 90.63 39.86 90.92 40.22 C 91.20 40.58 91.48 40.94 91.77 41.30 C 92.05 41.67 92.33 42.03 92.61 42.39 C 92.90 42.75 93.18 43.12 93.46 43.48 C 93.39 42.75 93.32 42.02 93.25 41.29 C 93.18 40.56 93.11 39.83 93.04 39.09 C 92.97 38.36 92.90 37.63 92.84 36.90 C 92.77 36.17 92.70 35.44 92.63 34.71 C 92.56 33.98 92.50 33.25 92.43 32.52 C 91.76 32.82 91.09 33.12 90.42 33.43 C 89.75 33.73 89.09 34.03 88.42 34.33 C 87.75 34.64 87.08 34.94 86.41 35.24 C 85.74 35.54 85.07 35.84 84.40 36.14 C 83.73 36.45 83.06 36.75 82.39 37.05 C 82.85 37.11 83.30 37.18 83.76 37.24 C 84.21 37.31 84.67 37.38 85.12 37.44 C 85.58 37.51 86.03 37.58 86.49 37.64 C 86.94 37.71 87.40 37.78 87.85 37.85 C 88.30 37.91 88.76 37.98 89.21 38.05 Z" />
            </g>
            <g style="fill:rgb(256.0 256.0 256.0);stroke:rgb(0.0 0.0 0.0);stroke-width:0.384;fill-opacity:0">
                <path d="M 43.45 96.36 C 43.44 92.05 43.43 87.73 43.42 83.42 C 43.41 79.10 43.40 74.79 43.40 70.47 C 43.40 66.16 43.40 61.84 43.40 57.53 C 43.40 53.21 43.41 48.90 43.42 44.58 C 43.43 40.27 43.44 35.95 43.45 31.64" />
            </g>
            <g style="fill:rgb(0.0 0.0 0.0);stroke:rgb(0.0 0.0 0.0);stroke-width:0.0;fill-opacity:1.0">
                <path d="M 45.34 40.60 C 45.77 40.77 46.20 40.94 46.62 41.12 C 47.05 41.29 47.48 41.46 47.90 41.63 C 48.33 41.80 48.75 41.97 49.18 42.15 C 49.61 42.32 50.03 42.49 50.46 42.67 C 50.88 42.84 51.31 43.01 51.73 43.19 C 51.31 42.59 50.88 41.99 50.46 41.39 C 50.03 40.79 49.61 40.19 49.18 39.60 C 48.76 39.00 48.33 38.40 47.91 37.80 C 47.48 37.20 47.06 36.60 46.64 36.00 C 46.21 35.40 45.79 34.80 45.37 34.20 C 44.94 34.80 44.51 35.40 44.08 35.99 C 43.65 36.59 43.23 37.19 42.80 37.78 C 42.37 38.38 41.94 38.97 41.51 39.57 C 41.08 40.16 40.65 40.76 40.22 41.36 C 39.79 41.95 39.36 42.55 38.93 43.14 C 39.36 42.97 39.79 42.80 40.21 42.63 C 40.64 42.46 41.07 42.29 41.50 42.12 C 41.92 41.95 42.35 41.78 42.78 41.61 C 43.20 41.44 43.63 41.27 44.06 41.11 C 44.49 40.94 44.92 40.77 45.34 40.60 Z" />
            </g>
            <g style="fill:rgb(256.0 256.0 256.0);stroke:rgb(0.0 0.0 0.0);stroke-width:0.384;fill-opacity:0">
                <path d="M 34.88 98.66 C 34.10 97.35 33.33 96.03 32.56 94.72 C 31.79 93.40 31.02 92.09 30.26 90.77 C 29.49 89.45 28.73 88.13 27.97 86.81 C 27.21 85.48 26.45 84.16 25.70 82.83 C 24.94 81.51 24.19 80.18 23.44 78.86" />
            </g>
            <g style="fill:rgb(0.0 0.0 0.0);stroke:rgb(0.0 0.0 0.0);stroke-width:0.0;fill-opacity:1.0">
                <path d="M 29.52 85.72 C 29.97 85.65 30.43 85.59 30.88 85.53 C 31.34 85.47 31.79 85.41 32.25 85.34 C 32.70 85.28 33.16 85.22 33.62 85.16 C 34.07 85.10 34.53 85.04 34.98 84.98 C 35.44 84.92 35.89 84.86 36.35 84.80 C 35.68 84.49 35.02 84.18 34.35 83.87 C 33.69 83.56 33.02 83.25 32.36 82.94 C 31.69 82.63 31.03 82.32 30.36 82.01 C 29.70 81.70 29.03 81.39 28.37 81.08 C 27.70 80.77 27.04 80.45 26.37 80.14 C 26.30 80.87 26.22 81.60 26.14 82.33 C 26.07 83.06 25.99 83.79 25.91 84.52 C 25.83 85.25 25.75 85.98 25.68 86.71 C 25.60 87.44 25.52 88.17 25.44 88.90 C 25.36 89.63 25.28 90.36 25.20 91.09 C 25.49 90.73 25.77 90.37 26.06 90.01 C 26.35 89.65 26.63 89.29 26.92 88.94 C 27.21 88.58 27.50 88.22 27.79 87.86 C 28.07 87.50 28.36 87.15 28.65 86.79 C 28.94 86.43 29.23 86.07 29.52 85.72 Z" />
            </g>
            <g style="fill:rgb(256.0 256.0 256.0);stroke:rgb(0.0 0.0 0.0);stroke-width:0.384;fill-opacity:0">
                <path d="M 109.21 98.66 C 109.96 97.33 110.71 96.01 111.46 94.68 C 112.22 93.36 112.98 92.03 113.74 90.71 C 114.49 89.39 115.26 88.07 116.02 86.75 C 116.79 85.43 117.55 84.11 118.33 82.80 C 119.10 81.48 119.87 80.17 120.64 78.86" />
            </g>
            <g style="fill:rgb(0.0 0.0 0.0);stroke:rgb(0.0 0.0 0.0);stroke-width:0.0;fill-opacity:1.0">
                <path d="M 117.74 87.55 C 118.02 87.91 118.30 88.27 118.58 88.64 C 118.87 89.00 119.15 89.36 119.43 89.73 C 119.71 90.09 119.99 90.45 120.27 90.82 C 120.55 91.18 120.83 91.55 121.11 91.91 C 121.39 92.28 121.67 92.64 121.95 93.01 C 121.88 92.27 121.82 91.54 121.75 90.81 C 121.69 90.08 121.62 89.35 121.56 88.62 C 121.50 87.89 121.43 87.16 121.37 86.42 C 121.31 85.69 121.24 84.96 121.18 84.23 C 121.12 83.50 121.06 82.77 120.99 82.04 C 120.32 82.33 119.65 82.63 118.98 82.93 C 118.31 83.23 117.64 83.53 116.97 83.83 C 116.30 84.12 115.63 84.42 114.96 84.72 C 114.29 85.01 113.61 85.31 112.94 85.61 C 112.27 85.90 111.60 86.20 110.93 86.49 C 111.38 86.56 111.84 86.63 112.29 86.70 C 112.74 86.77 113.20 86.84 113.65 86.91 C 114.11 86.98 114.56 87.05 115.02 87.12 C 115.47 87.19 115.92 87.26 116.38 87.33 C 116.83 87.40 117.29 87.47 117.74 87.55 Z" />
            </g>
            <g style="fill:rgb(256.0 256.0 256.0);stroke:rgb(0.0 0.0 0.0);stroke-width:0.384;fill-opacity:0">
                <path d="M 100.63 96.36 C 100.62 92.05 100.60 87.73 100.60 83.42 C 100.59 79.10 100.58 74.79 100.58 70.47 C 100.57 66.16 100.57 61.84 100.58 57.53 C 100.58 53.21 100.59 48.90 100.60 44.58 C 100.60 40.27 100.62 35.95 100.63 31.64" />
            </g>
            <g style="fill:rgb(0.0 0.0 0.0);stroke:rgb(0.0 0.0 0.0);stroke-width:0.0;fill-opacity:1.0">
                <path d="M 102.52 40.60 C 102.95 40.77 103.37 40.94 103.80 41.12 C 104.23 41.29 104.65 41.46 105.08 41.63 C 105.51 41.80 105.93 41.97 106.36 42.15 C 106.78 42.32 107.21 42.49 107.63 42.67 C 108.06 42.84 108.49 43.01 108.91 43.19 C 108.49 42.59 108.06 41.99 107.63 41.39 C 107.21 40.79 106.78 40.19 106.36 39.60 C 105.93 39.00 105.51 38.40 105.09 37.80 C 104.66 37.20 104.24 36.60 103.81 36.00 C 103.39 35.40 102.97 34.80 102.54 34.20 C 102.12 34.80 101.69 35.40 101.26 35.99 C 100.83 36.59 100.40 37.19 99.98 37.78 C 99.55 38.38 99.12 38.97 98.69 39.57 C 98.26 40.16 97.83 40.76 97.40 41.36 C 96.97 41.95 96.54 42.55 96.11 43.14 C 96.54 42.97 96.96 42.80 97.39 42.63 C 97.82 42.46 98.25 42.29 98.67 42.12 C 99.10 41.95 99.53 41.78 99.95 41.61 C 100.38 41.44 100.81 41.27 101.24 41.11 C 101.66 40.94 102.09 40.77 102.52 40.60 Z" />
            </g>
            <g style="fill:rgb(256.0 256.0 256.0);stroke:rgb(0.0 0.0 0.0);stroke-width:0.384;fill-opacity:0">
                <path d="M 92.06 98.66 C 89.37 94.05 86.70 89.43 84.02 84.82 C 81.34 80.20 78.67 75.58 76.00 70.96 C 73.33 66.34 70.66 61.72 67.99 57.10 C 65.33 52.47 62.66 47.85 60.00 43.22 C 57.34 38.60 54.69 33.97 52.03 29.34" />
            </g>
            <g style="fill:rgb(0.0 0.0 0.0);stroke:rgb(0.0 0.0 0.0);stroke-width:0.0;fill-opacity:1.0">
                <path d="M 58.15 36.16 C 58.61 36.09 59.06 36.02 59.52 35.96 C 59.97 35.89 60.43 35.83 60.88 35.76 C 61.34 35.70 61.79 35.63 62.25 35.57 C 62.70 35.51 63.16 35.44 63.61 35.38 C 64.07 35.32 64.52 35.25 64.98 35.19 C 64.31 34.89 63.64 34.58 62.98 34.28 C 62.31 33.97 61.64 33.67 60.97 33.36 C 60.31 33.06 59.64 32.75 58.97 32.44 C 58.30 32.14 57.64 31.83 56.97 31.52 C 56.30 31.22 55.64 30.91 54.97 30.60 C 54.90 31.33 54.83 32.06 54.76 32.80 C 54.68 33.53 54.61 34.26 54.54 34.99 C 54.47 35.72 54.39 36.45 54.32 37.18 C 54.25 37.91 54.17 38.64 54.10 39.37 C 54.03 40.10 53.95 40.83 53.88 41.56 C 54.16 41.20 54.44 40.84 54.73 40.48 C 55.01 40.12 55.30 39.75 55.58 39.39 C 55.87 39.03 56.15 38.67 56.44 38.31 C 56.72 37.95 57.01 37.59 57.30 37.23 C 57.58 36.87 57.87 36.51 58.15 36.16 Z" />
            </g>
            <g style="fill:rgb(256.0 256.0 256.0);stroke:rgb(0.0 0.0 0.0);stroke-width:0.384;fill-opacity:0">
                <path d="M 85.78 104.94 C 82.03 102.80 78.29 100.65 74.55 98.50 C 70.81 96.35 67.07 94.20 63.33 92.04 C 59.59 89.89 55.85 87.73 52.12 85.57 C 48.38 83.41 44.65 81.25 40.91 79.08 C 37.18 76.92 33.45 74.75 29.72 72.58" />
            </g>
            <g style="fill:rgb(0.0 0.0 0.0);stroke:rgb(0.0 0.0 0.0);stroke-width:0.0;fill-opacity:1.0">
                <path d="M 38.43 75.42 C 38.79 75.14 39.15 74.86 39.51 74.57 C 39.88 74.29 40.24 74.01 40.60 73.72 C 40.96 73.44 41.32 73.16 41.69 72.87 C 42.05 72.59 42.41 72.31 42.77 72.03 C 43.14 71.74 43.50 71.46 43.86 71.18 C 43.13 71.25 42.40 71.32 41.67 71.39 C 40.94 71.46 40.21 71.53 39.48 71.60 C 38.75 71.67 38.02 71.73 37.29 71.80 C 36.55 71.87 35.82 71.94 35.09 72.00 C 34.36 72.07 33.63 72.14 32.90 72.21 C 33.20 72.87 33.51 73.54 33.81 74.21 C 34.11 74.88 34.41 75.55 34.71 76.22 C 35.02 76.89 35.32 77.56 35.62 78.23 C 35.92 78.90 36.22 79.56 36.52 80.23 C 36.82 80.90 37.12 81.57 37.42 82.24 C 37.49 81.79 37.55 81.33 37.62 80.88 C 37.69 80.42 37.75 79.97 37.82 79.52 C 37.89 79.06 37.95 78.61 38.02 78.15 C 38.09 77.70 38.16 77.24 38.23 76.79 C 38.29 76.33 38.36 75.88 38.43 75.42 Z" />
            </g>
            <g style="fill:rgb(256.0 256.0 256.0);stroke:rgb(0.0 0.0 0.0);stroke-width:0.384;fill-opacity:0">
                <path d="M 120.64 49.14 C 119.87 47.83 119.10 46.52 118.33 45.20 C 117.55 43.89 116.79 42.57 116.02 41.25 C 115.26 39.93 114.49 38.61 113.74 37.29 C 112.98 35.97 112.22 34.64 111.46 33.32 C 110.71 31.99 109.96 30.67 109.21 29.34" />
            </g>
            <g style="fill:rgb(0.0 0.0 0.0);stroke:rgb(0.0 0.0 0.0);stroke-width:0.0;fill-opacity:1.0">
                <path d="M 115.28 36.20 C 115.74 36.14 116.19 36.07 116.65 36.01 C 117.10 35.95 117.56 35.89 118.01 35.83 C 118.47 35.77 118.93 35.70 119.38 35.64 C 119.84 35.58 120.29 35.52 120.75 35.46 C 121.20 35.40 121.66 35.34 122.12 35.28 C 121.45 34.98 120.78 34.67 120.12 34.36 C 119.45 34.05 118.79 33.74 118.12 33.43 C 117.46 33.12 116.79 32.80 116.13 32.49 C 115.46 32.18 114.80 31.87 114.13 31.56 C 113.47 31.25 112.80 30.94 112.14 30.62 C 112.06 31.35 111.99 32.08 111.91 32.81 C 111.83 33.54 111.75 34.27 111.68 35.00 C 111.60 35.73 111.52 36.46 111.44 37.19 C 111.36 37.92 111.28 38.65 111.20 39.38 C 111.13 40.11 111.05 40.84 110.97 41.57 C 111.25 41.21 111.54 40.85 111.83 40.50 C 112.11 40.14 112.40 39.78 112.69 39.42 C 112.98 39.06 113.26 38.70 113.55 38.34 C 113.84 37.99 114.13 37.63 114.42 37.27 C 114.71 36.91 114.99 36.56 115.28 36.20 Z" />
            </g>
            <g style="fill:rgb(256.0 256.0 256.0);stroke:rgb(0.0 0.0 0.0);stroke-width:0.384;fill-opacity:0">
                <path d="M 114.37 55.42 C 110.62 53.28 106.88 51.13 103.14 48.98 C 99.39 46.83 95.65 44.68 91.92 42.53 C 88.18 40.37 84.44 38.21 80.70 36.05 C 76.97 33.89 73.24 31.73 69.50 29.56 C 65.77 27.40 62.04 25.23 58.31 23.06" />
            </g>
            <g style="fill:rgb(0.0 0.0 0.0);stroke:rgb(0.0 0.0 0.0);stroke-width:0.0;fill-opacity:1.0">
                <path d="M 67.02 25.91 C 67.38 25.62 67.74 25.34 68.10 25.06 C 68.46 24.77 68.83 24.49 69.19 24.21 C 69.55 23.92 69.91 23.64 70.27 23.36 C 70.64 23.07 71.00 22.79 71.36 22.51 C 71.73 22.23 72.09 21.95 72.45 21.66 C 71.72 21.73 70.99 21.80 70.26 21.87 C 69.53 21.94 68.80 22.01 68.07 22.08 C 67.34 22.15 66.60 22.22 65.87 22.28 C 65.14 22.35 64.41 22.42 63.68 22.49 C 62.95 22.55 62.22 22.62 61.49 22.69 C 61.79 23.36 62.09 24.03 62.40 24.69 C 62.70 25.36 63.00 26.03 63.30 26.70 C 63.61 27.37 63.91 28.04 64.21 28.71 C 64.51 29.38 64.81 30.05 65.11 30.72 C 65.41 31.39 65.71 32.06 66.01 32.73 C 66.08 32.27 66.14 31.82 66.21 31.36 C 66.28 30.91 66.34 30.45 66.41 30.00 C 66.48 29.54 66.54 29.09 66.61 28.63 C 66.68 28.18 66.75 27.73 66.81 27.27 C 66.88 26.82 66.95 26.36 67.02 25.91 Z" />
            </g>
            <g style="fill:rgb(256.0 256.0 256.0);stroke:rgb(0.0 0.0 0.0);stroke-width:0.384;fill-opacity:0">
                <path d="M 112.07 64.00 C 106.73 64.02 101.39 64.03 96.06 64.04 C 90.72 64.05 85.38 64.05 80.05 64.05 C 74.71 64.06 69.38 64.06 64.04 64.05 C 58.70 64.05 53.37 64.05 48.03 64.04 C 42.69 64.03 37.36 64.02 32.02 64.00" />
            </g>
            <g style="fill:rgb(0.0 0.0 0.0);stroke:rgb(0.0 0.0 0.0);stroke-width:0.0;fill-opacity:1.0">
                <path d="M 40.98 62.11 C 41.16 61.68 41.33 61.25 41.50 60.83 C 41.67 60.40 41.84 59.97 42.01 59.55 C 42.18 59.12 42.35 58.69 42.53 58.27 C 42.70 57.84 42.87 57.42 43.04 56.99 C 43.22 56.56 43.39 56.14 43.56 55.71 C 42.97 56.14 42.37 56.57 41.77 56.99 C 41.17 57.42 40.57 57.84 39.98 58.27 C 39.38 58.69 38.78 59.12 38.18 59.54 C 37.58 59.97 36.98 60.39 36.38 60.82 C 35.78 61.24 35.18 61.66 34.58 62.09 C 35.18 62.51 35.78 62.94 36.38 63.37 C 36.97 63.80 37.57 64.22 38.16 64.65 C 38.76 65.08 39.36 65.51 39.95 65.94 C 40.55 66.37 41.14 66.80 41.74 67.22 C 42.34 67.65 42.93 68.08 43.53 68.51 C 43.36 68.09 43.18 67.66 43.01 67.23 C 42.84 66.81 42.67 66.38 42.50 65.95 C 42.33 65.53 42.16 65.10 42.00 64.67 C 41.83 64.24 41.66 63.82 41.49 63.39 C 41.32 62.96 41.15 62.53 40.98 62.11 Z" />
            </g>
            <g style="fill:rgb(256.0 256.0 256.0);stroke:rgb(0.0 0.0 0.0);stroke-width:0.384;fill-opacity:0">
                <path d="M 83.48 14.48 C 81.95 14.50 80.43 14.51 78.90 14.52 C 77.38 14.53 75.86 14.53 74.33 14.54 C 72.81 14.54 71.28 14.54 69.76 14.54 C 68.23 14.53 66.71 14.53 65.18 14.52 C 63.66 14.51 62.13 14.50 60.61 14.48" />
            </g>
            <g style="fill:rgb(0.0 0.0 0.0);stroke:rgb(0.0 0.0 0.0);stroke-width:0.0;fill-opacity:1.0">
                <path d="M 69.59 12.65 C 69.76 12.23 69.93 11.80 70.11 11.38 C 70.28 10.95 70.46 10.53 70.63 10.10 C 70.81 9.68 70.98 9.25 71.16 8.83 C 71.33 8.40 71.51 7.98 71.68 7.55 C 71.86 7.13 72.03 6.70 72.21 6.28 C 71.61 6.70 71.01 7.12 70.41 7.54 C 69.81 7.97 69.21 8.39 68.60 8.81 C 68.00 9.23 67.40 9.65 66.80 10.07 C 66.20 10.49 65.60 10.91 64.99 11.33 C 64.39 11.75 63.79 12.17 63.19 12.59 C 63.78 13.02 64.37 13.45 64.97 13.88 C 65.56 14.32 66.16 14.75 66.75 15.18 C 67.34 15.61 67.94 16.04 68.53 16.48 C 69.12 16.91 69.71 17.34 70.31 17.78 C 70.90 18.21 71.49 18.64 72.08 19.08 C 71.91 18.65 71.75 18.22 71.58 17.79 C 71.41 17.37 71.25 16.94 71.08 16.51 C 70.91 16.08 70.75 15.65 70.58 15.23 C 70.41 14.80 70.25 14.37 70.08 13.94 C 69.92 13.51 69.75 13.08 69.59 12.65 Z" />
            </g>
            <g style="fill:rgb(256.0 256.0 256.0);stroke:rgb(0.0 0.0 0.0);stroke-width:0.384;fill-opacity:0">
                <path d="M 85.78 23.06 C 82.05 25.23 78.32 27.40 74.58 29.56 C 70.85 31.73 67.12 33.89 63.38 36.05 C 59.65 38.21 55.91 40.37 52.17 42.53 C 48.43 44.68 44.69 46.83 40.95 48.98 C 37.21 51.13 33.47 53.28 29.72 55.42" />
            </g>
            <g style="fill:rgb(0.0 0.0 0.0);stroke:rgb(0.0 0.0 0.0);stroke-width:0.0;fill-opacity:1.0">
                <path d="M 36.54 49.30 C 36.48 48.85 36.41 48.40 36.35 47.94 C 36.28 47.49 36.22 47.03 36.15 46.58 C 36.09 46.12 36.02 45.67 35.96 45.21 C 35.90 44.75 35.83 44.30 35.77 43.84 C 35.71 43.39 35.65 42.93 35.58 42.48 C 35.28 43.15 34.97 43.81 34.67 44.48 C 34.36 45.15 34.06 45.82 33.75 46.48 C 33.45 47.15 33.14 47.82 32.83 48.49 C 32.53 49.15 32.22 49.82 31.91 50.49 C 31.60 51.15 31.30 51.82 30.99 52.49 C 31.72 52.56 32.45 52.63 33.18 52.70 C 33.91 52.77 34.64 52.85 35.37 52.92 C 36.10 52.99 36.83 53.07 37.56 53.14 C 38.29 53.21 39.02 53.29 39.75 53.36 C 40.48 53.44 41.21 53.51 41.94 53.59 C 41.58 53.30 41.22 53.02 40.86 52.73 C 40.50 52.45 40.14 52.16 39.78 51.88 C 39.42 51.59 39.06 51.31 38.70 51.02 C 38.34 50.74 37.98 50.45 37.62 50.16 C 37.26 49.88 36.90 49.59 36.54 49.30 Z" />
            </g>
            <g style="fill:rgb(256.0 256.0 256.0);stroke:rgb(0.0 0.0 0.0);stroke-width:0.384;fill-opacity:0">
                <path d="M 34.88 29.34 C 34.13 30.67 33.38 31.99 32.62 33.32 C 31.87 34.64 31.11 35.97 30.35 37.29 C 29.59 38.61 28.83 39.93 28.06 41.25 C 27.30 42.57 26.53 43.89 25.76 45.20 C 24.99 46.52 24.22 47.83 23.44 49.14" />
            </g>
            <g style="fill:rgb(0.0 0.0 0.0);stroke:rgb(0.0 0.0 0.0);stroke-width:0.0;fill-opacity:1.0">
                <path d="M 26.35 40.45 C 26.07 40.09 25.78 39.73 25.50 39.36 C 25.22 39.00 24.94 38.64 24.66 38.27 C 24.38 37.91 24.10 37.55 23.82 37.18 C 23.54 36.82 23.26 36.45 22.98 36.09 C 22.70 35.72 22.42 35.36 22.14 34.99 C 22.20 35.73 22.27 36.46 22.33 37.19 C 22.40 37.92 22.46 38.65 22.53 39.38 C 22.59 40.11 22.65 40.84 22.72 41.58 C 22.78 42.31 22.84 43.04 22.91 43.77 C 22.97 44.50 23.03 45.23 23.09 45.96 C 23.76 45.67 24.43 45.37 25.10 45.07 C 25.77 44.77 26.45 44.47 27.12 44.17 C 27.79 43.88 28.46 43.58 29.13 43.28 C 29.80 42.99 30.47 42.69 31.14 42.39 C 31.82 42.10 32.49 41.80 33.16 41.51 C 32.70 41.44 32.25 41.37 31.80 41.30 C 31.34 41.23 30.89 41.16 30.43 41.09 C 29.98 41.02 29.53 40.95 29.07 40.88 C 28.62 40.81 28.16 40.74 27.71 40.67 C 27.25 40.60 26.80 40.53 26.35 40.45 Z" />
            </g></svg>